<?xml version="1.0" encoding="UTF-8"?>
<svg version="1.1" xmlns="http://www.w3.org/2000/svg" width="273" height="206">
<path d="M0 0 C90.09 0 180.18 0 273 0 C273 67.98 273 135.96 273 206 C182.91 206 92.82 206 0 206 C0 138.02 0 70.04 0 0 Z " fill="#FDFDFD" transform="translate(0,0)"/>
<path d="M0 0 C0.33 0.66 0.66 1.32 1 2 C1.85271484 2.39251953 1.85271484 2.39251953 2.72265625 2.79296875 C5.82298823 4.43619788 8.0263515 6.81512061 10.4375 9.3125 C10.90220703 9.78623047 11.36691406 10.25996094 11.84570312 10.74804688 C13.23322758 12.16266386 14.61663507 13.58131512 16 15 C17.66171839 16.67171202 19.33024228 18.33630311 21 20 C19.48031735 23.86828312 17.20197271 25.43842183 14 28 C11.58874311 30.60135599 9.2847391 33.28728384 7 36 C7.78130071 38.49552484 7.78130071 38.49552484 9 41 C9.99 41.33 10.98 41.66 12 42 C14.6875 44.4375 14.6875 44.4375 17 47 C17 47.66 17 48.32 17 49 C17.68707031 48.43410156 18.37414062 47.86820313 19.08203125 47.28515625 C19.98308594 46.55167969 20.88414062 45.81820312 21.8125 45.0625 C22.70582031 44.33160156 23.59914062 43.60070312 24.51953125 42.84765625 C27 41 27 41 30 40 C30.309375 39.360625 30.61875 38.72125 30.9375 38.0625 C32.2342338 35.54531085 33.4221737 35.03113052 36 34 C36.721875 34.928125 37.44375 35.85625 38.1875 36.8125 C39.96936353 38.97294643 41.16818528 40.10011028 43.625 41.5625 C46.48342425 43.29259889 47.40580119 45.11525929 49 48 C49.66 48.33 50.32 48.66 51 49 C51 49.66 51 50.32 51 51 C51.99 51.33 52.98 51.66 54 52 C55.1875 54.0625 55.1875 54.0625 56 56 C52.38525339 61.72863352 48.89244124 64.82594614 43.0625 68.1875 C41.67794228 69.01358065 40.29382086 69.84039304 38.91015625 70.66796875 C38.25160645 71.05645996 37.59305664 71.44495117 36.91455078 71.84521484 C34.21283529 73.4747882 31.60784882 75.22470385 29 77 C24.71872325 75.34139399 21.95626884 72.21582144 18.8125 69 C18.26658203 68.4534375 17.72066406 67.906875 17.15820312 67.34375 C13.14074248 63.28148496 13.14074248 63.28148496 12 61 C8.87802522 62.3089572 8.87802522 62.3089572 7 65 C7.556875 65.20625 8.11375 65.4125 8.6875 65.625 C11.27929093 67.16606487 12.7769719 69.05425253 14.62890625 71.40234375 C16.81792365 73.95307912 19.36766927 75.91862222 22 78 C21.8125 79.8125 21.8125 79.8125 21 82 C19.35 82.99 17.7 83.98 16 85 C9.07 78.07 9.07 78.07 2 71 C1.01 71.33 0.02 71.66 -1 72 C-1.495 73.485 -1.495 73.485 -2 75 C-1.34 75 -0.68 75 0 75 C1.55078125 76.57421875 1.55078125 76.57421875 3.3125 78.6875 C6.08499308 81.95300964 8.92600859 85.01915985 12 88 C9.8125 90.0625 9.8125 90.0625 7 92 C4.1875 91.75 4.1875 91.75 2 91 C1.67 90.01 1.34 89.02 1 88 C0.4225 87.731875 -0.155 87.46375 -0.75 87.1875 C-3.07364358 85.96113256 -4.00336155 84.9525537 -5.625 82.9375 C-7.67119397 79.99175287 -7.67119397 79.99175287 -10 79 C-10 79.66 -10 80.32 -10 81 C-10.66 81 -11.32 81 -12 81 C-8.19695186 86.19210472 -4.23841458 91.15609762 0 96 C-2.25 98.0625 -2.25 98.0625 -5 100 C-9.06449137 99.79677543 -11.0531259 97.25335384 -13.75 94.4375 C-14.94882813 93.19806641 -14.94882813 93.19806641 -16.171875 91.93359375 C-17.07679687 90.97646484 -17.07679687 90.97646484 -18 90 C-18.99 90.99 -19.98 91.98 -21 93 C-18.03 96.3 -15.06 99.6 -12 103 C-16.93360161 107.93360161 -16.93360161 107.93360161 -20 108 C-21.921875 106.63671875 -21.921875 106.63671875 -23.75 104.6875 C-24.36359375 104.05199219 -24.9771875 103.41648437 -25.609375 102.76171875 C-27 101 -27 101 -27 99 C-27.99 99 -28.98 99 -30 99 C-30.25652344 99.58910156 -30.51304688 100.17820312 -30.77734375 100.78515625 C-35.73632233 109.76835387 -47.54976771 115.14542702 -57 118 C-71.39949456 122.1316037 -87.29424473 118.96067424 -100.3125 111.875 C-113.42401498 103.61633377 -122.95235507 91.29447671 -126.6875 76.2265625 C-130.16176964 58.22791564 -127.50524022 41.72685201 -118 26 C-115.52672085 22.49311166 -113.01117549 19.0654309 -110 16 C-109.34 16 -108.68 16 -108 16 C-107.690625 15.1646875 -107.690625 15.1646875 -107.375 14.3125 C-105.42316968 11.02987629 -103.05769006 9.29326754 -100 7 C-99.34 7 -98.68 7 -98 7 C-97.9185778 9.22855574 -97.86061921 11.45797655 -97.8125 13.6875 C-97.76029297 15.54955078 -97.76029297 15.54955078 -97.70703125 17.44921875 C-98.14285829 22.73144244 -100.34234521 25.41192017 -104 29 C-111.36343788 40.72194339 -112.81487643 54.2796449 -110.30859375 67.703125 C-108.41451924 74.51862324 -105.78591208 79.8019041 -101 85 C-100.44054687 85.62648438 -99.88109375 86.25296875 -99.3046875 86.8984375 C-93.22979922 93.3547089 -86.29541859 97.51910665 -77.30078125 98.3359375 C-66.31896235 98.44349694 -56.85317089 97.08253672 -48 90 C-45.48145899 87.41963268 -45.48145899 87.41963268 -45 84 C-45.94761773 81.7555494 -45.94761773 81.7555494 -48.5 80 C-51 78 -51 78 -52 76.0625 C-52 73.09201595 -50.66105258 71.39191571 -49 69 C-44.72658086 69.47482435 -42.89680572 72.03077413 -40 75 C-37.83379456 76.29519995 -37.83379456 76.29519995 -36 77 C-35.55169797 73.05097773 -35.55169797 73.05097773 -37.78515625 71.03515625 C-39.30358701 69.71987746 -40.82442607 68.40737382 -42.34765625 67.09765625 C-44 65 -44 65 -43.87109375 62.43359375 C-43 60 -43 60 -41 57 C-37.31930113 58.53643852 -35.01224796 60.78150945 -32.25 63.625 C-31.45078125 64.44226563 -30.6515625 65.25953125 -29.828125 66.1015625 C-29.22484375 66.72804688 -28.6215625 67.35453125 -28 68 C-27.01 67.34 -26.02 66.68 -25 66 C-26.58667578 62.09714233 -29.13350481 59.66479018 -32.125 56.75 C-33.03507812 55.85796875 -33.94515625 54.9659375 -34.8828125 54.046875 C-35.58148438 53.37140625 -36.28015625 52.6959375 -37 52 C-35.68 49.69 -34.36 47.38 -33 45 C-27.06781282 48.22033018 -23.08648075 52.70271014 -19 58 C-17.68 57.34 -16.36 56.68 -15 56 C-19.40843437 50.70987876 -24.07559794 45.81191572 -29 41 C-27.265625 36.1640625 -27.265625 36.1640625 -24.875 34.6875 C-24.25625 34.460625 -23.6375 34.23375 -23 34 C-21.99403703 34.9520721 -20.99538437 35.91187346 -20 36.875 C-19.443125 37.40867188 -18.88625 37.94234375 -18.3125 38.4921875 C-17 40 -17 40 -17 42 C-16.443125 42.226875 -15.88625 42.45375 -15.3125 42.6875 C-12.36753316 44.35896766 -10.31843456 46.55276352 -8 49 C-7.34 47.68 -6.68 46.36 -6 45 C-6.51949219 44.57589844 -7.03898437 44.15179688 -7.57421875 43.71484375 C-12.21069139 39.81540743 -15.60133246 35.9980405 -19 31 C-19.66 30.67 -20.32 30.34 -21 30 C-19.98225102 24.92842021 -17.15377612 21.01563229 -14.4375 16.6875 C-13.93669922 15.85798828 -13.43589844 15.02847656 -12.91992188 14.17382812 C-9.32475941 8.42972871 -5.3361871 4.16993823 0 0 Z " fill="#F7D326" transform="translate(145,70)"/>
<path d="M0 0 C1.19355606 -0.01051392 1.19355606 -0.01051392 2.41122437 -0.02124023 C5.03215788 -0.03879606 7.65200541 -0.02720882 10.27294922 -0.01367188 C12.09707852 -0.01636696 13.92120642 -0.02024952 15.74533081 -0.02526855 C19.56343295 -0.03115986 23.38116024 -0.02261058 27.19921875 -0.00390625 C32.09674365 0.01891558 36.9933933 0.00573766 41.89088631 -0.01819611 C45.65524924 -0.03263649 49.4194039 -0.02805678 53.18377304 -0.01768494 C54.98991881 -0.01501445 56.79608341 -0.01829871 58.60220718 -0.02760315 C61.12333703 -0.03774359 63.64303925 -0.02230569 66.1640625 0 C67.28624176 -0.01214539 67.28624176 -0.01214539 68.43109131 -0.02453613 C71.6863231 0.02891987 73.47890867 0.07629736 75.91218567 2.34291077 C78.21625971 7.15870158 77.51028144 12.96126327 77.50854492 18.21655273 C77.51510879 20.44559499 77.5696078 22.67018296 77.62646484 24.8984375 C77.63526797 26.32225047 77.64122148 27.74608449 77.64404297 29.16992188 C77.66253296 31.10339478 77.66253296 31.10339478 77.68139648 33.07592773 C76.67543566 37.82669147 74.83317919 38.73054967 70.95263672 41.51757812 C69.58009084 43.6673831 69.58009084 43.6673831 68.95263672 45.51757812 C68.29263672 45.51757812 67.63263672 45.51757812 66.95263672 45.51757812 C66.95263672 42.87757812 66.95263672 40.23757812 66.95263672 37.51757812 C67.61263672 37.51757812 68.27263672 37.51757812 68.95263672 37.51757812 C68.45763672 31.57757813 68.45763672 31.57757813 67.95263672 25.51757812 C66.34582031 25.53498047 66.34582031 25.53498047 64.70654297 25.55273438 C63.30940929 25.56211111 61.91227373 25.57121143 60.51513672 25.58007812 C59.80808594 25.58845703 59.10103516 25.59683594 58.37255859 25.60546875 C56.56570112 25.614114 54.75876069 25.56977824 52.95263672 25.51757812 C51.95263672 24.51757812 51.95263672 24.51757812 51.89013672 20.95507812 C51.91076172 19.82070313 51.93138672 18.68632813 51.95263672 17.51757812 C50.52951172 17.54851563 50.52951172 17.54851563 49.07763672 17.58007812 C45.95263672 17.51757812 45.95263672 17.51757812 43.95263672 16.51757812 C43.95263672 14.20757812 43.95263672 11.89757812 43.95263672 9.51757812 C36.36263672 9.51757812 28.77263672 9.51757812 20.95263672 9.51757812 C20.62263672 11.82757813 20.29263672 14.13757813 19.95263672 16.51757812 C18.95263672 17.51757812 18.95263672 17.51757812 15.89013672 17.58007812 C14.92076172 17.55945313 13.95138672 17.53882812 12.95263672 17.51757812 C12.95263672 19.82757813 12.95263672 22.13757813 12.95263672 24.51757812 C11.80923828 24.57816406 10.66583984 24.63875 9.48779297 24.70117188 C7.99689367 24.7855624 6.50600897 24.87021114 5.01513672 24.95507812 C4.26039062 24.99439453 3.50564453 25.03371094 2.72802734 25.07421875 C-0.96680516 24.95795837 -0.96680516 24.95795837 -4.04736328 26.51757812 C-4.17191188 28.15988177 -4.22304852 29.80810089 -4.23486328 31.45507812 C-4.25613281 32.79892578 -4.25613281 32.79892578 -4.27783203 34.16992188 C-4.27931097 36.70872346 -4.27931097 36.70872346 -2.04736328 38.51757812 C-1.81689453 40.86523438 -1.81689453 40.86523438 -1.85986328 43.58007812 C-1.86953125 44.92779297 -1.86953125 44.92779297 -1.87939453 46.30273438 C-2.04736328 48.51757812 -2.04736328 48.51757812 -3.04736328 49.51757812 C-3.28389851 52.04354072 -3.4691002 54.54865019 -3.60986328 57.08007812 C-3.65304688 57.79099609 -3.69623047 58.50191406 -3.74072266 59.234375 C-3.84708105 60.99519724 -3.94775174 62.75636132 -4.04736328 64.51757812 C0.57263672 64.51757812 5.19263672 64.51757812 9.95263672 64.51757812 C9.95263672 58.57757813 9.95263672 52.63757813 9.95263672 46.51757812 C12.42763672 46.02257812 12.42763672 46.02257812 14.95263672 45.51757812 C14.95263672 51.78757813 14.95263672 58.05757812 14.95263672 64.51757812 C16.27263672 64.51757812 17.59263672 64.51757812 18.95263672 64.51757812 C18.95263672 58.24757812 18.95263672 51.97757813 18.95263672 45.51757812 C20.27263672 45.51757812 21.59263672 45.51757812 22.95263672 45.51757812 C22.95263672 51.78757813 22.95263672 58.05757812 22.95263672 64.51757812 C23.94263672 64.51757812 24.93263672 64.51757812 25.95263672 64.51757812 C25.95263672 58.24757812 25.95263672 51.97757813 25.95263672 45.51757812 C27.27263672 45.51757812 28.59263672 45.51757812 29.95263672 45.51757812 C29.95263672 51.78757813 29.95263672 58.05757812 29.95263672 64.51757812 C31.27263672 64.51757812 32.59263672 64.51757812 33.95263672 64.51757812 C33.95263672 58.57757813 33.95263672 52.63757813 33.95263672 46.51757812 C35.93263672 46.02257812 35.93263672 46.02257812 37.95263672 45.51757812 C37.95263672 51.78757813 37.95263672 58.05757812 37.95263672 64.51757812 C39.27263672 64.51757812 40.59263672 64.51757812 41.95263672 64.51757812 C41.95263672 58.24757812 41.95263672 51.97757813 41.95263672 45.51757812 C43.27263672 45.51757812 44.59263672 45.51757812 45.95263672 45.51757812 C45.95263672 51.78757813 45.95263672 58.05757812 45.95263672 64.51757812 C46.94263672 64.51757812 47.93263672 64.51757812 48.95263672 64.51757812 C48.95263672 58.24757812 48.95263672 51.97757813 48.95263672 45.51757812 C50.60263672 45.51757812 52.25263672 45.51757812 53.95263672 45.51757812 C54.09911599 48.87127735 54.18709174 52.22414393 54.26513672 55.58007812 C54.30703125 56.52302734 54.34892578 57.46597656 54.39208984 58.4375 C54.40820312 59.36240234 54.42431641 60.28730469 54.44091797 61.24023438 C54.46710205 62.08336182 54.49328613 62.92648926 54.52026367 63.79516602 C53.65294847 67.95492162 52.41610709 70.91270534 48.95263672 73.51757812 C44.61228725 74.54623278 40.35944434 74.42693293 35.91748047 74.34179688 C34.6466713 74.34137894 33.37586212 74.340961 32.06654358 74.3405304 C29.38097879 74.33214963 26.69967676 74.31044165 24.01489258 74.26538086 C20.57900593 74.20865079 17.145163 74.20052715 13.70888424 74.20878887 C10.42406931 74.21226284 7.13965285 74.18259988 3.85498047 74.15429688 C2.62263168 74.15298264 1.3902829 74.1516684 0.12059021 74.15031433 C-1.02417282 74.12802261 -2.16893585 74.1057309 -3.34838867 74.08276367 C-4.85798912 74.06441719 -4.85798912 74.06441719 -6.39808655 74.04570007 C-9.85322383 73.35693328 -11.01446778 72.38059944 -13.04736328 69.51757812 C-13.56202698 66.5958252 -13.56202698 66.5958252 -13.58081055 63.16015625 C-13.59664688 61.87202026 -13.61248322 60.58388428 -13.62879944 59.25671387 C-13.62495812 57.8540816 -13.61991917 56.45145217 -13.61376953 55.04882812 C-13.61900563 53.60680744 -13.62528206 52.16479018 -13.6325531 50.72277832 C-13.64295405 47.70320498 -13.63840041 44.68410299 -13.6237793 41.66455078 C-13.60658407 37.79704969 -13.63009471 33.93103325 -13.6652689 30.06369781 C-13.68724022 27.08675311 -13.68580245 24.11016391 -13.67750359 21.13316345 C-13.67668403 19.70741649 -13.68354843 18.28164344 -13.69827461 16.85597229 C-13.71571175 14.86238018 -13.69786357 12.868574 -13.6784668 10.875 C-13.67750504 9.74122925 -13.67654327 8.6074585 -13.67555237 7.43933105 C-13.04736328 4.51757812 -13.04736328 4.51757812 -11.01087952 2.15258789 C-7.28540143 0.09719404 -4.14674964 -0.04512461 0 0 Z " fill="#969593" transform="translate(65.04736328125,30.482421875)"/>
<path d="M0 0 C7.59 0 15.18 0 23 0 C23 2.31 23 4.62 23 7 C25.64 7.33 28.28 7.66 31 8 C31.495 11.465 31.495 11.465 32 15 C33.60681641 14.98259766 33.60681641 14.98259766 35.24609375 14.96484375 C36.64322743 14.95546701 38.04036299 14.94636669 39.4375 14.9375 C40.14455078 14.92912109 40.85160156 14.92074219 41.58007812 14.91210938 C43.38693559 14.90346412 45.19387603 14.94779989 47 15 C48 16 48 16 48.09765625 18.72265625 C48.08605469 19.82480469 48.07445312 20.92695312 48.0625 22.0625 C48.05347656 23.16722656 48.04445313 24.27195312 48.03515625 25.41015625 C48.02355469 26.26480469 48.01195312 27.11945313 48 28 C47.34 28 46.68 28 46 28 C46 30.64 46 33.28 46 36 C46.66 36 47.32 36 48 36 C48.33 35.01 48.66 34.02 49 33 C49.99 33 50.98 33 52 33 C51.60560357 39.02176014 48.81477245 42.99865758 45.5625 47.875 C45.05912109 48.65875 44.55574219 49.4425 44.03710938 50.25 C41.24796189 54.50224609 41.24796189 54.50224609 40 56 C39.34 56 38.68 56 38 56 C37.67 55.01 37.34 54.02 37 53 C37 54.65 37 56.3 37 58 C35.68 57.67 34.36 57.34 33 57 C33 50.07 33 43.14 33 36 C31.35 36 29.7 36 28 36 C28 42.27 28 48.54 28 55 C27.01 55 26.02 55 25 55 C25 48.73 25 42.46 25 36 C23.68 36 22.36 36 21 36 C21 42.27 21 48.54 21 55 C19.68 55 18.36 55 17 55 C17 48.73 17 42.46 17 36 C16.01 36.33 15.02 36.66 14 37 C13.67 42.94 13.34 48.88 13 55 C11.68 55 10.36 55 9 55 C9 48.73 9 42.46 9 36 C7.68 36 6.36 36 5 36 C5 42.27 5 48.54 5 55 C4.01 55 3.02 55 2 55 C2 48.73 2 42.46 2 36 C0.68 36 -0.64 36 -2 36 C-2 42.27 -2 48.54 -2 55 C-3.32 55 -4.64 55 -6 55 C-6 48.73 -6 42.46 -6 36 C-7.98 36.495 -7.98 36.495 -10 37 C-10.33 42.94 -10.66 48.88 -11 55 C-15.62 55 -20.24 55 -25 55 C-25.02685095 52.52076199 -25.04676547 50.0418116 -25.0625 47.5625 C-25.07087891 46.85544922 -25.07925781 46.14839844 -25.08789062 45.41992188 C-25.09653588 43.61306441 -25.05220011 41.80612397 -25 40 C-24.505 39.505 -24.505 39.505 -24 39 C-23.8754514 37.35769636 -23.82431476 35.70947724 -23.8125 34.0625 C-23.79832031 33.16660156 -23.78414062 32.27070312 -23.76953125 31.34765625 C-23.76805231 28.80885466 -23.76805231 28.80885466 -26 27 C-26.265625 24.6875 -26.265625 24.6875 -26.25 22 C-26.25515625 21.113125 -26.2603125 20.22625 -26.265625 19.3125 C-26 17 -26 17 -24 15 C-21.25514407 14.85492305 -18.61519457 14.81347577 -15.875 14.875 C-15.12089844 14.88402344 -14.36679688 14.89304687 -13.58984375 14.90234375 C-11.72642746 14.9259313 -9.86317407 14.96180281 -8 15 C-8 12.69 -8 10.38 -8 8 C-6.02 7.67 -4.04 7.34 -2 7 C-1.34 4.69 -0.68 2.38 0 0 Z " fill="#FDFDFD" transform="translate(86,40)"/>
<path d="M0 0 C0 0.66 0 1.32 0 2 C0.66 2 1.32 2 2 2 C3.7143618 3.95927063 5.38405168 5.95880212 7 8 C5.44499019 11.81684226 2.96404505 14.19195732 0 17 C3.5786304 15.34832443 6.74820188 13.21713508 10 11 C10.99 12.98 10.99 12.98 12 15 C9.87801168 17.14888676 7.75260401 19.29418583 5.625 21.4375 C5.02171875 22.04916016 4.4184375 22.66082031 3.796875 23.29101562 C2.92675781 24.1659668 2.92675781 24.1659668 2.0390625 25.05859375 C1.50490723 25.59798584 0.97075195 26.13737793 0.42041016 26.69311523 C-1 28 -1 28 -3 29 C-0.525 31.97 -0.525 31.97 2 35 C-0.36386722 40.42470341 -4.71170975 44.1600869 -8.8125 48.3125 C-9.62009766 49.16134766 -10.42769531 50.01019531 -11.25976562 50.88476562 C-12.44022461 52.08069336 -12.44022461 52.08069336 -13.64453125 53.30078125 C-14.71731323 54.40160034 -14.71731323 54.40160034 -15.81176758 55.5246582 C-18 57 -18 57 -20.5222168 56.79370117 C-22.04936065 56.30451557 -23.56702913 55.78273718 -25.06445312 55.20898438 C-27.14449265 54.76173092 -27.14449265 54.76173092 -28.95117188 56.46289062 C-29.61697266 57.18669922 -30.28277344 57.91050781 -30.96875 58.65625 C-31.70480469 59.43097656 -32.44085938 60.20570312 -33.19921875 61.00390625 C-33.95847656 61.82761719 -34.71773437 62.65132812 -35.5 63.5 C-36.99847117 65.12567586 -38.50839895 66.74088927 -40.03125 68.34375 C-40.69705078 69.06755859 -41.36285156 69.79136719 -42.04882812 70.53710938 C-43.0146582 71.26124023 -43.0146582 71.26124023 -44 72 C-48 71 -48 71 -54 63 C-45.09 54.09 -45.09 54.09 -36 45 C-36.99 43.02 -37.98 41.04 -39 39 C-37.55365727 33.47278933 -31.4779921 29.15108632 -27.5625 25.25 C-26.69044922 24.36183594 -25.81839844 23.47367188 -24.91992188 22.55859375 C-23.66211914 21.29982422 -23.66211914 21.29982422 -22.37890625 20.015625 C-21.6113501 19.24508789 -20.84379395 18.47455078 -20.05297852 17.68066406 C-18 16 -18 16 -15 16 C-14.9175 15.2575 -14.835 14.515 -14.75 13.75 C-13.85190201 10.45697405 -12.61583926 9.14023212 -10 7 C-9.34 7 -8.68 7 -8 7 C-7.731875 6.401875 -7.46375 5.80375 -7.1875 5.1875 C-5.24288471 1.60531394 -4.204264 0 0 0 Z " fill="#BBB9BA" transform="translate(212,41)"/>
<path d="M0 0 C2.8605891 1.35937085 4.85927699 2.64520469 7 5 C5.58226538 8.54433654 4.32387762 9.33806119 1 11 C0.71125 11.5775 0.4225 12.155 0.125 12.75 C-1.32783249 15.65566499 -3.38868204 17.44505087 -5.7578125 19.6328125 C-7.22415409 20.93884003 -7.22415409 20.93884003 -7 23 C-6.484375 23.45375 -5.96875 23.9075 -5.4375 24.375 C-4.963125 24.91125 -4.48875 25.4475 -4 26 C-4.28188577 30.0674426 -6.63870209 31.85273797 -9.54296875 34.484375 C-10.45111328 35.33773437 -11.35925781 36.19109375 -12.29492188 37.0703125 C-14.2218767 38.85544554 -16.1620684 40.6263964 -18.11523438 42.3828125 C-23.05403426 46.59132049 -23.05403426 46.59132049 -25.12915039 52.35131836 C-24.53254232 54.7848856 -24.53254232 54.7848856 -23 58 C-24.0625 60.0625 -24.0625 60.0625 -26 61 C-28.5 60.6875 -28.5 60.6875 -31 60 C-31.99 60 -32.98 60 -34 60 C-34.33 59.34 -34.66 58.68 -35 58 C-34.01 57.505 -34.01 57.505 -33 57 C-34.45459431 55.35086118 -35.91379257 53.70578218 -37.375 52.0625 C-38.18710938 51.14597656 -38.99921875 50.22945312 -39.8359375 49.28515625 C-41.78709347 46.96398605 -41.78709347 46.96398605 -44 46 C-42.51657 42.55323 -40.56949812 40.32656699 -37.91748047 37.69042969 C-36.65639969 36.4295755 -36.65639969 36.4295755 -35.36984253 35.14324951 C-34.46146637 34.24519592 -33.55309021 33.34714233 -32.6171875 32.421875 C-31.68778351 31.4953009 -30.75837952 30.56872681 -29.80081177 29.61407471 C-27.3359615 27.15684211 -24.86516334 24.70567639 -22.39306641 22.2557373 C-19.86909235 19.75226191 -17.35080612 17.24307937 -14.83203125 14.734375 C-9.89356403 9.81732475 -4.948788 4.90666212 0 0 Z " fill="#C1BFC0" transform="translate(196,28)"/>
<path d="M0 0 C4 2 4 2 7 6 C-7.52 20.52 -22.04 35.04 -37 50 C-41.48890152 47.75554924 -44.28878813 45.114128 -47.8125 41.625 C-48.42287109 41.0475 -49.03324219 40.47 -49.66210938 39.875 C-50.23380859 39.31039062 -50.80550781 38.74578125 -51.39453125 38.1640625 C-51.91893799 37.65311035 -52.44334473 37.1421582 -52.98364258 36.61572266 C-54 35 -54 35 -53.7878418 32.92724609 C-53 31 -53 31 -51 29 C-48.90197175 29.34967138 -47.08625052 29.96471366 -45.11962891 30.76928711 C-42.88032971 31.25374579 -42.88032971 31.25374579 -41.01708984 29.55297852 C-40.33855957 28.83553467 -39.6600293 28.11809082 -38.9609375 27.37890625 C-38.21585938 26.60869141 -37.47078125 25.83847656 -36.703125 25.04492188 C-35.55070312 23.81612305 -35.55070312 23.81612305 -34.375 22.5625 C-32.84548567 20.95549366 -31.31184166 19.35240433 -29.7734375 17.75390625 C-29.09716309 17.03533447 -28.42088867 16.3167627 -27.72412109 15.57641602 C-26 14 -26 14 -24 14 C-23.67 13.01 -23.34 12.02 -23 11 C-19.47930015 11.58678331 -17.28700157 12.35649921 -14 14 C-9.38 9.38 -4.76 4.76 0 0 Z " fill="#BFBDBE" transform="translate(237,69)"/>
<path d="M0 0 C1.32 0 2.64 0 4 0 C4 6.27 4 12.54 4 19 C5.32 19 6.64 19 8 19 C8 12.73 8 6.46 8 0 C9.32 0 10.64 0 12 0 C12 6.27 12 12.54 12 19 C12.99 19 13.98 19 15 19 C15 12.73 15 6.46 15 0 C16.32 0 17.64 0 19 0 C19 6.27 19 12.54 19 19 C20.32 19 21.64 19 23 19 C23 13.06 23 7.12 23 1 C24.32 0.67 25.64 0.34 27 0 C27 6.27 27 12.54 27 19 C28.32 19 29.64 19 31 19 C31 12.73 31 6.46 31 0 C32.32 0 33.64 0 35 0 C35 6.27 35 12.54 35 19 C35.99 19 36.98 19 38 19 C38 12.73 38 6.46 38 0 C39.65 0 41.3 0 43 0 C43.14647927 3.35369923 43.23445502 6.7065658 43.3125 10.0625 C43.35439453 11.00544922 43.39628906 11.94839844 43.43945312 12.91992188 C43.45556641 13.84482422 43.47167969 14.76972656 43.48828125 15.72265625 C43.51446533 16.56578369 43.54064941 17.40891113 43.56762695 18.27758789 C42.72053439 22.34035311 41.22434395 25.31826951 38 28 C34.68504025 28.94874116 31.5305241 28.81886748 28.10546875 28.68359375 C27.15811356 28.67368912 26.21075836 28.66378448 25.23469543 28.65357971 C22.21736945 28.61448256 19.2037206 28.52667187 16.1875 28.4375 C14.13872453 28.40237998 12.08989186 28.37044218 10.04101562 28.34179688 C5.02593316 28.26473581 0.0135893 28.14398682 -5 28 C-5 27.67 -5 27.34 -5 27 C-0.05 27 4.9 27 10 27 C9.34 26.01 8.68 25.02 8 24 C8 22.68 8 21.36 8 20 C6.35 20 4.7 20 3 20 C3 18.02 3 16.04 3 14 C2.34 14 1.68 14 1 14 C1 15.98 1 17.96 1 20 C0.67 20 0.34 20 0 20 C0 13.4 0 6.8 0 0 Z " fill="#8E8D8B" transform="translate(76,76)"/>
<path d="M0 0 C0.0814222 2.22855574 0.13938079 4.45797655 0.1875 6.6875 C0.23970703 8.54955078 0.23970703 8.54955078 0.29296875 10.44921875 C-0.14285829 15.73144244 -2.34234521 18.41192017 -6 22 C-11.79041851 31.21783535 -13.46695205 41.30227903 -14 52 C-14.33 51.34 -14.66 50.68 -15 50 C-15.66 50 -16.32 50 -17 50 C-17.33 48.02 -17.66 46.04 -18 44 C-18.78375 43.855625 -19.5675 43.71125 -20.375 43.5625 C-23 43 -23 43 -25 42 C-25 41.34 -25 40.68 -25 40 C-25.99 40 -26.98 40 -28 40 C-26.02539082 28.1523449 -20.44130162 17.59339714 -12 9 C-11.34 9 -10.68 9 -10 9 C-9.690625 8.1646875 -9.690625 8.1646875 -9.375 7.3125 C-7.41177961 4.01072025 -4.06489071 0 0 0 Z " fill="#EBCA2A" transform="translate(47,77)"/>
<path d="M0 0 C0 0.66 0 1.32 0 2 C0.66 2 1.32 2 2 2 C3.7143618 3.95927063 5.38405168 5.95880212 7 8 C5.44499019 11.81684226 2.96404505 14.19195732 0 17 C3.5786304 15.34832443 6.74820188 13.21713508 10 11 C10.66 12.32 11.32 13.64 12 15 C9.95508106 17.20659628 7.89193564 19.38885045 5.8125 21.5625 C5.23435547 22.19091797 4.65621094 22.81933594 4.06054688 23.46679688 C-0.26398858 27.93792675 -0.26398858 27.93792675 -3.59375 28.21875 C-6.78914852 26.6003014 -8.8494526 24.53190993 -11.3125 21.9375 C-12.19550781 21.01839844 -13.07851562 20.09929688 -13.98828125 19.15234375 C-14.65214844 18.44207031 -15.31601563 17.73179688 -16 17 C-14.65761391 12.6252596 -13.61099438 9.93393293 -10 7 C-9.34 7 -8.68 7 -8 7 C-7.731875 6.401875 -7.46375 5.80375 -7.1875 5.1875 C-5.24288471 1.60531394 -4.204264 0 0 0 Z " fill="#F7F6F7" transform="translate(212,41)"/>
<path d="M0 0 C1.32 0.66 2.64 1.32 4 2 C2.18050086 7.82239724 -1.72698794 12.72698794 -6 17 C-6.103125 17.639375 -6.20625 18.27875 -6.3125 18.9375 C-7.31033558 21.93100673 -9.32623447 22.40032551 -12 24 C-13.51864514 25.36332347 -14.99304996 26.77712262 -16.42578125 28.23046875 C-17.22177734 29.03291016 -18.01777344 29.83535156 -18.83789062 30.66210938 C-20.06282227 31.91217773 -20.06282227 31.91217773 -21.3125 33.1875 C-22.14845703 34.03248047 -22.98441406 34.87746094 -23.84570312 35.74804688 C-25.90173598 37.82757725 -27.95294296 39.91163963 -30 42 C-29.690625 42.763125 -29.38125 43.52625 -29.0625 44.3125 C-28.32106407 46.18789677 -27.63771783 48.08684652 -27 50 C-32.61 55.61 -38.22 61.22 -44 67 C-44.33 66.01 -44.66 65.02 -45 64 C-43.68683805 61.3736761 -42.44598174 59.39819798 -40.25 57.4375 C-39.8375 56.963125 -39.425 56.48875 -39 56 C-39.22757731 53.83700789 -39.22757731 53.83700789 -40 52 C-39.01 52 -38.02 52 -37 52 C-34.8817921 51.76230794 -34.8817921 51.76230794 -33 51 C-31.74458443 47.23375329 -32.62938042 45.62811066 -34 42 C-33.04577148 41.08504761 -33.04577148 41.08504761 -32.07226562 40.15161133 C-29.71396179 37.87861244 -27.36740882 35.5946995 -25.02783203 33.30249023 C-24.01374147 32.31351697 -22.99520504 31.32908098 -21.97216797 30.34936523 C-20.50070723 28.93867911 -19.04610773 27.51234505 -17.59375 26.08203125 C-16.71396484 25.22843018 -15.83417969 24.3748291 -14.92773438 23.49536133 C-12.76469703 21.1492831 -12.76469703 21.1492831 -12.71289062 18.18237305 C-12.80763672 17.46218994 -12.90238281 16.74200684 -13 16 C-13.99 15.67 -14.98 15.34 -16 15 C-14.51098162 11.07440609 -12.5211935 10.1046214 -9 8 C-7.36494128 6.64048377 -5.75986788 5.24405882 -4.1875 3.8125 C-3.39730469 3.09707031 -2.60710937 2.38164063 -1.79296875 1.64453125 C-1.20128906 1.10183594 -0.60960937 0.55914062 0 0 Z " fill="#FBFBFB" transform="translate(204,36)"/>
<path d="M0 0 C0.0814222 2.22855574 0.13938079 4.45797655 0.1875 6.6875 C0.23970703 8.54955078 0.23970703 8.54955078 0.29296875 10.44921875 C-0.01779456 14.21567013 -0.70290571 16.04028236 -3 19 C-5.1875 19.8125 -5.1875 19.8125 -7 20 C-7 19.34 -7 18.68 -7 18 C-9.64 17.34 -12.28 16.68 -15 16 C-15.28875 16.598125 -15.5775 17.19625 -15.875 17.8125 C-17 20 -17 20 -19 23 C-19.66 23 -20.32 23 -21 23 C-19.65686815 19.21908383 -17.97035316 16.34348084 -15.5 13.1875 C-14.8915625 12.39730469 -14.283125 11.60710937 -13.65625 10.79296875 C-13.1096875 10.20128906 -12.563125 9.60960938 -12 9 C-11.34 9 -10.68 9 -10 9 C-9.79375 8.443125 -9.5875 7.88625 -9.375 7.3125 C-7.41177961 4.01072025 -4.06489071 0 0 0 Z " fill="#FBD723" transform="translate(47,77)"/>
<path d="M0 0 C0.65355469 0.56267578 0.65355469 0.56267578 1.3203125 1.13671875 C5.18607599 4.45859777 9.07657648 7.74642927 13 11 C16.24983135 9.91215032 16.24983135 9.91215032 19 8 C19.66 8 20.32 8 21 8 C21.33 10.64 21.66 13.28 22 16 C21.01 15.67 20.02 15.34 19 15 C19.66 15 20.32 15 21 15 C21 14.01 21 13.02 21 12 C19.68 12.33 18.36 12.66 17 13 C17 13.66 17 14.32 17 15 C13.27569643 15.69289369 9.78916254 16.11144596 6 16 C5.87625 15.360625 5.7525 14.72125 5.625 14.0625 C5.41875 13.381875 5.2125 12.70125 5 12 C4.34 11.67 3.68 11.34 3 11 C3 9.35 3 7.7 3 6 C2.34 6 1.68 6 1 6 C0.67 6.66 0.34 7.32 0 8 C-0.66 7.67 -1.32 7.34 -2 7 C-1.125 2.25 -1.125 2.25 0 0 Z " fill="#FAD823" transform="translate(105,127)"/>
<path d="M0 0 C3.33510304 1.11170101 4.10364173 1.99468142 6.3125 4.625 C7.22128906 5.69621094 7.22128906 5.69621094 8.1484375 6.7890625 C8.75945312 7.51867187 9.37046875 8.24828125 10 9 C11.14453013 10.33445216 12.29025017 11.66788527 13.4375 13 C14.283125 13.99 15.12875 14.98 16 16 C15.34 16.66 14.68 17.32 14 18 C15.32 18.99 16.64 19.98 18 21 C15.69 21.33 13.38 21.66 11 22 C10.91234375 21.2471875 10.8246875 20.494375 10.734375 19.71875 C9.85819033 16.4750025 8.84499876 15.5681945 6.25 13.5 C2.97086049 10.80473605 -0.04655715 8.04573794 -3 5 C-1.125 1.125 -1.125 1.125 0 0 Z " fill="#F8F8F3" transform="translate(155,130)"/>
<path d="M0 0 C1.32 0 2.64 0 4 0 C4 6.27 4 12.54 4 19 C4.99 19 5.98 19 7 19 C6.34 20.32 5.68 21.64 5 23 C4.67 22.67 4.34 22.34 4 22 C3.01 23.32 2.02 24.64 1 26 C1 25.34 1 24.68 1 24 C0.01 23.67 -0.98 23.34 -2 23 C-1.67 22.01 -1.34 21.02 -1 20 C-1.99 19.67 -2.98 19.34 -4 19 C-2.68 19 -1.36 19 0 19 C0 12.73 0 6.46 0 0 Z " fill="#9B9A99" transform="translate(107,76)"/>
<path d="M0 0 C4.28342007 0.47593556 6.15573389 2.94761685 9 6 C9.928125 6.928125 10.85625 7.85625 11.8125 8.8125 C12.8953125 9.8953125 12.8953125 9.8953125 14 11 C6.62854401 13.47386732 6.62854401 13.47386732 2.87890625 12.3828125 C0.29407189 10.99635249 -1.63932323 9.62116554 -3.125 7.0625 C-2.94789064 4.14019561 -1.6446225 2.3682564 0 0 Z " fill="#E9CA2E" transform="translate(96,139)"/>
<path d="M0 0 C0 0.66 0 1.32 0 2 C0.66 2 1.32 2 2 2 C0.55053895 5.33973757 -1.28172388 7.52304659 -3.875 10.0625 C-4.55304688 10.73410156 -5.23109375 11.40570313 -5.9296875 12.09765625 C-9.75932495 15.61658727 -9.75932495 15.61658727 -12 17 C-12.99 16.67 -13.98 16.34 -15 16 C-14.52354792 11.71193127 -13.34097516 9.73352513 -10 7 C-9.34 7 -8.68 7 -8 7 C-7.731875 6.401875 -7.46375 5.80375 -7.1875 5.1875 C-5.24288471 1.60531394 -4.204264 0 0 0 Z " fill="#C3C1C2" transform="translate(212,41)"/>
<path d="M0 0 C1.32 0.66 2.64 1.32 4 2 C2.55053895 5.33973757 0.71827612 7.52304659 -1.875 10.0625 C-2.55304688 10.73410156 -3.23109375 11.40570313 -3.9296875 12.09765625 C-9.26488706 17 -9.26488706 17 -12 17 C-12.7265625 14.75390625 -12.7265625 14.75390625 -13 12 C-11.5234375 9.90234375 -11.5234375 9.90234375 -9.375 7.9375 C-8.64023438 7.25558594 -7.90546875 6.57367188 -7.1484375 5.87109375 C-4.8172147 3.84081062 -2.47370115 1.85527586 0 0 Z " fill="#C0BFBF" transform="translate(204,36)"/>
<path d="M0 0 C4.98557872 2.2070989 8.65511618 5.73661261 12 10 C12.90236512 12.54476514 13 14.2642475 13 17 C9.02031425 15.66182195 6.61251238 13.99662286 3.6875 11 C2.99011719 10.29875 2.29273438 9.5975 1.57421875 8.875 C0 7 0 7 0 5 C-0.66 5 -1.32 5 -2 5 C-1.125 1.125 -1.125 1.125 0 0 Z " fill="#FAF9F1" transform="translate(145,140)"/>
<path d="M0 0 C1.32 0.66 2.64 1.32 4 2 C2.56438314 5.18706942 0.79733671 7.62169105 -1.5 10.25 C-2.1084375 10.95640625 -2.716875 11.6628125 -3.34375 12.390625 C-5 14 -5 14 -7 14 C-7.33 14.99 -7.66 15.98 -8 17 C-9.32 16.34 -10.64 15.68 -12 15 C-12 12 -12 12 -9.375 9.08203125 C-8.25750594 7.98449244 -7.13214357 6.89492105 -6 5.8125 C-5.42765625 5.25369141 -4.8553125 4.69488281 -4.265625 4.11914062 C-2.85037212 2.73926907 -1.42602845 1.36873266 0 0 Z " fill="#C1BFC0" transform="translate(215,47)"/>
<path d="M0 0 C0.99 0.33 1.98 0.66 3 1 C3.33 1.99 3.66 2.98 4 4 C-0.29 8.29 -4.58 12.58 -9 17 C-10.32 16.34 -11.64 15.68 -13 15 C-11.38989473 10.92623969 -8.46177729 8.23492931 -5.375 5.25 C-4.859375 4.74339844 -4.34375 4.23679687 -3.8125 3.71484375 C-2.54616661 2.47196098 -1.2736856 1.23534724 0 0 Z " fill="#BFBDBE" transform="translate(232,63)"/>
<path d="M0 0 C0.99 0.66 1.98 1.32 3 2 C1.38989473 6.07376031 -1.53822271 8.76507069 -4.625 11.75 C-5.140625 12.25660156 -5.65625 12.76320313 -6.1875 13.28515625 C-7.45383339 14.52803902 -8.7263144 15.76465276 -10 17 C-11.32 16.34 -12.64 15.68 -14 15 C-12.47925254 11.39952764 -10.33755655 9.09993237 -7.5625 6.375 C-6.78003906 5.59898438 -5.99757812 4.82296875 -5.19140625 4.0234375 C-3 2 -3 2 0 0 Z " fill="#BAB9B9" transform="translate(221,52)"/>
<path d="M0 0 C5.48158738 2.97571886 9.42453092 6.91907026 13 12 C9.89448334 12 8.64738916 11.4606285 6 10 C5.67 10.66 5.34 11.32 5 12 C1.32579134 11.69381595 0.21864487 11.24228216 -2.3125 8.4375 C-2.869375 7.633125 -3.42625 6.82875 -4 6 C-2.68 4.02 -1.36 2.04 0 0 Z " fill="#EED031" transform="translate(112,115)"/>
<path d="M0 0 C1.32 0.66 2.64 1.32 4 2 C2.41043716 5.81316478 -0.00760697 8.372784 -2.875 11.3125 C-3.73867187 12.21613281 -4.60234375 13.11976562 -5.4921875 14.05078125 C-8 16 -8 16 -10.3203125 15.79296875 C-10.87460938 15.53128906 -11.42890625 15.26960938 -12 15 C-12 12 -12 12 -9.375 9.08203125 C-8.25750594 7.98449244 -7.13214357 6.89492105 -6 5.8125 C-5.42765625 5.25369141 -4.8553125 4.69488281 -4.265625 4.11914062 C-2.85037212 2.73926907 -1.42602845 1.36873266 0 0 Z " fill="#C0BFBF" transform="translate(226,58)"/>
<path d="M0 0 C1.65 0 3.3 0 5 0 C5.66 1.65 6.32 3.3 7 5 C8.32 4.34 9.64 3.68 11 3 C11.33 4.32 11.66 5.64 12 7 C12.66 7 13.32 7 14 7 C14 6.01 14 5.02 14 4 C13.34 3.67 12.68 3.34 12 3 C14.35964273 3.40683495 15.85934088 3.89814339 17.8125 5.3125 C19 7 19 7 19 9 C17.62308038 11.75383923 15.63279958 12.51483101 13 14 C10.83031809 11.85714108 8.66416525 9.71091768 6.5 7.5625 C5.87996094 6.95083984 5.25992188 6.33917969 4.62109375 5.70898438 C4.03457031 5.12568359 3.44804687 4.54238281 2.84375 3.94140625 C2.02680664 3.13231812 2.02680664 3.13231812 1.19335938 2.30688477 C0 1 0 1 0 0 Z " fill="#E7C939" transform="translate(148,141)"/>
<path d="M0 0 C0.66 0.33 1.32 0.66 2 1 C1.9071875 1.72574219 1.814375 2.45148438 1.71875 3.19921875 C2.10509664 7.04658735 3.70847361 8.21482961 6.5 10.8125 C7.3353125 11.60269531 8.170625 12.39289063 9.03125 13.20703125 C9.6809375 13.79871094 10.330625 14.39039063 11 15 C10.34 16.32 9.68 17.64 9 19 C5.16921531 17.43930994 2.85856238 14.93185886 0 12 C-0.99 11.34 -1.98 10.68 -3 10 C-2.21302675 6.58978257 -1.12880057 3.31114834 0 0 Z " fill="#F1F2F0" transform="translate(100,129)"/>
<path d="M0 0 C2.97353044 0.86727971 4.1280856 1.48310938 6 3.875 C5.34 5.525 4.68 7.175 4 8.875 C2.63875 8.8440625 2.63875 8.8440625 1.25 8.8125 C-1.85167706 8.7473158 -1.85167706 8.7473158 -4.1875 9.4375 C-6 9.875 -6 9.875 -9 8.875 C-9 8.215 -9 7.555 -9 6.875 C-8.34 6.875 -7.68 6.875 -7 6.875 C-6.896875 6.276875 -6.79375 5.67875 -6.6875 5.0625 C-5.43760492 1.0855611 -4.26740443 -0.17780852 0 0 Z " fill="#FAD722" transform="translate(35,93.125)"/>
<path d="M0 0 C1.11375 0.2475 1.11375 0.2475 2.25 0.5 C5.19006578 1.11925696 5.19006578 1.11925696 9 1 C11.359375 2.96875 11.359375 2.96875 13.75 5.5 C14.54921875 6.3353125 15.3484375 7.170625 16.171875 8.03125 C16.77515625 8.6809375 17.3784375 9.330625 18 10 C17.01 11.32 16.02 12.64 15 14 C11.6029867 12.86766223 10.63443805 11.43224725 8.47265625 8.6953125 C6.33745183 6.23727876 3.87733332 4.24789764 1.35546875 2.19921875 C0.90816406 1.80347656 0.46085937 1.40773438 0 1 C0 0.67 0 0.34 0 0 Z " fill="#F5F6F4" transform="translate(113,115)"/>
<path d="M0 0 C0.66 0 1.32 0 2 0 C2 0.99 2 1.98 2 3 C1.34 3 0.68 3 0 3 C0 3.99 0 4.98 0 6 C0.33 5.34 0.66 4.68 1 4 C7.0546875 3.8046875 7.0546875 3.8046875 9 4 C9.66 4.66 10.32 5.32 11 6 C10.25 7.9375 10.25 7.9375 9 10 C6.875 10.75 6.875 10.75 5 11 C5 10.34 5 9.68 5 9 C2.36 8.34 -0.28 7.68 -3 7 C-3.28875 7.598125 -3.5775 8.19625 -3.875 8.8125 C-5 11 -5 11 -7 14 C-7.66 14 -8.32 14 -9 14 C-7.65686815 10.21908383 -5.97035316 7.34348084 -3.5 4.1875 C-2.8915625 3.39730469 -2.283125 2.60710937 -1.65625 1.79296875 C-0.83640625 0.90544922 -0.83640625 0.90544922 0 0 Z " fill="#DDC031" transform="translate(35,86)"/>
<path d="M0 0 C0.65355469 0.56267578 0.65355469 0.56267578 1.3203125 1.13671875 C5.18607599 4.45859777 9.07657648 7.74642927 13 11 C12 13 12 13 9.2421875 13.93359375 C6 14 6 14 3.4453125 11.91015625 C2.29675781 10.50056641 2.29675781 10.50056641 1.125 9.0625 C0.34382813 8.12535156 -0.43734375 7.18820313 -1.2421875 6.22265625 C-1.82226562 5.48917969 -2.40234375 4.75570312 -3 4 C-2.01 2.68 -1.02 1.36 0 0 Z " fill="#FAFBF9" transform="translate(126,159)"/>
<path d="M0 0 C4.95 0.99 4.95 0.99 10 2 C10 1.34 10 0.68 10 0 C12.88437779 1.29299694 14.87219421 2.65941363 17 5 C14.8125 7.0625 14.8125 7.0625 12 9 C9.1875 8.75 9.1875 8.75 7 8 C6.67 7.01 6.34 6.02 6 5 C4.67532254 4.3162955 3.34136367 3.65035814 2 3 C1.34 2.01 0.68 1.02 0 0 Z " fill="#FBD624" transform="translate(140,153)"/>
<path d="M0 0 C0.99 0 1.98 0 3 0 C3 0.66 3 1.32 3 2 C5.64 2.33 8.28 2.66 11 3 C11 3.99 11 4.98 11 6 C10.01 6 9.02 6 8 6 C8 7.65 8 9.3 8 11 C6.68 10.34 5.36 9.68 4 9 C3.67 9.99 3.34 10.98 3 12 C2.34 12 1.68 12 1 12 C0.34 10.02 -0.32 8.04 -1 6 C-0.34 5.34 0.32 4.68 1 4 C0.6814823 1.89179203 0.6814823 1.89179203 0 0 Z " fill="#FAD822" transform="translate(19,117)"/>
<path d="M0 0 C0.33 0.66 0.66 1.32 1 2 C1.66 2.33 2.32 2.66 3 3 C2.67 3.99 2.34 4.98 2 6 C1.34 6 0.68 6 0 6 C1.86566488 9.62793998 1.86566488 9.62793998 5 12 C5 12.66 5 13.32 5 14 C4.34 14.66 3.68 15.32 3 16 C3.20625 16.61875 3.4125 17.2375 3.625 17.875 C3.74875 18.57625 3.8725 19.2775 4 20 C2.0625 22.25 2.0625 22.25 0 24 C-1.21944331 20.19649826 -1.13286912 16.53246937 -1.125 12.5625 C-1.12757812 11.26441406 -1.13015625 9.96632813 -1.1328125 8.62890625 C-1.02191827 5.59888459 -0.71254666 2.93501362 0 0 Z " fill="#FBD827" transform="translate(18,117)"/>
<path d="M0 0 C0.99 0 1.98 0 3 0 C3 6.6 3 13.2 3 20 C2.34 19.34 1.68 18.68 1 18 C0.34 18.66 -0.32 19.32 -1 20 C-1.02888514 16.85418577 -1.04675923 13.70840531 -1.0625 10.5625 C-1.07087891 9.66466797 -1.07925781 8.76683594 -1.08789062 7.84179688 C-1.09111328 6.98779297 -1.09433594 6.13378906 -1.09765625 5.25390625 C-1.10551147 4.06776733 -1.10551147 4.06776733 -1.11352539 2.85766602 C-1 1 -1 1 0 0 Z " fill="#6F6F6E" transform="translate(100,76)"/>
<path d="M0 0 C1.32 0 2.64 0 4 0 C4 6.6 4 13.2 4 20 C3.67 20 3.34 20 3 20 C3 18.02 3 16.04 3 14 C2.34 14 1.68 14 1 14 C1 15.98 1 17.96 1 20 C0.67 20 0.34 20 0 20 C0 13.4 0 6.8 0 0 Z " fill="#797877" transform="translate(76,76)"/>
<path d="M0 0 C1.32 0 2.64 0 4 0 C4 6.27 4 12.54 4 19 C3.67 19 3.34 19 3 19 C3 17.35 3 15.7 3 14 C2.34 14 1.68 14 1 14 C1 15.65 1 17.3 1 19 C0.67 19 0.34 19 0 19 C0 12.73 0 6.46 0 0 Z " fill="#7D7D7D" transform="translate(91,76)"/>
<path d="M0 0 C3.05156911 0.33906323 4.33482151 1.26041673 6.8125 3.1875 C9 6 9 6 8.8125 9.3125 C8.544375 10.199375 8.27625 11.08625 8 12 C4.125 10.125 4.125 10.125 3 9 C2.34 9.66 1.68 10.32 1 11 C0.06934867 8.39417629 -0.14917407 7.35801776 0.9375 4.75 C1.4634375 3.88375 1.4634375 3.88375 2 3 C1.34 3 0.68 3 0 3 C0 2.01 0 1.02 0 0 Z " fill="#EECD2E" transform="translate(127,112)"/>
<path d="M0 0 C1.4540625 0.495 1.4540625 0.495 2.9375 1 C5.62149574 2.05173363 5.62149574 2.05173363 7 2 C7.66 2.33 8.32 2.66 9 3 C8.59316505 5.35964273 8.10185661 6.85934088 6.6875 8.8125 C5 10 5 10 2.8125 9.6875 C2.214375 9.460625 1.61625 9.23375 1 9 C0.29925156 5.846632 0 3.27275026 0 0 Z " fill="#BFBEBF" transform="translate(163,103)"/>
<path d="M0 0 C3.26675996 1.08891999 3.95793848 1.84851256 6.0625 4.4375 C7.66078674 6.38553905 9.21573944 8.21573944 11 10 C7.875 10.9375 7.875 10.9375 4 11 C1.4948049 9.02192838 -0.34971259 6.72629898 -2 4 C-2 3.34 -2 2.68 -2 2 C-1.34 2 -0.68 2 0 2 C0 1.34 0 0.68 0 0 Z " fill="#F6F6F5" transform="translate(135,149)"/>
<path d="M0 0 C0.33 0 0.66 0 1 0 C1.33 2.64 1.66 5.28 2 8 C2.639375 8.12375 3.27875 8.2475 3.9375 8.375 C4.618125 8.58125 5.29875 8.7875 6 9 C6.33 9.66 6.66 10.32 7 11 C6.21625 11.5775 5.4325 12.155 4.625 12.75 C2.19952756 14.82897637 1.14305583 16.09040333 0 19 C-0.66 19 -1.32 19 -2 19 C-2 16.36 -2 13.72 -2 11 C-1.34 11 -0.68 11 0 11 C0 7.37 0 3.74 0 0 Z " fill="#91908F" transform="translate(134,57)"/>
<path d="M0 0 C2.31 1.98 4.62 3.96 7 6 C4.75 8.5625 4.75 8.5625 2 11 C-0.125 11.0625 -0.125 11.0625 -2 10 C-3.75 7.9375 -3.75 7.9375 -5 6 C-3.02 5.67 -1.04 5.34 1 5 C0.67 3.35 0.34 1.7 0 0 Z " fill="#D6BB2F" transform="translate(138,159)"/>
<path d="M0 0 C0.33 0.66 0.66 1.32 1 2 C0.0625 4.625 0.0625 4.625 -1 7 C0.65 6.67 2.3 6.34 4 6 C4 6.66 4 7.32 4 8 C4.66 8.33 5.32 8.66 6 9 C5.34 9 4.68 9 4 9 C4 9.66 4 10.32 4 11 C4.99 11.33 5.98 11.66 7 12 C7 13.65 7 15.3 7 17 C5.8944811 16.06409496 4.79064547 15.12620142 3.6875 14.1875 C3.07261719 13.66542969 2.45773438 13.14335937 1.82421875 12.60546875 C-1.70735262 9.49738345 -1.70735262 9.49738345 -3 8 C-2.73897585 4.51967799 -1.96602468 2.94903702 0 0 Z " fill="#D3B521" transform="translate(104,127)"/>
<path d="M0 0 C1.32 0 2.64 0 4 0 C4 6.27 4 12.54 4 19 C3.67 19 3.34 19 3 19 C3 16.69 3 14.38 3 12 C2.01 12.33 1.02 12.66 0 13 C0 8.71 0 4.42 0 0 Z " fill="#6B6B6A" transform="translate(84,76)"/>
<path d="M0 0 C0.33 0.66 0.66 1.32 1 2 C3.02463255 2.65213292 3.02463255 2.65213292 5 3 C5 4.32 5 5.64 5 7 C3.824375 7.12375 3.824375 7.12375 2.625 7.25 C-0.14749104 7.72806339 -0.14749104 7.72806339 -1.3125 10.0625 C-1.539375 10.701875 -1.76625 11.34125 -2 12 C-3.625 9.75 -3.625 9.75 -5 7 C-4.10237015 3.94805852 -2.32535032 2.11395484 0 0 Z " fill="#AEACAD" transform="translate(178,73)"/>
<path d="M0 0 C3.34998521 1.11666174 3.79340222 1.74694925 5.6875 4.5625 C6.12449219 5.20316406 6.56148437 5.84382812 7.01171875 6.50390625 C7.33785156 6.99761719 7.66398438 7.49132812 8 8 C5.1875 10.0625 5.1875 10.0625 2 12 C1.01 11.67 0.02 11.34 -1 11 C-0.34 10.67 0.32 10.34 1 10 C0.7525 8.9171875 0.7525 8.9171875 0.5 7.8125 C0.02412881 5.13572455 -0.077443 2.71050513 0 0 Z " fill="#E6C829" transform="translate(125,166)"/>
<path d="M0 0 C0.66 0.33 1.32 0.66 2 1 C1.01 2.485 1.01 2.485 0 4 C-0.07905064 6.33199388 -0.08798769 8.66832622 0 11 C-0.66 11 -1.32 11 -2 11 C-2.33 12.32 -2.66 13.64 -3 15 C-3.99 14.67 -4.98 14.34 -6 14 C-5.71517632 12.58194169 -5.42181856 11.16559621 -5.125 9.75 C-4.96257813 8.96109375 -4.80015625 8.1721875 -4.6328125 7.359375 C-4.00106448 5.00396882 -3.24959008 3.09190636 -2 1 C-1.34 0.67 -0.68 0.34 0 0 Z " fill="#F6F9F5" transform="translate(40,102)"/>
<path d="M0 0 C1.32 0.99 2.64 1.98 4 3 C3.01 3 2.02 3 1 3 C1 4.32 1 5.64 1 7 C1.99 7.33 2.98 7.66 4 8 C2.68 8.99 1.36 9.98 0 11 C-0.66 9.35 -1.32 7.7 -2 6 C-2.33 6.66 -2.66 7.32 -3 8 C-3.66 8 -4.32 8 -5 8 C-5.33 6.35 -5.66 4.7 -6 3 C-4.02 2.01 -2.04 1.02 0 0 Z " fill="#FBD820" transform="translate(142,104)"/>
<path d="M0 0 C0.33 0.66 0.66 1.32 1 2 C1.598125 2.268125 2.19625 2.53625 2.8125 2.8125 C5.65198628 4.35393541 7.10192934 6.42404696 9 9 C4.62297367 7.77443263 0.30322683 6.46939453 -4 5 C-4.33 5.66 -4.66 6.32 -5 7 C-4.60196439 4.11424181 -4.20990931 3.17810487 -1.9375 1.25 C-1.298125 0.8375 -0.65875 0.425 0 0 Z " fill="#E1C52D" transform="translate(145,70)"/>
<path d="M0 0 C0.53625 0.680625 1.0725 1.36125 1.625 2.0625 C4.35076561 5.43384168 7.16483178 8.72065543 10 12 C9.34 12 8.68 12 8 12 C7.67 12.66 7.34 13.32 7 14 C6.67 12.68 6.34 11.36 6 10 C5.34 10 4.68 10 4 10 C4 9.01 4 8.02 4 7 C3.34 7 2.68 7 2 7 C2 7.99 2 8.98 2 10 C1.34 10 0.68 10 0 10 C-0.33 9.01 -0.66 8.02 -1 7 C-0.67 6.34 -0.34 5.68 0 5 C-0.66 4.67 -1.32 4.34 -2 4 C-1.34 4 -0.68 4 0 4 C0 2.68 0 1.36 0 0 Z " fill="#F3F3F2" transform="translate(26,163)"/>
<path d="M0 0 C4.52698636 1.39910413 6.75155982 3.5615174 9.8125 7.125 C10.99779297 8.49011719 10.99779297 8.49011719 12.20703125 9.8828125 C12.79871094 10.58148438 13.39039063 11.28015625 14 12 C13.01 12.33 12.02 12.66 11 13 C9.16052663 11.21427748 7.32842259 9.42197551 5.5 7.625 C4.71302734 6.86316406 4.71302734 6.86316406 3.91015625 6.0859375 C2.56846819 4.76167396 1.28004185 3.38394135 0 2 C0 1.34 0 0.68 0 0 Z " fill="#F6F8F7" transform="translate(150,73)"/>
<path d="M0 0 C2.35964273 0.40683495 3.85934088 0.89814339 5.8125 2.3125 C7 4 7 4 6.9375 6.0625 C5.73944098 8.53848865 4.51570636 9.02617818 2 10 C1.34 8.02 0.68 6.04 0 4 C0.66 4 1.32 4 2 4 C2 3.01 2 2.02 2 1 C1.34 0.67 0.68 0.34 0 0 Z " fill="#E5C733" transform="translate(160,144)"/>
<path d="M0 0 C2.88437779 1.29299694 4.87219421 2.65941363 7 5 C6.34 6.32 5.68 7.64 5 9 C3.68 7.68 2.36 6.36 1 5 C0.01 5.33 -0.98 5.66 -2 6 C-1.125 1.125 -1.125 1.125 0 0 Z " fill="#EDCD2C" transform="translate(120,104)"/>
<path d="M0 0 C1.32 0 2.64 0 4 0 C4 3.3 4 6.6 4 10 C3.01 10.495 3.01 10.495 2 11 C2 10.34 2 9.68 2 9 C1.34 9 0.68 9 0 9 C0 6.03 0 3.06 0 0 Z " fill="#80807F" transform="translate(107,76)"/>
<path d="M0 0 C0.33 0.66 0.66 1.32 1 2 C1.99 1.67 2.98 1.34 4 1 C4 3.64 4 6.28 4 9 C3.01 9.495 3.01 9.495 2 10 C1.53348793 12.12576782 1.53348793 12.12576782 1.375 14.5625 C1.30023438 15.38878906 1.22546875 16.21507813 1.1484375 17.06640625 C1.09945312 17.70449219 1.05046875 18.34257813 1 19 C0.67 19 0.34 19 0 19 C0 12.73 0 6.46 0 0 Z " fill="#A9A9A8" transform="translate(114,76)"/>
<path d="M0 0 C1 3 1 3 0.0625 5.1875 C-0.288125 5.785625 -0.63875 6.38375 -1 7 C-1.66 7 -2.32 7 -3 7 C-4.2065625 7.2784375 -4.2065625 7.2784375 -5.4375 7.5625 C-8 8 -8 8 -11 7 C-7.37 4.69 -3.74 2.38 0 0 Z " fill="#F6F6F2" transform="translate(191,135)"/>
<path d="M0 0 C0.99 0 1.98 0 3 0 C3.66 0.66 4.32 1.32 5 2 C4.34 2 3.68 2 3 2 C3.04125 2.928125 3.0825 3.85625 3.125 4.8125 C3 8 3 8 1 11 C-1.0625 9.25 -1.0625 9.25 -3 7 C-2.81367553 3.92564622 -1.75085936 2.62628904 0 0 Z " fill="#EFCF2E" transform="translate(127,93)"/>
<path d="M0 0 C0 4.62 0 9.24 0 14 C-2.76223278 11.23776722 -2.57856291 8.79293383 -3 5 C-3.99 4.67 -4.98 4.34 -6 4 C-2.25 0 -2.25 0 0 0 Z " fill="#C1AB37" transform="translate(47,77)"/>
<path d="M0 0 C8.68572311 7.28399258 8.68572311 7.28399258 12 11 C12 11.99 12 12.98 12 14 C11.34 14 10.68 14 10 14 C10 13.34 10 12.68 10 12 C9.01 11.67 8.02 11.34 7 11 C6.690625 10.195625 6.38125 9.39125 6.0625 8.5625 C4.78153761 5.47312011 3.88186557 5.39445108 1 4 C0.37890625 1.94140625 0.37890625 1.94140625 0 0 Z " fill="#F4F4F2" transform="translate(186,107)"/>
<path d="M0 0 C1.65 1.32 3.3 2.64 5 4 C4.34 5.32 3.68 6.64 3 8 C0.11562221 6.70700306 -1.87219421 5.34058637 -4 3 C-2.68 2.67 -1.36 2.34 0 2 C0 1.34 0 0.68 0 0 Z " fill="#ECEDEC" transform="translate(106,140)"/>
<path d="M0 0 C0.99 0.33 1.98 0.66 3 1 C2.67 1.99 2.34 2.98 2 4 C2.66 4 3.32 4 4 4 C4 3.34 4 2.68 4 2 C4.99 2.33 5.98 2.66 7 3 C6.67 4.65 6.34 6.3 6 8 C4.35 8.33 2.7 8.66 1 9 C0.33164813 5.9088726 0 3.16770671 0 0 Z " fill="#DBBC28" transform="translate(119,129)"/>
<path d="M0 0 C0.66 0.66 1.32 1.32 2 2 C2.99 1.34 3.98 0.68 5 0 C6.32 0.99 7.64 1.98 9 3 C8.67 3.66 8.34 4.32 8 5 C4.9375 5.625 4.9375 5.625 2 6 C0.68 4.35 -0.64 2.7 -2 1 C-1.34 0.67 -0.68 0.34 0 0 Z " fill="#EEEFED" transform="translate(130,167)"/>
<path d="M0 0 C0.99 0.33 1.98 0.66 3 1 C3.75 2.9375 3.75 2.9375 4 5 C3.67 5.66 3.34 6.32 3 7 C0.83125748 6.49396008 -0.99967627 6.00016187 -3 5 C-1.125 1.125 -1.125 1.125 0 0 Z " fill="#EDEDE9" transform="translate(155,130)"/>
<path d="M0 0 C0.99 0 1.98 0 3 0 C3 3.3 3 6.6 3 10 C2.34 10 1.68 10 1 10 C-1 8 -1 8 -1.1875 4.4375 C-1 1 -1 1 0 0 Z " fill="#969695" transform="translate(100,76)"/>
<path d="M0 0 C4.8 3.32307692 4.8 3.32307692 5.8125 6.75 C5.874375 7.4925 5.93625 8.235 6 9 C4 7.625 4 7.625 2 6 C2 5.34 2 4.68 2 4 C1.01 4 0.02 4 -1 4 C-1.33 4.66 -1.66 5.32 -2 6 C-2.99 6 -3.98 6 -5 6 C-5 5.01 -5 4.02 -5 3 C-4.360625 2.87625 -3.72125 2.7525 -3.0625 2.625 C-2.0415625 2.315625 -2.0415625 2.315625 -1 2 C-0.67 1.34 -0.34 0.68 0 0 Z " fill="#D7BC36" transform="translate(116,165)"/>
<path d="M0 0 C0.86625 0.7115625 0.86625 0.7115625 1.75 1.4375 C3.95042563 2.96557335 5.45214446 3.38500039 8 4 C8.33 4.66 8.66 5.32 9 6 C8.34 6 7.68 6 7 6 C7 6.66 7 7.32 7 8 C5.68 8 4.36 8 3 8 C0.82542733 5.12645755 0 3.63563409 0 0 Z " fill="#F9F9F4" transform="translate(121,174)"/>
<path d="M0 0 C0.33 0.66 0.66 1.32 1 2 C1.66 2.33 2.32 2.66 3 3 C2.67 3.99 2.34 4.98 2 6 C1.34 6 0.68 6 0 6 C0.391875 6.9075 0.78375 7.815 1.1875 8.75 C1.455625 9.8225 1.72375 10.895 2 12 C0.55078125 14.203125 0.55078125 14.203125 -1 16 C-1.02725341 14.2709226 -1.04650987 12.54171824 -1.0625 10.8125 C-1.07410156 9.84957031 -1.08570312 8.88664062 -1.09765625 7.89453125 C-1.00486622 5.14423487 -0.62111685 2.67520409 0 0 Z " fill="#B49E44" transform="translate(18,117)"/>
<path d="M0 0 C3.057952 1.73559438 5.63379989 3.38472619 8 6 C7.67 6.66 7.34 7.32 7 8 C4.18127263 7.61121002 3.22804402 7.29189635 1.4375 5 C0.963125 4.34 0.48875 3.68 0 3 C-0.99 2.67 -1.98 2.34 -3 2 C-2.01 1.34 -1.02 0.68 0 0 Z " fill="#F5F5F1" transform="translate(93,147)"/>
<path d="M0 0 C0.66 0.33 1.32 0.66 2 1 C2.33 1.99 2.66 2.98 3 4 C5.00016466 5.20882096 5.00016466 5.20882096 7 6 C6.01 6.33 5.02 6.66 4 7 C3.67 7.66 3.34 8.32 3 9 C1.35 7.02 -0.3 5.04 -2 3 C-1.34 2.01 -0.68 1.02 0 0 Z " fill="#C7AB2A" transform="translate(110,118)"/>
<path d="M0 0 C1.65 0.33 3.3 0.66 5 1 C5.33 1.99 5.66 2.98 6 4 C3.69 5.65 1.38 7.3 -1 9 C-1 6 -1 6 0 4 C0 2.68 0 1.36 0 0 Z " fill="#F6F4F3" transform="translate(41,73)"/>
<path d="M0 0 C2.31 1.98 4.62 3.96 7 6 C6.67 6.99 6.34 7.98 6 9 C3.5625 7.875 3.5625 7.875 1 6 C0.1875 2.8125 0.1875 2.8125 0 0 Z " fill="#E2C83F" transform="translate(154,79)"/>
<path d="M0 0 C0.33 0.99 0.66 1.98 1 3 C-2.48322065 4.9904118 -4.99709697 5 -9 5 C-9 4.01 -9 3.02 -9 2 C-6.03 1.34 -3.06 0.68 0 0 Z " fill="#F4F3F2" transform="translate(92,186)"/>
<path d="M0 0 C0.99 0 1.98 0 3 0 C3.66 0.99 4.32 1.98 5 3 C5.99 3.33 6.98 3.66 8 4 C8 5.65 8 7.3 8 9 C6.84775972 8.07038578 5.70340824 7.1309875 4.5625 6.1875 C3.60537109 5.40439453 3.60537109 5.40439453 2.62890625 4.60546875 C1 3 1 3 0 0 Z " fill="#D7B92C" transform="translate(162,135)"/>
<path d="M0 0 C3 1 3 1 4.1875 3.0625 C4.455625 3.701875 4.72375 4.34125 5 5 C4.01 5.33 3.02 5.66 2 6 C1.67 6.66 1.34 7.32 1 8 C-2 4.25 -2 4.25 -2 2 C-1.34 2 -0.68 2 0 2 C0 1.34 0 0.68 0 0 Z " fill="#EBE9E5" transform="translate(135,149)"/>
<path d="M0 0 C0.99 0 1.98 0 3 0 C2.25 4.75 2.25 4.75 0 7 C-1.32 7 -2.64 7 -4 7 C-4.33 6.34 -4.66 5.68 -5 5 C-4.01 5 -3.02 5 -2 5 C-1.34 3.35 -0.68 1.7 0 0 Z " fill="#F6F8F3" transform="translate(93,137)"/>
<path d="M0 0 C2.31 0.33 4.62 0.66 7 1 C7 1.66 7 2.32 7 3 C7.66 3.66 8.32 4.32 9 5 C8.01 6.485 8.01 6.485 7 8 C6.67 7.01 6.34 6.02 6 5 C4.67532254 4.3162955 3.34136367 3.65035814 2 3 C1.34 2.01 0.68 1.02 0 0 Z " fill="#DFC844" transform="translate(140,153)"/>
<path d="M0 0 C0 1.66666667 0 3.33333333 0 5 C0.66 5.66 1.32 6.32 2 7 C1.01 7.66 0.02 8.32 -1 9 C-2.32 7.68 -3.64 6.36 -5 5 C-3.35 3.35 -1.7 1.7 0 0 Z " fill="#C7C5C6" transform="translate(199,40)"/>
<path d="M0 0 C-1.98 1.32 -3.96 2.64 -6 4 C-7.32 3.34 -8.64 2.68 -10 2 C-6.19832777 -0.53444815 -4.31588991 -1.33941411 0 0 Z " fill="#BDA42E" transform="translate(180,143)"/>
<path d="M0 0 C1.65 0 3.3 0 5 0 C5.28875 0.78375 5.5775 1.5675 5.875 2.375 C6.84912254 5.09671632 6.84912254 5.09671632 9 7 C6 7 6 7 4.39453125 5.46875 C3.87246094 4.8190625 3.35039062 4.169375 2.8125 3.5 C2.28269531 2.8503125 1.75289062 2.200625 1.20703125 1.53125 C0.80871094 1.0259375 0.41039062 0.520625 0 0 Z " fill="#D6BC49" transform="translate(148,141)"/>
<path d="M0 0 C0.99 0 1.98 0 3 0 C3 0.66 3 1.32 3 2 C2.34 2 1.68 2 1 2 C0.71125 2.598125 0.4225 3.19625 0.125 3.8125 C-1 6 -1 6 -3 9 C-3.66 9 -4.32 9 -5 9 C-3.76067171 5.56801397 -2.49698489 2.69674368 0 0 Z " fill="#D1B939" transform="translate(31,91)"/>
<path d="M0 0 C0 3.66842255 -0.79029126 5.10451959 -3 8 C-5.6875 8.8125 -5.6875 8.8125 -8 9 C-7.04270084 7.87411986 -6.08412105 6.7493285 -5.125 5.625 C-4.59132812 4.99851562 -4.05765625 4.37203125 -3.5078125 3.7265625 C-2.38567993 2.44163349 -1.20628025 1.20628025 0 0 Z " fill="#BBB9BA" transform="translate(193,31)"/>
<path d="M0 0 C0.33 0 0.66 0 1 0 C1.08075665 2.29109597 1.13907731 4.58299267 1.1875 6.875 C1.22230469 8.15117188 1.25710937 9.42734375 1.29296875 10.7421875 C1.19628906 11.81726563 1.09960938 12.89234375 1 14 C0.01 14.66 -0.98 15.32 -2 16 C-2 14.35 -2 12.7 -2 11 C-1.34 11 -0.68 11 0 11 C0 7.37 0 3.74 0 0 Z " fill="#797877" transform="translate(134,57)"/>
<path d="M0 0 C0.33 0.66 0.66 1.32 1 2 C-1.97 2.66 -4.94 3.32 -8 4 C-8 3.34 -8 2.68 -8 2 C-4.77208445 -0.1519437 -3.71599191 -0.20086443 0 0 Z " fill="#F5F5F5" transform="translate(88,164)"/>
<path d="M0 0 C0.66 0.33 1.32 0.66 2 1 C1.40138258 3.35171131 0.73075648 5.6859378 0 8 C-0.99 8.495 -0.99 8.495 -2 9 C-1.979375 8.05125 -1.95875 7.1025 -1.9375 6.125 C-1.77448174 3.09333717 -1.77448174 3.09333717 -3 1 C-2.01 0.67 -1.02 0.34 0 0 Z " fill="#FCD82A" transform="translate(29,153)"/>
<path d="M0 0 C2.5 1.8125 2.5 1.8125 5 4 C5 4.99 5 5.98 5 7 C3.68 7.33 2.36 7.66 1 8 C0.67 7.34 0.34 6.68 0 6 C0.66 5.67 1.32 5.34 2 5 C1.34 4.67 0.68 4.34 0 4 C0 2.68 0 1.36 0 0 Z " fill="#F7F8F9" transform="translate(101,135)"/>
<path d="M0 0 C3.7952131 1.49097658 5.61042731 3.75700849 8 7 C5.03 6.505 5.03 6.505 2 6 C1.34 4.02 0.68 2.04 0 0 Z " fill="#DCC147" transform="translate(146,72)"/>
<path d="M0 0 C0.66 0.33 1.32 0.66 2 1 C1.67 2.98 1.34 4.96 1 7 C-0.65 6.67 -2.3 6.34 -4 6 C-3.0022242 3.00667261 -2.2477975 2.05233685 0 0 Z " fill="#F8F7F6" transform="translate(62,161)"/>
<path d="M0 0 C0.99 0.66 1.98 1.32 3 2 C2.67 2.66 2.34 3.32 2 4 C2.66 4.33 3.32 4.66 4 5 C3.01 5.66 2.02 6.32 1 7 C0.34 6.01 -0.32 5.02 -1 4 C-1.99 4 -2.98 4 -4 4 C-2.68 2.68 -1.36 1.36 0 0 Z " fill="#C9C8C9" transform="translate(202,48)"/>
<path d="M0 0 C1.32 0.99 2.64 1.98 4 3 C2.25 6.875 2.25 6.875 0 8 C0 5.36 0 2.72 0 0 Z " fill="#F4F5F1" transform="translate(117,131)"/>
<path d="M0 0 C0.99 0.66 1.98 1.32 3 2 C2.67 4.64 2.34 7.28 2 10 C1.34 10 0.68 10 0 10 C-0.66 8.68 -1.32 7.36 -2 6 C-1.34 6 -0.68 6 0 6 C0 4.02 0 2.04 0 0 Z " fill="#E5CB49" transform="translate(131,98)"/>
<path d="M0 0 C2.625 -0.1875 2.625 -0.1875 5 0 C5.33 1.98 5.66 3.96 6 6 C5.4121875 5.2575 5.4121875 5.2575 4.8125 4.5 C2.44908285 2.54406857 0.98564997 2.75792027 -2 3 C-1.34 2.01 -0.68 1.02 0 0 Z " fill="#EBCB33" transform="translate(39,82)"/>
<path d="M0 0 C0.99 0.33 1.98 0.66 3 1 C3 3.64 3 6.28 3 9 C2.01 8.34 1.02 7.68 0 7 C-0.1875 3.375 -0.1875 3.375 0 0 Z " fill="#959595" transform="translate(84,76)"/>
<path d="M0 0 C1.32 0.66 2.64 1.32 4 2 C3.67 2.99 3.34 3.98 3 5 C2.34 5 1.68 5 1 5 C1 4.34 1 3.68 1 3 C-0.32 3.33 -1.64 3.66 -3 4 C-2.01 2.68 -1.02 1.36 0 0 Z " fill="#BCBCBC" transform="translate(226,58)"/>
<path d="M0 0 C2.64 0.33 5.28 0.66 8 1 C6.25 2.5625 6.25 2.5625 4 4 C1.75 3.6875 1.75 3.6875 0 3 C0 2.01 0 1.02 0 0 Z " fill="#F1F3F1" transform="translate(54,186)"/>
<path d="M0 0 C0.66 0.33 1.32 0.66 2 1 C0.35 2.65 -1.3 4.3 -3 6 C-3 3 -3 3 -1.5 1.3125 C-0.7575 0.6628125 -0.7575 0.6628125 0 0 Z M-6 5 C-5.34 5 -4.68 5 -4 5 C-3.67 5.99 -3.34 6.98 -3 8 C-4.32 7.34 -5.64 6.68 -7 6 C-6.67 5.67 -6.34 5.34 -6 5 Z " fill="#F6F5F2" transform="translate(112,173)"/>
<path d="M0 0 C0 3 0 3 -1 6 C-0.34 6.33 0.32 6.66 1 7 C0.01 7.33 -0.98 7.66 -2 8 C-2 7.34 -2 6.68 -2 6 C-3.32 5.67 -4.64 5.34 -6 5 C-4.02 3.35 -2.04 1.7 0 0 Z " fill="#CCB322" transform="translate(99,158)"/>
<path d="M0 0 C1.32 0.66 2.64 1.32 4 2 C4.33 1.34 4.66 0.68 5 0 C5 0.99 5 1.98 5 3 C3.25 4.75 3.25 4.75 1 6 C-1.25 5.6875 -1.25 5.6875 -3 5 C-2.01 5 -1.02 5 0 5 C0 3.35 0 1.7 0 0 Z " fill="#C0AB43" transform="translate(151,156)"/>
<path d="M0 0 C1.875 0.3125 1.875 0.3125 4 1 C4.66 1.99 5.32 2.98 6 4 C4.1875 4.625 4.1875 4.625 2 5 C1.01 4.34 0.02 3.68 -1 3 C-0.67 2.01 -0.34 1.02 0 0 Z " fill="#D1BB49" transform="translate(96,139)"/>
<path d="M0 0 C0.77321882 2.98241547 1.41196203 5.97580475 2 9 C1.01 9.495 1.01 9.495 0 10 C-0.66 7.03 -1.32 4.06 -2 1 C-1.34 0.67 -0.68 0.34 0 0 Z " fill="#F4F5F4" transform="translate(35,132)"/>
<path d="M0 0 C1.32 0 2.64 0 4 0 C3.6875 1.875 3.6875 1.875 3 4 C2.01 4.66 1.02 5.32 0 6 C0 4.02 0 2.04 0 0 Z " fill="#D4B92E" transform="translate(123,156)"/>
<path d="M0 0 C0.66 0.66 1.32 1.32 2 2 C1.01 2.99 0.02 3.98 -1 5 C-1.99 4.67 -2.98 4.34 -4 4 C-4 3.01 -4 2.02 -4 1 C-2.125 0.375 -2.125 0.375 0 0 Z " fill="#E9E8E6" transform="translate(129,124)"/>
<path d="M0 0 C2.475 0.495 2.475 0.495 5 1 C3.25 4.875 3.25 4.875 1 6 C0 3 0 3 0 0 Z " fill="#ECECEC" transform="translate(135,114)"/>
<path d="M0 0 C1.32 0.66 2.64 1.32 4 2 C3.01 2.33 2.02 2.66 1 3 C0.26676204 5.01508358 0.26676204 5.01508358 0 7 C-0.33 6.01 -0.66 5.02 -1 4 C-1.66 3.67 -2.32 3.34 -3 3 C-2.01 2.01 -1.02 1.02 0 0 Z " fill="#C3B151" transform="translate(179,104)"/>
<path d="M0 0 C0.33 0 0.66 0 1 0 C1.1875 2.875 1.1875 2.875 1 6 C0.01 6.66 -0.98 7.32 -2 8 C-2.125 5.125 -2.125 5.125 -2 2 C-1.34 1.34 -0.68 0.68 0 0 Z " fill="#858482" transform="translate(117,87)"/>
<path d="M0 0 C3.41021743 0.78697325 6.68885166 1.87119943 10 3 C10 3.33 10 3.66 10 4 C6.7 3.67 3.4 3.34 0 3 C0 2.01 0 1.02 0 0 Z " fill="#C6B050" transform="translate(68,186)"/>
<path d="M0 0 C1.65 0 3.3 0 5 0 C5 0.66 5 1.32 5 2 C3.02 2.99 1.04 3.98 -1 5 C-0.67 3.35 -0.34 1.7 0 0 Z " fill="#E6C52E" transform="translate(100,178)"/>
<path d="M0 0 C0.66 0.33 1.32 0.66 2 1 C2 3.64 2 6.28 2 9 C-1 7 -1 7 -1.6875 4.375 C-1.790625 3.59125 -1.89375 2.8075 -2 2 C-1.34 2 -0.68 2 0 2 C0 1.34 0 0.68 0 0 Z " fill="#F9D719" transform="translate(26,155)"/>
<path d="M0 0 C1.34887762 2.69775524 0.70300484 4.11768018 0 7 C-0.33 7.99 -0.66 8.98 -1 10 C-1.66 9.34 -2.32 8.68 -3 8 C-2.64700993 4.55834679 -1.95418308 2.93127462 0 0 Z " fill="#907D2C" transform="translate(104,127)"/>
<path d="M0 0 C0.33 0 0.66 0 1 0 C1 2.31 1 4.62 1 7 C-0.65 6.67 -2.3 6.34 -4 6 C-3.525625 5.566875 -3.05125 5.13375 -2.5625 4.6875 C-0.76313043 2.97690387 -0.76313043 2.97690387 0 0 Z " fill="#838281" transform="translate(77,48)"/>
</svg>
