<?xml version="1.0" encoding="UTF-8"?>
<svg version="1.1" xmlns="http://www.w3.org/2000/svg" width="273" height="206">
<path d="M0 0 C90.09 0 180.18 0 273 0 C273 67.98 273 135.96 273 206 C182.91 206 92.82 206 0 206 C0 138.02 0 70.04 0 0 Z " fill="#FDFDFD" transform="translate(0,0)"/>
<path d="M0 0 C2.75565157 1.16046133 4.32079948 2.77722732 6.41113281 4.91235352 C7.60996094 6.12568359 7.60996094 6.12568359 8.83300781 7.36352539 C9.65800781 8.21366211 10.48300781 9.06379883 11.33300781 9.93969727 C12.17347656 10.79370117 13.01394531 11.64770508 13.87988281 12.52758789 C15.95448379 14.63755138 18.02176613 16.75419435 20.08300781 18.87719727 C18.80126063 21.69597738 17.47293166 23.72961222 15.26269531 25.89282227 C14.72773438 26.42133789 14.19277344 26.94985352 13.64160156 27.49438477 C13.08601562 28.03321289 12.53042969 28.57204102 11.95800781 29.12719727 C11.11302734 29.95864258 11.11302734 29.95864258 10.25097656 30.80688477 C8.86614754 32.16824211 7.47517577 33.52334586 6.08300781 34.87719727 C6.95108382 35.94536172 7.82795564 37.00637812 8.70800781 38.06469727 C9.19527344 38.65637695 9.68253906 39.24805664 10.18457031 39.85766602 C12.63333508 42.46262771 15.30610156 44.62533632 18.08300781 46.87719727 C19.42105469 45.61262695 19.42105469 45.61262695 20.78613281 44.32250977 C21.96819764 43.21549667 23.15050191 42.1087392 24.33300781 41.00219727 C25.21279297 40.16881836 25.21279297 40.16881836 26.11035156 39.31860352 C26.68398437 38.78364258 27.25761719 38.24868164 27.84863281 37.69750977 C28.37231445 37.20524902 28.89599609 36.71298828 29.43554688 36.20581055 C31.08300781 34.87719727 31.08300781 34.87719727 35.08300781 32.87719727 C44.98300781 42.77719727 44.98300781 42.77719727 55.08300781 52.87719727 C51.93320033 60.75171598 46.49014164 64.18063564 39.58300781 68.56469727 C38.83664063 69.0500293 38.09027344 69.53536133 37.32128906 70.03540039 C33.67544959 72.37454519 30.21219934 74.47622157 26.08300781 75.87719727 C23.57496063 73.42695968 21.07800021 70.96572129 18.58300781 68.50219727 C17.86757812 67.80352539 17.15214844 67.10485352 16.41503906 66.38500977 C15.73828125 65.71469727 15.06152344 65.04438477 14.36425781 64.35375977 C13.42163086 63.42684326 13.42163086 63.42684326 12.45996094 62.48120117 C11.08300781 60.87719727 11.08300781 60.87719727 11.08300781 58.87719727 C9.76300781 60.19719727 8.44300781 61.51719727 7.08300781 62.87719727 C7.53740234 63.32111816 7.99179688 63.76503906 8.45996094 64.22241211 C10.50614299 66.22714586 12.54463071 68.23952943 14.58300781 70.25219727 C15.2984375 70.95086914 16.01386719 71.64954102 16.75097656 72.36938477 C17.42773438 73.03969727 18.10449219 73.71000977 18.80175781 74.40063477 C19.43017578 75.0185791 20.05859375 75.63652344 20.70605469 76.27319336 C22.08300781 77.87719727 22.08300781 77.87719727 22.08300781 79.87719727 C17.94021096 82.9842949 17.94021096 82.9842949 15.09960938 82.62939453 C12.84142662 81.7870869 11.73608703 80.8776595 10.06738281 79.15454102 C9.53886719 78.61635742 9.01035156 78.07817383 8.46582031 77.52368164 C7.92699219 76.9597168 7.38816406 76.39575195 6.83300781 75.81469727 C6.27871094 75.24686523 5.72441406 74.6790332 5.15332031 74.09399414 C3.78966567 72.69507257 2.43540365 71.28700613 1.08300781 69.87719727 C0.09300781 70.20719727 -0.89699219 70.53719727 -1.91699219 70.87719727 C0.09094098 75.85087079 4.13846581 78.93226748 7.96582031 82.53735352 C10.08300781 84.87719727 10.08300781 84.87719727 10.08300781 87.87719727 C6.14756941 90.9380938 6.14756941 90.9380938 3.23925781 90.77172852 C0.06347295 89.45423806 -1.79675976 87.2784915 -4.16699219 84.81469727 C-5.50503906 83.43604492 -5.50503906 83.43604492 -6.87011719 82.02954102 C-7.54558594 81.31926758 -8.22105469 80.60899414 -8.91699219 79.87719727 C-10.40199219 80.37219727 -10.40199219 80.37219727 -11.91699219 80.87719727 C-8.01905261 86.27839095 -8.01905261 86.27839095 -3.54199219 91.18969727 C-1.91699219 92.87719727 -1.91699219 92.87719727 -1.91699219 95.87719727 C-3.66699219 97.62719727 -3.66699219 97.62719727 -5.91699219 98.87719727 C-9.99675548 98.57467244 -11.93965999 96.16235294 -14.66699219 93.31469727 C-15.86582031 92.07526367 -15.86582031 92.07526367 -17.08886719 90.81079102 C-17.99378906 89.85366211 -17.99378906 89.85366211 -18.91699219 88.87719727 C-19.90699219 89.86719727 -20.89699219 90.85719727 -21.91699219 91.87719727 C-18.94699219 95.17719727 -15.97699219 98.47719727 -12.91699219 101.87719727 C-17.90527344 106.86547852 -17.90527344 106.86547852 -20.91699219 106.87719727 C-22.98730469 105.26000977 -22.98730469 105.26000977 -25.04199219 103.00219727 C-27.67062049 100.03027371 -27.67062049 100.03027371 -30.91699219 97.87719727 C-31.17867188 98.46887695 -31.44035156 99.06055664 -31.70996094 99.67016602 C-36.21536451 107.90820167 -47.21237508 113.63153546 -55.78808594 116.50390625 C-70.71452107 120.62899655 -86.38803431 118.18779805 -100.03808594 111.30297852 C-113.70035366 103.17383448 -123.29179686 90.62874819 -127.44433594 75.25610352 C-130.82433265 58.24438452 -129.09081064 41.82900082 -119.91699219 26.87719727 C-117.72096687 23.75327393 -115.3688093 20.80303235 -112.91699219 17.87719727 C-112.39878906 17.2365332 -111.88058594 16.59586914 -111.34667969 15.93579102 C-108.18080961 12.09862389 -104.90220262 8.86610509 -100.91699219 5.87719727 C-100.25699219 5.87719727 -99.59699219 5.87719727 -98.91699219 5.87719727 C-97.88202178 19.52347377 -97.88202178 19.52347377 -101.60449219 24.06469727 C-102.42240234 24.96381836 -102.42240234 24.96381836 -103.25683594 25.88110352 C-106.40496406 29.66626463 -108.11033851 34.3343797 -109.91699219 38.87719727 C-110.28566406 39.80145508 -110.65433594 40.72571289 -111.03417969 41.67797852 C-114.05398116 52.62141836 -112.57374017 65.66983635 -107.91699219 75.87719727 C-106.18680685 78.8489277 -104.23602093 81.34582373 -101.91699219 83.87719727 C-101.39234375 84.49208008 -100.86769531 85.10696289 -100.32714844 85.74047852 C-94.75038339 91.86835917 -86.88433325 96.52971125 -78.51074219 97.11547852 C-66.81060884 97.43441634 -57.93931342 95.62049158 -48.37792969 88.43969727 C-46.57766818 86.51428389 -46.01013296 85.52435606 -45.91699219 82.87719727 C-47.32497151 80.42613843 -47.32497151 80.42613843 -49.35449219 78.12719727 C-50.01320313 77.32797852 -50.67191406 76.52875977 -51.35058594 75.70532227 C-51.8675 75.10204102 -52.38441406 74.49875977 -52.91699219 73.87719727 C-51.92699219 71.89719727 -50.93699219 69.91719727 -49.91699219 67.87719727 C-45.37551629 68.57435365 -43.59839536 71.14358362 -40.69824219 74.47875977 C-40.11042969 74.94024414 -39.52261719 75.40172852 -38.91699219 75.87719727 C-36.72762252 75.68507539 -36.72762252 75.68507539 -34.91699219 74.87719727 C-35.37589844 74.35770508 -35.83480469 73.83821289 -36.30761719 73.30297852 C-39.60081827 69.5600756 -42.84651407 65.80740925 -45.91699219 61.87719727 C-44.59699219 59.89719727 -43.27699219 57.91719727 -41.91699219 55.87719727 C-38.23629331 57.41363579 -35.92924015 59.65870672 -33.16699219 62.50219727 C-32.36777344 63.31946289 -31.56855469 64.13672852 -30.74511719 64.97875977 C-30.14183594 65.60524414 -29.53855469 66.23172852 -28.91699219 66.87719727 C-27.92699219 66.21719727 -26.93699219 65.55719727 -25.91699219 64.87719727 C-27.50366797 60.9743396 -30.050497 58.54198745 -33.04199219 55.62719727 C-33.95207031 54.73516602 -34.86214844 53.84313477 -35.79980469 52.92407227 C-36.49847656 52.24860352 -37.19714844 51.57313477 -37.91699219 50.87719727 C-36.59699219 48.56719727 -35.27699219 46.25719727 -33.91699219 43.87719727 C-28.93110378 45.87386091 -25.90953092 49.98289057 -22.35449219 53.85766602 C-20.14473098 56.16928449 -20.14473098 56.16928449 -17.60449219 55.67797852 C-17.04761719 55.4137207 -16.49074219 55.14946289 -15.91699219 54.87719727 C-20.32542655 49.58707603 -24.99259013 44.68911299 -29.91699219 39.87719727 C-29.16699219 37.50219727 -29.16699219 37.50219727 -27.91699219 34.87719727 C-26.59699219 34.21719727 -25.27699219 33.55719727 -23.91699219 32.87719727 C-19.29699219 37.49719727 -14.67699219 42.11719727 -9.91699219 46.87719727 C-8.92699219 46.54719727 -7.93699219 46.21719727 -6.91699219 45.87719727 C-8.23470897 42.93035405 -9.622638 40.96667205 -11.99121094 38.78344727 C-12.57580078 38.22786133 -13.16039062 37.67227539 -13.76269531 37.09985352 C-14.99682438 35.94555677 -16.23649032 34.7971532 -17.48144531 33.65454102 C-18.06216797 33.09895508 -18.64289063 32.54336914 -19.24121094 31.97094727 C-20.04691528 31.22361328 -20.04691528 31.22361328 -20.86889648 30.46118164 C-21.91699219 28.87719727 -21.91699219 28.87719727 -21.69799805 26.87988281 C-20.4722064 23.73666029 -18.636359 20.99591535 -16.79199219 18.18969727 C-16.38964355 17.57191406 -15.98729492 16.95413086 -15.57275391 16.31762695 C-4.63353566 -0.29682481 -4.63353566 -0.29682481 0 0 Z " fill="#4F4F4F" transform="translate(145.9169921875,70.122802734375)"/>
<path d="M0 0 C0.78434418 -0.00700928 1.56868835 -0.01401855 2.37680054 -0.02124023 C4.96046713 -0.03879611 7.54303193 -0.02720776 10.12670898 -0.01367188 C11.92602244 -0.01636722 13.72533447 -0.02025 15.52464294 -0.02526855 C19.29147236 -0.03116009 23.05792184 -0.02261086 26.82470703 -0.00390625 C31.65263586 0.01889966 36.47967603 0.0057479 41.30757236 -0.01819611 C45.02136432 -0.03264948 48.73494552 -0.02805053 52.44874382 -0.01768494 C54.22894331 -0.01501722 56.00916195 -0.018289 57.78933907 -0.02760315 C60.27674195 -0.03776322 62.76270442 -0.02227744 65.25 0 C65.98517349 -0.00809692 66.72034698 -0.01619385 67.47779846 -0.02453613 C70.88042339 0.03191889 72.75118001 0.28762902 75.51411438 2.34291077 C78.69238527 6.81305306 77.72323663 12.90597026 77.69165039 18.21655273 C77.68532893 20.44583862 77.73224678 22.66980831 77.78295898 24.8984375 C77.78750579 26.32225896 77.78891157 27.74609463 77.78686523 29.16992188 C77.79282715 30.45890381 77.79878906 31.74788574 77.80493164 33.07592773 C76.77433258 37.83932282 74.98943994 38.75048866 71.06030273 41.51757812 C69.70931171 42.83301676 68.36824604 44.1593293 67.06030273 45.51757812 C67.06030273 42.87757812 67.06030273 40.23757812 67.06030273 37.51757812 C67.72030273 37.51757812 68.38030273 37.51757812 69.06030273 37.51757812 C68.56530273 31.57757813 68.56530273 31.57757813 68.06030273 25.51757812 C62.78030273 25.18757813 57.50030273 24.85757813 52.06030273 24.51757812 C52.06030273 21.87757812 52.06030273 19.23757812 52.06030273 16.51757812 C49.42030273 16.51757812 46.78030273 16.51757812 44.06030273 16.51757812 C44.06030273 13.87757812 44.06030273 11.23757812 44.06030273 8.51757812 C36.47030273 8.51757812 28.88030273 8.51757812 21.06030273 8.51757812 C20.73030273 11.15757813 20.40030273 13.79757813 20.06030273 16.51757812 C17.75030273 16.51757812 15.44030273 16.51757812 13.06030273 16.51757812 C13.06030273 19.15757813 13.06030273 21.79757813 13.06030273 24.51757812 C11.9169043 24.57816406 10.77350586 24.63875 9.59545898 24.70117188 C8.10455969 24.7855624 6.61367499 24.87021114 5.12280273 24.95507812 C4.36805664 24.99439453 3.61331055 25.03371094 2.83569336 25.07421875 C-0.85913914 24.95795837 -0.85913914 24.95795837 -3.93969727 26.51757812 C-4.03793664 28.18186864 -4.06943357 29.85039743 -4.06469727 31.51757812 C-4.06727539 32.42507812 -4.06985352 33.33257812 -4.07250977 34.26757812 C-4.19143506 36.48724423 -4.19143506 36.48724423 -2.93969727 37.51757812 C-2.84095911 39.51557384 -2.80997927 41.51714971 -2.81469727 43.51757812 C-2.81211914 44.61070313 -2.80954102 45.70382813 -2.80688477 46.83007812 C-2.93969727 49.51757812 -2.93969727 49.51757812 -3.93969727 50.51757812 C-4.03862666 52.68238609 -4.06940827 54.85051597 -4.06469727 57.01757812 C-4.06727539 58.20351562 -4.06985352 59.38945313 -4.07250977 60.61132812 C-4.27179946 63.41017235 -4.27179946 63.41017235 -2.93969727 64.51757812 C-0.58982464 64.75285585 1.76586312 64.93144229 4.12280273 65.08007812 C6.41217773 65.22445312 8.70155273 65.36882812 11.06030273 65.51757812 C11.06030273 58.91757813 11.06030273 52.31757812 11.06030273 45.51757812 C12.38030273 45.51757812 13.70030273 45.51757812 15.06030273 45.51757812 C15.06030273 52.11757812 15.06030273 58.71757813 15.06030273 65.51757812 C16.38030273 65.51757812 17.70030273 65.51757812 19.06030273 65.51757812 C19.06030273 58.91757813 19.06030273 52.31757812 19.06030273 45.51757812 C20.38030273 45.51757812 21.70030273 45.51757812 23.06030273 45.51757812 C23.06030273 52.11757812 23.06030273 58.71757813 23.06030273 65.51757812 C24.05030273 65.51757812 25.04030273 65.51757812 26.06030273 65.51757812 C26.06030273 58.91757813 26.06030273 52.31757812 26.06030273 45.51757812 C27.38030273 45.51757812 28.70030273 45.51757812 30.06030273 45.51757812 C30.06030273 51.78757813 30.06030273 58.05757812 30.06030273 64.51757812 C31.38030273 64.51757812 32.70030273 64.51757812 34.06030273 64.51757812 C34.06030273 58.57757813 34.06030273 52.63757813 34.06030273 46.51757812 C36.04030273 46.02257812 36.04030273 46.02257812 38.06030273 45.51757812 C38.06030273 52.11757812 38.06030273 58.71757813 38.06030273 65.51757812 C39.38030273 65.51757812 40.70030273 65.51757812 42.06030273 65.51757812 C42.06030273 58.91757813 42.06030273 52.31757812 42.06030273 45.51757812 C43.38030273 45.51757812 44.70030273 45.51757812 46.06030273 45.51757812 C46.06030273 52.11757812 46.06030273 58.71757813 46.06030273 65.51757812 C47.38030273 65.51757812 48.70030273 65.51757812 50.06030273 65.51757812 C50.06030273 58.91757813 50.06030273 52.31757812 50.06030273 45.51757812 C51.38030273 45.51757812 52.70030273 45.51757812 54.06030273 45.51757812 C54.206782 48.87127735 54.29475775 52.22414393 54.37280273 55.58007812 C54.41469727 56.52302734 54.4565918 57.46597656 54.49975586 58.4375 C54.51586914 59.36240234 54.53198242 60.28730469 54.54858398 61.24023438 C54.57476807 62.08336182 54.60095215 62.92648926 54.62792969 63.79516602 C53.76054098 67.95527415 52.52163483 70.91025319 49.06030273 73.51757812 C44.72162691 74.55699802 40.46825392 74.45078216 36.02514648 74.37695312 C34.75433731 74.37890686 33.48352814 74.3808606 32.17420959 74.38287354 C29.48863699 74.37887385 26.80739654 74.36128382 24.12255859 74.3203125 C20.68644509 74.26918077 17.25290763 74.271447 13.81655025 74.29092026 C10.53173827 74.30370593 7.24735924 74.27659645 3.96264648 74.25195312 C2.11412331 74.25772369 2.11412331 74.25772369 0.22825623 74.26361084 C-0.91650681 74.24139465 -2.06126984 74.21917847 -3.24072266 74.19628906 C-4.24712296 74.18627869 -5.25352325 74.17626831 -6.29042053 74.16595459 C-8.93969727 73.51757812 -8.93969727 73.51757812 -11.26254272 71.37385559 C-13.23816772 68.00926812 -13.45153266 66.02173463 -13.47314453 62.13842773 C-13.48898087 60.87038803 -13.5048172 59.60234833 -13.52113342 58.29588318 C-13.51729239 56.92055898 -13.5122536 55.54523768 -13.50610352 54.16992188 C-13.51134136 52.75175061 -13.51761843 51.33358284 -13.52488708 49.91542053 C-13.53527719 46.94889891 -13.53074896 43.98285742 -13.51611328 41.01635742 C-13.49890251 37.21725718 -13.52245334 33.41966615 -13.55760288 29.62073421 C-13.57957253 26.69440212 -13.57813715 23.76843172 -13.56983757 20.84204292 C-13.56901825 19.44141544 -13.57587814 18.04076136 -13.5906086 16.64021111 C-13.60804655 14.68265193 -13.59019703 12.72487473 -13.57080078 10.76733398 C-13.56983902 9.65434433 -13.56887726 8.54135468 -13.56788635 7.39463806 C-12.93969727 4.51757812 -12.93969727 4.51757812 -10.89648438 2.15931702 C-7.20362359 0.10887749 -4.11561544 -0.04545299 0 0 Z " fill="#3A3939" transform="translate(64.939697265625,29.482421875)"/>
<path d="M0 0 C5.04345768 2.23576682 8.44365888 6.03672918 12.3125 9.875 C13.06595703 10.59558594 13.81941406 11.31617187 14.59570312 12.05859375 C15.30275391 12.75855469 16.00980469 13.45851563 16.73828125 14.1796875 C17.38837158 14.81632324 18.03846191 15.45295898 18.70825195 16.10888672 C20 18 20 18 19.95874023 19.95239258 C17.7461 24.67798811 13.38940188 28.1650582 9.75 31.8125 C8.89019531 32.70904297 8.03039062 33.60558594 7.14453125 34.52929688 C6.30792969 35.37169922 5.47132813 36.21410156 4.609375 37.08203125 C3.84592773 37.85780518 3.08248047 38.6335791 2.29589844 39.43286133 C0 41 0 41 -2.53808594 40.80737305 C-4.05851271 40.30875629 -5.57028046 39.7814914 -7.06445312 39.20898438 C-9.14449265 38.76173092 -9.14449265 38.76173092 -10.95117188 40.46289062 C-11.61697266 41.18669922 -12.28277344 41.91050781 -12.96875 42.65625 C-13.70480469 43.43097656 -14.44085938 44.20570312 -15.19921875 45.00390625 C-15.95847656 45.82761719 -16.71773437 46.65132812 -17.5 47.5 C-18.99847117 49.12567586 -20.50839895 50.74088927 -22.03125 52.34375 C-22.69705078 53.06755859 -23.36285156 53.79136719 -24.04882812 54.53710938 C-24.69271484 55.01986328 -25.33660156 55.50261719 -26 56 C-30 55 -30 55 -36 47 C-27.09 38.09 -27.09 38.09 -18 29 C-18.99 27.02 -19.98 25.04 -21 23 C-20.05515018 19.34521506 -17.28436641 17.05390819 -14.6484375 14.453125 C-13.79765625 13.60878906 -12.946875 12.76445313 -12.0703125 11.89453125 C-10.73613281 10.58548828 -10.73613281 10.58548828 -9.375 9.25 C-8.4778125 8.36183594 -7.580625 7.47367188 -6.65625 6.55859375 C-4.44192996 4.36783031 -2.22307565 2.18187237 0 0 Z " fill="#B9B8B8" transform="translate(194,56)"/>
<path d="M0 0 C2.475 1.98 2.475 1.98 5 4 C3.35172493 8.04753937 0.5217181 10.93679311 -2.4375 14.0625 C-3.01790039 14.67939697 -3.59830078 15.29629395 -4.19628906 15.93188477 C-10.50069848 22.56962539 -16.94164844 29.07632893 -23.39431763 35.56954956 C-24.63314821 36.81657015 -25.87051159 38.06504999 -27.10641479 39.31497192 C-28.86260727 41.08896097 -30.62552243 42.85597529 -32.390625 44.62109375 C-32.92653763 45.16414154 -33.46245026 45.70718933 -34.01460266 46.26669312 C-37.77084347 50 -37.77084347 50 -40 50 C-41.4453125 48.53125 -41.4453125 48.53125 -43.125 46.5 C-46.8615876 42.09475988 -50.86943366 38.03400765 -55 34 C-54.01 32.35 -53.02 30.7 -52 29 C-51.0925 29.515625 -50.185 30.03125 -49.25 30.5625 C-46.29467783 32.17848931 -46.29467783 32.17848931 -44.06640625 31.84375 C-41.29627045 30.71265485 -39.76293119 29.08665877 -37.6875 26.9375 C-36.90246094 26.12925781 -36.11742187 25.32101563 -35.30859375 24.48828125 C-33.22758322 22.24529698 -31.22833383 19.95830839 -29.25 17.625 C-26.77239513 14.72579803 -24.48095536 12.68773593 -21 11 C-19 12.375 -19 12.375 -17 14 C-17 14.66 -17 15.32 -17 16 C-11.03651266 10.94647258 -5.46894621 5.58288259 0 0 Z " fill="#070707" transform="translate(238,68)"/>
<path d="M0 0 C3.78496138 1.51398455 4.0072198 2.0144396 6 6 C1.38 10.62 -3.24 15.24 -8 20 C-6.68 22.31 -5.36 24.62 -4 27 C-4.64138916 27.589021 -5.28277832 28.17804199 -5.94360352 28.78491211 C-8.3251009 30.99535913 -10.68277364 33.22800176 -13.02709961 35.4777832 C-14.04363698 36.44421299 -15.06899321 37.40145773 -16.10327148 38.34887695 C-22.28655761 43.54388614 -22.28655761 43.54388614 -25.28857422 50.59423828 C-24.97185348 52.98631212 -24.97185348 52.98631212 -24.19506836 55.12719727 C-24.09850952 56.05423462 -24.09850952 56.05423462 -24 57 C-25.32 57.99 -26.64 58.98 -28 60 C-32.95 55.05 -37.9 50.1 -43 45 C-41.17928993 41.35857986 -39.82322474 39.57891048 -37.00927734 36.78222656 C-35.77822769 35.5514035 -35.77822769 35.5514035 -34.52230835 34.29571533 C-33.63580597 33.41953552 -32.74930359 32.54335571 -31.8359375 31.640625 C-30.92872955 30.73624695 -30.02152161 29.8318689 -29.08682251 28.90008545 C-26.68115581 26.50203542 -24.26954264 24.11005382 -21.85662842 21.71929932 C-19.39297656 19.27614829 -16.93501423 16.82728794 -14.4765625 14.37890625 C-9.65626427 9.58066212 -4.83030157 4.78817268 0 0 Z " fill="#030303" transform="translate(196,28)"/>
<path d="M0 0 C1.32 0.66 2.64 1.32 4 2 C0.86792618 5.74321017 -2.30828967 9.41449348 -5.6875 12.9375 C-6.24824219 13.52402344 -6.80898437 14.11054687 -7.38671875 14.71484375 C-9 16 -9 16 -12 16 C-12.33 15.01 -12.66 14.02 -13 13 C-8.71 8.71 -4.42 4.42 0 0 Z " fill="#151515" transform="translate(204,35)"/>
<path d="M0 0 C1.32 0.66 2.64 1.32 4 2 C-0.11619836 6.91935902 -4.40410362 11.52647956 -9 16 C-10.32 15.34 -11.64 14.68 -13 14 C-8.88380164 9.08064098 -4.59589638 4.47352044 0 0 Z " fill="#0F0F0F" transform="translate(226,57)"/>
<path d="M0 0 C0.81210938 0.40798828 0.81210938 0.40798828 1.640625 0.82421875 C0.11786404 4.40188831 -2.00317435 6.76690746 -4.734375 9.51171875 C-5.50523437 10.29933594 -6.27609375 11.08695313 -7.0703125 11.8984375 C-9.29279196 13.76820264 -10.52759065 14.44276835 -13.359375 14.82421875 C-13.359375 10.3810637 -12.63810789 9.56776557 -9.64453125 6.51367188 C-9.13792969 6.01802734 -8.63132813 5.52238281 -8.109375 5.01171875 C-7.61824219 4.49673828 -7.12710938 3.98175781 -6.62109375 3.45117188 C-2.93641081 -0.21877233 -2.93641081 -0.21877233 0 0 Z " fill="#161616" transform="translate(211.359375,41.17578125)"/>
<path d="M0 0 C0.99 0.66 1.98 1.32 3 2 C1.43416404 6.03721561 -1.44173865 8.47070582 -4.625 11.25 C-5.140625 11.70890625 -5.65625 12.1678125 -6.1875 12.640625 C-7.4534602 13.76592296 -8.72607942 14.88372177 -10 16 C-10.99 15.67 -11.98 15.34 -13 15 C-11.38989473 10.92623969 -8.46177729 8.23492931 -5.375 5.25 C-4.859375 4.74339844 -4.34375 4.23679687 -3.8125 3.71484375 C-2.54616661 2.47196098 -1.2736856 1.23534724 0 0 Z " fill="#0F0F0F" transform="translate(221,51)"/>
<path d="M0 0 C0.99 0.99 1.98 1.98 3 3 C-1.29 7.29 -5.58 11.58 -10 16 C-10.99 15.67 -11.98 15.34 -13 15 C-12.164372 10.37590307 -9.3516499 8.22323683 -5.9375 5.25 C-5.36966797 4.74339844 -4.80183594 4.23679687 -4.21679688 3.71484375 C-2.8180135 2.46886864 -1.40989267 1.23339027 0 0 Z " fill="#141414" transform="translate(216,46)"/>
<path d="M0 0 C0.99 0.33 1.98 0.66 3 1 C3 4 3 4 1.4609375 5.6484375 C0.77257812 6.21820313 0.08421875 6.78796875 -0.625 7.375 C-1.34945312 7.98214844 -2.07390625 8.58929688 -2.8203125 9.21484375 C-3.53960937 9.80394531 -4.25890625 10.39304687 -5 11 C-6.1668813 11.97891088 -7.33357874 12.958041 -8.5 13.9375 C-9.325 14.618125 -10.15 15.29875 -11 16 C-11.66 14.68 -12.32 13.36 -13 12 C-8.71 8.04 -4.42 4.08 0 0 Z " fill="#141414" transform="translate(232,63)"/>
<path d="M0 0 C0.99 0 1.98 0 3 0 C3 3.3 3 6.6 3 10 C2.01 9.67 1.02 9.34 0 9 C0 6.03 0 3.06 0 0 Z " fill="#2E2D2D" transform="translate(92,76)"/>
</svg>
