<?xml version="1.0" encoding="UTF-8"?>
<svg version="1.1" xmlns="http://www.w3.org/2000/svg" width="976" height="956">
<path d="M0 0 C322.08 0 644.16 0 976 0 C976 315.48 976 630.96 976 956 C653.92 956 331.84 956 0 956 C0 640.52 0 325.04 0 0 Z " fill="#FEFEFE" transform="translate(0,0)"/>
<path d="M0 0 C0.78503906 0.13889648 1.57007813 0.27779297 2.37890625 0.42089844 C23.50346585 4.30031522 44.75148072 12.62485075 64 22 C65.01549927 22.48956177 65.01549927 22.48956177 66.05151367 22.98901367 C70.0921972 24.96677435 73.91411862 27.10016207 77.6875 29.5625 C80.29219725 31.25498779 82.88512723 32.93240718 85.5625 34.5078125 C87.95936906 35.97512657 90.11418235 37.56429492 92.3125 39.3125 C97.43880529 43.35192587 102.56755134 47.37836756 108 51 C108 51.66 108 52.32 108 53 C108.57105469 53.25523437 109.14210938 53.51046875 109.73046875 53.7734375 C117.06206038 57.7357779 122.72086459 64.69053032 128 71 C129.28583984 72.48886719 129.28583984 72.48886719 130.59765625 74.0078125 C139.30162816 84.10593364 146.99648952 94.64430801 154 106 C154.47953125 106.76441406 154.9590625 107.52882813 155.453125 108.31640625 C158.72337096 113.62606385 161.73011904 119.07431787 164.6875 124.5625 C165.06825684 125.25875488 165.44901367 125.95500977 165.84130859 126.67236328 C168.11479822 130.94379839 169.817285 135.16119842 171.26928711 139.77416992 C171.98313863 141.94863846 172.80020647 144.03777557 173.68359375 146.1484375 C177.87094509 156.19147346 180.64431953 166.02013623 182.57714844 176.72241211 C183.02553384 179.13753185 183.53016259 181.53753335 184.03515625 183.94140625 C190.45542418 216.06436296 189.91002365 254.74531003 180 286 C179.75378906 286.80824219 179.50757813 287.61648438 179.25390625 288.44921875 C176.16854484 298.15851992 172.22513171 307.6150275 168.26171875 316.9921875 C167.37127579 319.11491531 166.50072109 321.246039 165.64453125 323.3828125 C165.20496094 324.47335937 164.76539063 325.56390625 164.3125 326.6875 C163.91675781 327.68136719 163.52101563 328.67523438 163.11328125 329.69921875 C162 332 162 332 160 333 C159.27840576 334.64363134 158.60648579 336.31050386 158 338 C157.34 338 156.68 338 156 338 C155.82984375 338.60328125 155.6596875 339.2065625 155.484375 339.828125 C154.01920906 344.66005521 152.79960674 347.55660639 149 351 C147.98234073 352.99107248 146.98422146 354.99218823 146 357 C142.47945432 362.54455278 138.51045264 367.32636491 133 371 C131.95930586 372.74766689 131.95930586 372.74766689 131.125 374.75 C127.76208651 381.74032579 123.24769365 385.74552497 117.140625 390.3359375 C114.53891137 392.35843751 112.29581397 394.64041342 110 397 C108.34314179 398.3455023 106.67523395 399.67744688 105 401 C104.175 401.67160156 103.35 402.34320312 102.5 403.03515625 C101.675 403.70417969 100.85 404.37320312 100 405.0625 C99.175 405.73410156 98.35 406.40570312 97.5 407.09765625 C95 409 95 409 92.4375 410.43359375 C89.86387107 411.88707723 89.86387107 411.88707723 88.1796875 414.4296875 C85.28921091 417.83817065 82.12802436 419.2667153 78.125 421.125 C77.43019531 421.45886719 76.73539063 421.79273438 76.01953125 422.13671875 C74.6494304 422.79467678 73.27706023 423.44793242 71.90234375 424.09619141 C70.23952673 424.88620021 68.59106008 425.70627167 66.9453125 426.53125 C62.91304819 428.54203433 58.82220006 430.42200826 54.72900391 432.30444336 C51.19604779 433.93927969 47.77617318 435.66545575 44.375 437.5625 C32.54553419 443.53638024 18.62769619 446.11216157 5.65234375 448.3515625 C-0.76363572 449.49065618 -7.0934373 451.03440373 -13.41796875 452.59765625 C-34.84404579 457.71716138 -57.67404995 455.3129983 -78.953125 450.83203125 C-81.80961839 450.23092446 -84.67086863 449.6984751 -87.546875 449.19921875 C-115.78387358 444.17580947 -143.09490171 433.04892888 -167.1875 417.5 C-167.76435547 417.13519531 -168.34121094 416.77039063 -168.93554688 416.39453125 C-172.87764194 413.86127963 -176.42813714 411.04447371 -180 408 C-182.66792921 405.91450604 -185.34216011 403.83783224 -188.0234375 401.76953125 C-188.67570312 401.18558594 -189.32796875 400.60164063 -190 400 C-190 399.34 -190 398.68 -190 398 C-190.53625 397.773125 -191.0725 397.54625 -191.625 397.3125 C-194.82460161 395.54429911 -197.29037223 393.46329797 -200 391 C-200 390.34 -200 389.68 -200 389 C-200.61875 388.7525 -201.2375 388.505 -201.875 388.25 C-204.40358627 386.76259631 -204.71839004 385.56321991 -206 383 C-207.32407669 382.31513275 -208.65909241 381.65129797 -210 381 C-213.88535448 377.37234761 -217.18560691 373.43353504 -220.4375 369.25 C-220.91614502 368.63672852 -221.39479004 368.02345703 -221.88793945 367.39160156 C-232 354.32940435 -232 354.32940435 -232 351 C-232.62261719 350.73960937 -233.24523437 350.47921875 -233.88671875 350.2109375 C-236.72882821 348.58237201 -237.4641234 346.3855991 -238.79296875 343.484375 C-240.7375952 339.48184288 -243.10530932 335.73056064 -245.4140625 331.9296875 C-246.99691457 329.00569969 -248.04723603 326.17902432 -249 323 C-249.66 323 -250.32 323 -251 323 C-251.24234375 322.17757813 -251.4846875 321.35515625 -251.734375 320.5078125 C-253.32044568 315.2249771 -254.91436651 310.02169239 -257.0625 304.9375 C-259.33875762 299.43358022 -260.65380963 293.78935422 -262 288 C-262.49573772 285.97811685 -262.99571137 283.9572674 -263.5 281.9375 C-263.7165625 281.05964844 -263.933125 280.18179687 -264.15625 279.27734375 C-264.63572514 277.414938 -265.13290946 275.55635248 -265.68481445 273.71411133 C-267.99045123 265.84374764 -269.18517971 257.93971231 -270.1875 249.8125 C-270.27338379 249.12148193 -270.35926758 248.43046387 -270.44775391 247.71850586 C-273.62357579 221.86037799 -270.3520829 197.06310985 -265 171.6875 C-264.64494385 169.99125488 -264.64494385 169.99125488 -264.28271484 168.26074219 C-262.96385841 162.31113494 -261.31136418 156.76106383 -258.90991211 151.15649414 C-258.01930703 149.04575772 -257.27074308 146.92786759 -256.5625 144.75 C-255.22193268 140.6546405 -253.84965755 136.57121469 -252.4375 132.5 C-252.02371094 131.2934375 -251.60992187 130.086875 -251.18359375 128.84375 C-250 126 -250 126 -248 125 C-247.27840576 123.35636866 -246.60648579 121.68949614 -246 120 C-245.34 120 -244.68 120 -244 120 C-243.896875 119.29875 -243.79375 118.5975 -243.6875 117.875 C-242.89945728 114.57954861 -241.67130238 111.94149219 -240 109 C-239.34 108.67 -238.68 108.34 -238 108 C-237.09274566 105.88672575 -237.09274566 105.88672575 -236.375 103.4375 C-236.11460937 102.61121094 -235.85421875 101.78492188 -235.5859375 100.93359375 C-235.39257812 100.29550781 -235.19921875 99.65742188 -235 99 C-233.68 99 -232.36 99 -231 99 C-231.0825 98.2575 -231.165 97.515 -231.25 96.75 C-230.92239478 93.14634263 -229.58816265 92.44026764 -227 90 C-226.505 89.01 -226.01 88.02 -225.5 87 C-223.94532986 83.89065973 -222.50832337 82.36897207 -220 80 C-218.86383731 78.73913653 -217.7400335 77.46708691 -216.625 76.1875 C-216.02558594 75.50042969 -215.42617188 74.81335938 -214.80859375 74.10546875 C-213.62123046 72.72320349 -212.44624161 71.33019202 -211.28515625 69.92578125 C-210.75792969 69.29027344 -210.23070312 68.65476562 -209.6875 68 C-209.21699219 67.4225 -208.74648438 66.845 -208.26171875 66.25 C-207 65 -207 65 -205 65 C-204.62875 64.0409375 -204.62875 64.0409375 -204.25 63.0625 C-202.67012061 60.455699 -201.83219689 60.70804922 -199 60 C-198.71125 59.401875 -198.4225 58.80375 -198.125 58.1875 C-196.50946287 55.0461778 -193.91738448 53.94492299 -191 52 C-190.28457031 51.08734375 -189.56914062 50.1746875 -188.83203125 49.234375 C-185.65197664 45.31395556 -181.71828776 42.82718812 -177.5 40.125 C-176.69900879 39.60325195 -175.89801758 39.08150391 -175.07275391 38.54394531 C-172.72180954 37.01867783 -170.36195655 35.50813769 -168 34 C-167.38995117 33.60458008 -166.77990234 33.20916016 -166.15136719 32.80175781 C-157.44121202 27.15733119 -148.39974853 22.37229022 -139 18 C-138.3723877 17.70770508 -137.74477539 17.41541016 -137.09814453 17.11425781 C-116.28579444 7.61025832 -93.66863175 1.00107854 -71 -2 C-70.14035645 -2.11424316 -69.28071289 -2.22848633 -68.39501953 -2.34619141 C-45.13844824 -5.28317656 -23.04226212 -4.19296117 0 0 Z " fill="#868686" transform="translate(665,126)"/>
<path d="M0 0 C1.175625 0.433125 1.175625 0.433125 2.375 0.875 C3.055625 1.1225 3.73625 1.37 4.4375 1.625 C9.51550825 4.90113435 11.60352198 10.25403917 14.1484375 15.5 C16.27953651 19.62645924 18.52702829 22.30968553 22.375 24.875 C22.705 25.865 23.035 26.855 23.375 27.875 C24.035 28.205 24.695 28.535 25.375 28.875 C25.045 30.525 24.715 32.175 24.375 33.875 C22.395 34.535 20.415 35.195 18.375 35.875 C18.375 36.535 18.375 37.195 18.375 37.875 C16.5390625 39.35546875 16.5390625 39.35546875 14 41.0625 C13.09121094 41.68253906 12.18242187 42.30257812 11.24609375 42.94140625 C9.82490234 43.89853516 9.82490234 43.89853516 8.375 44.875 C6.60032938 46.07769045 4.82932162 47.2858083 3.0625 48.5 C2.28261719 49.02851562 1.50273437 49.55703125 0.69921875 50.1015625 C-1.73264145 51.87450092 -1.73264145 51.87450092 -4.03125 54.2890625 C-6.77397331 57.0235246 -9.71169599 59.32440348 -12.8125 61.625 C-16.91590036 64.71989835 -20.84392624 67.88477807 -24.625 71.375 C-28.22794416 74.69319534 -31.96734775 77.73956061 -35.875 80.6875 C-46.14719396 88.45480044 -55.77052838 96.98026507 -65.22265625 105.71875 C-72.08152174 111.875 -72.08152174 111.875 -74.625 111.875 C-74.625 112.535 -74.625 113.195 -74.625 113.875 C-76.53125 115.609375 -76.53125 115.609375 -79.125 117.625 C-80.04152344 118.34171875 -80.95804687 119.0584375 -81.90234375 119.796875 C-84.14913486 121.51178586 -86.41054217 123.20063101 -88.6875 124.875 C-91.5654282 127.0061604 -94.22685641 129.27707128 -96.875 131.6875 C-102.1758438 136.47007948 -107.87753824 140.64913727 -113.625 144.875 C-121.0732298 150.40689184 -128.4132609 156.03811584 -135.625 161.875 C-136.49898437 162.56464844 -137.37296875 163.25429688 -138.2734375 163.96484375 C-140.67898209 165.84272346 -140.67898209 165.84272346 -142.8125 168.125 C-145.26629677 170.52426796 -147.73867221 172.57878288 -150.4375 174.6875 C-153.70819553 177.26250845 -156.72936681 179.88539089 -159.625 182.875 C-163.94583092 187.32729637 -168.73234716 191.07581117 -173.625 194.875 C-176.07395214 196.80556081 -178.41999037 198.66999037 -180.625 200.875 C-183.32154507 203.57154507 -186.24402521 205.87868029 -189.3359375 208.109375 C-194.53887753 211.8894702 -199.24878992 216.08041579 -203.97265625 220.44140625 C-206.13549447 222.42586606 -208.32699389 224.34912266 -210.5625 226.25 C-213.45285068 228.74674602 -216.13408152 231.39350749 -218.796875 234.13110352 C-224.40789724 239.89306659 -230.22543909 244.86863011 -236.71484375 249.62109375 C-239.60170883 251.85696106 -242.08530969 254.25729873 -244.625 256.875 C-247.35926521 259.22773983 -250.12397989 261.49011038 -252.984375 263.6875 C-257.81121266 267.43195588 -261.88024117 271.16745913 -265.7734375 275.86328125 C-268.65166647 278.99047096 -271.99078761 281.47276488 -275.33984375 284.07421875 C-278.63903612 286.67409513 -281.49673771 289.49984062 -284.16015625 292.74609375 C-287.8737852 297.22105893 -291.50007649 300.29469073 -296.421875 303.375 C-299.94414806 305.77314336 -302.71705348 308.78697422 -305.625 311.875 C-309.53771039 315.97272472 -313.7357661 319.45753102 -318.1875 322.9375 C-322.21930883 326.09437084 -326.00516006 329.247862 -329.625 332.875 C-331.75427802 334.57189589 -333.88987373 336.23621904 -336.0625 337.875 C-343.36182047 342.79862038 -343.36182047 342.79862038 -348.9375 349.25 C-351.01829084 352.48678575 -353.46024646 354.17619186 -356.5625 356.39453125 C-360.03541883 358.88740291 -363.44357145 361.51181321 -366.25 364.75 C-366.70375 365.12125 -367.1575 365.4925 -367.625 365.875 C-369.8125 365.5625 -369.8125 365.5625 -371.625 364.875 C-372.13908528 361.34984383 -372.38823891 359.08600574 -370.453125 356.015625 C-368.5930744 353.87213812 -366.64073561 351.87329845 -364.625 349.875 C-363.75617188 348.98167969 -362.88734375 348.08835937 -361.9921875 347.16796875 C-358.05900374 343.15197392 -354.09587967 339.25743488 -349.83203125 335.59375 C-344.40564527 330.88891351 -339.45752943 325.72100602 -334.453125 320.57617188 C-333.72867188 319.84076172 -333.00421875 319.10535156 -332.2578125 318.34765625 C-331.28158936 317.34617554 -331.28158936 317.34617554 -330.28564453 316.32446289 C-328.625 314.875 -328.625 314.875 -326.625 314.875 C-326.3671875 314.28203125 -326.109375 313.6890625 -325.84375 313.078125 C-324.51887835 310.6831647 -323.20893349 309.38438647 -321.125 307.625 C-320.06539062 306.72394531 -320.06539062 306.72394531 -318.984375 305.8046875 C-315.67653618 303.09926966 -312.31173793 300.46896128 -308.921875 297.8671875 C-306.46757455 295.73845752 -304.64338721 293.4130917 -302.625 290.875 C-300.65234375 289.171875 -300.65234375 289.171875 -298.5625 287.625 C-293.95470361 284.1538951 -289.52586925 280.49896109 -285.10546875 276.79296875 C-282.625 274.875 -282.625 274.875 -280.36328125 273.86328125 C-279.78964844 273.53714844 -279.21601563 273.21101563 -278.625 272.875 C-278.26427752 271.54881442 -277.93179873 270.21468781 -277.625 268.875 C-276.09375 267.453125 -276.09375 267.453125 -274.125 266.125 C-268.16103797 261.90187013 -262.78096592 257.04524837 -257.625 251.875 C-254.52876507 249.13060995 -251.90542058 247.02559624 -248.25 245.0625 C-243.59494627 242.5289973 -240.22733497 238.697267 -236.625 234.875 C-232.00134409 230.00044803 -232.00134409 230.00044803 -228.625 228.875 C-228.33625 228.25625 -228.0475 227.6375 -227.75 227 C-226.25362452 224.17351297 -224.37444298 223.44611028 -221.625 221.875 C-218.94479608 219.49259651 -217.76962392 218.30887177 -216.625 214.875 C-215.12890625 213.5859375 -215.12890625 213.5859375 -213.1875 212.25 C-207.98673763 208.49543893 -203.34834487 204.2047328 -198.625 199.875 C-196.91845574 198.33135315 -195.21014584 196.78965584 -193.5 195.25 C-192.26830078 194.14011719 -192.26830078 194.14011719 -191.01171875 193.0078125 C-188.79509936 191.02700368 -186.55876555 189.07204443 -184.3125 187.125 C-181.28786298 184.48597407 -178.43059753 181.74902674 -175.625 178.875 C-170.80915063 173.96618056 -165.94977984 169.22632769 -160.72265625 164.7578125 C-158.25049755 162.53885441 -155.94709956 160.18777741 -153.625 157.8125 C-150.70236995 154.84063728 -147.85677167 152.19342418 -144.4375 149.8125 C-141.4489088 147.69310066 -139.46743189 145.52425474 -137.3125 142.5625 C-133.80310513 137.75845597 -129.57119622 134.34433686 -124.8828125 130.72265625 C-122.55403973 129.07388774 -122.55403973 129.07388774 -121.625 126.875 C-120.965 126.875 -120.305 126.875 -119.625 126.875 C-119.36976563 126.29363281 -119.11453125 125.71226562 -118.8515625 125.11328125 C-117.49997276 122.64684519 -116.00807306 121.02657146 -114 119.0625 C-113.28714844 118.36382813 -112.57429688 117.66515625 -111.83984375 116.9453125 C-109.79808941 115.03679434 -107.70386396 113.23240546 -105.5625 111.4375 C-101.79449016 108.22688806 -98.95032589 104.60958188 -96.0703125 100.59765625 C-95.59335937 100.02917969 -95.11640625 99.46070313 -94.625 98.875 C-93.965 98.875 -93.305 98.875 -92.625 98.875 C-92.3878125 98.30910156 -92.150625 97.74320313 -91.90625 97.16015625 C-90.34401476 94.37385254 -88.42762557 92.52167486 -86.125 90.3125 C-83.59690847 87.8788015 -81.57827066 85.80490599 -79.625 82.875 C-78.965 82.875 -78.305 82.875 -77.625 82.875 C-77.25375 82.01648438 -77.25375 82.01648438 -76.875 81.140625 C-75.43183801 78.52489389 -73.74283778 76.72726544 -71.625 74.625 C-70.92375 73.91859375 -70.2225 73.2121875 -69.5 72.484375 C-67.625 70.875 -67.625 70.875 -65.625 70.875 C-65.40328125 70.33746094 -65.1815625 69.79992187 -64.953125 69.24609375 C-63.18198206 66.08408268 -60.82937515 63.57282774 -58.375 60.9375 C-57.90964844 60.42509766 -57.44429688 59.91269531 -56.96484375 59.38476562 C-54.59860923 56.81971525 -52.19492281 54.4557714 -49.48828125 52.25 C-47.03712776 50.21684676 -45.07892353 48.2565025 -43.0625 45.8125 C-41.14373618 43.55364894 -39.47819032 41.7612225 -37.125 39.9375 C-32.10606444 35.79687816 -28.47945025 30.26677336 -25 24.8125 C-21.96685457 20.18900264 -18.57546221 15.87776037 -15.125 11.5625 C-14.5789209 10.86825928 -14.0328418 10.17401855 -13.47021484 9.45874023 C-5.59872226 -0.26660582 -5.59872226 -0.26660582 0 0 Z " fill="#070607" transform="translate(411.625,511.125)"/>
<path d="M0 0 C2.56980107 0.35445532 3.79110099 0.79695797 5.671875 2.625 C7.40239905 5.71958418 7.738943 8.49560917 8.25 12 C9.16166619 17.52710226 10.60415567 21.52928374 13.6875 26.3125 C16.51826773 30.83200899 18.27405199 34.32673207 17.890625 39.73828125 C16.01437533 44.50296791 11.36924771 46.75478074 7 49 C5.62908203 49.495 5.62908203 49.495 4.23046875 50 C3.12638672 50.495 3.12638672 50.495 2 51 C1.67 51.99 1.34 52.98 1 54 C-0.9676137 55.67481405 -2.92431722 57.22151105 -5 58.75 C-6.19542783 59.64958634 -7.39074002 60.54932638 -8.5859375 61.44921875 C-9.17213867 61.88669434 -9.75833984 62.32416992 -10.36230469 62.77490234 C-19.34476089 69.49433663 -27.99074972 76.638285 -36.58886719 83.83886719 C-41.23425691 87.72823671 -45.91974509 91.53511582 -50.7265625 95.22265625 C-53.33968478 97.26556113 -55.88590472 99.38081793 -58.4375 101.5 C-62.71046144 105.02384478 -67.09412513 108.23958788 -71.7109375 111.296875 C-74.09350756 112.98249306 -74.09350756 112.98249306 -76.265625 115.2734375 C-80.41795199 119.4139007 -85.0194771 122.98142593 -89.5859375 126.65234375 C-93.78050614 130.06043077 -97.67426815 133.59334551 -101.44970703 137.45947266 C-103.417438 139.41480847 -105.53412111 141.08427035 -107.75 142.75 C-111.51385512 145.68874574 -114.82436947 148.80069241 -118.125 152.25 C-123.1022132 157.34740158 -128.47559167 161.52237369 -134.22143555 165.71850586 C-138.71140162 169.00283787 -142.91215882 172.44765756 -147.0078125 176.21875 C-149.03754318 178.03356802 -151.13940889 179.67301489 -153.3125 181.3125 C-157.01965441 184.1428318 -160.4636878 187.19957062 -163.875 190.375 C-168.49635812 194.67419262 -173.24901933 198.73479281 -178.1640625 202.69921875 C-182.93568974 206.57041496 -187.60875183 210.55742205 -192.28662109 214.54101562 C-193.44511347 215.52750044 -194.6043127 216.51315565 -195.76416016 217.49804688 C-209.08370884 228.7144582 -209.08370884 228.7144582 -221.6640625 240.734375 C-223.92114434 242.92351792 -224.94071622 243.66007958 -228 244 C-228.33 243.01 -228.66 242.02 -229 241 C-231.50447516 239.78130071 -231.50447516 239.78130071 -234 239 C-233.79171287 233.31047255 -229.93827904 230.26597374 -226.1875 226.4375 C-225.48625 225.70805176 -224.785 224.97860352 -224.0625 224.22705078 C-221.72197323 221.80431964 -219.36365998 219.40016076 -217 217 C-216.14615723 216.13101074 -215.29231445 215.26202148 -214.41259766 214.36669922 C-211.78178719 211.69603535 -209.14339545 209.03320577 -206.5 206.375 C-205.26479614 205.13254517 -205.26479614 205.13254517 -204.00463867 203.86499023 C-199.74184198 199.61428046 -195.39852324 195.53847077 -190.83544922 191.61279297 C-188.03742791 189.15419643 -185.42247289 186.53027282 -182.8125 183.875 C-182.0709668 183.12669922 -182.0709668 183.12669922 -181.31445312 182.36328125 C-179.0873839 180.11567252 -176.86526016 177.86324911 -174.64453125 175.609375 C-171.11783152 172.12955902 -167.49537919 168.75686293 -163.875 165.375 C-157.77038067 159.66501079 -151.80267117 153.86384183 -146.00390625 147.84375 C-144 146 -144 146 -142 146 C-141.67902344 145.18982422 -141.67902344 145.18982422 -141.3515625 144.36328125 C-139.51341523 141.14917981 -137.00200241 138.75257555 -134.375 136.1875 C-133.87871094 135.69185547 -133.38242188 135.19621094 -132.87109375 134.68554688 C-130.02335315 131.870414 -127.0934838 129.19767813 -124.0546875 126.58984375 C-120.01421038 123.08491543 -116.36925793 119.30806923 -112.75 115.375 C-111.78827881 114.3399231 -111.78827881 114.3399231 -110.80712891 113.28393555 C-108.86684946 111.19346108 -106.93244005 109.0977211 -105 107 C-104.41508789 106.36562012 -103.83017578 105.73124023 -103.22753906 105.07763672 C-102.6703418 104.47322754 -102.11314453 103.86881836 -101.5390625 103.24609375 C-101.00313477 102.6648877 -100.46720703 102.08368164 -99.91503906 101.48486328 C-98.92324265 100.40784911 -97.93289204 99.32950083 -96.94433594 98.24951172 C-92.70317645 93.62875169 -88.31934938 89.24620251 -83.65087891 85.05688477 C-79.75127172 81.55722129 -75.9550216 78.12308756 -72.625 74.0625 C-68.97904858 69.70340405 -64.67709391 66.21302531 -60.33789062 62.57373047 C-55.72211979 58.68178525 -51.44588618 54.55591339 -47.23046875 50.23046875 C-45.20518623 48.20518623 -43.12618467 46.34468708 -40.9375 44.5 C-36.95617417 41.10463543 -33.60120641 37.26460354 -30.15625 33.3359375 C-28.33108257 31.35867279 -26.54428419 29.71919848 -24.4375 28.0625 C-20.34653043 24.76487266 -17.62949194 20.51300385 -14.69921875 16.1953125 C-14.13847656 15.47085937 -13.57773437 14.74640625 -13 14 C-12.34 14 -11.68 14 -11 14 C-10.731875 13.401875 -10.46375 12.80375 -10.1875 12.1875 C-8.98632356 9.97480656 -7.78440883 8.75009328 -6 7 C-4.92659726 5.78034287 -3.8640772 4.55102426 -2.8125 3.3125 C-2.28269531 2.68988281 -1.75289062 2.06726563 -1.20703125 1.42578125 C-0.60955078 0.72001953 -0.60955078 0.72001953 0 0 Z " fill="#050505" transform="translate(351,388)"/>
<path d="M0 0 C11.54248009 29.67849971 11.54248009 29.67849971 15 42.6171875 C15.94026363 46.0473026 15.94026363 46.0473026 17.45703125 49.37109375 C19.2431856 53.5719479 20.45361885 57.80055931 21.6875 62.1875 C24.06487078 70.41449461 26.95487056 78.31160001 30.28393555 86.19995117 C31.81692937 89.86487772 33.18059409 93.41155902 34.1015625 97.28125 C35.04083204 101.16900913 36.44054796 104.36111192 38.1953125 107.921875 C39 110 39 110 39 114 C37.87722656 114.43570313 36.75445313 114.87140625 35.59765625 115.3203125 C25.93258479 119.13885218 17.54356356 123.11009851 9.5625 129.875 C7 132 7 132 5 132 C5 132.66 5 133.32 5 134 C2.13522202 133.66223142 1.17570629 133.20940339 -0.7109375 130.9609375 C-1.26007813 130.10757813 -1.80921875 129.25421875 -2.375 128.375 C-5.88060114 123.12035162 -9.58898441 118.34010336 -14.125 113.9375 C-15.96866619 112.03237827 -17.32276829 110.0382897 -18.75390625 107.81640625 C-21.58336812 103.69195556 -24.84331076 99.87537506 -28 96 C-28.80824219 95.00355469 -29.61648438 94.00710937 -30.44921875 92.98046875 C-34.55702817 87.84076955 -34.55702817 87.84076955 -39 83 C-39 82.01 -39 81.02 -39 80 C-39.598125 79.95875 -40.19625 79.9175 -40.8125 79.875 C-43 79 -43 79 -44.75 76.0625 C-46 73 -46 73 -46 71 C-46.59296875 70.7421875 -47.1859375 70.484375 -47.796875 70.21875 C-50.17660965 68.90230105 -51.50978792 67.57419218 -53.25 65.5 C-53.77078125 64.8915625 -54.2915625 64.283125 -54.828125 63.65625 C-56 62 -56 62 -56 60 C-56.66 60 -57.32 60 -58 60 C-58.495 58.989375 -58.99 57.97875 -59.5 56.9375 C-61.72842419 52.97763831 -64.65969327 50.47092173 -68.1953125 47.67578125 C-70.18145461 45.83150643 -71.15008587 44.57361639 -72 42 C-71.9609375 39.51953125 -71.9609375 39.51953125 -71 37 C-68.6640625 34.82421875 -68.6640625 34.82421875 -65.625 32.6875 C-65.08987793 32.30505127 -64.55475586 31.92260254 -64.00341797 31.52856445 C-62.89162169 30.73486817 -61.77583422 29.9467348 -60.65625 29.1640625 C-58.11628473 27.37889823 -55.62494043 25.52811548 -53.125 23.6875 C-51.42463891 22.44732838 -49.71625964 21.21807485 -48 20 C-47.13117188 19.37609375 -46.26234375 18.7521875 -45.3671875 18.109375 C-40.74950431 15.21662683 -35.91785394 12.89910025 -31 10.5625 C-29.97922363 10.07676514 -28.95844727 9.59103027 -27.90673828 9.09057617 C-8.22395958 -0.15606382 -8.22395958 -0.15606382 0 0 Z " fill="#FEFDFE" transform="translate(559,156)"/>
<path d="M0 0 C2.2109375 -0.33203125 2.2109375 -0.33203125 5 0 C7.3515625 2.30078125 7.3515625 2.30078125 9.625 5.3125 C11.97551796 8.38100894 14.23372869 11.30366251 17 14 C20.87113817 18.76267302 24.34947909 23.85380355 27.875 28.875 C28.28057129 29.44653809 28.68614258 30.01807617 29.10400391 30.60693359 C32 34.76767616 32 34.76767616 32 37 C32.5775 37.2475 33.155 37.495 33.75 37.75 C39.81719467 41.1206637 43.58713303 47.62809476 47.54296875 53.15625 C50.39797357 57.09013838 53.12385958 60.00983454 57 63 C57.495 64.485 57.495 64.485 58 66 C59.485 66.495 59.485 66.495 61 67 C62.10687475 68.90434751 62.89587686 70.86262328 63.7421875 72.89453125 C65.37298064 75.62433716 67.50780408 77.03868605 70 79 C72.2734375 81.62109375 72.2734375 81.62109375 74.375 84.4375 C75.43847656 85.82775391 75.43847656 85.82775391 76.5234375 87.24609375 C78 90 78 90 77.7890625 92.72265625 C76.36517753 96.83218564 74.85642738 97.70331234 71.046875 99.78125 C68.07204705 101.5525216 65.40785813 103.67824227 62.69921875 105.828125 C61 107 61 107 59 107 C59 107.66 59 108.32 59 109 C57.515 109.495 57.515 109.495 56 110 C55.34 110.99 54.68 111.98 54 113 C51.86328125 114.24609375 51.86328125 114.24609375 49.3125 115.4375 C46.21212669 116.91854164 43.19689334 118.42068252 40.25 120.1875 C37.18477323 121.89695339 34.32162338 122.91686194 31 124 C29.31791365 124.97383946 27.65261839 125.97695052 26 127 C21.1105129 129.69244884 16.21110442 131.72510855 10.8828125 133.38671875 C8.94083344 133.96782868 8.94083344 133.96782868 7 135 C3.95734422 130.62836813 2.93898468 126.34469396 1.75 121.25 C-0.03833616 114.0224016 -2.32137163 107.3001928 -5.2897644 100.47906494 C-7.39587176 95.59883642 -9.19848166 90.68253073 -10.83984375 85.62890625 C-11.09406097 84.85651611 -11.3482782 84.08412598 -11.61019897 83.28833008 C-12.14293608 81.66932931 -12.67427512 80.04986788 -13.20425415 78.42996216 C-15.23858825 72.21773386 -17.30262164 66.01521929 -19.35986328 59.81054688 C-19.87458271 58.25620588 -20.38823614 56.70151152 -20.90087891 55.14648438 C-23.47764156 47.33338931 -26.09101629 39.60563637 -29.23583984 31.99902344 C-30.25527768 29.33220012 -30.81658617 26.69218989 -31.25 23.875 C-31.39953125 22.94429688 -31.5490625 22.01359375 -31.703125 21.0546875 C-31.80109375 20.37664062 -31.8990625 19.69859375 -32 19 C-31.03900391 18.63648438 -31.03900391 18.63648438 -30.05859375 18.265625 C-21.30865211 14.87518561 -14.04019484 10.45061229 -6.44213867 4.99731445 C-2.21435435 2 -2.21435435 2 0 2 C0 1.34 0 0.68 0 0 Z " fill="#FDFDFD" transform="translate(681,414)"/>
<path d="M0 0 C0 0.66 0 1.32 0 2 C0.804375 2.0928125 0.804375 2.0928125 1.625 2.1875 C4.40080858 3.13711873 6.17912973 4.70055129 8.375 6.60546875 C13.14963101 10.70292853 17.92405762 13.51493673 23.7109375 15.9609375 C27.32410162 17.60104272 30.8955132 19.51302693 34 22 C34 22.66 34 23.32 34 24 C33.01 24 32.02 24 31 24 C31.12375 24.680625 31.2475 25.36125 31.375 26.0625 C30.80594662 30.52008484 28.26069819 33.03372151 25 36 C21.6875 37.8125 21.6875 37.8125 19 39 C18.67 39.66 18.34 40.32 18 41 C17.401875 41.28875 16.80375 41.5775 16.1875 41.875 C13.9049276 42.89477087 13.9049276 42.89477087 12.26171875 44.84765625 C9.5938037 47.38655296 6.87830197 48.83906886 3.625 50.5625 C-3.69409535 54.570622 -9.97301887 59.52518973 -16.43945312 64.76171875 C-19.32745676 67.05332614 -22.3616657 69.12377512 -25.3984375 71.2109375 C-38.63644369 80.31455137 -51.85401926 89.66995206 -64.0625 100.125 C-68.91106492 104.23873505 -73.96900689 107.72592902 -79.28881836 111.18017578 C-85.59404484 115.30860745 -91.43760341 119.93624568 -97.30908203 124.65185547 C-100.03329269 126.82382937 -102.79665426 128.94396213 -105.5625 131.0625 C-106.63412507 131.8841009 -107.70573968 132.70571545 -108.77734375 133.52734375 C-109.3069873 133.9332373 -109.83663086 134.33913086 -110.38232422 134.75732422 C-112.03007769 136.02310526 -113.67374235 137.29402878 -115.31640625 138.56640625 C-116.41910742 139.4194821 -117.52197113 140.27234791 -118.625 141.125 C-119.16431152 141.54201172 -119.70362305 141.95902344 -120.25927734 142.38867188 C-123.68375664 145.02368472 -127.16504342 147.56061453 -130.6875 150.0625 C-135.22047861 153.32467247 -139.28675441 156.91069218 -143.3828125 160.69921875 C-147.14895249 164.01004928 -151.1730505 166.92850102 -155.23828125 169.859375 C-158.04735195 171.94351311 -158.04735195 171.94351311 -160.4609375 174.46484375 C-163.21627834 177.2159456 -166.19051505 179.50644655 -169.3125 181.8125 C-174.65165388 185.83419054 -179.42303881 190.11497411 -184 195 C-186.81921606 197.88969646 -189.69176163 200.61919258 -192.75 203.25 C-196.76946036 206.71162651 -200.44855982 210.44893263 -204.1171875 214.27734375 C-206 216 -206 216 -208 216 C-208.226875 216.556875 -208.45375 217.11375 -208.6875 217.6875 C-210.36495411 220.64301438 -212.53053049 222.71646701 -215 225 C-216.05380859 225.99193359 -216.05380859 225.99193359 -217.12890625 227.00390625 C-221.6925494 231.21593644 -226.38315831 235.26811371 -231.25 239.125 C-232.20390625 239.89070312 -233.1578125 240.65640625 -234.140625 241.4453125 C-237.61737235 243.33567513 -239.25938097 243.05135742 -243 242 C-243.33 240.68 -243.66 239.36 -244 238 C-243.34 238 -242.68 238 -242 238 C-242.103125 237.071875 -242.20625 236.14375 -242.3125 235.1875 C-242.1578125 233.6096875 -242.1578125 233.6096875 -242 232 C-239.9375 230.625 -239.9375 230.625 -237 229 C-235.90099167 227.80336403 -234.84227216 226.56921247 -233.8125 225.3125 C-231.11920204 222.1028399 -228.32056947 219.5546718 -225 217 C-221.81971942 214.55032442 -219.15381546 212.1772605 -216.625 209.0625 C-212.94556633 204.60522881 -208.45973304 201.53889153 -203.80078125 198.16796875 C-200.82779223 195.8667011 -198.59864871 193.48121276 -196.28125 190.55078125 C-193.73300456 187.46647198 -190.53757972 185.1028158 -187.30078125 182.78125 C-182.17023166 179.08123101 -177.61103238 174.93490572 -173.00976562 170.61083984 C-168.62335518 166.51099802 -164.07495814 162.73068162 -159.33984375 159.03515625 C-156.87131148 156.88806891 -155.03127505 154.55639425 -153 152 C-150.9921875 150.26171875 -150.9921875 150.26171875 -148.875 148.6875 C-148.09898437 148.09839844 -147.32296875 147.50929688 -146.5234375 146.90234375 C-145.27433594 145.96068359 -145.27433594 145.96068359 -144 145 C-142.15962078 143.59249871 -140.32617534 142.17588189 -138.5 140.75 C-137.24703125 139.78320312 -137.24703125 139.78320312 -135.96875 138.796875 C-133.75119975 137.0661501 -133.75119975 137.0661501 -133 134 C-132.34 134 -131.68 134 -131 134 C-130.74863281 133.40058594 -130.49726563 132.80117188 -130.23828125 132.18359375 C-128.83349191 129.70637847 -127.51694652 128.67039712 -125.1875 127.0625 C-121.74497816 124.67204479 -118.95425819 121.97166177 -116 119 C-113.82723118 117.04128683 -111.60439452 115.14381327 -109.375 113.25 C-108.76688477 112.73211914 -108.15876953 112.21423828 -107.53222656 111.68066406 C-105.69119831 110.11680055 -103.84625678 108.55768554 -102 107 C-101.44280273 106.52820313 -100.88560547 106.05640625 -100.31152344 105.5703125 C-98.79618181 104.29073177 -97.27330472 103.02009048 -95.75 101.75 C-94.87859375 101.02296875 -94.0071875 100.2959375 -93.109375 99.546875 C-91 98 -91 98 -89 98 C-88.67 97.01 -88.34 96.02 -88 95 C-87.34 95 -86.68 95 -86 95 C-85.64421875 94.13761719 -85.64421875 94.13761719 -85.28125 93.2578125 C-83.72216345 90.51039778 -81.89692649 88.93059202 -79.5 86.875 C-73.25814172 81.39302012 -66.93289495 75.79052849 -61.8359375 69.203125 C-60.92714844 68.11257813 -60.92714844 68.11257813 -60 67 C-59.34 67 -58.68 67 -58 67 C-57.67 66.01 -57.34 65.02 -57 64 C-55.86520281 62.86520281 -54.72637633 61.73421806 -53.5703125 60.62109375 C-50.07685342 57.01466211 -47.08430262 52.95478524 -44 49 C-43.59555664 48.48308594 -43.19111328 47.96617187 -42.77441406 47.43359375 C-34.93680063 37.40241541 -27.36307645 27.61587986 -22 16 C-21.34 16 -20.68 16 -20 16 C-19.71640625 15.4225 -19.4328125 14.845 -19.140625 14.25 C-14.73930046 5.56793514 -10.81272284 -0.86501783 0 0 Z " fill="#070607" transform="translate(583,612)"/>
<path d="M0 0 C12.19746801 6.9962302 20.27530548 15.79102638 24.4140625 29.35546875 C26.45667245 39.79098099 24.38135505 51.40904833 18.93359375 60.5 C11.57229447 70.44587311 2.24801317 78.32097878 -10.19140625 80.37109375 C-24.56177341 81.98206088 -34.7330523 79.89701478 -46.3203125 70.95703125 C-54.29013967 63.77876514 -60.6424381 54.33876639 -61.49609375 43.50390625 C-61.81429929 32.79056703 -61.33582254 23.76578289 -54.19140625 15.37109375 C-53.53140625 15.37109375 -52.87140625 15.37109375 -52.19140625 15.37109375 C-52.09472656 14.78585937 -51.99804688 14.200625 -51.8984375 13.59765625 C-51.04507086 10.91025856 -49.89107949 9.7022536 -47.87890625 7.74609375 C-47.28464844 7.15570313 -46.69039062 6.5653125 -46.078125 5.95703125 C-42.63582344 3.0635024 -40.76873652 2.37109375 -36.19140625 2.37109375 C-35.86140625 1.38109375 -35.53140625 0.39109375 -35.19140625 -0.62890625 C-24.82897519 -8.14921423 -10.59269451 -5.40655277 0 0 Z " fill="#FCFCFC" transform="translate(641.19140625,312.62890625)"/>
<path d="M0 0 C1.10730469 -0.01224609 2.21460938 -0.02449219 3.35546875 -0.03710938 C18.84576553 -0.06473773 32.8773059 4.82181699 44.2109375 15.5078125 C49.59236629 21.18728965 57.75 30.86410526 57.75 39.1875 C58.41 39.1875 59.07 39.1875 59.75 39.1875 C61.82257105 45.16575274 62.09896001 50.63635182 62.0625 56.9375 C62.05831055 57.91525391 62.05412109 58.89300781 62.04980469 59.90039062 C61.89694793 69.65070031 60.61110091 77.20989043 54.75 85.1875 C53.68231872 87.12214963 52.62045252 89.06001316 51.5625 91 C44.37195275 103.34632261 33.20760016 111.53460633 19.75 116.1875 C14.52574766 117.3612307 9.38767421 117.34193188 4.0625 117.3125 C3.17344971 117.30839111 2.28439941 117.30428223 1.3684082 117.30004883 C-15.66007528 117.15541014 -28.5910493 113.25766229 -41.25 101.1875 C-43.43038485 98.63317051 -45.35860098 95.96089857 -47.25 93.1875 C-47.76820313 92.45789063 -48.28640625 91.72828125 -48.8203125 90.9765625 C-57.62606744 77.65730502 -59.32474027 61.34762211 -56.5546875 45.875 C-54.81869515 37.61743727 -51.93888079 30.23721587 -47.25 23.1875 C-46.68667969 22.32511719 -46.12335937 21.46273438 -45.54296875 20.57421875 C-34.7487939 5.59872143 -17.60608608 0.01010682 0 0 Z M-15.25 19.1875 C-15.58 20.1775 -15.91 21.1675 -16.25 22.1875 C-17.075 22.208125 -17.9 22.22875 -18.75 22.25 C-24.50203669 23.79072411 -28.12319541 28.06069541 -32.25 32.1875 C-32.25 33.1775 -32.25 34.1675 -32.25 35.1875 C-33.24 35.5175 -34.23 35.8475 -35.25 36.1875 C-36.67251232 37.79797953 -36.67251232 37.79797953 -37.875 39.8125 C-38.30039062 40.46476562 -38.72578125 41.11703125 -39.1640625 41.7890625 C-42.86100281 49.95424722 -42.54533689 61.81659093 -40.44921875 70.5078125 C-36.22144194 81.63659957 -28.65119474 90.47235589 -18.25 96.1875 C-17.31027344 96.80431641 -17.31027344 96.80431641 -16.3515625 97.43359375 C-7.82330322 102.30447702 3.98706915 101.24958867 13.33203125 99.52734375 C20.25812107 97.47352251 25.45818099 94.03669474 30.75 89.1875 C31.48476563 88.52105469 32.21953125 87.85460937 32.9765625 87.16796875 C41.58769873 78.97956102 44.7030423 69.04865895 45.25 57.25 C44.92314007 46.39256577 40.06159914 37.00884026 32.75 29.1875 C32.00169922 28.37732422 32.00169922 28.37732422 31.23828125 27.55078125 C21.89681709 18.58579928 9.70355708 14.81224847 -2.9375 14.8984375 C-7.48810336 15.29554204 -11.52324381 16.48288811 -15.25 19.1875 Z " fill="#090809" transform="translate(621.25,292.8125)"/>
<path d="M0 0 C3.15028103 19.53174238 3.15028103 19.53174238 0 26 C-2.40114861 28.72882213 -5.10255198 30.82411722 -8 33 C-9.68615782 34.64694485 -11.35570171 36.31126121 -13 38 C-14.66666667 39.66666667 -16.33333333 41.33333333 -18 43 C-19.1446875 44.16015625 -19.1446875 44.16015625 -20.3125 45.34375 C-23.86165585 48.85163659 -27.57070725 52.16468067 -31.28125 55.5 C-34.68901704 58.63357888 -37.9293292 61.91202932 -41.17578125 65.2109375 C-45.34827772 69.43682972 -49.59923764 73.46644081 -54.11328125 77.32421875 C-55.9469781 78.95290601 -57.62368271 80.66043098 -59.3125 82.4375 C-62.00955635 85.18910356 -64.83612328 87.36601247 -68 89.5625 C-73.61086357 93.52401631 -78.47411256 98.05450169 -83.43359375 102.77978516 C-88.01189635 107.12753418 -92.73280971 111.1310399 -97.671875 115.06640625 C-99.69409137 116.74593159 -101.46187795 118.45592962 -103.25 120.375 C-107.67387042 124.95762175 -112.94783506 128.46818577 -118.1015625 132.171875 C-121.63796852 134.71697624 -125.07462879 137.37094685 -128.5 140.0625 C-133.12443277 143.68024864 -137.89721172 146.97782649 -142.8125 150.1875 C-149.78133901 154.75750429 -155.92271064 159.46279158 -161.3125 165.875 C-166.30474004 171.7394475 -172.93661853 179.33512469 -181 180 C-182 179 -182 179 -182.35546875 175.7578125 C-181.9148246 171.09957435 -180.72506344 169.97370724 -177.3125 166.875 C-176.44238281 166.06804687 -175.57226562 165.26109375 -174.67578125 164.4296875 C-173.79277344 163.62789062 -172.90976563 162.82609375 -172 162 C-170.32671236 160.33998072 -168.66141184 158.67190497 -167 157 C-165.87401147 155.86858326 -164.74794836 154.73724074 -163.62182617 153.60595703 C-163.0073613 152.98826447 -162.39289642 152.3705719 -161.7598114 151.73416138 C-158.97186079 148.93273593 -156.18117767 146.13403894 -153.39038086 143.33544922 C-151.92626003 141.86629816 -150.46303779 140.39625103 -149.00073242 138.92529297 C-146.87139011 136.78371444 -144.73873984 134.64547668 -142.60546875 132.5078125 C-141.96248337 131.85966583 -141.31949799 131.21151917 -140.6570282 130.54373169 C-136.82972822 126.71596838 -132.89012284 123.0768626 -128.78779602 119.54501343 C-126.13706893 117.25425492 -123.5732686 114.87747642 -121 112.5 C-117.7221859 109.47995128 -114.43416732 106.47795863 -111.0625 103.5625 C-105.93891421 99.11781585 -100.99189165 94.48005392 -96.02368164 89.86352539 C-94.49453592 88.45539784 -92.95551536 87.05798343 -91.41186523 85.66577148 C-83.19249609 78.22404899 -75.35799134 70.44468819 -67.5625 62.5625 C-65.1084269 60.08167951 -62.65092869 57.6043229 -60.19140625 55.12890625 C-59.64239151 54.57159317 -59.09337677 54.01428009 -58.52772522 53.44007874 C-55.49847687 50.39164182 -52.36830276 47.67819363 -49 45 C-48.278125 44.0925 -47.55625 43.185 -46.8125 42.25 C-44.5378821 39.39233131 -41.947877 37.29564357 -39.0625 35.0625 C-35.37907204 32.20063426 -32.40447771 29.34393114 -29.49609375 25.71875 C-27.20702429 23.08900963 -24.5377171 20.94432469 -21.87890625 18.69921875 C-20.1561288 17.14119757 -18.78553945 15.58687614 -17.375 13.75 C-15 11 -15 11 -11.875 9.5625 C-7.85925266 7.38002862 -7.56006892 5.21218607 -6 1 C-4 0 -4 0 0 0 Z " fill="#080708" transform="translate(354,323)"/>
<path d="M0 0 C13.77437163 11.07392491 21.87485939 25.51261789 24.35205078 43.05322266 C25.00281067 49.05564552 24.81403625 55.04577089 24.5703125 61.06640625 C24.57417969 61.87335938 24.57804688 62.6803125 24.58203125 63.51171875 C23.9829424 80.09702063 10.88894775 96.12942798 -0.4296875 107.06640625 C-15.20075389 120.34701865 -33.51301372 123.09207206 -52.7421875 122.28417969 C-67.75116938 121.06797222 -84.3369328 113.57683431 -94.5078125 102.48828125 C-97.87720166 98.24230304 -100.65651617 93.71390695 -103.4296875 89.06640625 C-103.88085938 88.42316406 -104.33203125 87.77992188 -104.796875 87.1171875 C-114.51546788 73.20330142 -115.51397482 55.98944555 -113.06347656 39.62011719 C-109.64834493 22.34670086 -97.98956898 5.8194 -83.49169922 -4.28417969 C-56.06188357 -21.78080796 -25.65082952 -19.25639196 0 0 Z M-82.4296875 6.06640625 C-83.03683594 6.45441406 -83.64398437 6.84242188 -84.26953125 7.2421875 C-89.35577234 10.95231031 -92.30376344 16.74234381 -95.4296875 22.06640625 C-96.11289062 23.18660156 -96.79609375 24.30679688 -97.5 25.4609375 C-105.0589084 38.81173676 -105.29796208 56.26300048 -101.9296875 70.87890625 C-97.08212481 86.87757603 -86.5753128 99.2960408 -72.1171875 107.35546875 C-62.50588146 112.26712882 -52.89463723 112.166887 -42.3046875 112.25390625 C-41.4701001 112.26687744 -40.6355127 112.27984863 -39.77563477 112.29321289 C-31.73223974 112.30509617 -24.45692644 111.14220484 -17.4296875 107.06640625 C-16.60597656 106.59332031 -15.78226563 106.12023437 -14.93359375 105.6328125 C-5.01279917 99.67483184 2.02075615 93.09246462 7.2265625 82.6953125 C8.45121435 80.29940932 9.80395606 78.15863674 11.3203125 75.94140625 C15.92044143 68.63978651 15.88921137 60.33558517 15.8203125 51.94140625 C15.82804687 50.99136719 15.83578125 50.04132813 15.84375 49.0625 C15.82879525 43.67131086 15.34902868 39.16256926 13.5703125 34.06640625 C12.9103125 34.06640625 12.2503125 34.06640625 11.5703125 34.06640625 C11.291875 32.39578125 11.291875 32.39578125 11.0078125 30.69140625 C9.81120591 25.83611046 7.2490934 22.35654528 4.29296875 18.38671875 C2.5703125 16.06640625 2.5703125 16.06640625 0.6328125 12.81640625 C-6.17174087 3.74366842 -19.04476728 -2.0423578 -29.90625 -4.4921875 C-49.70841714 -6.9729468 -65.63336563 -4.87247998 -82.4296875 6.06640625 Z " fill="#F7F7F7" transform="translate(667.4296875,297.93359375)"/>
<path d="M0 0 C3.70983082 0.64596096 5.2502653 2.47618658 7.4453125 5.42578125 C9.79080924 8.94402636 10.02522653 10.28353819 9.4453125 14.42578125 C6.32403424 17.86804202 2.88461351 20.78291191 -0.7421875 23.67578125 C-5.26061421 27.33154438 -9.59542276 31.12956226 -13.890625 35.04296875 C-16.89649764 37.73150586 -19.96630862 40.33303483 -23.0546875 42.92578125 C-27.88714543 46.98563859 -32.62016473 51.13500695 -37.29296875 55.37890625 C-40.00318594 57.83167621 -42.75597922 60.23208243 -45.515625 62.62890625 C-46.95160425 63.89432858 -48.37219813 65.17731734 -49.78125 66.47265625 C-55.0958756 71.35449475 -60.59765865 75.85387259 -66.30224609 80.26196289 C-71.08120931 83.98362761 -75.54194629 87.97901972 -79.984375 92.09765625 C-83.17168553 94.98464269 -86.50598075 97.63782635 -89.88671875 100.29296875 C-93.01824321 102.79635434 -96.06805065 105.38574627 -99.1171875 107.98828125 C-102.76363164 111.09877897 -106.42761404 114.14604422 -110.2421875 117.05078125 C-114.28992248 120.1508614 -118.03585914 123.51814912 -121.80078125 126.953125 C-124.94198546 129.77352538 -128.14249834 132.5141954 -131.3671875 135.23828125 C-131.90633789 135.69428711 -132.44548828 136.15029297 -133.00097656 136.62011719 C-135.39330081 138.63525313 -137.80129249 140.62099533 -140.25390625 142.5625 C-142.48367399 144.29947369 -142.48367399 144.29947369 -144.05859375 145.94140625 C-146.05201698 147.9192152 -148.22260505 149.52393478 -150.4921875 151.17578125 C-151.34683594 151.81 -152.20148438 152.44421875 -153.08203125 153.09765625 C-155.5546875 154.42578125 -155.5546875 154.42578125 -157.87109375 154.12890625 C-158.70447266 153.78085937 -158.70447266 153.78085937 -159.5546875 153.42578125 C-159.5546875 152.43578125 -159.5546875 151.44578125 -159.5546875 150.42578125 C-160.2146875 150.42578125 -160.8746875 150.42578125 -161.5546875 150.42578125 C-160.2058549 146.41231069 -158.50942798 144.00500172 -155.51953125 141.02734375 C-154.70935547 140.2178125 -153.89917969 139.40828125 -153.06445312 138.57421875 C-152.21560547 137.74148438 -151.36675781 136.90875 -150.4921875 136.05078125 C-149.67041016 135.22578125 -148.84863281 134.40078125 -148.00195312 133.55078125 C-143.37162105 128.96052285 -138.63893198 124.75074423 -133.41210938 120.85058594 C-130.89568368 118.92026781 -128.76892144 116.69402089 -126.5546875 114.42578125 C-113.5759641 102.42578125 -113.5759641 102.42578125 -110.5546875 102.42578125 C-110.29300781 101.82765625 -110.03132813 101.22953125 -109.76171875 100.61328125 C-108.47441497 98.28030353 -107.28921289 97.10898842 -105.2421875 95.42578125 C-101.46746885 92.23915283 -97.84763638 88.92496913 -94.2421875 85.55078125 C-90.28380655 81.86411532 -86.27525124 78.31455505 -82.0546875 74.92578125 C-76.19320244 70.21110849 -70.72450472 65.13099974 -65.23828125 59.99169922 C-63.5327533 58.40538015 -61.81214673 56.8372085 -60.0859375 55.2734375 C-54.85959252 50.52816311 -49.83504588 45.79082994 -45.30078125 40.36328125 C-42.39098985 37.13451942 -39.10391391 34.3329469 -35.84765625 31.4609375 C-33.31195596 29.21034151 -30.91775602 26.85636601 -28.5546875 24.42578125 C-23.5546875 19.42578125 -23.5546875 19.42578125 -21.37890625 17.35546875 C-16.81783585 12.95116182 -13.47304741 9.03801185 -10.5546875 3.42578125 C-7.55978308 -0.41707803 -4.61150791 -0.12772398 0 0 Z " fill="#090808" transform="translate(456.5546875,554.57421875)"/>
<path d="M0 0 C3 0 3 0 4.60546875 1.4609375 C5.12753906 2.09257812 5.64960938 2.72421875 6.1875 3.375 C6.98220703 4.31472656 6.98220703 4.31472656 7.79296875 5.2734375 C9 7 9 7 9 9 C11.475 9.495 11.475 9.495 14 10 C14.33 10.99 14.66 11.98 15 13 C16.2375 13.7115625 16.2375 13.7115625 17.5 14.4375 C20 16 20 16 20.8125 18.1875 C20.874375 18.785625 20.93625 19.38375 21 20 C21.556875 20.061875 22.11375 20.12375 22.6875 20.1875 C25.98942866 21.3476371 27.62907991 23.45559795 30 26 C33.58074158 29.64818705 37.27785277 33.1301344 41.0625 36.5625 C48.7798519 43.56688806 48.7798519 43.56688806 51 46 C51 46.66 51 47.32 51 48 C52.485 48.495 52.485 48.495 54 49 C56.68365422 51.47178678 59.02543086 54.03161674 61.3125 56.875 C64.46017222 60.71888632 68.22856502 63.78854553 72 67 C76.80630898 71.20451737 81.5459747 75.41871684 86 80 C86.78375 80.680625 87.5675 81.36125 88.375 82.0625 C90 84 90 84 90.0625 86 C88.51887847 88.90564053 86.79264392 90.28633214 84 92 C79.77665227 91.65814386 76.84474581 89.93792127 73.3125 87.6875 C72.35988281 87.09324219 71.40726563 86.49898438 70.42578125 85.88671875 C67.98038885 83.98474689 67.21837268 82.76362584 66 80 C63.94999129 79.19471111 63.94999129 79.19471111 62 79 C62 78.34 62 77.68 62 77 C61.34 76.79375 60.68 76.5875 60 76.375 C56.52948354 74.78434662 53.84289379 72.70767229 50.8671875 70.33984375 C48.93516371 68.81385317 48.93516371 68.81385317 46 68 C44.83040585 66.83671661 43.6644179 65.66946846 42.52148438 64.47998047 C39.50885833 61.54953454 36.09776876 59.09374877 32.75 56.5625 C31.99509277 55.98701416 31.24018555 55.41152832 30.46240234 54.81860352 C25.98333194 51.42625997 21.47016558 48.16613646 16.6640625 45.24609375 C15 44 15 44 13.5859375 42.03515625 C11.65215596 39.55362871 9.74902698 38.52506475 7 37 C4.68058496 35.55138289 2.36853667 34.09450884 0.0625 32.625 C-0.53240234 32.25117188 -1.12730469 31.87734375 -1.74023438 31.4921875 C-3.516338 30.35858694 -5.262451 29.19177096 -7 28 C-7.58668457 27.60651367 -8.17336914 27.21302734 -8.77783203 26.80761719 C-11.62211061 24.71886315 -12.89516755 23.4915619 -13.640625 19.99609375 C-12.83628073 16.23431293 -11.46240119 14.76177667 -8.75 12.0625 C-5.05726125 8.2185625 -2.37687628 4.75375257 0 0 Z " fill="#FCFCFC" transform="translate(469,210)"/>
<path d="M0 0 C2.4375 0.375 2.4375 0.375 5 1 C5.33 1.66 5.66 2.32 6 3 C6.928125 3.1546875 6.928125 3.1546875 7.875 3.3125 C10 4 10 4 11.5 6.5625 C11.995 7.366875 12.49 8.17125 13 9 C14.32 9 15.64 9 17 9 C17 10.32 17 11.64 17 13 C17.88816406 13.25265625 18.77632812 13.5053125 19.69140625 13.765625 C23.08663748 15.03232284 25.17361018 16.43854596 27.9375 18.75 C28.79859375 19.4615625 29.6596875 20.173125 30.546875 20.90625 C32.61173331 22.66861314 34.65256754 24.45339297 36.6875 26.25 C38.92867678 28.20506911 41.1475202 29.74771473 43.75 31.1875 C46.48434024 32.71242052 47.86893529 33.86893529 50 36 C51.97620986 37.04622875 53.9737129 38.05439935 56 39 C56 39.66 56 40.32 56 41 C56.639375 41.28875 57.27875 41.5775 57.9375 41.875 C60 43 60 43 61 45 C62.82209972 45.75707473 62.82209972 45.75707473 64.9375 46.375 C68.85894875 47.74924222 68.85894875 47.74924222 70.125 50 C70.41375 50.66 70.7025 51.32 71 52 C74.0334467 53.76727858 74.0334467 53.76727858 77 55 C77 55.66 77 56.32 77 57 C77.556875 57.103125 78.11375 57.20625 78.6875 57.3125 C81.58252098 58.17318191 83.58932602 59.16027512 86 61 C87.3125 64.1875 87.3125 64.1875 88 67 C89.36125 67.185625 89.36125 67.185625 90.75 67.375 C93.58970323 67.92109677 95.52590591 68.57263803 98 70 C98 71.32 98 72.64 98 74 C97.34 74 96.68 74 96 74 C95.896875 74.598125 95.79375 75.19625 95.6875 75.8125 C94.89363064 78.33844795 94.04427591 79.34885407 92 81 C90.515 81.495 90.515 81.495 89 82 C87.62322215 83.86307651 87.62322215 83.86307651 86.4375 86.0625 C85.18359375 88.28515625 85.18359375 88.28515625 84 90 C83.34 90 82.68 90 82 90 C82 90.66 82 91.32 82 92 C77.82014449 90.64790761 75.74660288 88.96994332 72.9375 85.625 C65.55606264 77.12217566 57.63786156 69.22759845 49 62 C46.67576926 59.73536492 44.40884567 57.42533839 42.16015625 55.0859375 C38.93673185 51.78208217 35.81755698 48.73701267 32 46.125 C30.515 45.073125 30.515 45.073125 29 44 C29 43.34 29 42.68 29 42 C28.01 41.67 27.02 41.34 26 41 C26 40.01 26 39.02 26 38 C25.4225 37.90332031 24.845 37.80664062 24.25 37.70703125 C21.52646439 36.85119801 20.10288922 35.60556498 18 33.6875 C17.30777344 33.05714844 16.61554687 32.42679687 15.90234375 31.77734375 C15.27457031 31.19082031 14.64679687 30.60429687 14 30 C13.195625 29.2575 12.39125 28.515 11.5625 27.75 C10 26 10 26 9 23 C7.34928604 21.97388051 5.68029994 20.97691857 4 20 C2.64499081 18.68870078 1.31328657 17.35308313 0 16 C-1.97153395 14.29620523 -3.9829505 12.65031323 -6 11 C-5.55530671 5.96014269 -3.28656638 3.62365012 0 0 Z " fill="#FBFBFB" transform="translate(694,400)"/>
<path d="M0 0 C0.66 0 1.32 0 2 0 C3.19718851 1.4632304 4.39175564 2.92877195 5.56640625 4.41015625 C7.69944859 6.77568277 10.33637911 8.28344431 13 10 C13.99 11.485 13.99 11.485 15 13 C15.639375 13.28875 16.27875 13.5775 16.9375 13.875 C19.7090345 15.38674609 20.37445715 17.29076192 22 20 C25.1208741 23.62244315 27.9589302 26.50892934 32.3125 28.5625 C35 30 35 30 36.375 33.1875 C36.58125 34.115625 36.7875 35.04375 37 36 C33.7 35.34 30.4 34.68 27 34 C27 35.65 27 37.3 27 39 C21.07993046 33.42816984 16.27362961 26.90355552 12 20 C12 19.34 12 18.68 12 18 C11.13761719 17.66162109 11.13761719 17.66162109 10.2578125 17.31640625 C7.37195507 15.63382155 5.88555263 13.59402866 3.875 10.9375 C1.39068378 7.4287459 1.39068378 7.4287459 -2 5 C-1.34 3.35 -0.68 1.7 0 0 Z " fill="#747271" transform="translate(685,408)"/>
<path d="M0 0 C3.76811453 2.78512813 6.385876 5.60082822 9.0625 9.4375 C11.04124786 12.25476675 13.00824241 15.01011501 15.18359375 17.6796875 C17 20 17 20 18 22.6875 C19.23898051 25.55264243 20.23708743 25.74413065 23 27 C26 30.42857143 26 30.42857143 26 33 C25.34 33 24.68 33 24 33 C24.33 34.32 24.66 35.64 25 37 C23 35.625 23 35.625 21 34 C21 33.34 21 32.68 21 32 C20.38125 31.87625 19.7625 31.7525 19.125 31.625 C17 31 17 31 15 29 C14.01 29 13.02 29 12 29 C9.10109014 25.92539863 7.36643148 22.98542514 6 19 C7.32 17.68 8.64 16.36 10 15 C7.57331293 11.35996939 6.03697185 11.28839527 2 10 C1.67 9.34 1.34 8.68 1 8 C1.66 8 2.32 8 3 8 C2.690625 7.236875 2.38125 6.47375 2.0625 5.6875 C1.32106407 3.81210323 0.63771783 1.91315348 0 0 Z " fill="#878788" transform="translate(526,246)"/>
<path d="M0 0 C0.66 0 1.32 0 2 0 C3.19718851 1.4632304 4.39175564 2.92877195 5.56640625 4.41015625 C7.69944859 6.77568277 10.33637911 8.28344431 13 10 C13.99 11.485 13.99 11.485 15 13 C15.99 13.33 16.98 13.66 18 14 C18 14.99 18 15.98 18 17 C17.01 17 16.02 17 15 17 C15 18.98 15 20.96 15 23 C13.5 21.625 13.5 21.625 12 20 C12 19.34 12 18.68 12 18 C11.13761719 17.66162109 11.13761719 17.66162109 10.2578125 17.31640625 C7.37195507 15.63382155 5.88555263 13.59402866 3.875 10.9375 C1.39068378 7.4287459 1.39068378 7.4287459 -2 5 C-1.34 3.35 -0.68 1.7 0 0 Z " fill="#373334" transform="translate(685,408)"/>
<path d="M0 0 C-2 2.5 -2 2.5 -5 5 C-6.93564435 5.00411839 -8.87195544 5.00149706 -10.80664062 4.94042969 C-14.49421569 5.04058199 -17.78013547 6.20078729 -21.25 7.375 C-21.94351563 7.59671875 -22.63703125 7.8184375 -23.3515625 8.046875 C-26.0761242 8.93418437 -28.68971789 9.83834953 -31.234375 11.1640625 C-33 12 -33 12 -37 12 C-37 12.66 -37 13.32 -37 14 C-38.34191406 14.45439453 -38.34191406 14.45439453 -39.7109375 14.91796875 C-46.47042911 17.26001008 -52.82645747 19.70535893 -59.109375 23.1796875 C-59.73328125 23.45039063 -60.3571875 23.72109375 -61 24 C-61.66 23.67 -62.32 23.34 -63 23 C-57.50854671 18.94768619 -51.51693389 16.39669902 -45.25 13.75 C-43.55387573 13.03299927 -43.55387573 13.03299927 -41.82348633 12.30151367 C-33.56558058 8.89020602 -25.22434819 5.94499758 -16.6875 3.3125 C-15.59147461 2.97379883 -14.49544922 2.63509766 -13.36621094 2.28613281 C-8.75793785 0.91626239 -4.84041519 -0.18995895 0 0 Z " fill="#3D3D41" transform="translate(574,129)"/>
<path d="M0 0 C0.66 0 1.32 0 2 0 C6.28591323 9.78382651 8.6025707 19.47216369 10.59326172 29.91943359 C11.08982375 32.4594706 11.67454348 34.97684449 12.25 37.5 C13.28676525 42.64744851 13.17892728 47.77134737 13 53 C12.34 52.67 11.68 52.34 11 52 C10.50097656 49.94067383 10.50097656 49.94067383 10.140625 47.20703125 C9.99729736 46.19415039 9.85396973 45.18126953 9.70629883 44.13769531 C9.55572021 43.04038086 9.4051416 41.94306641 9.25 40.8125 C7.55279853 29.26453126 4.86085821 18.25919983 1.58056641 7.07226562 C0.92564869 4.73461147 0.4103232 2.39272803 0 0 Z " fill="#6B6C6F" transform="translate(837,273)"/>
<path d="M0 0 C2.31 0 4.62 0 7 0 C4.80048276 2.19951724 4.05342734 2.38593133 1.10546875 2.96484375 C0.32083252 3.1237207 -0.46380371 3.28259766 -1.2722168 3.44628906 C-2.52965698 3.68943848 -2.52965698 3.68943848 -3.8125 3.9375 C-5.54452796 4.28387298 -7.27629874 4.63153437 -9.0078125 4.98046875 C-9.85891602 5.1511084 -10.71001953 5.32174805 -11.58691406 5.49755859 C-14.80746479 6.16812652 -17.99504258 6.95751939 -21.1875 7.75 C-25.94537607 8.87558449 -30.12447318 9.2867957 -35 9 C-35 7.68 -35 6.36 -35 5 C-33.35567294 4.63890458 -31.7094792 4.28629924 -30.0625 3.9375 C-29.14597656 3.74027344 -28.22945312 3.54304687 -27.28515625 3.33984375 C-26.53105469 3.22769531 -25.77695312 3.11554687 -25 3 C-24.67 3.33 -24.34 3.66 -24 4 C-18.65720505 4.34844315 -13.83913012 3.46974033 -8.6015625 2.4453125 C-5.6998515 1.94862323 -2.93870112 1.84115129 0 2 C0 1.34 0 0.68 0 0 Z " fill="#5B5655" transform="translate(681,569)"/>
<path d="M0 0 C7.57142857 4.14285714 7.57142857 4.14285714 10 7 C10 6.34 10 5.68 10 5 C10.99 4.67 11.98 4.34 13 4 C17.92307692 9.04615385 17.92307692 9.04615385 18.3125 13.875 C18.209375 14.90625 18.10625 15.9375 18 17 C15 17 15 17 12.9375 15.0625 C12.51984375 14.61261719 12.1021875 14.16273438 11.671875 13.69921875 C8.64485851 10.62269498 5.28976532 7.89022259 2.01171875 5.0859375 C0 3 0 3 0 0 Z " fill="#979597" transform="translate(540,274)"/>
<path d="M0 0 C0.8971875 0.9590625 0.8971875 0.9590625 1.8125 1.9375 C3.90810337 4.20310389 3.90810337 4.20310389 7 5 C7 6.32 7 7.64 7 9 C6.01 9 5.02 9 4 9 C3.34 11.31 2.68 13.62 2 16 C0.35 16.33 -1.3 16.66 -3 17 C-3 17.66 -3 18.32 -3 19 C-4.65 19.33 -6.3 19.66 -8 20 C-8 19.34 -8 18.68 -8 18 C-8.763125 17.7525 -9.52625 17.505 -10.3125 17.25 C-13.2364045 15.89004442 -14.30004356 14.68414174 -16 12 C-13.0280615 13.12451727 -10.66559313 14.22293791 -8 16 C-4.58074001 15.64930667 -2.02149944 14.56527784 1 13 C0.9278125 12.39671875 0.855625 11.7934375 0.78125 11.171875 C0.6884375 10.37265625 0.595625 9.5734375 0.5 8.75 C0.4071875 7.96109375 0.314375 7.1721875 0.21875 6.359375 C0 4 0 4 0 0 Z " fill="#5E5D5F" transform="translate(557,285)"/>
<path d="M0 0 C2.5 1.4375 2.5 1.4375 5 4 C5.4451258 7.04256578 5.29359745 9.9465865 5 13 C5.99 13.33 6.98 13.66 8 14 C7.34 14 6.68 14 6 14 C6.33 15.98 6.66 17.96 7 20 C7.99 20.33 8.98 20.66 10 21 C10.144375 22.134375 10.28875 23.26875 10.4375 24.4375 C10.61171478 27.80777201 10.61171478 27.80777201 12 29 C13.44166033 34.24854466 14.31164443 39.60788136 15 45 C12.24243641 42.24243641 11.63427227 39.02428595 10.5625 35.375 C10.11757722 33.90313337 9.67098496 32.43177027 9.22265625 30.9609375 C9.02422119 30.29884277 8.82578613 29.63674805 8.62133789 28.95458984 C7.98071862 26.93934511 7.25660349 24.97443902 6.5 23 C4.95477532 18.93989126 3.62322523 14.82836659 2.3125 10.6875 C2.085625 9.98044922 1.85875 9.27339844 1.625 8.54492188 C0.69853921 5.58649953 0 3.11943919 0 0 Z " fill="#716E6F" transform="translate(567,176)"/>
<path d="M0 0 C2.9375 0.5625 2.9375 0.5625 4.8125 3.0625 C5.18375 3.8875 5.555 4.7125 5.9375 5.5625 C5.2775 5.5625 4.6175 5.5625 3.9375 5.5625 C3.2775 6.8825 2.6175 8.2025 1.9375 9.5625 C2.9275 10.8825 3.9175 12.2025 4.9375 13.5625 C3.9475 13.8925 2.9575 14.2225 1.9375 14.5625 C1.45539062 14.00820313 0.97328125 13.45390625 0.4765625 12.8828125 C-0.15507813 12.15835937 -0.78671875 11.43390625 -1.4375 10.6875 C-2.06398438 9.96820313 -2.69046875 9.24890625 -3.3359375 8.5078125 C-4.53676834 7.1548402 -5.7833345 5.8416655 -7.0625 4.5625 C-4.78345413 1.75752047 -3.6110163 0.66324789 0 0 Z " fill="#8B8B8B" transform="translate(531.0625,256.4375)"/>
<path d="M0 0 C0.763125 0.639375 1.52625 1.27875 2.3125 1.9375 C4.88246713 4.14232781 4.88246713 4.14232781 8 5 C9.12709313 7.76448432 9.91248136 10.56699642 10.7421875 13.43359375 C11.7764739 16.20879702 11.7764739 16.20879702 14.5078125 17.22265625 C15.74144531 17.60744141 15.74144531 17.60744141 17 18 C17.66 18.66 18.32 19.32 19 20 C19.66 20.33 20.32 20.66 21 21 C21.72159424 22.64363134 22.39351421 24.31050386 23 26 C21.35 25.67 19.7 25.34 18 25 C17.67 24.01 17.34 23.02 17 22 C16.1028125 21.566875 16.1028125 21.566875 15.1875 21.125 C12.22364675 19.60073262 10.85319297 17.74783785 9 15 C8.25 12.1875 8.25 12.1875 8 10 C7.401875 9.938125 6.80375 9.87625 6.1875 9.8125 C3.13084514 8.67717105 2.53365974 6.78847225 1 4 C0.34 3.67 -0.32 3.34 -1 3 C-0.67 2.01 -0.34 1.02 0 0 Z " fill="#777677" transform="translate(734,471)"/>
<path d="M0 0 C7.24095017 3.06347892 12.06621959 9.1428845 17 15 C17.92791016 16.08894682 18.85633215 17.17745763 19.78515625 18.265625 C20.77379719 19.42677718 21.76207791 20.58823615 22.75 21.75 C23.22203857 22.30494141 23.69407715 22.85988281 24.18041992 23.43164062 C31 31.49280586 31 31.49280586 31 35 C30.34 35 29.68 35 29 35 C28.67 34.01 28.34 33.02 28 32 C27.01 31.34 26.02 30.68 25 30 C25 29.01 25 28.02 25 27 C24.34 27 23.68 27 23 27 C21.21694476 24.36107824 20.00940379 22.02821137 19 19 C18.34 19 17.68 19 17 19 C15.63823078 17.35648543 14.31037934 15.68477344 13 14 C11.3563186 12.31066078 9.6857124 10.64740076 8 9 C6.55952947 7.58635388 5.12219212 6.1695102 3.6875 4.75 C2.99011719 4.06421875 2.29273438 3.3784375 1.57421875 2.671875 C0 1 0 1 0 0 Z " fill="#767676" transform="translate(776,182)"/>
<path d="M0 0 C0.66 1.32 1.32 2.64 2 4 C1.34 4 0.68 4 0 4 C0.7425 4.721875 1.485 5.44375 2.25 6.1875 C5 9 5 9 7.0625 11.6875 C8.96214367 13.95481664 10.28265723 14.93247248 13 16 C12.67 16.66 12.34 17.32 12 18 C7.02362638 16.78625034 4.15693228 14.67026507 0.515625 11.2421875 C-0.93120308 9.78870371 -0.93120308 9.78870371 -3 10 C-3 7.36 -3 4.72 -3 2 C-2.01 2 -1.02 2 0 2 C0 1.34 0 0.68 0 0 Z " fill="#959290" transform="translate(703,423)"/>
<path d="M0 0 C13.86 0.495 13.86 0.495 28 1 C26.69099784 3.61800432 25.72283306 3.96751632 23 5 C19.984375 5.1953125 19.984375 5.1953125 16.75 5.125 C15.67234375 5.10695313 14.5946875 5.08890625 13.484375 5.0703125 C12.66453125 5.04710937 11.8446875 5.02390625 11 5 C11 4.01 11 3.02 11 2 C7.37 1.67 3.74 1.34 0 1 C0 0.67 0 0.34 0 0 Z " fill="#C9C8CB" transform="translate(607,409)"/>
<path d="M0 0 C0.33 0.66 0.66 1.32 1 2 C2.32875961 2.67573672 3.66284094 3.34104032 5 4 C6.28016835 5.00435972 7.53128122 6.04690261 8.75 7.125 C9.67039062 7.93324219 9.67039062 7.93324219 10.609375 8.7578125 C11.06828125 9.16773438 11.5271875 9.57765625 12 10 C11.67 10.99 11.34 11.98 11 13 C9.68 13 8.36 13 7 13 C5 10.75 5 10.75 3 8 C2.236875 7.319375 1.47375 6.63875 0.6875 5.9375 C0.130625 5.298125 -0.42625 4.65875 -1 4 C-0.75 1.75 -0.75 1.75 0 0 Z " fill="#969595" transform="translate(722,442)"/>
<path d="M0 0 C1.50062713 0.0201013 3.00128034 0.03834564 4.50195312 0.0546875 C8.14768483 0.09838313 11.79242199 0.16720798 15.4375 0.25 C15.9325 1.24 15.9325 1.24 16.4375 2.25 C15.71796143 2.23428955 14.99842285 2.2185791 14.25708008 2.20239258 C-3.24401817 1.58663522 -3.24401817 1.58663522 -20.33984375 4.69140625 C-22.5625 5.25 -22.5625 5.25 -25.5625 4.25 C-17.1923091 -0.54375082 -9.33005881 -0.21834336 0 0 Z " fill="#4E4B4D" transform="translate(623.5625,280.75)"/>
<path d="M0 0 C0.66 0 1.32 0 2 0 C3.36857946 4.09950339 4.71736956 8.20524861 6.0625 12.3125 C6.45244141 13.47974609 6.84238281 14.64699219 7.24414062 15.84960938 C7.60830078 16.96787109 7.97246094 18.08613281 8.34765625 19.23828125 C8.68804932 20.26993408 9.02844238 21.30158691 9.37915039 22.36450195 C10 25 10 25 9 28 C6.15076917 25.15076917 5.5659341 21.7199376 4.5 17.9375 C4.27932861 17.17123291 4.05865723 16.40496582 3.83129883 15.61547852 C2.35960549 10.4450937 1.05461513 5.27307564 0 0 Z " fill="#454749" transform="translate(656,459)"/>
<path d="M0 0 C0.99 0.33 1.98 0.66 3 1 C3 1.66 3 2.32 3 3 C4.65 3 6.3 3 8 3 C8.33 3.99 8.66 4.98 9 6 C9.99 6 10.98 6 12 6 C12 6.66 12 7.32 12 8 C11.34 8 10.68 8 10 8 C10.33 9.32 10.66 10.64 11 12 C9 10.625 9 10.625 7 9 C7 8.34 7 7.68 7 7 C6.38125 6.87625 5.7625 6.7525 5.125 6.625 C3 6 3 6 1 4 C0.01 4 -0.98 4 -2 4 C-2 3.01 -2 2.02 -2 1 C-1.34 0.67 -0.68 0.34 0 0 Z " fill="#8C8C8E" transform="translate(540,271)"/>
<path d="M0 0 C3.52861782 0.57012602 5.01002597 1.74355003 7.375 4.375 C10.30885344 7.46093224 13.02127851 9.35028621 17 11 C17 11.99 17 12.98 17 14 C10.75600219 13.03938495 6.07938276 8.53264751 2 4 C0.6875 1.6875 0.6875 1.6875 0 0 Z " fill="#3F3B3D" transform="translate(703,427)"/>
<path d="M0 0 C2.543667 2.543667 3.23021995 4.50099979 4 8 C3.01191951 9.34219027 2.00992781 10.6741706 1 12 C0.00712396 14.7997335 0.00712396 14.7997335 -0.6875 17.75 C-1.06455078 19.22726562 -1.06455078 19.22726562 -1.44921875 20.734375 C-1.63097656 21.48203125 -1.81273437 22.2296875 -2 23 C-2.33 23 -2.66 23 -3 23 C-3.48350422 15.10276444 -1.67664721 7.66467297 0 0 Z " fill="#6D6A6A" transform="translate(403,285)"/>
<path d="M0 0 C-2 2.5 -2 2.5 -5 5 C-8.6875 5.125 -8.6875 5.125 -10.73046875 4.9765625 C-15.00550169 5.02071086 -18.99058622 6.61971001 -23 8 C-23.66 7.34 -24.32 6.68 -25 6 C-21.77429922 4.98857805 -18.54394135 3.99291347 -15.3125 3 C-14.40048828 2.71382812 -13.48847656 2.42765625 -12.54882812 2.1328125 C-11.66259766 1.86210937 -10.77636719 1.59140625 -9.86328125 1.3125 C-9.05157471 1.06113281 -8.23986816 0.80976563 -7.40356445 0.55078125 C-4.86033295 -0.03200496 -2.60022093 -0.09712888 0 0 Z " fill="#54545A" transform="translate(574,129)"/>
<path d="M0 0 C3.78639481 2.8018 6.46373482 5.66460145 9.1875 9.5 C9.86167969 10.4384375 10.53585937 11.376875 11.23046875 12.34375 C12.68323244 14.52449903 13.90775612 16.62506972 15 19 C12.09197539 16.78071806 10.04687238 15.07030857 8 12 C6.00827818 11.30899447 4.00838196 10.64097297 2 10 C1.67 9.34 1.34 8.68 1 8 C1.66 8 2.32 8 3 8 C2.690625 7.236875 2.38125 6.47375 2.0625 5.6875 C1.32106407 3.81210323 0.63771783 1.91315348 0 0 Z " fill="#727274" transform="translate(526,246)"/>
<path d="M0 0 C0.99 0 1.98 0 3 0 C2.08985525 7.28115803 -0.60819478 13.53941863 -4 20 C-4.625 18.1875 -4.625 18.1875 -5 16 C-4.34 15.01 -3.68 14.02 -3 13 C-2.92094936 10.66800612 -2.91201231 8.33167378 -3 6 C-2.01 6 -1.02 6 0 6 C0 4.02 0 2.04 0 0 Z " fill="#545259" transform="translate(833,432)"/>
<path d="M0 0 C0.99 0.33 1.98 0.66 3 1 C3.3721042 2.32303717 3.70630173 3.65737935 4 5 C4.66 5.33 5.32 5.66 6 6 C6.64158599 8.56634394 7.02199146 11.13823206 7.4375 13.75 C7.623125 14.4925 7.80875 15.235 8 16 C8.66 16.33 9.32 16.66 10 17 C10 17.66 10 18.32 10 19 C8.68 19 7.36 19 6 19 C5.73445312 18.09636719 5.46890625 17.19273437 5.1953125 16.26171875 C4.84210937 15.08222656 4.48890625 13.90273438 4.125 12.6875 C3.77695312 11.51574219 3.42890625 10.34398437 3.0703125 9.13671875 C2.11234547 5.89088275 2.11234547 5.89088275 0 3 C0 2.01 0 1.02 0 0 Z " fill="#524F50" transform="translate(592,252)"/>
<path d="M0 0 C2.475 0.99 2.475 0.99 5 2 C5 2.66 5 3.32 5 4 C6.1446875 4.0928125 6.1446875 4.0928125 7.3125 4.1875 C10 5 10 5 11.6875 7.3125 C12.120625 8.199375 12.55375 9.08625 13 10 C13.391875 10.763125 13.78375 11.52625 14.1875 12.3125 C14.455625 12.869375 14.72375 13.42625 15 14 C10.125 11.375 10.125 11.375 9 8 C7.68596724 7.29605388 6.3479743 6.63654342 5 6 C2.25 4 2.25 4 0 2 C0 1.34 0 0.68 0 0 Z " fill="#3F393D" transform="translate(466,516)"/>
<path d="M0 0 C2.8125 0.6875 2.8125 0.6875 6 2 C6.7115625 3.2065625 6.7115625 3.2065625 7.4375 4.4375 C9.66484703 8.09034913 12.0284976 8.57625386 16 10 C16 10.66 16 11.32 16 12 C9.67842119 10.82933726 4.39042813 6.5422585 0 2 C0 1.34 0 0.68 0 0 Z " fill="#706F70" transform="translate(725,420)"/>
<path d="M0 0 C0.66 0 1.32 0 2 0 C2 0.66 2 1.32 2 2 C2.556875 2.20625 3.11375 2.4125 3.6875 2.625 C6.97012371 4.57683032 8.70673246 6.94230994 11 10 C11 10.66 11 11.32 11 12 C11.66 12 12.32 12 13 12 C13 12.66 13 13.32 13 14 C8.81206167 12.66419209 6.85769718 11.0759681 4.25 7.5625 C3.65703125 6.78003906 3.0640625 5.99757813 2.453125 5.19140625 C1 3 1 3 0 0 Z " fill="#5A5557" transform="translate(445,494)"/>
<path d="M0 0 C3 1 3 1 4 3 C6.02463255 3.65213292 6.02463255 3.65213292 8 4 C8 4.99 8 5.98 8 7 C9.43750191 8.68798827 9.43750191 8.68798827 11 10 C10.67 10.66 10.34 11.32 10 12 C9.34 12 8.68 12 8 12 C6.55699673 10.24115867 5.19308786 8.41679923 3.875 6.5625 C3.15054688 5.55316406 2.42609375 4.54382813 1.6796875 3.50390625 C0 1 0 1 0 0 Z " fill="#737072" transform="translate(718,453)"/>
<path d="M0 0 C4.67867917 2.42931419 8.15855795 4.38265667 11 9 C10.67 9.99 10.34 10.98 10 12 C8.32448647 10.57282151 6.65980691 9.13291518 5 7.6875 C3.6078125 6.48673828 3.6078125 6.48673828 2.1875 5.26171875 C0 3 0 3 0 0 Z " fill="#9C9B9D" transform="translate(540,274)"/>
<path d="M0 0 C2.91180862 4.36771293 3.12438648 7.55153591 3.0625 12.75 C3.05347656 13.73484375 3.04445313 14.7196875 3.03515625 15.734375 C3.02355469 16.48203125 3.01195312 17.2296875 3 18 C2.34 17.67 1.68 17.34 1 17 C-0.20116938 11.35450392 -0.10414253 5.75098214 0 0 Z " fill="#545458" transform="translate(847,308)"/>
<path d="M0 0 C3.58513106 1.62184501 6.58992323 3.79256239 9.75 6.125 C11.22726562 7.21167969 11.22726562 7.21167969 12.734375 8.3203125 C13.48203125 8.87460938 14.2296875 9.42890625 15 10 C13 11 13 11 9.625 10.4375 C5.25994567 8.70653018 4.22829926 7.04395051 2 3 C1.34 2.01 0.68 1.02 0 0 Z " fill="#6C6A6C" transform="translate(457,234)"/>
<path d="M0 0 C1.32 0.33 2.64 0.66 4 1 C4 1.99 4 2.98 4 4 C3.01 4 2.02 4 1 4 C1 5.98 1 7.96 1 10 C-0.5 8.625 -0.5 8.625 -2 7 C-2 6.34 -2 5.68 -2 5 C-2.99 4.67 -3.98 4.34 -5 4 C-5 3.67 -5 3.34 -5 3 C-3.35 3 -1.7 3 0 3 C0 2.01 0 1.02 0 0 Z " fill="#3B3535" transform="translate(699,421)"/>
<path d="M0 0 C0.598125 0.639375 1.19625 1.27875 1.8125 1.9375 C3.90810337 4.20310389 3.90810337 4.20310389 7 5 C6.67 5.99 6.34 6.98 6 8 C5.01 8 4.02 8 3 8 C2.67 8.66 2.34 9.32 2 10 C-0.09350689 6.5980513 -0.17942163 3.94727588 0 0 Z " fill="#2A272B" transform="translate(557,285)"/>
<path d="M0 0 C0.66 0 1.32 0 2 0 C6.59225513 11.33712984 6.59225513 11.33712984 6 18 C4.14744375 15.22116563 3.35313647 13.27939159 2.4375 10.125 C2.18871094 9.28195312 1.93992187 8.43890625 1.68359375 7.5703125 C1.01590994 5.05982138 0.48027936 2.55234175 0 0 Z " fill="#555759" transform="translate(837,273)"/>
<path d="M0 0 C-0.71542969 0.41894531 -1.43085937 0.83789062 -2.16796875 1.26953125 C-4.96458749 2.97836174 -7.63643206 4.79641199 -10.3125 6.6875 C-11.19550781 7.31011719 -12.07851563 7.93273437 -12.98828125 8.57421875 C-13.65214844 9.04472656 -14.31601562 9.51523438 -15 10 C-15.66 9.67 -16.32 9.34 -17 9 C-15.7934375 8.1028125 -15.7934375 8.1028125 -14.5625 7.1875 C-11.77672016 5.19052724 -11.77672016 5.19052724 -11 2 C-9.00390625 1.015625 -9.00390625 1.015625 -6.5625 0.25 C-5.75941406 -0.01296875 -4.95632813 -0.2759375 -4.12890625 -0.546875 C-2 -1 -2 -1 0 0 Z " fill="#585657" transform="translate(522,170)"/>
<path d="M0 0 C1.32 0.33 2.64 0.66 4 1 C4 1.66 4 2.32 4 3 C4.66 3 5.32 3 6 3 C7.38232443 4.62626404 8.71937515 6.2925002 10 8 C8.68 8.33 7.36 8.66 6 9 C5.566875 8.360625 5.13375 7.72125 4.6875 7.0625 C3.08760823 4.73253997 3.08760823 4.73253997 0 4 C0 2.68 0 1.36 0 0 Z " fill="#3A3739" transform="translate(484,220)"/>
<path d="M0 0 C0.33 0.99 0.66 1.98 1 3 C0.34 3 -0.32 3 -1 3 C-0.67 2.01 -0.34 1.02 0 0 Z M-4 1 C-3.34 1 -2.68 1 -2 1 C-1.67 1.99 -1.34 2.98 -1 4 C-5.75 8.875 -5.75 8.875 -8 10 C-6.25 3.25 -6.25 3.25 -4 1 Z " fill="#8F8E8F" transform="translate(446,208)"/>
<path d="M0 0 C0.66 0 1.32 0 2 0 C0.38989473 4.07376031 -2.53822271 6.76507069 -5.625 9.75 C-6.140625 10.25660156 -6.65625 10.76320313 -7.1875 11.28515625 C-8.45383339 12.52803902 -9.7263144 13.76465276 -11 15 C-11.66 14.67 -12.32 14.34 -13 14 C-12.22914063 13.24074219 -11.45828125 12.48148438 -10.6640625 11.69921875 C-9.65090904 10.69544634 -8.63789552 9.69153268 -7.625 8.6875 C-7.11710937 8.18798828 -6.60921875 7.68847656 -6.0859375 7.17382812 C-3.77145867 4.87457613 -1.81652517 2.72478775 0 0 Z " fill="#29292A" transform="translate(332,594)"/>
<path d="M0 0 C0.99 0 1.98 0 3 0 C2.39009109 3.55780196 1.4216319 6.6828589 0 10 C-0.99 10 -1.98 10 -3 10 C-3 8.68 -3 7.36 -3 6 C-2.34 5.67 -1.68 5.34 -1 5 C-0.34444881 2.47266765 -0.34444881 2.47266765 0 0 Z " fill="#58545A" transform="translate(817,464)"/>
<path d="M0 0 C1.485 0.99 1.485 0.99 3 2 C3 2.66 3 3.32 3 4 C3.61875 4.2475 4.2375 4.495 4.875 4.75 C7.35068687 6.20628639 7.95125002 7.37812506 9 10 C8.34 10 7.68 10 7 10 C6.67 9.34 6.34 8.68 6 8 C3.47266765 7.34444881 3.47266765 7.34444881 1 7 C0.67 4.69 0.34 2.38 0 0 Z " fill="#6C6C6E" transform="translate(542,267)"/>
<path d="M0 0 C2.875 0.6875 2.875 0.6875 6 2 C7.3125 4.375 7.3125 4.375 8 7 C8.20625 7.763125 8.4125 8.52625 8.625 9.3125 C8.74875 9.869375 8.8725 10.42625 9 11 C7.02 10.01 5.04 9.02 3 8 C3 6.35 3 4.7 3 3 C2.34 3 1.68 3 1 3 C0.67 2.01 0.34 1.02 0 0 Z " fill="#969597" transform="translate(520,242)"/>
<path d="M0 0 C1.79236067 0.47656412 3.58386897 0.95633498 5.375 1.4375 C6.37273438 1.70433594 7.37046875 1.97117187 8.3984375 2.24609375 C12.33082881 3.3856606 14.17243203 5.07817976 17 8 C12.76677156 7.37954537 9.47709705 5.89476441 5.6875 3.9375 C4.61886719 3.38964844 3.55023437 2.84179688 2.44921875 2.27734375 C1.64097656 1.85582031 0.83273437 1.43429687 0 1 C0 0.67 0 0.34 0 0 Z " fill="#6C6A6B" transform="translate(518,553)"/>
<path d="M0 0 C3.91068803 1.65452186 6.8193138 4.22535885 10 7 C10.61875 7.53625 11.2375 8.0725 11.875 8.625 C13 10 13 10 13 13 C9.61802772 11.87267591 8.75942186 10.85817627 6.5 8.1875 C5.9121875 7.50042969 5.324375 6.81335938 4.71875 6.10546875 C3.08850576 4.10841956 1.52939678 2.0749438 0 0 Z " fill="#656567" transform="translate(776,182)"/>
<path d="M0 0 C0 3 0 3 -1.27734375 4.359375 C-1.82519531 4.81828125 -2.37304688 5.2771875 -2.9375 5.75 C-6.26642129 8.86743687 -6.81619635 11.4049087 -7 16 C-7.33 15.01 -7.66 14.02 -8 13 C-8.66 13 -9.32 13 -10 13 C-8.65515286 8.95838045 -6.9494838 6.61321846 -3.875 3.6875 C-3.15054687 2.99011719 -2.42609375 2.29273438 -1.6796875 1.57421875 C-1.12539063 1.05472656 -0.57109375 0.53523437 0 0 Z " fill="#444343" transform="translate(305,692)"/>
<path d="M0 0 C3 2 3 2 3.6953125 3.91796875 C3.90800781 5.04138672 3.90800781 5.04138672 4.125 6.1875 C4.2796875 6.98414063 4.434375 7.78078125 4.59375 8.6015625 C5.12360667 11.72975476 5.59820742 14.85262475 6 18 C3.52621876 15.52621876 2.96861769 13.43825655 1.875 10.125 C1.52179687 9.07570312 1.16859375 8.02640625 0.8046875 6.9453125 C0 4 0 4 0 0 Z " fill="#545051" transform="translate(576,203)"/>
<path d="M0 0 C3.78639125 1.26213042 4.04104596 2.65345351 6 6 C6.99 6.66 7.98 7.32 9 8 C9 8.66 9 9.32 9 10 C5.4213696 8.34832443 2.25179812 6.21713508 -1 4 C-0.67 2.68 -0.34 1.36 0 0 Z " fill="#504F50" transform="translate(485,197)"/>
<path d="M0 0 C2.5 1.375 2.5 1.375 5 4 C5.44908891 7.37080851 5.29036649 10.61884349 5 14 C2.81385576 11.81385576 2.31743465 10.46120051 1.375 7.5625 C1.11460937 6.78003906 0.85421875 5.99757812 0.5859375 5.19140625 C0 3 0 3 0 0 Z " fill="#605D5E" transform="translate(567,176)"/>
<path d="M0 0 C0.33 0 0.66 0 1 0 C0.91276622 1.77174819 0.80458345 3.54247377 0.6875 5.3125 C0.62949219 6.29863281 0.57148437 7.28476562 0.51171875 8.30078125 C-0.04622813 11.24384457 -0.68540132 12.18182999 -3 14 C-3 11.69 -3 9.38 -3 7 C-2.34 7 -1.68 7 -1 7 C-0.67 4.69 -0.34 2.38 0 0 Z " fill="#545257" transform="translate(844,406)"/>
<path d="M0 0 C0.66 0.66 1.32 1.32 2 2 C-3.34629602 3.0024305 -7.62374766 2.84888195 -13 2 C-13 1.67 -13 1.34 -13 1 C-8.63182208 0.30109153 -4.426216 -0.30880577 0 0 Z " fill="#A1A0A0" transform="translate(610,577)"/>
<path d="M0 0 C0.99 0.33 1.98 0.66 3 1 C1.625 3 1.625 3 0 5 C-0.66 5 -1.32 5 -2 5 C-2 5.99 -2 6.98 -2 8 C-3.32 8 -4.64 8 -6 8 C-6 7.01 -6 6.02 -6 5 C-5.01 5 -4.02 5 -3 5 C-2.67 4.01 -2.34 3.02 -2 2 C-1.34 2 -0.68 2 0 2 C0 1.34 0 0.68 0 0 Z " fill="#5B595B" transform="translate(760,506)"/>
<path d="M0 0 C0.66 0 1.32 0 2 0 C2.66 2.97 3.32 5.94 4 9 C2.02 7.68 0.04 6.36 -2 5 C-1.34 3.35 -0.68 1.7 0 0 Z " fill="#252222" transform="translate(685,408)"/>
<path d="M0 0 C0.66 0 1.32 0 2 0 C2.33 4.62 2.66 9.24 3 14 C-0.26566506 9.10150241 -0.09311493 5.68001091 0 0 Z " fill="#504B4B" transform="translate(396,376)"/>
<path d="M0 0 C0.33 0.66 0.66 1.32 1 2 C0.030625 2.598125 -0.93875 3.19625 -1.9375 3.8125 C-5.23052042 5.71127509 -5.23052042 5.71127509 -6 9 C-7.32 9 -8.64 9 -10 9 C-8.59070303 5.52867905 -7.09394917 4.11906726 -3.875 2.25 C-3.15054688 1.82203125 -2.42609375 1.3940625 -1.6796875 0.953125 C-1.12539063 0.63859375 -0.57109375 0.3240625 0 0 Z " fill="#5C5B5D" transform="translate(580,277)"/>
<path d="M0 0 C1.32 0 2.64 0 4 0 C3.67 0.99 3.34 1.98 3 3 C2.01 3 1.02 3 0 3 C-0.33 3.99 -0.66 4.98 -1 6 C-1.99 6 -2.98 6 -4 6 C-3.67 4.68 -3.34 3.36 -3 2 C-2.01 2 -1.02 2 0 2 C0 1.34 0 0.68 0 0 Z " fill="#4C4A4A" transform="translate(786,479)"/>
<path d="M0 0 C3.72114571 2.31537955 6.61229661 4.28579473 9 8 C7.68 8.33 6.36 8.66 5 9 C1.125 3.375 1.125 3.375 0 0 Z " fill="#605D5B" transform="translate(701,432)"/>
<path d="M0 0 C0.99 0 1.98 0 3 0 C3.33 0.99 3.66 1.98 4 3 C4.99 3.33 5.98 3.66 7 4 C6.67 5.32 6.34 6.64 6 8 C2.57701423 6.85900474 1.85241234 5.99914379 0 3 C0 2.01 0 1.02 0 0 Z " fill="#6A6A6B" transform="translate(513,232)"/>
<path d="M0 0 C1.65 0 3.3 0 5 0 C-1 6 -1 6 -3.5625 6.0625 C-4.7690625 6.0315625 -4.7690625 6.0315625 -6 6 C-4 3 -4 3 -1 2 C-0.67 1.34 -0.34 0.68 0 0 Z " fill="#737273" transform="translate(736,524)"/>
<path d="M0 0 C1.17539996 0.92652701 2.34010577 1.86663387 3.5 2.8125 C4.1496875 3.33457031 4.799375 3.85664063 5.46875 4.39453125 C7 6 7 6 7 9 C6.01 9 5.02 9 4 9 C2.95107762 7.36368108 1.95093297 5.69514137 1 4 C0.34 3.67 -0.32 3.34 -1 3 C-0.67 2.01 -0.34 1.02 0 0 Z " fill="#4D494B" transform="translate(734,471)"/>
<path d="M0 0 C3.81489819 0.76617202 5.33808753 2.1606267 8 5 C8.66 5.33 9.32 5.66 10 6 C10 6.99 10 7.98 10 9 C6.78956118 7.61811547 4.95063635 6.07578097 2.75 3.375 C2.22921875 2.74335938 1.7084375 2.11171875 1.171875 1.4609375 C0.78515625 0.97882813 0.3984375 0.49671875 0 0 Z " fill="#4F4D50" transform="translate(667,297)"/>
<path d="M0 0 C2.64 0.33 5.28 0.66 8 1 C8 1.66 8 2.32 8 3 C7.34 3 6.68 3 6 3 C6.33 4.32 6.66 5.64 7 7 C5 5.625 5 5.625 3 4 C3 3.34 3 2.68 3 2 C2.01 2 1.02 2 0 2 C0 1.34 0 0.68 0 0 Z " fill="#868688" transform="translate(544,276)"/>
<path d="M0 0 C5.20142984 2.44773169 7.82188865 6.40211381 11 11 C6.55511058 8.85321298 2.88000354 6.84381694 0.6875 2.25 C0.460625 1.5075 0.23375 0.765 0 0 Z " fill="#464448" transform="translate(498,234)"/>
<path d="M0 0 C0.66 0.66 1.32 1.32 2 2 C-2.625 6.875 -2.625 6.875 -6 8 C-4.73058503 4.08597051 -3.48832306 2.20927127 0 0 Z " fill="#969698" transform="translate(776,518)"/>
<path d="M0 0 C0.99 0.33 1.98 0.66 3 1 C1.52307692 5.67692308 1.52307692 5.67692308 -1.125 7.3125 C-2.053125 7.6528125 -2.053125 7.6528125 -3 8 C-2.37240135 5.07120629 -1.41377341 2.63904371 0 0 Z " fill="#595659" transform="translate(801,488)"/>
<path d="M0 0 C3.0466145 1.01553817 5.31143836 2.20762558 8 4 C8 4.66 8 5.32 8 6 C7.01 6 6.02 6 5 6 C4.67 5.34 4.34 4.68 4 4 C0.97065509 3.34227572 0.97065509 3.34227572 -2 3 C-2 2.34 -2 1.68 -2 1 C-1.34 0.67 -0.68 0.34 0 0 Z " fill="#5E5C5D" transform="translate(506,271)"/>
<path d="M0 0 C1.32 0.33 2.64 0.66 4 1 C3 4 3 4 0 6 C-0.99 6 -1.98 6 -3 6 C-2 4 -1 2 0 0 Z " fill="#6D6D6D" transform="translate(475,176)"/>
<path d="M0 0 C-6.625 4 -6.625 4 -10 4 C-10 3.01 -10 2.02 -10 1 C-3.375 -1.125 -3.375 -1.125 0 0 Z " fill="#3D3B3D" transform="translate(655,415)"/>
<path d="M0 0 C2.33333333 2.33333333 4.66666667 4.66666667 7 7 C7 7.99 7 8.98 7 10 C6.34 10 5.68 10 5 10 C4.67 9.01 4.34 8.02 4 7 C3.01 6.34 2.02 5.68 1 5 C0.3125 2.375 0.3125 2.375 0 0 Z " fill="#6F6F70" transform="translate(800,207)"/>
<path d="M0 0 C0.268125 0.61875 0.53625 1.2375 0.8125 1.875 C1.95556848 4.2995233 1.95556848 4.2995233 5 6 C5 6.66 5 7.32 5 8 C5.66 8.33 6.32 8.66 7 9 C5.68 9 4.36 9 3 9 C0.6875 6.1875 0.6875 6.1875 -1 3 C-0.67 2.01 -0.34 1.02 0 0 Z " fill="#7C7A7B" transform="translate(434,476)"/>
<path d="M0 0 C3.36591866 1.44253657 5.51047079 3.33264727 8 6 C6.68 6.33 5.36 6.66 4 7 C0 1.125 0 1.125 0 0 Z " fill="#6B6969" transform="translate(519,280)"/>
<path d="M0 0 C0.99 0.33 1.98 0.66 3 1 C4.6900877 4.80269732 5.19873962 7.05272168 4 11 C3.32591692 9.73308493 2.66099503 8.46129251 2 7.1875 C1.62875 6.47980469 1.2575 5.77210938 0.875 5.04296875 C0 3 0 3 0 0 Z " fill="#595758" transform="translate(592,252)"/>
<path d="M0 0 C0.33 0.99 0.66 1.98 1 3 C-0.21484375 4.82421875 -0.21484375 4.82421875 -1.9375 6.6875 C-2.50339844 7.31011719 -3.06929688 7.93273437 -3.65234375 8.57421875 C-4.09707031 9.04472656 -4.54179687 9.51523438 -5 10 C-5.66 9.67 -6.32 9.34 -7 9 C-7 8.01 -7 7.02 -7 6 C-5.35666496 4.96210419 -3.68756133 3.96432076 -2 3 C-1.34 2.01 -0.68 1.02 0 0 Z " fill="#5D5A5C" transform="translate(460,220)"/>
<path d="M0 0 C2.4375 0.75 2.4375 0.75 5 2 C5.8125 4.125 5.8125 4.125 6 6 C4.35 5.67 2.7 5.34 1 5 C0.67 3.35 0.34 1.7 0 0 Z " fill="#959495" transform="translate(477,214)"/>
<path d="M0 0 C1.32 0 2.64 0 4 0 C4 0.66 4 1.32 4 2 C5.32 2.33 6.64 2.66 8 3 C7.01 4.485 7.01 4.485 6 6 C3.96166576 4.7260411 1.96147874 3.38938077 0 2 C0 1.34 0 0.68 0 0 Z " fill="#524E52" transform="translate(483,531)"/>
<path d="M0 0 C0.66 0 1.32 0 2 0 C1.67 2.64 1.34 5.28 1 8 C0.01 8.33 -0.98 8.66 -2 9 C-2 7.35 -2 5.7 -2 4 C-1.34 4 -0.68 4 0 4 C0 2.68 0 1.36 0 0 Z " fill="#666265" transform="translate(846,396)"/>
<path d="M0 0 C1.9375 0.375 1.9375 0.375 4 1 C4.33 1.66 4.66 2.32 5 3 C2.36 3.33 -0.28 3.66 -3 4 C-2.01 2.68 -1.02 1.36 0 0 Z " fill="#383534" transform="translate(351,388)"/>
<path d="M0 0 C0.66 0 1.32 0 2 0 C2.625 2.8125 2.625 2.8125 3 6 C2.01 7.485 2.01 7.485 1 9 C0.34 8.67 -0.32 8.34 -1 8 C-1.04241723 5.66705225 -1.04092937 3.33297433 -1 1 C-0.67 0.67 -0.34 0.34 0 0 Z " fill="#7B7A79" transform="translate(399,375)"/>
<path d="M0 0 C0.625 1.8125 0.625 1.8125 1 4 C0.01 5.485 0.01 5.485 -1 7 C-1.66 7 -2.32 7 -3 7 C-3.33 7.66 -3.66 8.32 -4 9 C-3.46930939 5.17902761 -2.50298434 2.93828597 0 0 Z " fill="#8F8E8F" transform="translate(585,331)"/>
<path d="M0 0 C0.33 0 0.66 0 1 0 C1.33 3.63 1.66 7.26 2 11 C1.01 11.33 0.02 11.66 -1 12 C-0.67 8.04 -0.34 4.08 0 0 Z " fill="#2F2B2D" transform="translate(397,316)"/>
<path d="M0 0 C2.15341979 2.15341979 2.64111965 3.03923709 3 6 C2.01 7.485 2.01 7.485 1 9 C0.34 9 -0.32 9 -1 9 C-0.67 6.03 -0.34 3.06 0 0 Z " fill="#5C595A" transform="translate(403,285)"/>
<path d="M0 0 C1.65 0 3.3 0 5 0 C5 0.66 5 1.32 5 2 C7.475 2.99 7.475 2.99 10 4 C5.82412255 5.39195915 3.86525224 3.82323219 0 2 C0 1.34 0 0.68 0 0 Z " fill="#6C6A6A" transform="translate(645,284)"/>
<path d="M0 0 C2.93200474 2.85276137 5.64315404 5.65079784 8 9 C5.50638429 7.79618552 3.31856917 6.54571278 1 5 C0.3125 2.375 0.3125 2.375 0 0 Z " fill="#727272" transform="translate(502,217)"/>
<path d="M0 0 C-1.65 1.65 -3.3 3.3 -5 5 C-6.32 4.34 -7.64 3.68 -9 3 C-9 2.34 -9 1.68 -9 1 C-5.92677456 0.08941469 -3.19902639 -0.08886184 0 0 Z " fill="#656367" transform="translate(574,129)"/>
<path d="M0 0 C0.33 0.66 0.66 1.32 1 2 C-1.17508418 6.69360269 -1.17508418 6.69360269 -4.1875 7.8125 C-4.785625 7.874375 -5.38375 7.93625 -6 8 C-4.768606 4.30581799 -2.79208646 2.64890254 0 0 Z " fill="#262526" transform="translate(369,818)"/>
<path d="M0 0 C-2.12780579 2.34058637 -4.11562221 3.70700306 -7 5 C-7 4.34 -7 3.68 -7 3 C-7.66 2.67 -8.32 2.34 -9 2 C-5.5647952 -0.29013653 -4.014669 -0.17842973 0 0 Z " fill="#8E8D8E" transform="translate(755,515)"/>
<path d="M0 0 C1.32 0 2.64 0 4 0 C4 1.32 4 2.64 4 4 C2.35 4 0.7 4 -1 4 C-0.67 2.68 -0.34 1.36 0 0 Z " fill="#181415" transform="translate(695,420)"/>
<path d="M0 0 C0 3.51716303 -0.82445585 4.37121748 -3 7 C-4.32 6.67 -5.64 6.34 -7 6 C-4.69 4.02 -2.38 2.04 0 0 Z " fill="#1B1B1C" transform="translate(652,381)"/>
<path d="M0 0 C0 0.99 0 1.98 0 3 C-2.64 3 -5.28 3 -8 3 C-6.23110084 -0.53779831 -3.70375662 0 0 0 Z " fill="#3E3D3F" transform="translate(590,274)"/>
<path d="M0 0 C2.40072955 2.88087546 4.47291037 5.56404834 6 9 C1.125 6.125 1.125 6.125 0 5 C-0.04063832 3.33382885 -0.042721 1.66611905 0 0 Z " fill="#5B575B" transform="translate(475,521)"/>
<path d="M0 0 C2.475 0.495 2.475 0.495 5 1 C4.67 2.32 4.34 3.64 4 5 C3.01 5 2.02 5 1 5 C0.67 3.35 0.34 1.7 0 0 Z " fill="#343031" transform="translate(791,469)"/>
<path d="M0 0 C1.89213369 2.38573379 3.02391783 4.07175348 4 7 C3.01 8.485 3.01 8.485 2 10 C-0.09350689 6.5980513 -0.17942163 3.94727588 0 0 Z " fill="#797674" transform="translate(398,318)"/>
<path d="M0 0 C4.59037956 1.14759489 5.33669182 2.29039218 8 6 C7.01 6.33 6.02 6.66 5 7 C3.35 4.69 1.7 2.38 0 0 Z " fill="#9A9A9A" transform="translate(528,264)"/>
<path d="M0 0 C3.7952131 1.49097658 5.61042731 3.75700849 8 7 C7.01 7.495 7.01 7.495 6 8 C4.5 6.625 4.5 6.625 3 5 C3 4.34 3 3.68 3 3 C2.01 2.67 1.02 2.34 0 2 C0 1.34 0 0.68 0 0 Z " fill="#636264" transform="translate(517,253)"/>
<path d="M0 0 C0.33 0.99 0.66 1.98 1 3 C-1.31 4.98 -3.62 6.96 -6 9 C-4.52307692 4.32307692 -4.52307692 4.32307692 -1.875 2.6875 C-1.25625 2.460625 -0.6375 2.23375 0 2 C0 1.34 0 0.68 0 0 Z " fill="#ACACAC" transform="translate(460,189)"/>
<path d="M0 0 C0.33 0 0.66 0 1 0 C1 3.3 1 6.6 1 10 C0.01 9.67 -0.98 9.34 -2 9 C-2 8.01 -2 7.02 -2 6 C-1.34 6 -0.68 6 0 6 C0 4.02 0 2.04 0 0 Z " fill="#605C60" transform="translate(341,844)"/>
<path d="M0 0 C1.98 0.99 1.98 0.99 4 2 C4 2.66 4 3.32 4 4 C3.01 4 2.02 4 1 4 C1 5.65 1 7.3 1 9 C0.67 9 0.34 9 0 9 C0 6.03 0 3.06 0 0 Z " fill="#5D5C5B" transform="translate(613,632)"/>
<path d="M0 0 C1.98 0.99 1.98 0.99 4 2 C4 2.66 4 3.32 4 4 C4.66 4 5.32 4 6 4 C6 4.66 6 5.32 6 6 C3.5625 5.25 3.5625 5.25 1 4 C0.1875 1.875 0.1875 1.875 0 0 Z " fill="#393336" transform="translate(452,502)"/>
<path d="M0 0 C0.66 1.32 1.32 2.64 2 4 C1.34 4 0.68 4 0 4 C0 4.66 0 5.32 0 6 C-0.99 6 -1.98 6 -3 6 C-3 4.68 -3 3.36 -3 2 C-2.01 2 -1.02 2 0 2 C0 1.34 0 0.68 0 0 Z " fill="#7C7776" transform="translate(703,423)"/>
<path d="M0 0 C2.475 0.495 2.475 0.495 5 1 C5 1.99 5 2.98 5 4 C3.35 3.67 1.7 3.34 0 3 C0 2.01 0 1.02 0 0 Z " fill="#373739" transform="translate(699,400)"/>
<path d="M0 0 C2.375 0.25 2.375 0.25 5 1 C6.3125 3.0625 6.3125 3.0625 7 5 C3.34683329 3.75023244 2.21934164 3.32901247 0 0 Z " fill="#1E1E26" transform="translate(581,394)"/>
<path d="M0 0 C0.99 0.33 1.98 0.66 3 1 C2.67 2.32 2.34 3.64 2 5 C1.34 4.67 0.68 4.34 0 4 C-0.33 5.32 -0.66 6.64 -1 8 C-1.93065133 5.39417629 -2.14917407 4.35801776 -1.0625 1.75 C-0.711875 1.1725 -0.36125 0.595 0 0 Z " fill="#8E8B8C" transform="translate(846,392)"/>
<path d="M0 0 C1.32 1.32 2.64 2.64 4 4 C2.68 5.32 1.36 6.64 0 8 C0 5.36 0 2.72 0 0 Z " fill="#514E52" transform="translate(557,285)"/>
<path d="M0 0 C-0.33 1.65 -0.66 3.3 -1 5 C-2.32 5 -3.64 5 -5 5 C-5 4.01 -5 3.02 -5 2 C-2 0 -2 0 0 0 Z " fill="#5D5B5C" transform="translate(451,202)"/>
</svg>
