<?xml version="1.0" encoding="UTF-8"?>
<svg version="1.1" xmlns="http://www.w3.org/2000/svg" width="492" height="616">
<path d="M0 0 C162.36 0 324.72 0 492 0 C492 203.28 492 406.56 492 616 C329.64 616 167.28 616 0 616 C0 412.72 0 209.44 0 0 Z " fill="#FBFBFB" transform="translate(0,0)"/>
<path d="M0 0 C162.36 0 324.72 0 492 0 C492 203.28 492 406.56 492 616 C329.64 616 167.28 616 0 616 C0 412.72 0 209.44 0 0 Z M83 75 C83 244.62 83 414.24 83 589 C175.73 589 268.46 589 364 589 C364.33 566.89 364.66 544.78 365 522 C381.2788206 505.7211794 410.98083494 519.34356963 434 519 C434 372.48 434 225.96 434 75 C318.17 75 202.34 75 83 75 Z " fill="#161717" transform="translate(0,0)"/>
<path d="M0 0 C162.36 0 324.72 0 492 0 C492 203.28 492 406.56 492 616 C329.64 616 167.28 616 0 616 C0 412.72 0 209.44 0 0 Z M27 23 C26.60080722 26.01486914 26.46324477 28.6669768 26.49663544 31.68482208 C26.49082167 32.587288 26.48500791 33.48975392 26.47901797 34.41956729 C26.46431223 37.47174917 26.47835242 40.52314013 26.49206543 43.57531738 C26.4874607 45.77429128 26.48111068 47.9732621 26.47315645 50.17222643 C26.45638129 56.23677836 26.46474661 62.30108014 26.47710133 68.36563325 C26.48519127 74.22729941 26.47457871 80.08891133 26.46451186 85.95057003 C26.44341817 98.68417614 26.44528664 111.41770212 26.45682751 124.15131591 C26.46687772 135.29449448 26.46952217 146.43764363 26.46473694 157.58082581 C26.4644314 158.31910705 26.46412586 159.05738829 26.46381106 159.81804169 C26.46256577 162.81473695 26.46129217 165.8114322 26.459972 168.80812743 C26.44772763 196.93688077 26.45884309 225.06558298 26.48035959 253.19432843 C26.49934295 278.20168255 26.49764448 303.20895519 26.47851562 328.21630859 C26.45711119 356.29261193 26.44859589 384.36887006 26.46096468 412.44518042 C26.46224761 415.43651167 26.46349897 418.42784293 26.46473694 421.41917419 C26.46505325 422.15575163 26.46536956 422.89232907 26.46569545 423.65122703 C26.47025118 434.78918997 26.46491341 445.92712031 26.45481873 457.06507874 C26.44340152 469.72559872 26.44619848 482.38602582 26.4679417 495.04653418 C26.47848643 501.51163297 26.4825158 507.97656601 26.46934509 514.44166374 C26.45748611 520.35206834 26.46387593 526.26215249 26.4852553 532.17252773 C26.48974905 534.31850361 26.48739365 536.46450618 26.47775215 538.61046511 C26.46570726 541.51242898 26.47794112 544.41327399 26.49663544 547.31517792 C26.48727077 548.16155545 26.47790611 549.00793299 26.46825767 549.87995833 C26.48090405 554.39239132 26.48090405 554.39239132 28.90554476 558.02151537 C31.18062758 559.08438533 32.61067083 559.34975748 35.109375 559.29296875 C35.86347656 559.28330078 36.61757813 559.27363281 37.39453125 559.26367188 C38.56048828 559.2259668 38.56048828 559.2259668 39.75 559.1875 C40.93916016 559.16719727 40.93916016 559.16719727 42.15234375 559.14648438 C44.10185564 559.11125223 46.05101626 559.05744821 48 559 C47.95359375 560.25296875 47.9071875 561.5059375 47.859375 562.796875 C47.82185187 564.44789281 47.78545229 566.09893642 47.75 567.75 C47.71648438 568.575 47.68296875 569.4 47.6484375 570.25 C47.58919292 573.9231642 47.61776048 576.3186165 49.4375 579.5625 C53.32323176 581.74230074 56.87919051 581.42756414 61.25 581.25 C62.51070312 581.22292969 62.51070312 581.22292969 63.796875 581.1953125 C65.86507395 581.14830798 67.93268441 581.07656724 70 581 C69.96519531 582.26457031 69.93039063 583.52914062 69.89453125 584.83203125 C69.86639323 586.49217423 69.83909309 588.15233156 69.8125 589.8125 C69.78736328 590.64587891 69.76222656 591.47925781 69.73632812 592.33789062 C69.72666016 593.14033203 69.71699219 593.94277344 69.70703125 594.76953125 C69.68346558 595.87711792 69.68346558 595.87711792 69.65942383 597.00708008 C70.11492759 599.67251179 70.84138575 600.37845736 73 602 C75.84139694 602.45279785 75.84139694 602.45279785 79.13919067 602.37752342 C80.43217009 602.38534666 81.7251495 602.39316991 83.0573101 602.40123022 C84.50061033 602.3947434 85.94390931 602.3879734 87.38720703 602.38095093 C88.91383766 602.38440537 90.44046581 602.38916849 91.9670887 602.39513266 C96.17316853 602.40770176 100.37904519 602.40144558 104.58512592 602.39217401 C109.11688453 602.38540794 113.64860731 602.39585257 118.18035889 602.40411377 C127.06240365 602.41747948 135.94437252 602.41456076 144.82642031 602.40587585 C152.04267279 602.39911085 159.25890395 602.39817744 166.47515869 602.4014473 C167.50076971 602.401907 168.52638073 602.40236669 169.58307087 602.40284032 C171.66633909 602.40379946 173.74960729 602.4047721 175.83287549 602.4057581 C195.38465538 602.4143203 214.93639312 602.40446484 234.48816609 602.388357 C251.27793913 602.37495307 268.06764996 602.37728093 284.85742188 602.39111328 C304.33747572 602.40715444 323.81749259 602.41349625 343.29755211 602.40427649 C345.37331517 602.40332081 347.44907824 602.40237769 349.52484131 602.4014473 C350.54625501 602.40098447 351.56766871 602.40052164 352.62003434 602.40004479 C359.83070328 602.3974505 367.04134884 602.40183533 374.25201416 602.40888596 C383.03499209 602.41728491 391.81788955 602.41505472 400.60085821 602.39904372 C405.08523585 602.39113932 409.56947914 602.38810615 414.0538559 602.39799118 C418.15452475 602.40689393 422.25493402 602.40207881 426.35557914 602.38605852 C427.84341732 602.38269186 429.33127719 602.38444677 430.81910157 602.39168589 C432.83298935 602.40073717 434.84693807 602.38970846 436.86080933 602.37752342 C437.98201612 602.37703637 439.10322292 602.37654931 440.25840569 602.37604749 C443.41563005 601.9429906 444.07067543 601.44433872 446 599 C446.29440228 596.03630369 446.40213576 593.28291693 446.37752342 590.31797123 C446.38188374 589.41580491 446.38624407 588.51363859 446.39073652 587.58413389 C446.40176541 584.53307728 446.39123529 581.48246575 446.38095093 578.43141174 C446.38440448 576.23315238 446.38916699 574.03489475 446.39513266 571.83664078 C446.40771399 565.77405575 446.40143996 559.71161149 446.39217401 553.6490258 C446.38610654 547.78919047 446.39406601 541.92938567 446.4016161 536.06955454 C446.4174366 523.3396395 446.41603486 510.60976955 446.40737936 497.87985019 C446.39984145 486.73926619 446.39785849 475.59869874 446.4014473 464.45811272 C446.40167645 463.7199766 446.40190561 462.98184049 446.40214171 462.22133661 C446.40307568 459.22521259 446.40403087 456.22908858 446.405021 453.23296457 C446.41420443 425.10896513 446.40586761 396.98499445 446.38973031 368.86099945 C446.37549426 343.86036117 446.37676539 318.85976873 446.39111328 293.85913086 C446.40716877 265.78904944 446.41355174 237.71899345 446.40427649 209.64890808 C446.4033143 206.65783974 446.40237578 203.6667714 446.4014473 200.67570305 C446.40121006 199.93919304 446.40097283 199.20268302 446.40072841 198.44385452 C446.39731237 187.30944649 446.40131359 176.17505681 446.40888596 165.04065132 C446.41745137 152.38273702 446.41534578 139.72487497 446.39904372 127.0669672 C446.39113832 120.6037941 446.38810794 114.14071422 446.39799118 107.67754173 C446.40689178 101.76775266 446.4020821 95.85814375 446.38605852 89.94837116 C446.38269096 87.80372196 446.3844487 85.65905771 446.39168589 83.51441807 C446.40073331 80.61201517 446.3915285 77.71023938 446.37752342 74.80786991 C446.38805867 73.54224413 446.38805867 73.54224413 446.39880675 72.25105014 C446.36610145 68.88830575 446.25006151 66.45079754 444.60096228 63.47788948 C442.549766 61.58437741 441.53192445 61.53100924 438.76953125 61.609375 C437.56586914 61.62871094 437.56586914 61.62871094 436.33789062 61.6484375 C435.08782227 61.69871094 435.08782227 61.69871094 433.8125 61.75 C432.5450293 61.77707031 432.5450293 61.77707031 431.25195312 61.8046875 C429.16748427 61.85179414 427.08359856 61.92353767 425 62 C425.05220703 60.22882812 425.05220703 60.22882812 425.10546875 58.421875 C425.13361232 56.86459758 425.16091187 55.30730475 425.1875 53.75 C425.21263672 52.97269531 425.23777344 52.19539063 425.26367188 51.39453125 C425.30533822 48.1445566 425.19479203 45.54407429 424.09375 42.46875 C420.51600186 39.95898638 416.55166881 40.58874413 412.3125 40.75 C411.41982422 40.76804687 410.52714844 40.78609375 409.60742188 40.8046875 C407.40386496 40.85182241 405.20247399 40.91759343 403 41 C403.05220703 39.10314453 403.05220703 39.10314453 403.10546875 37.16796875 C403.13360677 35.50782577 403.16090691 33.84766844 403.1875 32.1875 C403.21263672 31.35412109 403.23777344 30.52074219 403.26367188 29.66210938 C403.27333984 28.85966797 403.28300781 28.05722656 403.29296875 27.23046875 C403.3086792 26.49207764 403.32438965 25.75368652 403.34057617 24.99291992 C402.8851795 22.32811487 402.15747183 21.6216864 400 20 C397.16673686 19.54723969 397.16673686 19.54723969 393.87922001 19.62247658 C391.94590103 19.61074171 391.94590103 19.61074171 389.97352511 19.59876978 C388.53484414 19.60525661 387.09616442 19.6120266 385.65748596 19.61904907 C384.13569281 19.61559462 382.61390216 19.61083148 381.09211677 19.60486734 C376.89936892 19.5922983 372.70682488 19.59855441 368.51407611 19.60782599 C363.9966134 19.61459215 359.47918662 19.60414735 354.96173096 19.59588623 C346.10742459 19.58252028 337.25319435 19.58543944 328.39888496 19.59412415 C321.20457088 19.60088949 314.01027819 19.60182241 306.81596184 19.5985527 C305.7934149 19.598093 304.77086797 19.59763331 303.71733476 19.59715968 C301.64026928 19.59620053 299.5632038 19.59522789 297.48613834 19.5942419 C277.99203216 19.58567952 258.49796824 19.59553521 239.00386899 19.611643 C222.26614864 19.62504494 205.52849071 19.62272075 188.79077148 19.60888672 C169.36967167 19.59284242 149.94860895 19.58650569 130.52750343 19.59572351 C128.45762027 19.59667919 126.3877371 19.5976223 124.31785393 19.5985527 C123.29934505 19.59901553 122.28083617 19.59947836 121.23146339 19.59995521 C114.04380655 19.6025487 106.85617318 19.59816633 99.66851997 19.59111404 C90.91192097 19.58271152 82.15540268 19.58495277 73.39881296 19.60095628 C68.92848816 19.60885615 64.45829805 19.61190151 59.98797417 19.60200882 C55.89897216 19.59309667 51.81023023 19.59793696 47.72125196 19.61394148 C46.23877953 19.61730413 44.75628531 19.61556207 43.27382679 19.60831411 C41.26477317 19.59924192 39.25565837 19.61030674 37.24662113 19.62247658 C36.12883182 19.62296363 35.0110425 19.62345069 33.85938078 19.62395251 C30.48405314 20.06785403 29.16184579 20.33998247 27 23 Z " fill="#FCFCFC" transform="translate(0,0)"/>
<path d="M0 0 C116.16 0 232.32 0 352 0 C352 2.97 352 5.94 352 9 C239.8 9 127.6 9 12 9 C10.74234786 12.77295643 10.85630472 16.29421551 10.8613348 20.2246809 C10.85849258 21.0773944 10.85565036 21.93010789 10.85272202 22.80866119 C10.84434149 25.69131329 10.84310418 28.57392538 10.84178162 31.45658875 C10.83721855 33.53395347 10.83221891 35.61131728 10.82681805 37.68867999 C10.81319844 43.41689155 10.80580755 49.14509716 10.79939139 54.8733207 C10.79140419 61.04306688 10.77770066 67.2128006 10.76467896 73.38253784 C10.7428923 84.0786014 10.72472126 94.77466553 10.70907402 105.47073936 C10.69264454 116.69122479 10.67416665 127.91170375 10.65294075 139.13218117 C10.65096434 140.17787048 10.65096434 140.17787048 10.648948 141.24468484 C10.6422461 144.78490061 10.63550749 148.32511631 10.62875474 151.86533199 C10.58096585 176.95391622 10.53778826 202.0425065 10.49731445 227.13110352 C10.45797921 251.50741006 10.41656024 275.88371161 10.37231445 300.26000977 C10.37095192 301.01112531 10.36958939 301.76224086 10.36818558 302.53611748 C10.35450044 310.07898885 10.34077288 317.62186015 10.32701423 325.16473138 C10.29898616 340.53102918 10.27124128 355.89732748 10.2436676 371.2636261 C10.2417653 372.32344969 10.2417653 372.32344969 10.23982458 373.40468385 C10.15513964 420.60311447 10.07707747 467.80155641 10 515 C6.7 515 3.4 515 0 515 C0 345.05 0 175.1 0 0 Z " fill="#837F7F" transform="translate(39,32)"/>
<path d="M0 0 C115.83 0 231.66 0 351 0 C351 2.97 351 5.94 351 9 C350.28344573 9.00097681 349.56689145 9.00195362 348.82862341 9.00296003 C306.39982412 9.0611783 263.97107677 9.13493414 221.54234103 9.22898628 C216.45270677 9.24025502 211.36307223 9.25139338 206.2734375 9.26245117 C205.26014371 9.26465486 204.24684993 9.26685854 203.20285027 9.269129 C186.77599894 9.30454243 170.34914767 9.32938369 153.92227228 9.35034702 C137.07826712 9.3720769 120.23431168 9.4051004 103.39034879 9.44870156 C92.98904878 9.47526689 82.58781076 9.49292625 72.18647848 9.49934604 C65.06276017 9.50458505 57.93912002 9.52075161 50.81544353 9.54566566 C46.69981606 9.55973195 42.58432865 9.5688325 38.46867561 9.56500816 C34.70592389 9.56161759 30.94347219 9.57184784 27.18078201 9.59323552 C25.16415149 9.60106339 23.1474805 9.59402717 21.13084853 9.58658296 C19.35356873 9.60076777 19.35356873 9.60076777 17.54038429 9.61523914 C16.5113422 9.61713775 15.4823001 9.61903635 14.42207491 9.62099248 C13.62279019 9.74606496 12.82350547 9.87113744 12 10 C9.47057371 13.79413943 9.71817196 16.81368701 9.73828697 21.20906353 C9.73429091 22.06008865 9.73029485 22.91111378 9.72617769 23.78792754 C9.71513159 26.66488431 9.71841477 29.54165103 9.7215271 32.41862488 C9.71652831 34.49186606 9.71065375 36.56510528 9.70397437 38.63834172 C9.6881099 44.35516362 9.68474015 50.07193646 9.68332577 55.78877771 C9.67964293 61.94626107 9.6644931 68.10371716 9.65071106 74.26118469 C9.6283992 84.93596944 9.61334021 95.61074195 9.60334396 106.28554344 C9.59282738 117.48370563 9.57820168 128.68184998 9.55806351 139.87999916 C9.55619021 140.92360896 9.55619021 140.92360896 9.55427906 141.98830178 C9.54791549 145.52147756 9.54147826 149.0546532 9.53501268 152.58782879 C9.48932538 177.6264957 9.45288829 202.6651684 9.421875 227.70385742 C9.39172109 252.03166553 9.35738723 276.35946186 9.31738281 300.68725586 C9.31553631 301.81168809 9.31553631 301.81168809 9.3136525 302.95883613 C9.30128586 310.48670416 9.28883412 318.01457205 9.27632002 325.54243984 C9.2508283 340.87817137 9.22590467 356.21390382 9.20132446 371.54963684 C9.20019355 372.25478041 9.19906264 372.95992398 9.19789747 373.68643554 C9.1224164 420.79094343 9.06022053 467.89547038 9 515 C6.03 515 3.06 515 0 515 C0 345.05 0 175.1 0 0 Z " fill="#C4C2C2" transform="translate(61,53)"/>
<path d="M0 0 C1.25139771 -0.00945648 2.50279541 -0.01891296 3.79211426 -0.02865601 C5.15893876 -0.02328631 6.52576038 -0.01713336 7.89257812 -0.01025391 C9.29358064 -0.01227483 10.69458214 -0.01518643 12.09558105 -0.01895142 C15.03110779 -0.02337394 17.96636058 -0.01694637 20.90185547 -0.00292969 C24.66490229 0.01416258 28.42730724 0.00432096 32.19033051 -0.01364708 C35.08311806 -0.0244871 37.9757534 -0.02103767 40.86854553 -0.0132637 C42.25602799 -0.01126228 43.64352427 -0.01371898 45.0309906 -0.02070236 C46.96987647 -0.02831946 48.90881078 -0.01465134 50.84765625 0 C51.95113403 0.00238678 53.05461182 0.00477356 54.19152832 0.00723267 C56.92382812 0.38818359 56.92382812 0.38818359 58.78031921 1.75743103 C60.43582689 4.11834257 60.29595407 5.92938933 60.28710938 8.79052734 C60.28614258 10.37317383 60.28614258 10.37317383 60.28515625 11.98779297 C60.26904297 13.08929688 60.25292969 14.19080078 60.23632812 15.32568359 C60.23955078 16.42332031 60.24277344 17.52095703 60.24609375 18.65185547 C60.19104751 26.85374482 60.19104751 26.85374482 57.92382812 31.38818359 C47.03382813 31.38818359 36.14382813 31.38818359 24.92382812 31.38818359 C24.92382812 33.36818359 24.92382812 35.34818359 24.92382812 37.38818359 C25.78661377 37.37247314 26.64939941 37.3567627 27.53833008 37.34057617 C30.74192079 37.28942405 33.94530328 37.25182199 37.14916992 37.22338867 C38.53530732 37.20830962 39.92139707 37.18784309 41.30737305 37.16186523 C43.30040959 37.12544644 45.29379535 37.11005341 47.28710938 37.09521484 C48.48634033 37.07950439 49.68557129 37.06379395 50.92114258 37.04760742 C53.92382812 37.38818359 53.92382812 37.38818359 55.8137207 38.5847168 C57.30248414 41.00334347 57.31179922 42.70321549 57.32226562 45.53662109 C57.32613281 46.54208984 57.33 47.54755859 57.33398438 48.58349609 C57.32238281 49.63279297 57.31078125 50.68208984 57.29882812 51.76318359 C57.31042969 52.80474609 57.32203125 53.84630859 57.33398438 54.91943359 C57.33011719 55.92748047 57.32625 56.93552734 57.32226562 57.97412109 C57.31888184 58.89241699 57.31549805 59.81071289 57.31201172 60.75683594 C56.82505664 64.05771762 56.11131905 65.85085236 53.92382812 68.38818359 C50.92114258 68.95581055 50.92114258 68.95581055 47.28710938 68.87646484 C45.98837891 68.86035156 44.68964844 68.84423828 43.3515625 68.82763672 C41.97980114 68.78585968 40.60805635 68.74353494 39.23632812 68.70068359 C37.85290431 68.67560105 36.46943735 68.65278777 35.0859375 68.63232422 C31.69748049 68.57329187 28.31119428 68.49098442 24.92382812 68.38818359 C24.93953857 69.37214111 24.95524902 70.35609863 24.97143555 71.36987305 C25.0257379 75.02066867 25.06017897 78.67142861 25.08862305 82.32250977 C25.10370907 83.90264896 25.12418063 85.48274628 25.15014648 87.06274414 C25.18653939 89.33408945 25.20355575 91.60488118 25.21679688 93.87646484 C25.23228073 94.5828157 25.24776459 95.28916656 25.26371765 96.016922 C25.26467611 98.81057879 25.21452026 100.89898798 23.76831055 103.33276367 C21.15477585 104.82823826 19.12185578 104.77686749 16.11914062 104.78662109 C14.97832031 104.79048828 13.8375 104.79435547 12.66210938 104.79833984 C11.46972656 104.78673828 10.27734375 104.77513672 9.04882812 104.76318359 C7.86417969 104.77478516 6.67953125 104.78638672 5.45898438 104.79833984 C4.31558594 104.79447266 3.1721875 104.79060547 1.99414062 104.78662109 C0.95016113 104.7832373 -0.09381836 104.77985352 -1.16943359 104.77636719 C-4.74364435 104.29904524 -6.33970206 103.77576918 -9.07617188 101.38818359 C-9.84686606 98.30773807 -9.73793966 95.25978932 -9.69140625 92.09912109 C-9.69695526 91.14765198 -9.70250427 90.19618286 -9.70822144 89.21588135 C-9.72005167 86.06447303 -9.69570789 82.91449178 -9.66992188 79.76318359 C-9.66821163 77.57747463 -9.66827557 75.39176361 -9.67004395 73.20605469 C-9.66838878 68.62268483 -9.64965416 64.03980294 -9.61816406 59.45654297 C-9.5784861 53.5748453 -9.5741176 47.69378729 -9.58162689 41.8119812 C-9.58469314 37.29787309 -9.57258834 32.78390941 -9.55549622 28.26983643 C-9.54845356 26.10085964 -9.54534321 23.93186647 -9.54618835 21.76287842 C-9.54439515 18.73403209 -9.52305397 15.70595911 -9.49609375 12.67724609 C-9.49902435 11.77637268 -9.50195496 10.87549927 -9.50497437 9.94732666 C-9.49362457 9.12295105 -9.48227478 8.29857544 -9.47058105 7.44921875 C-9.46685234 6.73319489 -9.46312363 6.01717102 -9.45928192 5.27944946 C-8.40835982 0.09145422 -4.59339989 0.00993535 0 0 Z " fill="#141615" transform="translate(352.076171875,92.61181640625)"/>
<path d="M0 0 C0.95160665 -0.00782324 1.90321329 -0.01564648 2.8836565 -0.02370679 C4.45498608 -0.01366855 4.45498608 -0.01366855 6.05805969 -0.00342751 C7.16923251 -0.00810748 8.28040533 -0.01278745 9.42525005 -0.01760924 C13.16796306 -0.02962487 16.91031434 -0.02007617 20.6530304 -0.01066017 C23.32838519 -0.01472296 26.00371463 -0.01995417 28.67906189 -0.02659035 C35.20289559 -0.03994977 41.72662592 -0.03704016 48.25046372 -0.02835242 C53.55119569 -0.02158495 58.85189862 -0.02065509 64.15263367 -0.02392387 C65.2830721 -0.02461342 65.2830721 -0.02461342 66.43634766 -0.0253169 C67.96718988 -0.02627605 69.49803208 -0.02724869 71.02887428 -0.02823468 C85.39301798 -0.03679504 99.7571043 -0.02694432 114.12123859 -0.01083358 C126.45380471 0.0025702 138.78628612 0.00024229 151.11885071 -0.01358986 C165.43061246 -0.02963428 179.74232388 -0.035971 194.05409336 -0.02675307 C195.57939211 -0.02579739 197.10469086 -0.02485428 198.62998962 -0.02392387 C199.38052052 -0.02346105 200.13105141 -0.02299822 200.90432566 -0.02252137 C206.20040478 -0.01992806 211.49645206 -0.0243098 216.79252625 -0.03136253 C223.24423498 -0.03976512 229.69583418 -0.03752367 236.14753032 -0.0215203 C239.44107833 -0.0136207 242.73440516 -0.01218177 246.02795792 -0.02046776 C249.59367798 -0.02861398 253.15887711 -0.01844525 256.7245636 -0.00342751 C258.29589318 -0.01346575 258.29589318 -0.01346575 259.89896679 -0.02370679 C260.85057343 -0.01588355 261.80218008 -0.00806031 262.78262329 0 C263.60612935 0.00048706 264.42963541 0.00097411 265.2780962 0.00147593 C267.93197244 0.47373422 268.81493344 1.21448553 270.39131165 3.37752342 C271.04518176 9.48031117 271.04518176 9.48031117 269.15591717 12.07267821 C266.88775177 13.74988296 265.58976909 13.75338658 262.78262329 13.75504684 C261.83101665 13.76287009 260.87941 13.77069333 259.89896679 13.77875364 C258.85141374 13.77206147 257.80386068 13.76536931 256.7245636 13.75847435 C255.05780437 13.76549431 255.05780437 13.76549431 253.35737324 13.77265608 C249.61466023 13.78467171 245.87230895 13.77512302 242.1295929 13.76570702 C239.4542381 13.7697698 236.77890866 13.77500102 234.1035614 13.78163719 C227.5797277 13.79499661 221.05599737 13.792087 214.53215957 13.78339927 C209.2314276 13.77663179 203.93072467 13.77570194 198.62998962 13.77897072 C197.4995512 13.77966027 197.4995512 13.77966027 196.34627563 13.78036375 C194.81543341 13.78132289 193.28459121 13.78229553 191.75374901 13.78328152 C177.38960531 13.79184188 163.02551899 13.78199117 148.6613847 13.76588042 C136.32881858 13.75247664 123.99633717 13.75480456 111.66377258 13.7686367 C97.35201083 13.78468113 83.04029941 13.79101785 68.72852993 13.78179991 C67.20323118 13.78084424 65.67793243 13.77990113 64.15263367 13.77897072 C63.40210277 13.77850789 62.65157188 13.77804507 61.87829763 13.77756821 C56.58221851 13.7749749 51.28617123 13.77935665 45.99009705 13.78640938 C39.53838831 13.79481197 33.08678911 13.79257052 26.63509297 13.77656715 C23.34154496 13.76866755 20.04821813 13.76722862 16.75466537 13.7755146 C13.18894531 13.78366082 9.62374618 13.7734921 6.05805969 13.75847435 C5.01050664 13.76516652 3.96295359 13.77185868 2.8836565 13.77875364 C1.93204986 13.7709304 0.98044321 13.76310715 0 13.75504684 C-0.82350606 13.75455979 -1.64701212 13.75407273 -2.49547291 13.75357091 C-5.14934915 13.28131263 -6.03231015 12.54056131 -7.60868835 10.37752342 C-8.26255847 4.27473567 -8.26255847 4.27473567 -6.37329388 1.68236864 C-4.10512848 0.00516389 -2.8071458 0.00166027 0 0 Z " fill="#1B1B1B" transform="translate(126.60868835449219,464.6224765777588)"/>
<path d="M0 0 C0.9501143 -0.00782324 1.9002286 -0.01564648 2.87913424 -0.02370679 C3.9198835 -0.01701463 4.96063276 -0.01032246 6.03291988 -0.00342751 C7.14086358 -0.00810748 8.24880727 -0.01278745 9.39032501 -0.01760924 C13.11611331 -0.02960937 16.84153719 -0.02008218 20.56732845 -0.01066017 C23.23297868 -0.01472362 25.8986035 -0.01995534 28.56424618 -0.02659035 C35.06053736 -0.03994131 41.55672466 -0.03704404 48.05301995 -0.02835242 C53.33132147 -0.02158222 58.60959383 -0.02065628 63.88789845 -0.02392387 C64.63861321 -0.02438357 65.38932798 -0.02484327 66.16279168 -0.0253169 C67.68775536 -0.02627606 69.21271903 -0.0272487 70.73768269 -0.02823468 C85.04221929 -0.03679241 99.34669824 -0.02694813 113.65122538 -0.01083358 C125.93204511 0.0025727 138.21277979 0.00023972 150.49359798 -0.01358986 C164.74786831 -0.0296342 179.0020881 -0.03597128 193.25636619 -0.02675307 C194.77547069 -0.0257974 196.29457519 -0.02485429 197.8136797 -0.02392387 C198.56115149 -0.02346105 199.30862329 -0.02299822 200.07874574 -0.02252137 C205.35279513 -0.01992824 210.62681254 -0.02430936 215.90085697 -0.03136253 C222.32509329 -0.03976491 228.7492196 -0.03752401 235.17344327 -0.0215203 C238.45282167 -0.01362084 241.73197795 -0.01218164 245.01136112 -0.02046776 C248.56170176 -0.02861406 252.11151921 -0.0184452 255.66182613 -0.00342751 C256.70480612 -0.01011967 257.7477861 -0.01681184 258.82237154 -0.02370679 C260.24363137 -0.01197193 260.24363137 -0.01197193 261.69360352 0 C262.51352974 0.00048706 263.33345596 0.00097411 264.17822844 0.00147593 C266.82679397 0.47448195 267.70955563 1.21931229 269.28388119 3.37752342 C269.9377513 9.48031117 269.9377513 9.48031117 268.04848671 12.07267821 C265.78032131 13.74988296 264.48233863 13.75338658 261.67519283 13.75504684 C260.72358619 13.76287009 259.77197954 13.77069333 258.79153633 13.77875364 C257.74398328 13.77206147 256.69643023 13.76536931 255.61713314 13.75847435 C253.95037391 13.76549431 253.95037391 13.76549431 252.24994278 13.77265608 C248.50722978 13.78467171 244.7648785 13.77512302 241.02216244 13.76570702 C238.34680764 13.7697698 235.67147821 13.77500102 232.99613094 13.78163719 C226.47229724 13.79499661 219.94856691 13.792087 213.42472911 13.78339927 C208.12399714 13.77663179 202.82329421 13.77570194 197.52255917 13.77897072 C196.39212074 13.77966027 196.39212074 13.77966027 195.23884517 13.78036375 C193.70800296 13.78132289 192.17716075 13.78229553 190.64631855 13.78328152 C176.28217485 13.79184188 161.91808853 13.78199117 147.55395424 13.76588042 C135.22138813 13.75247664 122.88890671 13.75480456 110.55634212 13.7686367 C96.24458038 13.78468113 81.93286896 13.79101785 67.62109947 13.78179991 C66.09580073 13.78084424 64.57050197 13.77990113 63.04520321 13.77897072 C62.29467232 13.77850789 61.54414142 13.77804507 60.77086717 13.77756821 C55.47478805 13.7749749 50.17874078 13.77935665 44.88266659 13.78640938 C38.43095785 13.79481197 31.97935866 13.79257052 25.52766252 13.77656715 C22.2341145 13.76866755 18.94078768 13.76722862 15.64723492 13.7755146 C12.08151485 13.78366082 8.51631573 13.7734921 4.95062923 13.75847435 C3.90307618 13.76516652 2.85552313 13.77185868 1.77622604 13.77875364 C0.8246194 13.7709304 -0.12698725 13.76310715 -1.10743046 13.75504684 C-1.93093652 13.75455979 -2.75444258 13.75407273 -3.60290337 13.75357091 C-6.25708326 13.28125859 -7.13654303 12.5381172 -8.71611881 10.37752342 C-9.15361881 6.87752342 -9.15361881 6.87752342 -8.71611881 3.37752342 C-5.90371831 0.62588322 -3.87848705 0.00230346 0 0 Z " fill="#1A1C1B" transform="translate(127.71611881256104,321.6224765777588)"/>
<path d="M0 0 C0.95160665 -0.00782324 1.90321329 -0.01564648 2.8836565 -0.02370679 C4.45498608 -0.01366855 4.45498608 -0.01366855 6.05805969 -0.00342751 C7.16923251 -0.00810748 8.28040533 -0.01278745 9.42525005 -0.01760924 C13.16796306 -0.02962487 16.91031434 -0.02007617 20.6530304 -0.01066017 C23.32838519 -0.01472296 26.00371463 -0.01995417 28.67906189 -0.02659035 C35.20289559 -0.03994977 41.72662592 -0.03704016 48.25046372 -0.02835242 C53.55119569 -0.02158495 58.85189862 -0.02065509 64.15263367 -0.02392387 C65.2830721 -0.02461342 65.2830721 -0.02461342 66.43634766 -0.0253169 C67.96718988 -0.02627605 69.49803208 -0.02724869 71.02887428 -0.02823468 C85.39301798 -0.03679504 99.7571043 -0.02694432 114.12123859 -0.01083358 C126.45380471 0.0025702 138.78628612 0.00024229 151.11885071 -0.01358986 C165.43061246 -0.02963428 179.74232388 -0.035971 194.05409336 -0.02675307 C195.57939211 -0.02579739 197.10469086 -0.02485428 198.62998962 -0.02392387 C199.38052052 -0.02346105 200.13105141 -0.02299822 200.90432566 -0.02252137 C206.20040478 -0.01992806 211.49645206 -0.0243098 216.79252625 -0.03136253 C223.24423498 -0.03976512 229.69583418 -0.03752367 236.14753032 -0.0215203 C239.44107833 -0.0136207 242.73440516 -0.01218177 246.02795792 -0.02046776 C249.59367798 -0.02861398 253.15887711 -0.01844525 256.7245636 -0.00342751 C258.29589318 -0.01346575 258.29589318 -0.01346575 259.89896679 -0.02370679 C260.85057343 -0.01588355 261.80218008 -0.00806031 262.78262329 0 C263.60612935 0.00048706 264.42963541 0.00097411 265.2780962 0.00147593 C267.93257797 0.47384197 268.80854615 1.2193691 270.39131165 3.37752342 C270.89131165 6.87752342 270.89131165 6.87752342 270.39131165 10.37752342 C265.87816647 14.49559761 260.34762694 13.798734 254.60467529 13.76520348 C253.50474985 13.77058901 252.4048244 13.77597455 251.27156788 13.78152329 C247.57886604 13.7958527 243.88652015 13.7886867 240.19380188 13.78157616 C237.54933025 13.78727704 234.90488435 13.79413928 232.26042175 13.80237389 C225.81941816 13.81957142 219.37851207 13.8204001 212.93749147 13.81516098 C207.70355747 13.81112055 202.4696523 13.81256132 197.23571968 13.81790924 C196.11860993 13.81903187 196.11860993 13.81903187 194.97893231 13.82017719 C193.4660499 13.82170865 191.95316749 13.82324699 190.44028509 13.82479215 C176.25303302 13.83852014 162.0658361 13.83307696 147.87858529 13.82160694 C134.89353225 13.81166974 121.90862161 13.82462307 108.92359053 13.84854113 C95.5937718 13.87290958 82.26401946 13.88254585 68.93417889 13.87588841 C61.44911339 13.87239173 53.96415749 13.87465791 46.47910881 13.89213943 C40.10870146 13.90683311 33.73848091 13.90753401 27.36807733 13.89006852 C24.11685784 13.8815333 20.86604263 13.88162281 17.61482811 13.89472008 C14.09322083 13.90782704 10.57253126 13.89647319 7.05096436 13.87872887 C5.50355966 13.89313638 5.50355966 13.89313638 3.92489427 13.90783495 C-2.95084628 13.83619305 -2.95084628 13.83619305 -6.2475729 11.53760433 C-8.09390047 8.60749511 -8.11482915 6.77589734 -7.60868835 3.37752342 C-5.3506443 0.35295501 -3.69265359 0.00218399 0 0 Z " fill="#1B1B1B" transform="translate(126.60868835449219,264.6224765777588)"/>
<path d="M0 0 C0.82350606 -0.00064941 1.64701212 -0.00129882 2.49547291 -0.00196791 C3.44707955 -0.0123989 4.3986862 -0.02282989 5.37912941 -0.03357697 C6.42668246 -0.02465408 7.47423552 -0.01573119 8.5535326 -0.00653791 C9.66470542 -0.01277788 10.77587824 -0.01901784 11.92072296 -0.02544689 C15.66352894 -0.04146813 19.40569189 -0.02873646 23.1485033 -0.01618147 C25.82386663 -0.02159853 28.49918487 -0.02857346 31.1745348 -0.0374217 C37.69839424 -0.05523433 44.2220699 -0.05135484 50.74593663 -0.03977114 C56.04667533 -0.03074782 61.34736241 -0.02950802 66.64810658 -0.03386641 C67.40173219 -0.03447934 68.15535781 -0.03509227 68.93182057 -0.03572378 C70.46266279 -0.03700264 71.993505 -0.03829949 73.52434719 -0.03961414 C87.8885082 -0.05102797 102.25256721 -0.03789369 116.6167115 -0.01641268 C128.94929997 0.00145906 141.28173786 -0.00164482 153.61432362 -0.02008772 C167.92609641 -0.0414803 182.23777973 -0.04992926 196.54956627 -0.03763866 C198.07486501 -0.03636443 199.60016376 -0.03510695 201.12546253 -0.03386641 C201.87599343 -0.0332493 202.62652432 -0.0326322 203.39979857 -0.0319964 C208.69588723 -0.02853865 213.99191926 -0.03438097 219.28799915 -0.04378462 C225.73973955 -0.05498812 232.19128522 -0.05199954 238.64300323 -0.03066164 C241.93660735 -0.02012866 245.22981826 -0.01821007 248.52343082 -0.02925825 C252.08929463 -0.04012032 255.65423239 -0.02656224 259.22003651 -0.00653791 C260.79136609 -0.01992224 260.79136609 -0.01992224 262.3944397 -0.03357697 C263.34604634 -0.02314598 264.29765299 -0.01271499 265.2780962 -0.00196791 C266.10160226 -0.0013185 266.92510832 -0.00066909 267.77356911 0 C269.88678455 0.50139666 269.88678455 0.50139666 271.64357758 2.34145069 C273.35095646 5.30784824 273.45889204 7.14026516 272.88678455 10.50139666 C268.31167782 14.58939764 262.87820281 13.92281219 257.1001482 13.88907671 C256.00022276 13.89446225 254.90029731 13.89984779 253.76704079 13.90539652 C250.07433895 13.91972593 246.38199306 13.91255993 242.68927479 13.90544939 C240.04480316 13.91115028 237.40035726 13.91801252 234.75589466 13.92624712 C228.31489106 13.94344466 221.87398498 13.94427333 215.43296438 13.93903422 C210.19903038 13.93499378 204.96512521 13.93643456 199.73119259 13.94178247 C198.61408284 13.94290511 198.61408284 13.94290511 197.47440522 13.94405042 C195.96152281 13.94558188 194.4486404 13.94712023 192.935758 13.94866539 C178.74850593 13.96239337 164.56130901 13.95695019 150.37405819 13.94548018 C137.38900516 13.93554297 124.40409451 13.94849631 111.41906344 13.97241437 C98.08924471 13.99678282 84.75949236 14.00641908 71.4296518 13.99976164 C63.9445863 13.99626497 56.4596304 13.99853114 48.97458172 14.01601267 C42.60417437 14.03070634 36.23395381 14.03140724 29.86355024 14.01394176 C26.61233075 14.00540653 23.36151554 14.00549604 20.11030102 14.01859331 C16.58869373 14.03170027 13.06800417 14.02034642 9.54643726 14.0026021 C7.99903257 14.01700961 7.99903257 14.01700961 6.42036718 14.03170818 C-0.46789097 13.95993586 -0.46789097 13.95993586 -3.75209999 11.62632132 C-5.46414212 8.95354251 -5.65921682 7.62140451 -5.11321545 4.50139666 C-2.88730837 0.6850635 -2.88730837 0.6850635 0 0 Z " fill="#1A1C1B" transform="translate(124.11321544647217,407.4986033439636)"/>
<path d="M0 0 C0.95570674 -0.00720654 1.91141348 -0.01441309 2.89608103 -0.02183801 C4.47427021 -0.01077658 4.47427021 -0.01077658 6.084342 0.00050831 C7.75828491 -0.0054533 7.75828491 -0.0054533 9.46604484 -0.01153535 C13.22491938 -0.0211998 16.98342144 -0.00931494 20.74228573 0.00241566 C23.42911455 -0.00001093 26.11591828 -0.00361217 28.80274105 -0.00864697 C35.3543195 -0.01814646 41.905788 -0.01152528 48.45735831 0.00061598 C56.08140378 0.01421984 63.7054229 0.01259957 71.32947742 0.01048265 C84.92885411 0.00729114 98.52817846 0.01897017 112.12753963 0.03854847 C125.3345871 0.05755707 138.54157322 0.06463525 151.74863338 0.05905628 C166.11934474 0.05300375 180.49002911 0.05316561 194.86073822 0.06454211 C196.39191687 0.06574945 197.92309552 0.06695543 199.45427418 0.06816006 C200.58442775 0.06906537 200.58442775 0.06906537 201.73741271 0.06998896 C207.0564948 0.07387431 212.37556687 0.07347212 217.6946497 0.07157421 C224.17271974 0.06945602 230.65073595 0.07464777 237.1287908 0.08918776 C240.43634838 0.09645042 243.74381104 0.09942842 247.0513773 0.0959444 C250.63048763 0.09274511 254.20935793 0.10174732 257.78844357 0.1140337 C258.84280041 0.11025438 259.89715725 0.10647505 260.9834643 0.1025812 C261.93656329 0.1084134 262.88966229 0.11424559 263.87164307 0.12025452 C265.11202838 0.12155468 265.11202838 0.12155468 266.37747198 0.12288111 C268.37290096 0.37473011 268.37290096 0.37473011 270.37290096 2.37473011 C270.93834364 8.59459954 270.93834364 8.59459954 269.14141273 11.07379115 C266.87046341 12.74432934 265.5699429 12.7505941 262.76421261 12.75225353 C261.81260596 12.76007677 260.86099932 12.76790002 259.88055611 12.77596033 C258.83300305 12.76926816 257.78545 12.762576 256.70615292 12.75568104 C255.03939369 12.762701 255.03939369 12.762701 253.33896255 12.76986277 C249.59624955 12.7818784 245.85389827 12.77232971 242.11118221 12.7629137 C239.43582741 12.76697649 236.76049798 12.77220771 234.08515072 12.77884388 C227.56131701 12.7922033 221.03758669 12.78929369 214.51374888 12.78060596 C209.21301692 12.77383848 203.91231398 12.77290863 198.61157894 12.77617741 C197.48114051 12.77686695 197.48114051 12.77686695 196.32786494 12.77757043 C194.79702273 12.77852958 193.26618053 12.77950222 191.73533833 12.78048821 C177.37119463 12.78904857 163.00710831 12.77919786 148.64297402 12.76308711 C136.3104079 12.74968333 123.97792649 12.75201124 111.6453619 12.76584339 C97.33360015 12.78188782 83.02188873 12.78822454 68.71011925 12.7790066 C67.1848205 12.77805092 65.65952175 12.77710781 64.13422298 12.77617741 C63.38369209 12.77571458 62.6331612 12.77525175 61.85988694 12.7747749 C56.56380782 12.77218159 51.26776055 12.77656333 45.97168636 12.78361607 C39.51997763 12.79201865 33.06837843 12.78977721 26.61668229 12.77377383 C23.32313428 12.76587423 20.02980745 12.7644353 16.73625469 12.77272129 C13.17053462 12.78086751 9.6053355 12.77069879 6.03964901 12.75568104 C4.99209596 12.7623732 3.9445429 12.76906537 2.86524582 12.77596033 C1.91363917 12.76813708 0.96203253 12.76031384 -0.01841068 12.75225353 C-0.84191674 12.75176648 -1.6654228 12.75127942 -2.51388359 12.7507776 C-5.15539543 12.28071957 -6.04127555 11.5106141 -7.62709904 9.37473011 C-8.26892983 4.24008376 -8.26892983 4.24008376 -6.39285523 1.71065074 C-4.11946936 -0.00932798 -2.83518467 -0.00018859 0 0 Z " fill="#121413" transform="translate(126.62709903717041,207.62526988983154)"/>
<path d="M0 0 C0.95570674 -0.00782324 1.91141348 -0.01564648 2.89608103 -0.02370679 C3.94820715 -0.01701463 5.00033327 -0.01032246 6.084342 -0.00342751 C7.75828491 -0.01044746 7.75828491 -0.01044746 9.46604484 -0.01760924 C13.22491085 -0.02962498 16.98341668 -0.02007616 20.74228573 -0.01066017 C23.42911509 -0.01472293 26.11591919 -0.01995411 28.80274105 -0.02659035 C35.35431309 -0.03994948 41.90578219 -0.03704041 48.45735831 -0.02835242 C53.78002866 -0.02158541 59.1026701 -0.02065489 64.42534351 -0.02392387 C65.18203322 -0.02438357 65.93872292 -0.02484327 66.71834261 -0.0253169 C68.25538756 -0.02627605 69.79243249 -0.02724869 71.32947742 -0.02823468 C85.75129479 -0.0367948 100.173055 -0.02694439 114.59486299 -0.01083358 C126.97948174 0.00257289 139.36401615 0.00024003 151.74863338 -0.01358986 C166.11934913 -0.02963003 180.49001477 -0.03597363 194.86073822 -0.02675307 C196.39191686 -0.02579739 197.92309552 -0.02485427 199.45427418 -0.02392387 C200.20770989 -0.02346105 200.96114561 -0.02299822 201.73741271 -0.02252137 C207.0565039 -0.01992698 212.37556341 -0.02431206 217.6946497 -0.03136253 C224.17273729 -0.03976028 230.65071578 -0.03753382 237.1287908 -0.0215203 C240.43639159 -0.01361455 243.74377172 -0.0121891 247.0513773 -0.02046776 C250.6305841 -0.02860342 254.20927039 -0.01845837 257.78844357 -0.00342751 C259.36997883 -0.01346575 259.36997883 -0.01346575 260.9834643 -0.02370679 C261.93656329 -0.01588355 262.88966229 -0.00806031 263.87164307 0 C265.11202838 0.00073059 265.11202838 0.00073059 266.37747198 0.00147593 C267.03596355 0.1255716 267.69445511 0.24966727 268.37290096 0.37752342 C270.68622582 3.84751071 270.71247659 5.3026159 270.37290096 9.37752342 C269.71290096 10.36752342 269.05290096 11.35752342 268.37290096 12.37752342 C266.37747198 12.75357091 266.37747198 12.75357091 263.87164307 12.75504684 C262.44199458 12.76678171 262.44199458 12.76678171 260.9834643 12.77875364 C259.92910746 12.77206147 258.87475062 12.76536931 257.78844357 12.75847435 C256.11684065 12.76549431 256.11684065 12.76549431 254.41146797 12.77265608 C250.65183024 12.78468711 246.8925516 12.77511708 243.13291073 12.76570702 C240.44785136 12.76976914 237.76281731 12.77499986 235.07776546 12.78163719 C228.52638924 12.79500501 221.97511589 12.79208316 215.42373557 12.78339927 C210.10057315 12.7766345 204.77743965 12.77570076 199.45427418 12.77897072 C198.69773771 12.77943042 197.94120124 12.77989012 197.16173942 12.78036375 C195.62501867 12.78132289 194.08829793 12.78229553 192.5515772 12.78328152 C178.1278264 12.79184449 163.70413271 12.78198739 149.28039127 12.76588042 C136.89607876 12.75247912 124.51185061 12.75480201 112.12753963 12.7686367 C97.75828646 12.78468121 83.38908342 12.79101757 69.01982254 12.78179991 C67.48832954 12.78084423 65.95683653 12.77990112 64.42534351 12.77897072 C63.29495853 12.77827648 63.29495853 12.77827648 62.14173748 12.77756821 C56.82362863 12.77497473 51.50555149 12.77935709 46.18744755 12.78640938 C39.70826639 12.79481218 33.22919431 12.79257018 26.7500257 12.77656715 C23.44230808 12.76866741 20.1348107 12.76722874 16.82708836 12.7755146 C13.24598885 12.78366074 9.66540807 12.77349215 6.084342 12.75847435 C4.50615282 12.7685126 4.50615282 12.7685126 2.89608103 12.77875364 C1.94037429 12.7709304 0.98466755 12.76310715 0 12.75504684 C-1.24062884 12.75431626 -1.24062884 12.75431626 -2.50632089 12.75357091 C-5.15318885 12.28423938 -6.03915907 11.51825193 -7.62709904 9.37752342 C-8.26893954 4.24279938 -8.26893954 4.24279938 -6.39285523 1.71361864 C-4.11992856 -0.0062374 -2.83479146 0.00166936 0 0 Z " fill="#121313" transform="translate(126.62709903717041,379.6224765777588)"/>
<path d="M0 0 C0.95371569 -0.00384115 1.90743138 -0.00768229 2.89004755 -0.01163983 C3.94508651 -0.01077335 5.00012547 -0.00990687 6.08713531 -0.00901413 C7.20224283 -0.01198525 8.31735034 -0.01495637 9.46624899 -0.01801753 C13.22810951 -0.02673616 16.98993832 -0.02821543 20.75180817 -0.02970505 C23.43848065 -0.03433089 26.12515021 -0.03933431 28.81182098 -0.04475021 C36.12771756 -0.05834384 43.44360866 -0.06435954 50.75951576 -0.06876087 C55.32418306 -0.07152093 59.88884824 -0.07575779 64.4535141 -0.08026505 C77.08265042 -0.09245788 89.71178504 -0.10275793 102.34092712 -0.10614014 C103.14951163 -0.1063597 103.95809614 -0.10657927 104.7911832 -0.10680549 C105.60173689 -0.10702377 106.41229057 -0.10724204 107.24740648 -0.10746694 C108.88998699 -0.10791041 110.5325675 -0.10835697 112.17514801 -0.10880661 C113.39732132 -0.10913875 113.39732132 -0.10913875 114.64418501 -0.10947761 C127.85707898 -0.11342863 141.06991791 -0.13089184 154.2827906 -0.15416613 C167.83623451 -0.17784845 181.38965076 -0.19034052 194.94311571 -0.19150805 C202.55781838 -0.19242645 210.1724493 -0.19822018 217.78713226 -0.21632767 C224.26888973 -0.23168648 230.75055325 -0.23687415 237.23232543 -0.22858956 C240.5419543 -0.22466827 243.85135303 -0.22729826 247.16096687 -0.23964691 C250.74239827 -0.25223137 254.32333543 -0.24656355 257.90476227 -0.23606491 C258.95980123 -0.24412132 260.01484019 -0.25217772 261.10185003 -0.26047826 C262.05556572 -0.25388841 263.00928142 -0.24729857 263.99189758 -0.24050903 C264.8193632 -0.24110612 265.64682881 -0.24170321 266.49936914 -0.24231839 C267.15824043 -0.11898216 267.81711171 0.00435407 268.49594879 0.13142776 C270.80877466 3.60066657 270.92073465 5.05348352 270.49594879 9.13142776 C268.9133227 11.26976662 268.02390455 12.03747784 265.38273335 12.50747526 C264.55922729 12.50796231 263.73572123 12.50844937 262.88726044 12.50895119 C261.93565379 12.51677443 260.98404715 12.52459767 260.00360394 12.53265798 C258.95605088 12.52596582 257.90849783 12.51927365 256.82920074 12.51237869 C255.16244152 12.51939865 255.16244152 12.51939865 253.46201038 12.52656043 C249.71929738 12.53857605 245.9769461 12.52902736 242.23423004 12.51961136 C239.55887524 12.52367414 236.88354581 12.52890536 234.20819855 12.53554153 C227.68436484 12.54890095 221.16063452 12.54599135 214.63679671 12.53730361 C209.33606475 12.53053613 204.03536181 12.52960628 198.73462677 12.53287506 C197.60418834 12.53356461 197.60418834 12.53356461 196.45091277 12.53426809 C194.92007056 12.53522724 193.38922836 12.53619988 191.85838616 12.53718586 C177.49424246 12.54574622 163.13015614 12.53589551 148.76602185 12.51978476 C136.43345573 12.50638099 124.10097432 12.5087089 111.76840973 12.52254105 C97.45664798 12.53858547 83.14493656 12.54492219 68.83316708 12.53570426 C67.30786833 12.53474858 65.78256958 12.53380547 64.25727081 12.53287506 C63.50673992 12.53241223 62.75620903 12.53194941 61.98293477 12.53147256 C56.68685565 12.52887925 51.39080838 12.53326099 46.09473419 12.54031372 C39.64302546 12.54871631 33.19142626 12.54647486 26.73973012 12.53047149 C23.44618211 12.52257189 20.15285528 12.52113296 16.85930252 12.52941895 C13.29358245 12.53756517 9.72838333 12.52739644 6.16269684 12.51237869 C5.11514379 12.51907086 4.06759073 12.52576302 2.98829365 12.53265798 C2.036687 12.52483474 1.08508036 12.5170115 0.10463715 12.50895119 C-0.71886891 12.50846413 -1.54237497 12.50797707 -2.39083576 12.50747526 C-5.00920034 12.04153629 -5.90907104 11.22398159 -7.50405121 9.13142776 C-7.71050896 6.263339 -7.10322195 3.98901131 -6.50405121 1.13142776 C-4.11856412 -0.06131578 -2.66294209 0.00401147 0 0 Z " fill="#131313" transform="translate(126.5040512084961,350.8685722351074)"/>
<path d="M0 0 C1.43057354 -0.00483667 1.43057354 -0.00483667 2.89004755 -0.00977105 C3.94508651 -0.00822245 5.00012547 -0.00667385 6.08713531 -0.00507832 C7.20224283 -0.00734387 8.31735034 -0.00960943 9.46624899 -0.01194364 C13.22811238 -0.01830806 16.98993997 -0.01745272 20.75180817 -0.01662922 C23.43848049 -0.01961916 26.12514995 -0.02299265 28.81182098 -0.02680683 C35.36684068 -0.03512465 41.92185138 -0.03786217 48.4768759 -0.03841921 C53.80242327 -0.03889377 59.12796767 -0.04094553 64.4535141 -0.04411983 C79.53871324 -0.05292899 94.62390525 -0.05753873 109.70910698 -0.05678936 C110.92979729 -0.05672943 110.92979729 -0.05672943 112.17514801 -0.05666828 C113.39732132 -0.05660696 113.39732132 -0.05660696 114.64418501 -0.0565444 C127.85706577 -0.05613771 141.06991807 -0.06571233 154.2827906 -0.07980665 C167.83623434 -0.09415069 181.38966418 -0.10107794 194.94311571 -0.10021287 C202.55780012 -0.09988025 210.17245467 -0.10265585 217.78713226 -0.11339092 C224.26887659 -0.12246998 230.75057752 -0.12469262 237.23232543 -0.1178815 C240.54190781 -0.11460326 243.85138897 -0.11568074 247.16096687 -0.12323475 C250.74230794 -0.13088273 254.32342645 -0.12635797 257.90476227 -0.11860371 C258.95980123 -0.12374727 260.01484019 -0.12889083 261.10185003 -0.13419026 C262.53242357 -0.12729207 262.53242357 -0.12729207 263.99189758 -0.12025452 C264.8193632 -0.12047188 265.64682881 -0.12068925 266.49936914 -0.12091321 C268.49594879 0.12863445 268.49594879 0.12863445 270.49594879 2.12863445 C270.85072147 5.39254305 270.90520488 7.40952917 269.26446056 10.29248667 C267.49594879 12.12863445 267.49594879 12.12863445 265.38273335 12.63003111 C264.14747426 12.63100522 264.14747426 12.63100522 262.88726044 12.63199902 C261.93565379 12.64243001 260.98404715 12.65286099 260.00360394 12.66360807 C258.95605088 12.65468519 257.90849783 12.6457623 256.82920074 12.63656902 C255.16244152 12.64592897 255.16244152 12.64592897 253.46201038 12.655478 C249.7192044 12.67149924 245.97704145 12.65876757 242.23423004 12.64621258 C239.55886671 12.65162964 236.88354848 12.65860457 234.20819855 12.66745281 C227.6843391 12.68526544 221.16066344 12.68138594 214.63679671 12.66980225 C209.33605802 12.66077893 204.03537093 12.65953913 198.73462677 12.66389751 C197.98100115 12.66451045 197.22737553 12.66512338 196.45091277 12.66575488 C194.92007055 12.66703375 193.38922835 12.6683306 191.85838616 12.66964525 C177.49422514 12.68105908 163.13016614 12.6679248 148.76602185 12.64644378 C136.43343337 12.62857205 124.10099549 12.63167593 111.76840973 12.65011883 C97.45663694 12.67151141 83.14495362 12.67996037 68.83316708 12.66766977 C67.30786834 12.66639554 65.78256958 12.66513806 64.25727081 12.66389751 C63.50673992 12.66328041 62.75620903 12.66266331 61.98293477 12.66202751 C56.68684612 12.65856976 51.39081408 12.66441207 46.09473419 12.67381573 C39.6429938 12.68501923 33.19144813 12.68203065 26.73973012 12.66069275 C23.446126 12.65015977 20.15291508 12.64824118 16.85930252 12.65928936 C13.29343871 12.67015143 9.72850096 12.65659335 6.16269684 12.63656902 C5.11514379 12.64549191 4.06759073 12.6544148 2.98829365 12.66360807 C2.036687 12.65317708 1.08508036 12.6427461 0.10463715 12.63199902 C-1.13062194 12.6310249 -1.13062194 12.6310249 -2.39083576 12.63003111 C-4.50405121 12.12863445 -4.50405121 12.12863445 -6.30381298 10.32764292 C-8.09995582 7.0368518 -7.37338268 4.67283197 -6.50405121 1.12863445 C-4.11788359 -0.06444936 -2.66367373 0.0022676 0 0 Z " fill="#121413" transform="translate(126.5040512084961,494.8713655471802)"/>
<path d="M0 0 C0.82708589 -0.00010734 1.65417179 -0.00021467 2.50632089 -0.00032526 C3.46202763 -0.01013955 4.41773437 -0.01995384 5.40240192 -0.03006554 C6.45452805 -0.02046053 7.50665417 -0.01085552 8.5906629 -0.00095946 C9.70662483 -0.00649385 10.82258677 -0.01202825 11.97236574 -0.01773036 C15.7313357 -0.03140041 19.48964898 -0.01633262 23.24860662 -0.001463 C25.93544375 -0.00524384 28.62223622 -0.0105888 31.30906194 -0.01783568 C37.8606682 -0.03178828 44.41208207 -0.02419741 50.9636792 -0.00916009 C58.58773072 0.00767475 66.21173397 0.004493 73.83579832 0.00074583 C87.43519135 -0.00513635 101.03449187 0.00905332 114.63386053 0.03369325 C127.84092705 0.05761982 141.04786997 0.06469615 154.25495428 0.05420107 C168.62567519 0.04280181 182.9963389 0.04084912 197.36705911 0.05529916 C198.89823776 0.05682506 200.42941641 0.05834541 201.96059507 0.05986017 C203.09074864 0.06099689 203.09074864 0.06099689 204.2437336 0.06215658 C209.56282122 0.06690672 214.88188335 0.06504284 220.20097059 0.06079477 C226.6790656 0.05587732 233.15704356 0.06181121 239.6351117 0.08168907 C242.94270762 0.09158705 246.25008764 0.09504017 249.55769819 0.08879656 C253.13691421 0.08288527 256.71559669 0.095269 260.29476446 0.11256593 C261.3491213 0.10655589 262.40347814 0.10054584 263.48978519 0.09435368 C264.91943368 0.10701359 264.91943368 0.10701359 266.37796396 0.11992925 C267.2048875 0.12095838 268.03181105 0.12198751 268.88379288 0.12304783 C269.54228444 0.24752322 270.200776 0.37199861 270.87922186 0.50024599 C273.19254672 3.97023328 273.21879748 5.42533847 272.87922186 9.50024599 C272.21922186 10.49024599 271.55922186 11.48024599 270.87922186 12.50024599 C268.88379288 12.87629348 268.88379288 12.87629348 266.37796396 12.87776941 C264.94831547 12.88950427 264.94831547 12.88950427 263.48978519 12.9014762 C262.43542835 12.89478404 261.38107151 12.88809187 260.29476446 12.88119692 C258.62316154 12.88821687 258.62316154 12.88821687 256.91778886 12.89537865 C253.15815114 12.90740967 249.39887249 12.89783964 245.63923162 12.88842958 C242.95417226 12.89249171 240.26913821 12.89772243 237.58408636 12.90435976 C231.03271013 12.91772757 224.48143678 12.91480573 217.93005646 12.90612184 C212.60689405 12.89935706 207.28376054 12.89842333 201.96059507 12.90169328 C201.2040586 12.90215298 200.44752213 12.90261268 199.66806031 12.90308631 C198.13133957 12.90404545 196.59461883 12.90501809 195.0578981 12.90600409 C180.63414729 12.91456706 166.2104536 12.90470996 151.78671216 12.88860299 C139.40239966 12.87520169 127.01817151 12.87752458 114.63386053 12.89135927 C100.26460735 12.90740377 85.89540431 12.91374014 71.52614343 12.90452248 C69.99465043 12.9035668 68.46315742 12.90262369 66.93166441 12.90169328 C65.80127942 12.90099904 65.80127942 12.90099904 64.64805837 12.90029078 C59.32994952 12.89769729 54.01187238 12.90207965 48.69376844 12.90913194 C42.21458729 12.91753474 35.7355152 12.91529275 29.25634659 12.89928971 C25.94862897 12.89138998 22.6411316 12.88995131 19.33340925 12.89823717 C15.75230975 12.90638331 12.17172897 12.89621471 8.5906629 12.88119692 C7.01247372 12.89123516 7.01247372 12.89123516 5.40240192 12.9014762 C4.44669518 12.89365296 3.49098844 12.88582972 2.50632089 12.87776941 C1.26569205 12.87703883 1.26569205 12.87703883 0 12.87629348 C-2.63418942 12.40921005 -3.5212507 11.61103477 -5.12077814 9.50024599 C-5.58334551 6.49355813 -5.41748252 5.01201296 -3.88653433 2.37137544 C-2.12077814 0.50024599 -2.12077814 0.50024599 0 0 Z " fill="#131313" transform="translate(124.12077814340591,235.499754011631)"/>
<path d="M0 0 C1.22793137 -0.01080981 1.22793137 -0.01080981 2.48066944 -0.02183801 C3.37968434 -0.01446372 4.27869923 -0.00708944 5.20495701 0.00050831 C6.6378954 -0.0054533 6.6378954 -0.0054533 8.09978205 -0.01153535 C11.31504854 -0.02119391 14.52987894 -0.00931858 17.7451334 0.00241566 C20.04447691 -0.00001115 22.34381938 -0.00372938 24.64315891 -0.00864697 C30.8993047 -0.01807534 37.15529457 -0.00861384 43.41142821 0.00468516 C49.94922305 0.01597727 56.48700996 0.01189386 63.02481174 0.00993824 C74.00648052 0.00851161 84.98809092 0.02008147 95.96974277 0.03854847 C107.27151953 0.05754885 118.57322462 0.06463734 129.87501621 0.05905628 C143.48812197 0.05235375 157.10117974 0.05564309 170.71428204 0.06816006 C175.91635889 0.07281132 181.11841627 0.07367761 186.32049465 0.07157421 C192.4443931 0.06969385 198.56819927 0.07777585 204.69207668 0.09363461 C206.94313774 0.09788593 209.19420814 0.09872234 211.44527149 0.0959444 C214.51134622 0.09273412 217.57714326 0.10177548 220.64318943 0.1140337 C221.53997361 0.11025438 222.43675778 0.10647505 223.36071724 0.1025812 C224.59256023 0.11132949 224.59256023 0.11132949 225.84928894 0.12025452 C226.5569803 0.12112129 227.26467166 0.12198807 227.99380821 0.12288111 C230.32280073 0.41707668 231.9558018 1.22651768 233.98756504 2.37473011 C234.11256504 9.12473011 234.11256504 9.12473011 232.98756504 11.37473011 C230.28655627 12.27506637 228.74237374 12.50128147 225.97233677 12.50615788 C225.15309916 12.50999902 224.33386154 12.51384017 223.48979855 12.51779771 C222.59010153 12.51693123 221.69040451 12.51606474 220.76344395 12.515172 C219.3294472 12.51962869 219.3294472 12.51962869 217.86648083 12.52417541 C214.64902097 12.53287756 211.43159825 12.53437192 208.21412754 12.53586292 C205.91316237 12.54048991 203.61219797 12.54551441 201.31123447 12.55090809 C195.05108005 12.56404295 188.79093636 12.57047882 182.5307703 12.57491875 C178.62356515 12.57784687 174.71636295 12.58195111 170.80915928 12.58642292 C159.99516502 12.59853147 149.181174 12.60891439 138.36717319 12.61229801 C137.67511221 12.61251758 136.98305123 12.61273714 136.2700187 12.61296336 C135.22942797 12.61329078 135.22942797 12.61329078 134.16781521 12.61362481 C132.76202869 12.61406828 131.35624218 12.61451484 129.95045567 12.61496449 C128.90447503 12.61529663 128.90447503 12.61529663 127.83736348 12.61563548 C116.5295964 12.61958642 105.22189365 12.63705031 93.91415143 12.66032401 C82.30994094 12.68401561 70.70576596 12.69624061 59.10153103 12.69766593 C52.58395142 12.6987166 46.06646259 12.70468013 39.54890537 12.72248554 C33.42253694 12.7388968 27.29632821 12.74115567 21.16994572 12.73234653 C18.91684385 12.7315725 16.66373364 12.73596667 14.41065311 12.74580479 C11.34413738 12.75841361 8.27819685 12.7527081 5.21168613 12.74222279 C3.86214061 12.75430739 3.86214061 12.75430739 2.48533154 12.76663613 C1.66609392 12.76004629 0.84685631 12.75345644 0.00279331 12.74666691 C-0.70527777 12.747264 -1.41334885 12.74786108 -2.14287663 12.74847627 C-4.60980675 12.25530864 -5.4992116 11.3538391 -7.01243496 9.37473011 C-7.65707224 4.21763186 -7.65707224 4.21763186 -5.73977464 1.71065074 C-3.64108545 0.08752923 -2.6287049 -0.0002044 0 0 Z " fill="#131313" transform="translate(126.01243495941162,522.6252698898315)"/>
<path d="M0 0 C1.32374083 -0.00701996 1.32374083 -0.00701996 2.6742239 -0.01418173 C5.64307444 -0.02618574 8.61146798 -0.01665341 11.58032227 -0.00723267 C13.70395173 -0.01129596 15.82757907 -0.01663648 17.95120239 -0.02316284 C23.72795391 -0.03687097 29.50454518 -0.03152335 35.28129959 -0.02202559 C41.31774589 -0.01444709 47.35417818 -0.02146955 53.390625 -0.02618408 C63.52907788 -0.03164692 73.66746526 -0.02443616 83.8059082 -0.01016235 C95.53877352 0.00616513 107.27148246 0.000877 119.00434399 -0.01564157 C129.06552821 -0.02924138 139.12666528 -0.03118347 149.18785572 -0.02332556 C155.2024015 -0.01864077 161.2168737 -0.01804631 167.23141479 -0.02793503 C172.88504252 -0.03658052 178.53846801 -0.03062704 184.19207382 -0.01325226 C186.27101175 -0.00927447 188.3499666 -0.0104434 190.42889786 -0.01704025 C193.25898324 -0.02519487 196.08841378 -0.01500806 198.91845703 0 C199.74811698 -0.00669217 200.57777693 -0.01338433 201.43257809 -0.02027929 C207.00900081 0.03738575 207.00900081 0.03738575 209.16917324 1.68579614 C211.30473379 4.49195938 210.82213036 6.99386702 210.45922852 10.38095093 C209.16802257 12.07610571 209.16802257 12.07610571 207.45922852 13.38095093 C204.55610715 13.67591416 201.86741544 13.78545795 198.96315002 13.76190186 C197.64659287 13.76892181 197.64659287 13.76892181 196.3034386 13.77608359 C193.35074075 13.7880874 190.39850241 13.77855532 187.44580078 13.76913452 C185.33364592 13.77319786 183.22149317 13.77853839 181.10934448 13.7850647 C175.36351629 13.79877321 169.61784921 13.79342483 163.8720181 13.78392744 C157.86673619 13.77634815 151.86146835 13.78337172 145.85618591 13.78808594 C135.76900753 13.79354896 125.68189496 13.78633797 115.59472656 13.77206421 C103.92436494 13.75574111 92.25416056 13.7610216 80.58380276 13.77754343 C70.57440707 13.79114798 60.56505879 13.79308286 50.55565685 13.78522742 C44.57293713 13.78054467 38.59029137 13.77994249 32.60757637 13.78983688 C26.98267236 13.79848909 21.35797146 13.79251649 15.73308945 13.77515411 C13.66585948 13.77117975 11.59861248 13.77233947 9.53138924 13.77894211 C6.71479053 13.78711024 3.89884731 13.77689325 1.08229065 13.76190186 C0.25943449 13.76859402 -0.56342167 13.77528619 -1.41121286 13.78218114 C-4.68047952 13.74830728 -7.12491704 13.59703441 -10.05236912 12.07589149 C-11.54077148 10.38095093 -11.54077148 10.38095093 -11.97827148 6.88095093 C-11.54077148 3.38095093 -11.54077148 3.38095093 -10.24680996 1.68579614 C-7.27255714 -0.5890292 -3.59783741 -0.02902071 0 0 Z " fill="#1B1B1B" transform="translate(186.540771484375,436.6190490722656)"/>
<path d="M0 0 C0.88249389 -0.00623996 1.76498777 -0.01247993 2.6742239 -0.01890898 C5.64319192 -0.03491496 8.61134757 -0.02220506 11.58032227 -0.00964355 C13.70395387 -0.01506129 15.82758171 -0.02218198 17.95120239 -0.03088379 C23.7279947 -0.04916143 29.50450213 -0.04203122 35.28129959 -0.02936745 C41.31774939 -0.01926278 47.35417428 -0.02862606 53.390625 -0.03491211 C63.52909743 -0.04219591 73.66745343 -0.03258157 83.8059082 -0.0135498 C95.53881504 0.00822025 107.27144389 0.00116941 119.00434399 -0.02085543 C129.06553883 -0.03898853 139.12664982 -0.04157797 149.18785572 -0.03110075 C155.20242179 -0.02485433 161.21685705 -0.02406171 167.23141479 -0.0372467 C172.88510064 -0.04877415 178.53842695 -0.04083622 184.19207382 -0.01766968 C186.27100908 -0.01236597 188.34997444 -0.01392457 190.42889786 -0.02272034 C193.25916389 -0.03359385 196.0882659 -0.0200118 198.91845703 0 C199.74811698 -0.00892289 200.57777693 -0.01784577 201.43257809 -0.02703905 C206.95805358 0.04914521 206.95805358 0.04914521 209.46958923 2.34827423 C210.80910092 5.27145071 210.86486972 7.33041183 210.45922852 10.50793457 C209.16802257 12.16775852 209.16802257 12.16775852 207.45922852 13.50793457 C204.55634017 13.80505639 201.86743751 13.91676985 198.96315002 13.89561462 C197.64659287 13.90369293 197.64659287 13.90369293 196.3034386 13.91193444 C193.35075167 13.92628717 190.39850844 13.91909231 187.44580078 13.9119873 C185.33364499 13.91768705 183.22149229 13.92464977 181.10934448 13.93278503 C175.36352486 13.95077532 169.61785746 13.94953703 163.8720181 13.94384265 C159.08052047 13.94075925 154.28905244 13.94683378 149.49755901 13.9528814 C138.19658998 13.96694432 126.8956965 13.96535066 115.59472656 13.95397949 C103.92433195 13.94249632 92.25416709 13.9565734 80.58380276 13.98337597 C70.57440428 14.00550578 60.56507806 14.01217649 50.55565685 14.00629956 C44.57290743 14.00292229 38.5903053 14.00539604 32.60757637 14.02255058 C26.98262905 14.0379743 21.35802305 14.034115 15.73308945 14.01524544 C13.66585673 14.01154686 11.59859897 14.01470472 9.53138924 14.02513123 C6.71462497 14.03825612 3.89900484 14.02686939 1.08229065 14.00914001 C0.25943449 14.01874502 -0.56342167 14.02835003 -1.41121286 14.0382461 C-5.02249154 13.99130561 -7.11666746 13.82455654 -10.05236912 11.63285923 C-11.91940448 8.96737739 -12.09941713 7.7001954 -11.54077148 4.50793457 C-9.12821628 -0.650846 -5.05345092 -0.05434922 0 0 Z " fill="#191B1A" transform="translate(186.540771484375,292.4920654296875)"/>
<path d="M0 0 C0.81926468 -0.00020928 1.63852936 -0.00041857 2.48262024 -0.00063419 C3.42479401 -0.01046833 4.36696777 -0.02030247 5.33769226 -0.03043461 C6.88536789 -0.01593266 6.88536789 -0.01593266 8.46430969 -0.00113773 C9.5523288 -0.00654072 10.6403479 -0.0119437 11.76133728 -0.01751041 C15.3670297 -0.03004395 18.97193088 -0.01347515 22.57759094 0.0044775 C25.07718447 0.00432262 27.57677824 0.00283549 30.07637024 0.00006771 C35.31872757 -0.00131836 40.56087877 0.01084464 45.80317688 0.03401852 C51.86481987 0.0606288 57.92608012 0.06237567 63.9877615 0.05063015 C69.81785458 0.03985239 75.64780773 0.04613987 81.47789001 0.06018543 C83.95947364 0.06471065 86.44106853 0.06502744 88.9226532 0.06112003 C92.38729652 0.0582187 95.85130851 0.07466397 99.31587219 0.09651852 C100.34765594 0.09201687 101.3794397 0.08751522 102.44248962 0.08287716 C103.85575027 0.09773411 103.85575027 0.09773411 105.29756165 0.1128912 C106.52645866 0.11653604 106.52645866 0.11653604 107.78018188 0.12025452 C110.43582695 0.59894162 111.30192812 1.34298866 112.89009094 3.50057125 C113.57759094 7.18807125 113.57759094 7.18807125 113.89009094 10.50057125 C110.91314892 13.07732878 109.10510109 13.87609336 105.17730713 13.88152218 C103.76198448 13.89421139 103.76198448 13.89421139 102.31806946 13.90715694 C101.28988098 13.90108425 100.2616925 13.89501156 99.2023468 13.88875484 C98.11418167 13.8940118 97.02601654 13.89926876 95.90487671 13.90468502 C92.30475043 13.91789876 88.70506554 13.90914235 85.10493469 13.89900875 C82.60676997 13.90102893 80.10860582 13.90393991 77.61044312 13.90770626 C72.37410466 13.91213136 67.1378813 13.90597748 61.90156555 13.89168453 C55.84729754 13.87534979 49.79333249 13.88065318 43.73907179 13.89716375 C37.91379703 13.91241398 32.08863749 13.91080545 26.26335335 13.90201855 C23.78455628 13.90001348 21.3057515 13.90248649 18.82696342 13.90945721 C15.36724547 13.91705153 11.90811463 13.90549559 8.44844055 13.88875484 C7.41822784 13.89482754 6.38801514 13.90090023 5.32658386 13.90715694 C4.38585526 13.89869747 3.44512665 13.890238 2.47589111 13.88152218 C1.24894232 13.87982556 1.24894232 13.87982556 -0.00279331 13.87809467 C-2.63776524 13.40599739 -3.52426316 12.6284634 -5.10990906 10.50057125 C-5.53199589 7.19422442 -5.54244269 5.25623633 -3.87350464 2.34049034 C-2.10990906 0.50057125 -2.10990906 0.50057125 0 0 Z " fill="#171818" transform="translate(204.1099090576172,177.49942874908447)"/>
<path d="M0 0 C14.85 0 29.7 0 45 0 C45 2.31 45 4.62 45 7 C43.61494263 7.02187378 43.61494263 7.02187378 42.2019043 7.04418945 C38.77422796 7.10526308 35.34735338 7.1794161 31.92016602 7.26245117 C30.43720146 7.29569423 28.95411056 7.32372823 27.47094727 7.34643555 C25.33815707 7.37999468 23.20652388 7.43230638 21.07421875 7.48828125 C19.14968872 7.52755737 19.14968872 7.52755737 17.1862793 7.56762695 C14.07692914 7.76330048 14.07692914 7.76330048 12.08276367 9.21948242 C10.64385178 11.58565703 10.61210595 13.23661202 10.6015625 16 C10.59769531 16.969375 10.59382813 17.93875 10.58984375 18.9375 C10.60144531 19.948125 10.61304688 20.95875 10.625 22 C10.61339844 23.010625 10.60179687 24.02125 10.58984375 25.0625 C10.59371094 26.031875 10.59757812 27.00125 10.6015625 28 C10.60494629 28.886875 10.60833008 29.77375 10.61181641 30.6875 C10.84950443 33.01558613 10.84950443 33.01558613 12.1237793 34.78051758 C14.87768583 36.57046724 17.1541376 36.43787642 20.41796875 36.51171875 C21.67158203 36.54716797 22.92519531 36.58261719 24.21679688 36.61914062 C25.52712891 36.64169922 26.83746094 36.66425781 28.1875 36.6875 C29.52282013 36.72067666 30.85810832 36.75516666 32.19335938 36.79101562 C35.46215504 36.87362057 38.73067812 36.94273229 42 37 C42.04254356 38.99954746 42.04080783 41.00041636 42 43 C40.17789433 44.82210567 37.29869127 44.1736685 34.84765625 44.2109375 C33.59662109 44.23929688 32.34558594 44.26765625 31.05664062 44.296875 C28.39792647 44.34887919 25.73905013 44.39317391 23.08007812 44.4296875 C21.82775391 44.460625 20.57542969 44.4915625 19.28515625 44.5234375 C18.12894775 44.54325684 16.97273926 44.56307617 15.78149414 44.58349609 C14.86360107 44.72094238 13.94570801 44.85838867 13 45 C10.62931088 48.55603368 10.65534892 51.17993345 10.5859375 55.29296875 C10.56657135 55.99899734 10.5472052 56.70502594 10.5272522 57.43244934 C10.46754776 59.68401061 10.4211086 61.93562328 10.375 64.1875 C10.33681171 65.71551689 10.29775948 67.24351245 10.2578125 68.77148438 C10.16185404 72.51414935 10.07778989 76.2569151 10 80 C6.7 80 3.4 80 0 80 C0 53.6 0 27.2 0 0 Z " fill="#F81212" transform="translate(355,105)"/>
<path d="M0 0 C0 16.17 0 32.34 0 49 C-15.84 49 -31.68 49 -48 49 C-46.02656307 44.06640768 -45.05714252 42.81717684 -41.1875 39.5625 C-36.98992606 35.93817579 -36.98992606 35.93817579 -33.3125 31.8125 C-30.97438153 28.9688424 -28.50843231 26.83456467 -25.6875 24.5 C-23.75444683 22.85667758 -23.75444683 22.85667758 -21.5 20 C-19.06244052 17.07492863 -16.5363446 14.84729607 -13.62109375 12.43359375 C-11.82559747 10.92815768 -11.82559747 10.92815768 -10 8.5 C-3.2 0 -3.2 0 0 0 Z " fill="#A8A8A8" transform="translate(434,541)"/>
<path d="M0 0 C15.84 0 31.68 0 48 0 C44.72806501 6.54386999 40.32923985 10.67604728 34.83984375 15.34765625 C32.86047467 17.03470017 32.86047467 17.03470017 31 19.5 C28.59729407 22.50338242 25.85169796 24.8239591 22.9375 27.3203125 C20.49900246 29.43433255 18.25431364 31.6907031 16 34 C15.29746094 34.69222656 14.59492188 35.38445313 13.87109375 36.09765625 C8.75710542 41.13830688 8.75710542 41.13830688 4.0625 46.5625 C3.381875 47.366875 2.70125 48.17125 2 49 C1.34 49 0.68 49 0 49 C0 32.83 0 16.66 0 0 Z " fill="#F3F3F3" transform="translate(376,531)"/>
<path d="M0 0 C36.96 0 73.92 0 112 0 C112.495 1.485 112.495 1.485 113 3 C75.71 3 38.42 3 0 3 C0 2.01 0 1.02 0 0 Z " fill="#1E201F" transform="translate(202,178)"/>
</svg>
