<?xml version="1.0" encoding="UTF-8"?>
<svg version="1.1" xmlns="http://www.w3.org/2000/svg" width="492" height="616">
<path d="M0 0 C162.36 0 324.72 0 492 0 C492 203.28 492 406.56 492 616 C329.64 616 167.28 616 0 616 C0 412.72 0 209.44 0 0 Z " fill="#FEFEFE" transform="translate(0,0)"/>
<path d="M0 0 C162.36 0 324.72 0 492 0 C492 203.28 492 406.56 492 616 C329.64 616 167.28 616 0 616 C0 412.72 0 209.44 0 0 Z M83 75 C83 244.62 83 414.24 83 589 C175.73 589 268.46 589 364 589 C364.33 566.56 364.66 544.12 365 521 C383.8781518 508.41456547 410.31396981 518.34901585 433 518 C433 371.81 433 225.62 433 75 C317.5 75 202 75 83 75 Z " fill="#171818" transform="translate(0,0)"/>
<path d="M0 0 C162.36 0 324.72 0 492 0 C492 203.28 492 406.56 492 616 C329.64 616 167.28 616 0 616 C0 412.72 0 209.44 0 0 Z M27 23 C26.60262064 26.02103327 26.46680286 28.67949284 26.50222206 31.70323277 C26.49700749 32.60768665 26.49179292 33.51214054 26.48642033 34.44400212 C26.47373436 37.50294861 26.48979817 40.56108724 26.50552368 43.62001038 C26.50234992 45.82382066 26.49742514 48.02762902 26.49089086 50.2314319 C26.47801274 56.30932704 26.49023928 62.38695745 26.50641942 68.46483529 C26.51818919 74.3393278 26.51123904 80.21377745 26.504761 86.08827378 C26.49219581 98.10910575 26.49857083 110.12985935 26.51594925 122.15068245 C26.53315982 134.0577778 26.54299 145.96483797 26.54261398 157.87194633 C26.54259869 158.61175905 26.5425834 159.35157176 26.54256765 160.11380304 C26.54248583 163.11669648 26.54235462 166.11958991 26.54215602 169.12248334 C26.54034269 197.30882375 26.56025163 225.49511046 26.59101535 253.68143224 C26.61826715 278.7424633 26.63073786 303.8034562 26.62939453 328.86450195 C26.62931371 330.4737309 26.62923299 332.08295986 26.62915237 333.69218881 C26.62911167 334.48774798 26.62907097 335.28330715 26.62902904 336.10297418 C26.62882745 340.10741981 26.62864629 344.11186544 26.62848854 348.11631107 C26.62845511 348.90626687 26.62842169 349.69622266 26.62838725 350.51011651 C26.62765747 371.43015926 26.6367281 392.35019721 26.64914167 413.27023596 C26.64958221 414.01406878 26.65002276 414.75790161 26.65047665 415.52427483 C26.65225318 418.51562255 26.65402996 421.50697026 26.65585856 424.49831794 C26.66218618 434.92019504 26.66519808 445.34206836 26.66608154 455.76394725 C26.66727398 469.19138163 26.67522781 482.61878447 26.69494446 496.04620535 C26.70420633 502.52531213 26.71026195 509.00437995 26.70775604 515.4834938 C26.70557659 521.40548362 26.71253714 527.32738705 26.72705309 533.24935883 C26.73069943 535.40070062 26.73092141 537.55205127 26.72751851 539.70339347 C26.72342754 542.60990302 26.7314461 545.51612409 26.74273109 548.42260838 C26.73862046 549.27321727 26.73450982 550.12382617 26.73027462 551.00021109 C26.5719277 555.47275218 26.5719277 555.47275218 29 559 C32.77408886 560.42876221 36.77537881 560.1113375 40.75 560.0625 C41.79607422 560.05573242 41.79607422 560.05573242 42.86328125 560.04882812 C44.57555803 560.0371002 46.28779033 560.01916653 48 560 C47.93039063 561.77117187 47.93039063 561.77117187 47.859375 563.578125 C47.82185051 565.13539134 47.78545107 566.69268508 47.75 568.25 C47.71648438 569.02730469 47.68296875 569.80460938 47.6484375 570.60546875 C47.587222 574.18657524 47.64583064 576.38962302 49.46875 579.53125 C53.21168072 581.703074 56.50815476 581.4328988 60.75 581.25 C61.93916016 581.22292969 61.93916016 581.22292969 63.15234375 581.1953125 C65.10208348 581.14833082 67.05119878 581.07659044 69 581 C68.97679687 582.02480469 68.95359375 583.04960938 68.9296875 584.10546875 C68.91091964 585.46613851 68.89272053 586.8268162 68.875 588.1875 C68.85824219 588.86103516 68.84148437 589.53457031 68.82421875 590.22851562 C68.78481412 594.26748978 69.07103421 597.41859848 71 601 C73.7507132 602.3753566 75.9512841 602.13063049 79.03176022 602.13701439 C80.32623197 602.14208893 81.62070373 602.14716347 82.95440191 602.15239179 C84.40457336 602.15299352 85.85474486 602.15349258 87.30491638 602.15390015 C88.83480649 602.15791315 90.36469553 602.1623511 91.89458328 602.1671797 C96.11425587 602.17916866 100.333917 602.18479899 104.55360329 602.18936086 C109.09832458 602.19530798 113.64303211 602.20691985 118.18774414 602.21765137 C129.16958623 602.24219292 140.15143288 602.2568036 151.13329396 602.26971143 C154.23281857 602.27342161 157.33234272 602.27739497 160.43186688 602.2814641 C179.66324211 602.30669507 198.894618 602.32875671 218.12600613 602.34119225 C222.58213237 602.34412212 227.03825858 602.34708376 231.49438477 602.35009766 C233.15578498 602.35121673 233.15578498 602.35121673 234.85074884 602.35235842 C252.80942055 602.36502301 270.7679935 602.39826016 288.726619 602.43989949 C307.14702962 602.482261 325.56738959 602.50588044 343.98784882 602.51111281 C354.33738429 602.51453314 364.68676532 602.52636154 375.03625298 602.55921555 C383.846722 602.58713764 392.65700495 602.59824996 401.46751481 602.58702008 C405.96616601 602.58181355 410.46442705 602.58484863 414.96302223 602.60948563 C419.07681056 602.63182814 423.18992512 602.63135668 427.30372406 602.61228175 C428.7963145 602.60946051 430.2889492 602.61519695 431.78146797 602.63009469 C433.8016934 602.6490358 435.82215152 602.63449863 437.84239864 602.61803246 C439.52957859 602.62006725 439.52957859 602.62006725 441.25084299 602.62214315 C444.12074274 602.24252321 444.12074274 602.24252321 445.86125487 600.01627791 C447.39209047 595.96144115 447.41366793 592.42242184 447.37752342 588.121521 C447.38188374 587.2224117 447.38624407 586.32330241 447.39073652 585.39694738 C447.40173055 582.36832121 447.39125133 579.34014669 447.38095093 576.31152344 C447.38440584 574.12462505 447.38916928 571.9377284 447.39513266 569.75083542 C447.40769508 563.728904 447.40144845 557.7071146 447.39217401 551.68518257 C447.38540528 545.19567003 447.39585391 538.70618244 447.40411377 532.2166748 C447.41728778 520.23438699 447.41558321 508.25214431 447.40737936 496.26985383 C447.39983808 485.2011786 447.39786008 474.13252004 447.4014473 463.06384277 C447.40167645 462.3301483 447.40190561 461.59645383 447.40214171 460.84052619 C447.40307569 457.86235689 447.40403089 454.88418759 447.405021 451.9060183 C447.41420174 423.95816461 447.40587168 396.01033987 447.38973031 368.06249064 C447.37549307 343.2226345 447.37676694 318.38282449 447.39111328 293.54296875 C447.40717087 265.64682431 447.41355069 237.75070546 447.40427649 209.85455704 C447.40331431 206.88175711 447.40237579 203.90895717 447.4014473 200.93615723 C447.40121006 200.20415709 447.40097283 199.47215695 447.40072841 198.71797499 C447.39731338 187.65519734 447.40131167 176.59243817 447.40888596 165.52966309 C447.41745367 152.95307167 447.41505123 140.37653659 447.39904372 127.79995155 C447.39114158 121.37917105 447.38810246 114.95848435 447.39799118 108.53770447 C447.40689837 102.66556776 447.40207104 96.79361225 447.38605852 90.9214921 C447.38269381 88.79168964 447.38444243 86.66187202 447.39168589 84.53207922 C447.40074808 81.64732512 447.39151317 78.76319973 447.37752342 75.878479 C447.38454692 75.04274023 447.39157042 74.20700145 447.39880675 73.34593725 C447.35409455 68.76392214 447.0064629 65.70605403 444 62 C441.89472782 61.3167056 441.89472782 61.3167056 439.55078125 61.51171875 C438.27944336 61.53588867 438.27944336 61.53588867 436.98242188 61.56054688 C436.10134766 61.60244141 435.22027344 61.64433594 434.3125 61.6875 C432.97348633 61.72133789 432.97348633 61.72133789 431.60742188 61.75585938 C429.40325728 61.81479426 427.20247328 61.89699182 425 62 C425.04640625 60.74703125 425.0928125 59.4940625 425.140625 58.203125 C425.17814813 56.55210719 425.21454771 54.90106358 425.25 53.25 C425.30027344 52.0125 425.30027344 52.0125 425.3515625 50.75 C425.41144711 47.03715388 425.40187519 44.68653679 423.5 41.4375 C419.9573261 39.40046251 416.70448669 39.56974304 412.75 39.75 C408.91375 39.87375 408.91375 39.87375 405 40 C405 34.72 405 29.44 405 24 C404.34 24 403.68 24 403 24 C402.67 23.01 402.34 22.02 402 21 C399.25661523 19.62830762 397.07471176 19.87199779 394.00226784 19.86857224 C392.71537957 19.86473109 391.4284913 19.86088995 390.10260642 19.8569324 C388.66098438 19.85771274 387.2193624 19.85859154 385.77774048 19.85955811 C384.25681304 19.85697601 382.73588627 19.85396329 381.21496046 19.8505547 C377.02001748 19.8424632 372.82509159 19.84069394 368.63014174 19.83995724 C364.11198941 19.83811042 359.59384603 19.83056502 355.07569885 19.82382202 C345.18950158 19.81022326 335.30330836 19.80421168 325.41710329 19.79981136 C319.24834767 19.79705174 313.07959363 19.79281492 306.91083908 19.78830719 C289.84326335 19.77611287 272.77568889 19.76581364 255.7081089 19.7624321 C254.61513684 19.76221253 253.52216478 19.76199297 252.39607235 19.76176675 C251.30043458 19.76154847 250.20479681 19.76133019 249.07595789 19.7611053 C246.85565162 19.76066183 244.63534534 19.76021526 242.41503906 19.75976562 C240.76300415 19.75943348 240.76300415 19.75943348 239.0775948 19.75909463 C221.22309256 19.75514481 203.3686311 19.73768591 185.51414461 19.7144061 C167.19881936 19.69071745 148.88351459 19.6782314 130.56817377 19.67706418 C120.27845502 19.67614606 109.98878939 19.67035923 99.69908524 19.65224457 C90.93881267 19.63687714 82.17860963 19.63170321 73.41832615 19.63998267 C68.94597583 19.64390103 64.47376568 19.64290205 60.00143242 19.62892532 C55.91055229 19.6162572 51.81991868 19.61732096 47.72903924 19.62951604 C46.24585902 19.63148541 44.76266177 19.6283379 43.27950557 19.61967167 C41.26950337 19.60866679 39.25942062 19.61781199 37.24941444 19.6280632 C36.13108306 19.62746611 35.01275167 19.62686903 33.86053145 19.62625384 C30.48282273 20.06757241 29.1618549 20.33714558 27 23 Z " fill="#FEFEFE" transform="translate(0,0)"/>
<path d="M0 0 C116.16 0 232.32 0 352 0 C352 2.97 352 5.94 352 9 C240.13 9 128.26 9 13 9 C13 9.66 13 10.32 13 11 C12.34 11 11.68 11 11 11 C10.67 177.32 10.34 343.64 10 515 C6.7 515 3.4 515 0 515 C0 345.05 0 175.1 0 0 Z " fill="#575453" transform="translate(39,32)"/>
<path d="M0 0 C115.83 0 231.66 0 351 0 C351 2.97 351 5.94 351 9 C350.28344573 9.00097681 349.56689145 9.00195362 348.82862341 9.00296003 C306.39982412 9.0611783 263.97107677 9.13493414 221.54234103 9.22898628 C216.45270677 9.24025502 211.36307223 9.25139338 206.2734375 9.26245117 C205.26014371 9.26465486 204.24684993 9.26685854 203.20285027 9.269129 C186.77599894 9.30454243 170.34914767 9.32938369 153.92227228 9.35034702 C137.07826712 9.3720769 120.23431168 9.4051004 103.39034879 9.44870156 C92.98904878 9.47526689 82.58781076 9.49292625 72.18647848 9.49934604 C65.06276017 9.50458505 57.93912002 9.52075161 50.81544353 9.54566566 C46.69981606 9.55973195 42.58432865 9.5688325 38.46867561 9.56500816 C34.70592389 9.56161759 30.94347219 9.57184784 27.18078201 9.59323552 C25.16415149 9.60106339 23.1474805 9.59402717 21.13084853 9.58658296 C19.35356873 9.60076777 19.35356873 9.60076777 17.54038429 9.61523914 C16.5113422 9.61713775 15.4823001 9.61903635 14.42207491 9.62099248 C13.62279019 9.74606496 12.82350547 9.87113744 12 10 C9.47057371 13.79413943 9.71817196 16.81368701 9.73828697 21.20906353 C9.73429091 22.06008865 9.73029485 22.91111378 9.72617769 23.78792754 C9.71513159 26.66488431 9.71841477 29.54165103 9.7215271 32.41862488 C9.71652831 34.49186606 9.71065375 36.56510528 9.70397437 38.63834172 C9.6881099 44.35516362 9.68474015 50.07193646 9.68332577 55.78877771 C9.67964293 61.94626107 9.6644931 68.10371716 9.65071106 74.26118469 C9.6283992 84.93596944 9.61334021 95.61074195 9.60334396 106.28554344 C9.59282738 117.48370563 9.57820168 128.68184998 9.55806351 139.87999916 C9.55619021 140.92360896 9.55619021 140.92360896 9.55427906 141.98830178 C9.54791549 145.52147756 9.54147826 149.0546532 9.53501268 152.58782879 C9.48932538 177.6264957 9.45288829 202.6651684 9.421875 227.70385742 C9.39172109 252.03166553 9.35738723 276.35946186 9.31738281 300.68725586 C9.31553631 301.81168809 9.31553631 301.81168809 9.3136525 302.95883613 C9.30128586 310.48670416 9.28883412 318.01457205 9.27632002 325.54243984 C9.2508283 340.87817137 9.22590467 356.21390382 9.20132446 371.54963684 C9.20019355 372.25478041 9.19906264 372.95992398 9.19789747 373.68643554 C9.1224164 420.79094343 9.06022053 467.89547038 9 515 C6.03 515 3.06 515 0 515 C0 345.05 0 175.1 0 0 Z " fill="#7A7979" transform="translate(61,53)"/>
<path d="M0 0 C1.27141846 -0.01268417 2.54283691 -0.02536835 3.8527832 -0.03843689 C5.24170087 -0.03638559 6.63061742 -0.03339769 8.01953125 -0.02954102 C9.44295502 -0.03410147 10.86637658 -0.03940663 12.28979492 -0.04542542 C15.2723892 -0.0543605 18.25471577 -0.05192871 21.23730469 -0.04199219 C25.06101176 -0.03049522 28.88379635 -0.05072168 32.7073822 -0.07990932 C35.64650345 -0.09824717 38.58540256 -0.09798393 41.52456665 -0.0922718 C42.93439021 -0.09211832 44.34422858 -0.09818474 45.7539978 -0.11056328 C47.72396801 -0.1254247 49.69408986 -0.11219137 51.6640625 -0.09765625 C53.34592651 -0.097407 53.34592651 -0.097407 55.06176758 -0.09715271 C57.83203125 0.40405273 57.83203125 0.40405273 59.69326782 2.2857666 C61.06570851 4.83873063 61.21921153 6.5407028 61.23046875 9.43139648 C61.23433594 10.38852539 61.23820312 11.3456543 61.2421875 12.33178711 C61.23058594 13.32500977 61.21898437 14.31823242 61.20703125 15.34155273 C61.21863281 16.3309082 61.23023438 17.32026367 61.2421875 18.33959961 C61.20537486 27.46300008 61.20537486 27.46300008 57.83203125 31.40405273 C54.91005435 32.86504118 52.3330965 32.51540175 49.07421875 32.50170898 C48.07964157 32.49958656 48.07964157 32.49958656 47.06497192 32.49742126 C44.94561262 32.49182027 42.82635866 32.47926774 40.70703125 32.46655273 C39.27083486 32.46153786 37.83463681 32.45697493 36.3984375 32.45288086 C32.8762678 32.44185056 29.3541598 32.42458532 25.83203125 32.40405273 C25.83203125 33.72405273 25.83203125 35.04405273 25.83203125 36.40405273 C26.62899414 36.38834229 27.42595703 36.37263184 28.24707031 36.35644531 C31.85865175 36.29407685 35.47011986 36.25505534 39.08203125 36.21655273 C40.96341797 36.17884766 40.96341797 36.17884766 42.8828125 36.14038086 C44.08808594 36.13071289 45.29335938 36.12104492 46.53515625 36.11108398 C48.20046387 36.08751831 48.20046387 36.08751831 49.89941406 36.06347656 C53.23964495 36.45139049 54.60237743 36.88650861 56.83203125 39.40405273 C57.33374023 42.08374023 57.33374023 42.08374023 57.328125 45.27905273 C57.32876953 46.42889648 57.32941406 47.57874023 57.33007812 48.76342773 C57.31009766 49.96483398 57.29011719 51.16624023 57.26953125 52.40405273 C57.27662109 53.60545898 57.28371094 54.80686523 57.29101562 56.04467773 C57.2275464 64.75460863 57.2275464 64.75460863 55.70605469 67.25292969 C52.92146114 68.96337244 50.65969078 68.74107979 47.4140625 68.69702148 C46.16044922 68.68735352 44.90683594 68.67768555 43.61523438 68.66772461 C41.64973633 68.63001953 41.64973633 68.63001953 39.64453125 68.59155273 C38.30925962 68.57650241 36.97397188 68.5628146 35.63867188 68.55053711 C32.36938549 68.51512968 29.10091032 68.46574164 25.83203125 68.40405273 C25.8477417 69.35248047 25.86345215 70.3009082 25.87963867 71.27807617 C25.93083232 74.80417364 25.9684125 78.32987496 25.99682617 81.85620117 C26.01189276 83.38100423 26.03235001 84.9057641 26.05834961 86.43041992 C26.09482831 88.6248644 26.11177839 90.81873489 26.125 93.01342773 C26.14071045 94.33310547 26.1564209 95.6527832 26.17260742 97.01245117 C25.81051235 100.61834705 25.61695509 102.09185722 22.83203125 104.40405273 C19.87695312 104.90576172 19.87695312 104.90576172 16.30078125 104.90014648 C14.37298828 104.90111328 14.37298828 104.90111328 12.40625 104.90209961 C11.73770996 104.89170654 11.06916992 104.88131348 10.38037109 104.87060547 C8.33869151 104.8416472 6.29960909 104.84999599 4.2578125 104.86303711 C-5.65280035 104.79842429 -5.65280035 104.79842429 -7.8288517 103.13261414 C-9.46313527 101.02304538 -9.54474184 99.98778344 -9.54891968 97.34301758 C-9.56160889 96.10645416 -9.56160889 96.10645416 -9.57455444 94.84490967 C-9.56848175 93.94403625 -9.56240906 93.04316284 -9.55615234 92.11499023 C-9.5614093 91.16352112 -9.56666626 90.212052 -9.57208252 89.23175049 C-9.58530683 86.08068518 -9.57653571 82.93012335 -9.56640625 79.77905273 C-9.56842628 77.59334211 -9.57133713 75.40763214 -9.57510376 73.22192383 C-9.57953042 68.63868805 -9.57308497 64.05562754 -9.55908203 59.47241211 C-9.54199009 53.59074961 -9.55182943 47.70949777 -9.56979942 41.82785034 C-9.58062796 37.31377048 -9.57719517 32.79978834 -9.56941605 28.28570557 C-9.56741147 26.11671907 -9.5698823 23.94772377 -9.57685471 21.77874756 C-9.58445378 18.74996355 -9.57288639 15.72184923 -9.55615234 12.69311523 C-9.56526138 11.34180511 -9.56526138 11.34180511 -9.57455444 9.9631958 C-9.56609497 9.13882019 -9.5576355 8.31444458 -9.54891968 7.46508789 C-9.5477886 6.74906403 -9.54665752 6.03304016 -9.54549217 5.2953186 C-8.50199282 0.06773644 -4.61102418 0.02221936 0 0 Z " fill="#161817" transform="translate(352.16796875,92.595947265625)"/>
<path d="M0 0 C1.64860653 -0.00724325 1.64860653 -0.00724325 3.33051825 -0.01463282 C7.02645219 -0.02593647 10.72169928 -0.00855905 14.41760254 0.00863647 C17.0619333 0.00649142 19.70621898 0.00277566 22.35054016 -0.00286865 C28.79507302 -0.01295553 35.23940073 -0.00166595 41.6839081 0.01683195 C49.18624666 0.03759268 56.68854077 0.03745976 64.19090265 0.03648679 C77.57559465 0.03548532 90.96019111 0.05381462 104.34484863 0.08285522 C117.33737936 0.11103051 130.32982599 0.12519678 143.3223877 0.12387085 C144.122577 0.12379094 144.9227663 0.12371102 145.74720377 0.12362869 C146.54599941 0.12354798 147.34479504 0.12346727 148.16779661 0.12338412 C162.95214384 0.12200476 177.73645527 0.13378267 192.5207909 0.15169055 C197.75228034 0.15772613 202.98376321 0.15985002 208.21525574 0.16075516 C214.58931222 0.16211882 220.9633084 0.17103968 227.33733928 0.18942077 C230.59046647 0.1986609 233.84350091 0.20368398 237.09664345 0.20223236 C240.62026958 0.20125483 244.14364503 0.21252416 247.66723633 0.22705078 C249.2156642 0.22240498 249.2156642 0.22240498 250.79537344 0.21766531 C251.73790425 0.22411421 252.68043506 0.2305631 253.6515274 0.23720741 C254.46499838 0.23861626 255.27846936 0.24002511 256.11659098 0.24147666 C258.60618572 0.52558081 260.20498881 1.18927038 262.33361816 2.49447632 C264.1057878 4.9417582 264.37194066 6.09209013 264.08361816 9.11947632 C263.33361816 11.49447632 263.33361816 11.49447632 261.33361816 13.49447632 C260.34361816 13.49447632 259.35361816 13.49447632 258.33361816 13.49447632 C258.33361816 14.15447632 258.33361816 14.81447632 258.33361816 15.49447632 C169.56361816 15.49447632 80.79361816 15.49447632 -10.66638184 15.49447632 C-10.66638184 14.83447632 -10.66638184 14.17447632 -10.66638184 13.49447632 C-11.98638184 12.83447632 -13.30638184 12.17447632 -14.66638184 11.49447632 C-15.14473829 5.27584241 -15.14473829 5.27584241 -13.3174057 2.29100609 C-9.11782234 -0.55494208 -4.96035954 -0.04943192 0 0 Z " fill="#262626" transform="translate(133.6663818359375,234.50552368164063)"/>
<path d="M0 0 C1.64860653 -0.00724325 1.64860653 -0.00724325 3.33051825 -0.01463282 C7.02645219 -0.02593647 10.72169928 -0.00855905 14.41760254 0.00863647 C17.0619333 0.00649142 19.70621898 0.00277566 22.35054016 -0.00286865 C28.79507302 -0.01295553 35.23940073 -0.00166595 41.6839081 0.01683195 C49.18624666 0.03759268 56.68854077 0.03745976 64.19090265 0.03648679 C77.57559465 0.03548532 90.96019111 0.05381462 104.34484863 0.08285522 C117.33737936 0.11103051 130.32982599 0.12519678 143.3223877 0.12387085 C144.122577 0.12379094 144.9227663 0.12371102 145.74720377 0.12362869 C146.54599941 0.12354798 147.34479504 0.12346727 148.16779661 0.12338412 C162.95214384 0.12200476 177.73645527 0.13378267 192.5207909 0.15169055 C197.75228034 0.15772613 202.98376321 0.15985002 208.21525574 0.16075516 C214.58931222 0.16211882 220.9633084 0.17103968 227.33733928 0.18942077 C230.59046647 0.1986609 233.84350091 0.20368398 237.09664345 0.20223236 C240.62026958 0.20125483 244.14364503 0.21252416 247.66723633 0.22705078 C249.2156642 0.22240498 249.2156642 0.22240498 250.79537344 0.21766531 C251.73790425 0.22411421 252.68043506 0.2305631 253.6515274 0.23720741 C254.46499838 0.23861626 255.27846936 0.24002511 256.11659098 0.24147666 C258.60618572 0.52558081 260.20498881 1.18927038 262.33361816 2.49447632 C264.1057878 4.9417582 264.37194066 6.09209013 264.08361816 9.11947632 C263.33361816 11.49447632 263.33361816 11.49447632 261.33361816 13.49447632 C260.34361816 13.49447632 259.35361816 13.49447632 258.33361816 13.49447632 C258.33361816 14.15447632 258.33361816 14.81447632 258.33361816 15.49447632 C170.22361816 15.49447632 82.11361816 15.49447632 -8.66638184 15.49447632 C-8.66638184 14.83447632 -8.66638184 14.17447632 -8.66638184 13.49447632 C-9.47075684 13.35010132 -10.27513184 13.20572632 -11.10388184 13.05697632 C-13.66638184 12.49447632 -13.66638184 12.49447632 -14.66638184 11.49447632 C-15.23893985 5.42536137 -15.23893985 5.42536137 -13.31349945 2.29491234 C-9.11832043 -0.55843705 -4.96015273 -0.04942986 0 0 Z " fill="#262626" transform="translate(133.6663818359375,349.5055236816406)"/>
<path d="M0 0 C0.94191411 -0.00782324 1.88382822 -0.01564648 2.85428518 -0.02370679 C4.40168987 -0.01366855 4.40168987 -0.01366855 5.98035526 -0.00342751 C7.62790345 -0.01044746 7.62790345 -0.01044746 9.30873543 -0.01760924 C13.00221776 -0.02960902 16.69533247 -0.02008227 20.38881779 -0.01066017 C23.03151889 -0.01472368 25.67419437 -0.01995548 28.31688786 -0.02659035 C34.75770238 -0.03994183 41.19841212 -0.03704355 47.63923078 -0.02835242 C52.87365553 -0.02158125 58.10805088 -0.0206567 63.34247875 -0.02392387 C64.08706535 -0.02438357 64.83165195 -0.02484327 65.59880178 -0.0253169 C67.11136 -0.02627607 68.62391821 -0.02724871 70.1364764 -0.02823468 C84.32566568 -0.03679286 98.51479684 -0.02694803 112.70397658 -0.01083358 C124.88069105 0.00256725 137.05731971 0.00024431 149.23403263 -0.01358986 C163.37039496 -0.02964287 177.50670631 -0.03596594 191.64307648 -0.02675307 C193.15042117 -0.02579741 194.65776588 -0.0248543 196.16511059 -0.02392387 C196.90677274 -0.02346105 197.64843489 -0.02299822 198.41257165 -0.02252137 C203.64059689 -0.01993043 208.86858983 -0.02430476 214.09661007 -0.03136253 C220.46808868 -0.03977476 226.8394564 -0.03750341 233.21092229 -0.0215203 C236.46219516 -0.01363331 239.71324481 -0.01216668 242.96452236 -0.02046776 C246.48788952 -0.0286356 250.01073265 -0.01841861 253.5340662 -0.00342751 C254.56343861 -0.01011967 255.59281101 -0.01681184 256.65337652 -0.02370679 C265.53481811 0.049856 265.53481811 0.049856 269.32070255 3.37752342 C270.32070255 6.31502342 270.32070255 6.31502342 270.32070255 9.37752342 C268.60854778 12.54500976 267.78334646 13.22330879 264.32070255 14.37752342 C262.80321038 14.47008171 261.28197015 14.50662267 259.76165962 14.50895119 C258.35084998 14.5147129 258.35084998 14.5147129 256.91153914 14.52059102 C255.87634105 14.51972454 254.84114296 14.51885806 253.77457523 14.51796532 C252.67635864 14.52093644 251.57814204 14.52390756 250.44664615 14.52696872 C246.74783768 14.53567591 243.04906149 14.53716566 239.35024357 14.53865623 C236.70607696 14.5432829 234.06191333 14.54828656 231.41774845 14.5537014 C224.22160772 14.56728653 217.02547256 14.57330945 209.82932115 14.57771206 C205.33783458 14.58047363 200.84635018 14.58471078 196.35486507 14.58921623 C183.92385239 14.60140811 171.49284143 14.61170825 159.06182289 14.61509132 C158.26614708 14.61531089 157.47047126 14.61553046 156.65068405 14.61575668 C155.45429175 14.61608409 155.45429175 14.61608409 154.2337299 14.61641812 C152.61745711 14.61686159 151.00118432 14.61730816 149.38491154 14.6177578 C148.58318191 14.61797923 147.78145228 14.61820066 146.95542782 14.6184288 C133.95734349 14.62237891 120.95931515 14.6398398 107.96125246 14.66311732 C94.62246955 14.68681266 81.28371477 14.69929231 67.94491047 14.70045924 C60.45311937 14.70137692 52.96140127 14.70715262 45.46963024 14.72527885 C39.09189152 14.74065522 32.71424835 14.74581488 26.33649463 14.73754075 C23.08129196 14.7336257 19.82632277 14.73622706 16.57113552 14.7485981 C13.04519356 14.76121581 9.51975121 14.75549616 5.99381351 14.7450161 C4.44436246 14.7571007 4.44436246 14.7571007 2.86360937 14.76942945 C1.92046187 14.7628396 0.97731436 14.75624976 0.00558662 14.74946022 C-0.80842643 14.75005731 -1.62243948 14.7506544 -2.46111959 14.75126958 C-5.23409997 14.2840434 -6.62421953 13.26427678 -8.67929745 11.37752342 C-9.21054745 9.44002342 -9.21054745 9.44002342 -9.17929745 7.37752342 C-9.18960995 6.69689842 -9.19992245 6.01627342 -9.21054745 5.31502342 C-7.99698105 0.88907539 -4.1389438 0.0024798 0 0 Z " fill="#202121" transform="translate(127.67929744720459,378.6224765777588)"/>
<path d="M0 0 C0.94191411 -0.00782324 1.88382822 -0.01564648 2.85428518 -0.02370679 C4.40168987 -0.01366855 4.40168987 -0.01366855 5.98035526 -0.00342751 C7.62790345 -0.01044746 7.62790345 -0.01044746 9.30873543 -0.01760924 C13.00221776 -0.02960902 16.69533247 -0.02008227 20.38881779 -0.01066017 C23.03151889 -0.01472368 25.67419437 -0.01995548 28.31688786 -0.02659035 C34.75770238 -0.03994183 41.19841212 -0.03704355 47.63923078 -0.02835242 C52.87365553 -0.02158125 58.10805088 -0.0206567 63.34247875 -0.02392387 C64.08706535 -0.02438357 64.83165195 -0.02484327 65.59880178 -0.0253169 C67.11136 -0.02627607 68.62391821 -0.02724871 70.1364764 -0.02823468 C84.32566568 -0.03679286 98.51479684 -0.02694803 112.70397658 -0.01083358 C124.88069105 0.00256725 137.05731971 0.00024431 149.23403263 -0.01358986 C163.37039496 -0.02964287 177.50670631 -0.03596594 191.64307648 -0.02675307 C193.15042117 -0.02579741 194.65776588 -0.0248543 196.16511059 -0.02392387 C196.90677274 -0.02346105 197.64843489 -0.02299822 198.41257165 -0.02252137 C203.64059689 -0.01993043 208.86858983 -0.02430476 214.09661007 -0.03136253 C220.46808868 -0.03977476 226.8394564 -0.03750341 233.21092229 -0.0215203 C236.46219516 -0.01363331 239.71324481 -0.01216668 242.96452236 -0.02046776 C246.48788952 -0.0286356 250.01073265 -0.01841861 253.5340662 -0.00342751 C254.56343861 -0.01011967 255.59281101 -0.01681184 256.65337652 -0.02370679 C265.53481811 0.049856 265.53481811 0.049856 269.32070255 3.37752342 C270.32070255 6.31502342 270.32070255 6.31502342 270.32070255 9.37752342 C268.60854778 12.54500976 267.78334646 13.22330879 264.32070255 14.37752342 C262.81454087 14.4691745 261.30463473 14.50484111 259.79568768 14.50615788 C258.86273141 14.50938232 257.92977514 14.51260677 256.96854746 14.51592892 C255.42844636 14.51360602 255.42844636 14.51360602 253.85723209 14.51123619 C252.22321621 14.51463453 252.22321621 14.51463453 250.55618989 14.51810151 C246.88735146 14.52445743 243.21854981 14.52361113 239.54970646 14.52278709 C236.92686763 14.52577759 234.30402925 14.52917986 231.68119144 14.53296471 C225.28505676 14.54127774 218.8889313 14.54401984 212.49279167 14.54457708 C207.29458231 14.54505194 202.096376 14.54710518 196.89816761 14.55027771 C182.16609874 14.55908612 167.43403717 14.5636968 152.70196564 14.56294724 C151.90744765 14.56290728 151.11292966 14.56286732 150.29433537 14.56282616 C149.10110623 14.56276484 149.10110623 14.56276484 147.88377146 14.56270228 C134.98984045 14.56229577 122.09593864 14.571866 109.20201607 14.58596452 C95.96831964 14.60032059 82.73463746 14.60723513 69.50093305 14.60637075 C62.06893231 14.60603851 54.63696218 14.60879738 47.20496845 14.6195488 C40.21680685 14.62959321 33.22871098 14.62932631 26.24054623 14.62203217 C23.67222658 14.62098318 21.10390296 14.62336768 18.53559017 14.62939262 C15.03636317 14.63707121 11.53736218 14.63249509 8.0381403 14.62476158 C6.50473135 14.63247693 6.50473135 14.63247693 4.94034445 14.64034814 C-5.46749058 14.58933028 -5.46749058 14.58933028 -8.67929745 11.37752342 C-9.1467074 5.58164006 -9.1467074 5.58164006 -8.67929745 3.37752342 C-5.80064547 0.71842316 -3.88507936 0.0023277 0 0 Z " fill="#202120" transform="translate(127.67929744720459,206.6224765777588)"/>
<path d="M0 0 C0.95509004 -0.00843994 1.91018008 -0.01687988 2.89421225 -0.02557558 C3.94565625 -0.01956553 4.99710025 -0.01355549 6.08040619 -0.00736332 C7.75329075 -0.01544163 7.75329075 -0.01544163 9.45997095 -0.02368313 C13.21649449 -0.03805021 16.97266998 -0.03083733 20.7292099 -0.023736 C23.41441728 -0.02943496 26.09959921 -0.03629611 28.78479767 -0.04453373 C35.3326881 -0.06175297 41.88048271 -0.06255536 48.42838991 -0.05732083 C53.74866929 -0.05328398 59.06892028 -0.05471689 64.3891983 -0.06006908 C65.52379977 -0.06119172 65.52379977 -0.06119172 66.68132249 -0.06233703 C68.2178017 -0.06386846 69.7542809 -0.06540681 71.2907601 -0.066952 C85.70783515 -0.08068814 100.12485596 -0.07523135 114.54192978 -0.06376678 C127.74118003 -0.05383141 140.94029016 -0.06677831 154.1395188 -0.09070098 C167.6828415 -0.11506295 181.22609885 -0.12470712 194.76944304 -0.11804825 C202.37690779 -0.11454979 209.98426472 -0.11682935 217.59171295 -0.13429928 C224.06723205 -0.148985 230.54256739 -0.14970448 237.01808274 -0.13222837 C240.32384455 -0.12368603 243.6292081 -0.12379501 246.93496513 -0.13687992 C250.51395276 -0.14996912 254.09203479 -0.13864904 257.67098236 -0.12088871 C258.72242636 -0.13049372 259.77387036 -0.14009872 260.8571763 -0.14999479 C262.28981137 -0.13527335 262.28981137 -0.13527335 263.75138855 -0.12025452 C264.57793237 -0.12014718 265.40447619 -0.12003984 266.2560668 -0.11992925 C268.37569427 0.38031673 268.37569427 0.38031673 270.17252588 2.22019619 C271.37569427 4.38031673 271.37569427 4.38031673 271.25069427 7.44281673 C270.33822403 10.50610969 269.84574258 11.47080175 267.37569427 13.38031673 C265.26247883 13.75636423 265.26247883 13.75636423 262.76700592 13.75784016 C261.81539927 13.7656634 260.86379263 13.77348664 259.88334942 13.78154695 C258.83579637 13.77485479 257.78824331 13.76816262 256.70894623 13.76126766 C255.042187 13.76828762 255.042187 13.76828762 253.34175587 13.7754494 C249.59904286 13.78746502 245.85669158 13.77791633 242.11397552 13.76850033 C239.43862073 13.77256311 236.76329129 13.77779433 234.08794403 13.7844305 C227.56411033 13.79778992 221.04038 13.79488031 214.5165422 13.78619258 C209.21581023 13.7794251 203.9151073 13.77849525 198.61437225 13.78176403 C197.48393383 13.78245358 197.48393383 13.78245358 196.33065826 13.78315706 C194.79981604 13.78411621 193.26897384 13.78508885 191.73813164 13.78607483 C177.37398794 13.79463519 163.00990162 13.78478448 148.64576733 13.76867373 C136.31320121 13.75526996 123.9807198 13.75759787 111.64815521 13.77143002 C97.33639346 13.78747444 83.02468204 13.79381116 68.71291256 13.78459322 C67.18761381 13.78363755 65.66231506 13.78269444 64.1370163 13.78176403 C63.3864854 13.7813012 62.63595451 13.78083838 61.86268026 13.78036153 C56.56660114 13.77776822 51.27055386 13.78214996 45.97447968 13.78920269 C39.52277094 13.79760528 33.07117174 13.79536383 26.6194756 13.77936046 C23.32592759 13.77146086 20.03260076 13.77002193 16.739048 13.77830791 C13.17332794 13.78645414 9.60812881 13.77628541 6.04244232 13.76126766 C4.99488927 13.76795983 3.94733622 13.77465199 2.86803913 13.78154695 C1.91643249 13.77372371 0.96482584 13.76590047 -0.01561737 13.75784016 C-0.83912343 13.7573531 -1.66262949 13.75686604 -2.51109028 13.75636423 C-5.16496652 13.28410594 -6.04792752 12.54335462 -7.62430573 10.38031673 C-8.27811822 4.27806683 -8.27811822 4.27806683 -6.38988733 1.68533653 C-4.11777966 0.00592082 -2.81180221 0.00350097 0 0 Z " fill="#181818" transform="translate(126.62430572509766,264.61968326568604)"/>
<path d="M0 0 C1.42740997 -0.01080981 1.42740997 -0.01080981 2.8836565 -0.02183801 C4.45498608 -0.01077658 4.45498608 -0.01077658 6.05805969 0.00050831 C7.16923251 -0.0034661 8.28040533 -0.0074405 9.42525005 -0.01153535 C13.16797163 -0.02119971 16.91031911 -0.00931496 20.6530304 0.00241566 C23.32838465 -0.00001094 26.00371371 -0.00361222 28.67906189 -0.00864697 C35.20290203 -0.01814666 41.72663176 -0.01152493 48.25046372 0.00061598 C55.84327303 0.01422111 63.43605588 0.01259943 71.02887428 0.01048265 C84.57386309 0.00729105 98.11879935 0.01897023 111.66377258 0.03854847 C124.81548157 0.05755335 137.96712897 0.06463623 151.11885071 0.05905628 C165.43060805 0.05300214 179.74233828 0.05316885 194.05409336 0.06454211 C195.57939211 0.06574944 197.10469087 0.06695543 198.62998962 0.06816006 C199.38052052 0.0687636 200.13105141 0.06936713 200.90432566 0.06998896 C206.20039564 0.07387269 211.49645553 0.07347273 216.79252625 0.07157421 C223.24421736 0.0694548 229.69585444 0.07465698 236.14753032 0.08918776 C239.44103498 0.09644477 242.73444457 0.0994315 246.02795792 0.0959444 C249.59358142 0.09274096 253.1589648 0.10175805 256.7245636 0.1140337 C258.29589318 0.10836471 258.29589318 0.10836471 259.89896679 0.1025812 C260.85057343 0.1084134 261.80218008 0.11424559 262.78262329 0.12025452 C263.60612935 0.12112129 264.42963541 0.12198807 265.2780962 0.12288111 C267.39131165 0.37473011 267.39131165 0.37473011 270.39131165 2.37473011 C271.32881165 5.74973011 271.32881165 5.74973011 271.39131165 9.37473011 C270.06940556 11.56996727 270.06940556 11.56996727 267.39131165 13.37473011 C263.80044627 13.9797255 260.23818854 13.90934748 256.60430908 13.87593555 C255.49228184 13.88146995 254.38025459 13.88700435 253.23452955 13.89270645 C249.49481734 13.90635901 245.75576717 13.89131809 242.0160675 13.87643909 C239.34055743 13.88022057 236.66509214 13.88556622 233.98959351 13.89281178 C227.46920456 13.90675597 220.94900908 13.89917969 214.42862933 13.88413619 C206.83907671 13.86729117 199.24957248 13.8704844 191.66000695 13.87423027 C178.12110257 13.88011091 164.58229115 13.8659288 151.04341125 13.84128284 C137.89851904 13.81735671 124.75375102 13.81028016 111.60884094 13.82077503 C97.30182777 13.83217723 82.99487206 13.83412333 68.68785959 13.81967694 C67.16313812 13.81815106 65.63841663 13.8166307 64.11369514 13.81511593 C62.98834129 13.81397921 62.98834129 13.81397921 61.84025301 13.81281952 C56.5466706 13.80807165 51.25311381 13.80993165 45.95953178 13.81418133 C39.51149961 13.81910146 33.06358499 13.81315284 26.61557978 13.79328703 C23.32405495 13.78339683 20.03274658 13.77993036 16.74120712 13.78617954 C13.17772079 13.79209847 9.61476863 13.77969211 6.05133057 13.76241016 C4.48102417 13.77142523 4.48102417 13.77142523 2.87899441 13.78062242 C1.92800446 13.77218248 0.97701451 13.76374254 -0.00279331 13.75504684 C-0.8257573 13.75401771 -1.64872129 13.75298859 -2.49662358 13.75192827 C-5.1490893 13.27821875 -6.03269395 12.53671313 -7.60868835 10.37473011 C-8.26254984 4.27202292 -8.26254984 4.27202292 -6.37329388 1.67940074 C-4.10466331 0.00207647 -2.80754617 -0.00018756 0 0 Z " fill="#191919" transform="translate(126.60868835449219,464.62526988983154)"/>
<path d="M0 0 C0.94191411 -0.00782324 1.88382822 -0.01564648 2.85428518 -0.02370679 C4.40168987 -0.01366855 4.40168987 -0.01366855 5.98035526 -0.00342751 C7.62790345 -0.01044746 7.62790345 -0.01044746 9.30873543 -0.01760924 C13.00221776 -0.02960902 16.69533247 -0.02008227 20.38881779 -0.01066017 C23.03151889 -0.01472368 25.67419437 -0.01995548 28.31688786 -0.02659035 C34.75770238 -0.03994183 41.19841212 -0.03704355 47.63923078 -0.02835242 C52.87365553 -0.02158125 58.10805088 -0.0206567 63.34247875 -0.02392387 C64.08706535 -0.02438357 64.83165195 -0.02484327 65.59880178 -0.0253169 C67.11136 -0.02627607 68.62391821 -0.02724871 70.1364764 -0.02823468 C84.32566568 -0.03679286 98.51479684 -0.02694803 112.70397658 -0.01083358 C124.88069105 0.00256725 137.05731971 0.00024431 149.23403263 -0.01358986 C163.37039496 -0.02964287 177.50670631 -0.03596594 191.64307648 -0.02675307 C193.15042117 -0.02579741 194.65776588 -0.0248543 196.16511059 -0.02392387 C196.90677274 -0.02346105 197.64843489 -0.02299822 198.41257165 -0.02252137 C203.64059689 -0.01993043 208.86858983 -0.02430476 214.09661007 -0.03136253 C220.46808868 -0.03977476 226.8394564 -0.03750341 233.21092229 -0.0215203 C236.46219516 -0.01363331 239.71324481 -0.01216668 242.96452236 -0.02046776 C246.48788952 -0.0286356 250.01073265 -0.01841861 253.5340662 -0.00342751 C254.56343861 -0.01011967 255.59281101 -0.01681184 256.65337652 -0.02370679 C265.45209683 0.04917084 265.45209683 0.04917084 269.32070255 3.37752342 C270.6012896 6.41891767 270.48232589 7.8651057 269.49254036 11.00316525 C266.93229666 13.80214754 266.32806668 13.76854266 262.67798615 13.99834919 C260.64256077 14.02209176 258.60670249 14.01769634 256.57129765 13.99225426 C255.45125216 13.99793751 254.33120667 14.00362077 253.1772204 14.00947624 C249.40428204 14.0224496 245.6324016 13.99952683 241.85952091 13.97688866 C239.16282289 13.97875141 236.46619388 13.9825802 233.76950932 13.98883629 C227.19378402 13.99952278 220.61837824 13.98353788 214.04270165 13.95869803 C206.39066778 13.93081044 198.73869917 13.92942518 191.0866229 13.92925502 C177.43728596 13.92806692 163.78809611 13.9030723 150.13881779 13.86458397 C136.88326598 13.82722988 123.62782117 13.80598806 110.37221622 13.80306053 C109.55569841 13.80287772 108.7391806 13.80269491 107.89791983 13.80250656 C106.67529507 13.8022381 106.67529507 13.8022381 105.42797083 13.80196422 C103.78698726 13.80159882 102.1460037 13.80122644 100.50502014 13.80084705 C99.69581503 13.80066154 98.88660992 13.80047602 98.05288344 13.80028489 C85.43524339 13.79671746 72.81761995 13.77826827 60.19999672 13.75835381 C55.62113508 13.75132345 51.04227738 13.74654522 46.4634115 13.74339246 C39.20178428 13.73835032 31.94023168 13.72696308 24.67864292 13.70209216 C21.3589402 13.69084502 18.03932589 13.68381166 14.71960163 13.68322563 C11.12734211 13.68197625 7.53533913 13.66849661 3.94312382 13.65167809 C2.35575213 13.65530071 2.35575213 13.65530071 0.73631233 13.65899652 C-0.69856125 13.64839814 -0.69856125 13.64839814 -2.16242218 13.63758564 C-3.40736414 13.63465926 -3.40736414 13.63465926 -4.67745644 13.63167375 C-6.67929745 13.37752342 -6.67929745 13.37752342 -8.67929745 11.37752342 C-9.22058185 5.69403718 -9.22058185 5.69403718 -8.67929745 3.37752342 C-5.7968088 0.72189619 -3.88672892 0.00232869 0 0 Z " fill="#181A19" transform="translate(127.67929744720459,493.6224765777588)"/>
<path d="M0 0 C1.42964849 -0.00761181 1.42964849 -0.00761181 2.88817877 -0.0153774 C4.46971403 -0.01612404 4.46971403 -0.01612404 6.0831995 -0.01688576 C7.75480242 -0.02345914 7.75480242 -0.02345914 9.4601751 -0.03016531 C13.21969583 -0.04359243 16.9791931 -0.04974088 20.73873234 -0.0558567 C23.42378258 -0.0637544 26.10882978 -0.0720177 28.7938776 -0.08063698 C36.86875782 -0.10517029 44.94364422 -0.11978782 53.01855025 -0.13269705 C55.29790822 -0.13640776 57.57726558 -0.14038108 59.85662293 -0.14444971 C74.00171189 -0.16968078 88.14680177 -0.19174058 102.29190826 -0.20417786 C105.56894211 -0.20710769 108.84597592 -0.21006934 112.12300968 -0.21308327 C112.93752958 -0.21382932 113.75204948 -0.21457537 114.5912518 -0.21534403 C127.79704397 -0.22800784 141.0027018 -0.26124445 154.20843112 -0.3028851 C167.75622851 -0.34525551 181.30395703 -0.36886705 194.85182053 -0.37409842 C202.46270391 -0.37751771 210.07337721 -0.38933369 217.68419552 -0.42220116 C224.16340199 -0.45013553 230.64235534 -0.46123025 237.12161737 -0.4500057 C240.42949564 -0.44480216 243.73672948 -0.45051351 247.04455471 -0.47247124 C250.62592065 -0.49495886 254.2059312 -0.48696183 257.78730106 -0.47098732 C258.83942718 -0.48486941 259.89155331 -0.49875149 260.97556204 -0.51305425 C263.58173087 -0.48422505 265.95446238 -0.42611503 268.4987421 0.13701439 C270.67601967 2.510952 270.67601967 2.510952 271.4987421 5.13701439 C271.36326947 7.98193967 270.98366305 9.51496134 269.23209763 11.76185668 C266.9880584 13.54216534 265.73577774 13.51285473 262.89005375 13.51453781 C261.9384471 13.52236105 260.98684046 13.5301843 260.00639725 13.53824461 C258.95884419 13.53155244 257.91129114 13.52486027 256.83199406 13.51796532 C255.16523483 13.52498527 255.16523483 13.52498527 253.4648037 13.53214705 C249.72209069 13.54416268 245.97973941 13.53461398 242.23702335 13.52519798 C239.56166856 13.52926077 236.88633912 13.53449198 234.21099186 13.54112816 C227.68715815 13.55448758 221.16342783 13.55157797 214.63959002 13.54289024 C209.33885806 13.53612276 204.03815512 13.5351929 198.73742008 13.53846169 C197.60698165 13.53915123 197.60698165 13.53915123 196.45370609 13.53985471 C194.92286387 13.54081386 193.39202167 13.5417865 191.86117947 13.54277249 C177.49703577 13.55133285 163.13294945 13.54148214 148.76881516 13.52537139 C136.43624904 13.51196761 124.10376763 13.51429552 111.77120304 13.52812767 C97.45944129 13.5441721 83.14772987 13.55050881 68.83596039 13.54129088 C67.31066164 13.5403352 65.78536289 13.53939209 64.26006413 13.53846169 C63.50953323 13.53799886 62.75900234 13.53753603 61.98572809 13.53705918 C56.68964896 13.53446587 51.39360169 13.53884761 46.0975275 13.54590034 C39.64581877 13.55430293 33.19421957 13.55206148 26.74252343 13.53605811 C23.44897542 13.52815851 20.15564859 13.52671958 16.86209583 13.53500557 C13.29637576 13.54315179 9.73117664 13.53298306 6.16549015 13.51796532 C5.1179371 13.52465748 4.07038404 13.53134965 2.99108696 13.53824461 C2.03948031 13.53042136 1.08787367 13.52259812 0.10743046 13.51453781 C-0.7160756 13.51405075 -1.53958166 13.5135637 -2.38804245 13.51306188 C-5.01089178 13.04632485 -5.91115967 12.24096821 -7.5012579 10.13701439 C-7.64578915 7.91045189 -7.64578915 7.91045189 -7.3137579 5.51201439 C-7.21707821 4.71537376 -7.12039852 3.91873314 -7.02078915 3.09795189 C-6.84934383 2.45084251 -6.67789852 1.80373314 -6.5012579 1.13701439 C-4.11780223 -0.05471344 -2.66066577 0.00749895 0 0 Z " fill="#181919" transform="translate(126.50125789642334,407.8629856109619)"/>
<path d="M0 0 C0.95160665 -0.00782324 1.90321329 -0.01564648 2.8836565 -0.02370679 C4.45498608 -0.01366855 4.45498608 -0.01366855 6.05805969 -0.00342751 C7.16923251 -0.00810748 8.28040533 -0.01278745 9.42525005 -0.01760924 C13.16796306 -0.02962487 16.91031434 -0.02007617 20.6530304 -0.01066017 C23.32838519 -0.01472296 26.00371463 -0.01995417 28.67906189 -0.02659035 C35.20289559 -0.03994977 41.72662592 -0.03704016 48.25046372 -0.02835242 C53.55119569 -0.02158495 58.85189862 -0.02065509 64.15263367 -0.02392387 C65.2830721 -0.02461342 65.2830721 -0.02461342 66.43634766 -0.0253169 C67.96718988 -0.02627605 69.49803208 -0.02724869 71.02887428 -0.02823468 C85.39301798 -0.03679504 99.7571043 -0.02694432 114.12123859 -0.01083358 C126.45380471 0.0025702 138.78628612 0.00024229 151.11885071 -0.01358986 C165.43061246 -0.02963428 179.74232388 -0.035971 194.05409336 -0.02675307 C195.57939211 -0.02579739 197.10469086 -0.02485428 198.62998962 -0.02392387 C199.38052052 -0.02346105 200.13105141 -0.02299822 200.90432566 -0.02252137 C206.20040478 -0.01992806 211.49645206 -0.0243098 216.79252625 -0.03136253 C223.24423498 -0.03976512 229.69583418 -0.03752367 236.14753032 -0.0215203 C239.44107833 -0.0136207 242.73440516 -0.01218177 246.02795792 -0.02046776 C249.59367798 -0.02861398 253.15887711 -0.01844525 256.7245636 -0.00342751 C258.29589318 -0.01346575 258.29589318 -0.01346575 259.89896679 -0.02370679 C260.85057343 -0.01588355 261.80218008 -0.00806031 262.78262329 0 C263.60612935 0.00048706 264.42963541 0.00097411 265.2780962 0.00147593 C267.89745887 0.46759251 268.78256185 1.29684193 270.39131165 3.37752342 C270.96628424 6.22420149 270.67241793 8.42590739 270.39131165 11.37752342 C267.20590249 13.50112952 266.43055891 13.6281594 262.78262329 13.63199902 C261.83101665 13.63783121 260.87941 13.6436634 259.89896679 13.64967233 C258.85141374 13.64589301 257.80386068 13.64211368 256.7245636 13.63821983 C255.05780437 13.64395815 255.05780437 13.64395815 253.35737324 13.6498124 C249.61473238 13.66017391 245.87224404 13.65614426 242.1295929 13.65218163 C239.45424384 13.65652633 236.77890617 13.66164375 234.1035614 13.6676693 C227.57975055 13.68043526 221.05598081 13.68220767 214.53215957 13.67986903 C209.23143158 13.67808799 203.93071611 13.6798309 198.62998962 13.68409348 C197.87636401 13.68468866 197.12273839 13.68528385 196.34627563 13.68589708 C194.81543342 13.68710879 193.28459122 13.68832293 191.75374901 13.68953945 C177.3896202 13.7004221 163.02551484 13.69824895 148.6613847 13.69215461 C135.51065775 13.68698359 122.36000483 13.69824447 109.20929253 13.71725283 C95.71569797 13.73660776 82.22213847 13.74489144 68.72852993 13.74112958 C61.14902752 13.73921411 53.56958816 13.74173862 45.99009705 13.75584412 C39.53839551 13.767729 33.08679583 13.76919542 26.63509297 13.75705395 C23.34154002 13.75114504 20.04821315 13.75173353 16.75466537 13.76205635 C13.18895446 13.77242983 9.62375164 13.76449887 6.05805969 13.75174522 C4.48673011 13.76280665 4.48673011 13.76280665 2.8836565 13.77409154 C1.93204986 13.766885 0.98044321 13.75967846 0 13.75225353 C-0.82350606 13.75230855 -1.64701212 13.75236356 -2.49547291 13.75242025 C-5.14995135 13.28150019 -6.03223849 12.54088242 -7.60868835 10.37752342 C-8.26255847 4.27473567 -8.26255847 4.27473567 -6.37329388 1.68236864 C-4.10512848 0.00516389 -2.8071458 0.00166027 0 0 Z " fill="#181A19" transform="translate(126.60868835449219,321.6224765777588)"/>
<path d="M0 0 C1.42091103 -0.00701996 1.42091103 -0.00701996 2.87052733 -0.01418173 C6.05270665 -0.02617182 9.23445852 -0.01665867 12.41664124 -0.00723267 C14.69480644 -0.0112966 16.97296967 -0.01663748 19.25112915 -0.02316284 C25.4452943 -0.0368641 31.6393099 -0.03152593 37.83347774 -0.02202559 C44.30940966 -0.01444264 50.78532857 -0.02147088 57.26126099 -0.02618408 C68.83582605 -0.03199611 80.41031451 -0.0226584 91.98486758 -0.00740607 C102.47876082 0.00599419 112.97255449 0.00367201 123.46644592 -0.01016235 C135.65151869 -0.02621872 147.83652053 -0.03219175 160.02160364 -0.02332556 C166.4721491 -0.01864437 172.92262597 -0.0180364 179.37316704 -0.02793503 C185.43801778 -0.03659121 191.50268024 -0.03060727 197.5675106 -0.01325226 C199.79557736 -0.00928005 202.02365992 -0.01043395 204.25172043 -0.01704025 C207.28904107 -0.02521675 210.32575529 -0.01498091 213.36303711 0 C214.24844443 -0.00669217 215.13385175 -0.01338433 216.04608959 -0.02027929 C220.72953535 0.02464237 223.99762467 0.23966375 227.74501038 3.38095093 C228.80751038 6.31845093 228.80751038 6.31845093 228.74501038 9.38095093 C226.90359119 11.73034782 225.40502098 13.05094563 222.74501038 14.38095093 C219.73047525 14.48364091 216.73878852 14.52431453 213.72380066 14.52139282 C212.30439456 14.52584951 212.30439456 14.52584951 210.85631359 14.53039622 C207.66572064 14.53911108 204.47516509 14.54059381 201.28456116 14.54208374 C199.00507018 14.54670991 196.72557998 14.55173429 194.4460907 14.55712891 C188.23952722 14.57027348 182.03297456 14.57670176 175.82639933 14.58113956 C171.95252619 14.58406671 168.07865603 14.5881708 164.20478439 14.59264374 C153.48347875 14.60475512 142.76217701 14.61513656 132.04086494 14.61851883 C131.35445562 14.6187384 130.6680463 14.61895796 129.9608367 14.61918418 C129.27276681 14.61940246 128.58469691 14.61962074 127.87577641 14.61984563 C126.48143903 14.6202891 125.08710166 14.62073566 123.69276428 14.6211853 C122.65530071 14.62151745 122.65530071 14.62151745 121.59687828 14.6218563 C110.38672079 14.62580535 99.17662827 14.64326221 87.96649589 14.66654482 C76.46288162 14.69024455 64.95930923 14.70246192 53.45566928 14.70388675 C46.99449285 14.70493706 40.53340801 14.71089299 34.07225418 14.72870636 C27.9967836 14.74513011 21.92147403 14.74737032 15.84598923 14.73856735 C13.6126589 14.73779394 11.37932011 14.74217945 9.14601135 14.7520256 C6.1038757 14.76465406 3.06231823 14.75891794 0.02018738 14.7484436 C-0.86949702 14.75650001 -1.75918142 14.76455641 -2.67582595 14.77285695 C-8.63056905 14.72470152 -8.63056905 14.72470152 -11.80148506 12.97907639 C-13.59442931 11.00773765 -13.79501748 10.02278927 -13.75498962 7.38095093 C-13.76530212 6.70032593 -13.77561462 6.01970093 -13.78623962 5.31845093 C-13.25498962 3.38095093 -13.25498962 3.38095093 -11.80022335 1.78366661 C-7.94503236 -0.34098575 -4.33447011 -0.03267885 0 0 Z " fill="#212121" transform="translate(132.25498962402344,521.6190490722656)"/>
<path d="M0 0 C0.88178832 -0.00538554 1.76357664 -0.01077108 2.67208582 -0.01631981 C5.63859162 -0.03067286 8.60465581 -0.0234776 11.57118225 -0.01637268 C13.69319011 -0.02207241 15.8151949 -0.02903512 17.93719482 -0.03717041 C23.70987289 -0.05516088 29.48239944 -0.05392237 35.25509715 -0.04822803 C40.06896268 -0.04514465 44.88279875 -0.05121912 49.6966601 -0.05726677 C61.05036673 -0.07132975 72.40399815 -0.06973598 83.75770569 -0.05836487 C95.48263147 -0.04688168 107.20732857 -0.0609588 118.93222421 -0.08776134 C128.98833136 -0.10989102 139.04436658 -0.11656189 149.10049635 -0.11068493 C155.11119119 -0.10730764 161.12173942 -0.10978162 167.13241386 -0.12693596 C172.78362546 -0.14235946 178.43449732 -0.13850061 184.08569527 -0.11963081 C186.16260333 -0.11593218 188.23953632 -0.11909026 190.31642151 -0.1295166 C193.14632114 -0.14264108 195.97508187 -0.1312551 198.80493164 -0.11352539 C199.63167875 -0.1231304 200.45842585 -0.1327354 201.3102259 -0.14263147 C204.91454625 -0.09599658 207.05061324 0.08743097 210.01117802 2.22759914 C211.46595764 4.38768005 211.46595764 4.38768005 211.40345764 7.45018005 C210.44209438 10.46245162 209.87364655 11.46128355 207.46595764 13.38768005 C204.54829896 13.68265873 201.84400649 13.79217464 198.92518616 13.76863098 C198.04269227 13.77331095 197.16019838 13.77799093 196.25096226 13.78281271 C193.28211172 13.79481673 190.31371818 13.78528439 187.34486389 13.77586365 C185.22123443 13.77992695 183.09760708 13.78526746 180.97398376 13.79179382 C175.19723225 13.80550196 169.42064098 13.80015433 163.64388657 13.79065657 C157.60744027 13.78307807 151.57100798 13.79010053 145.53456116 13.79481506 C135.39610828 13.8002779 125.2577209 13.79306714 115.11927795 13.77879333 C103.38641264 13.76246585 91.6537037 13.76775398 79.92084217 13.78427255 C69.85965794 13.79787237 59.79852088 13.79981445 49.73733044 13.79195654 C43.72278466 13.78727175 37.70831246 13.78667729 31.69377136 13.79656601 C26.04014363 13.80521151 20.38671814 13.79925802 14.73311234 13.78188324 C12.65417441 13.77790545 10.57521956 13.77907438 8.4962883 13.78567123 C5.66620292 13.79382585 2.83677238 13.78363904 0.00672913 13.76863098 C-0.82293082 13.77532315 -1.65259077 13.78201531 -2.50739193 13.78891027 C-8.08381465 13.73124523 -8.08381465 13.73124523 -10.24398708 12.08283484 C-12.37954763 9.2766716 -11.89694421 6.77476396 -11.53404236 3.38768005 C-8.47219085 -0.63468671 -4.68296929 -0.03395128 0 0 Z " fill="#1A1919" transform="translate(186.53404235839844,436.61231994628906)"/>
<path d="M0 0 C0.88249389 -0.0055344 1.76498777 -0.01106879 2.6742239 -0.0167709 C5.64320638 -0.03042784 8.61135554 -0.01538089 11.58032227 -0.00050354 C13.70395262 -0.00428488 15.82758052 -0.00978339 17.95120239 -0.01687622 C23.72800574 -0.03087217 29.50451262 -0.01963195 35.28129959 -0.00316501 C41.31774395 0.01065406 47.35417055 0.00422901 53.390625 0.0007019 C63.52910152 -0.00200271 73.66745981 0.01149701 83.8059082 0.03465271 C95.53877943 0.06126396 107.27145293 0.06301045 119.00434399 0.05126435 C130.2762881 0.04049698 141.54816047 0.04666545 152.82009888 0.06081963 C157.62388803 0.06658847 162.42762485 0.0664897 167.23141479 0.06175423 C172.88505405 0.05699302 178.53847594 0.06705062 184.19207382 0.08870888 C186.27100771 0.09428861 188.34996244 0.09473124 190.42889786 0.08975601 C193.25899473 0.08383095 196.08842075 0.09625471 198.91845703 0.11352539 C199.74811698 0.10751535 200.57777693 0.1015053 201.43257809 0.09531313 C207.03796238 0.15784694 207.03796238 0.15784694 209.14182949 1.87263149 C210.9203266 4.07121675 211.25387252 5.69467345 211.45922852 8.50120544 C210.48192633 11.20758073 210.05410407 12.20376767 207.45922852 13.50120544 C204.64437995 13.60365416 201.85401598 13.64457731 199.03871155 13.64164734 C197.71625235 13.64610402 197.71625235 13.64610402 196.36707681 13.65065074 C193.3952618 13.65936364 190.42348695 13.66084816 187.45166016 13.66233826 C185.32818007 13.66696453 183.20470081 13.67198893 181.08122253 13.67738342 C175.30033248 13.69052623 169.51945405 13.69695583 163.73855138 13.70139408 C160.13069135 13.70432127 156.52283454 13.70842536 152.91497612 13.71289825 C141.63771519 13.72657702 130.36046154 13.7362423 119.08319288 13.74010015 C106.04457031 13.74458451 93.00605239 13.76214838 79.96746165 13.79110074 C69.90206277 13.81267906 59.83669342 13.82280233 49.77127165 13.82414126 C43.75334274 13.82519189 37.73551215 13.8311545 31.7176075 13.84896088 C26.0599113 13.86537551 20.40238803 13.86762936 14.74467659 13.85882187 C12.66411884 13.85804798 10.58355205 13.8624401 8.50301743 13.87228012 C5.6707121 13.88489385 2.8390291 13.87918084 0.00672913 13.86869812 C-1.23878398 13.88078273 -1.23878398 13.88078273 -2.50945896 13.89311147 C-8.10262969 13.84443159 -8.10262969 13.84443159 -10.25089079 12.16155314 C-12.24717582 9.59191452 -11.9269294 7.65482845 -11.54077148 4.50120544 C-9.16933185 -0.67492445 -5.0392322 -0.05833939 0 0 Z " fill="#181918" transform="translate(186.540771484375,292.49879455566406)"/>
<path d="M0 0 C0.95058792 -0.00990463 1.90117584 -0.01980927 2.88056946 -0.03001404 C3.92170395 -0.02551239 4.96283844 -0.02101074 6.03552246 -0.01637268 C7.13329514 -0.02323593 8.23106781 -0.03009918 9.36210632 -0.03717041 C13.00012043 -0.05551049 16.63770631 -0.05159083 20.27575684 -0.0459137 C22.79777162 -0.05047173 25.31978516 -0.05577616 27.84179688 -0.0617981 C33.13120143 -0.07074319 38.42044903 -0.06852258 43.70983887 -0.05836487 C49.82606398 -0.04687895 55.94185085 -0.06096551 62.05801821 -0.08776134 C67.94041411 -0.11256902 73.82267348 -0.1151002 79.7051239 -0.10864449 C82.20904774 -0.10849072 84.71297981 -0.11458047 87.21687317 -0.12693596 C90.71274766 -0.14175581 94.20764794 -0.13123467 97.70349121 -0.11402893 C98.7446257 -0.1236969 99.78576019 -0.13336487 100.85844421 -0.14332581 C101.80903214 -0.13349167 102.75962006 -0.12365753 103.73901367 -0.11352539 C104.56565269 -0.11331611 105.39229172 -0.11310682 106.24398041 -0.1128912 C108.36950684 0.38768005 108.36950684 0.38768005 110.13547516 2.22759914 C111.80127828 5.14346393 111.79142747 7.08263508 111.36950684 10.38768005 C109.77450016 12.53656736 108.88598777 13.29594108 106.22836304 13.76799679 C105.39434967 13.77042668 104.5603363 13.77285658 103.7010498 13.77536011 C102.26254669 13.79021706 102.26254669 13.79021706 100.79498291 13.80537415 C99.74449768 13.8008725 98.69401245 13.79637085 97.61169434 13.79173279 C95.95040497 13.80202766 95.95040497 13.80202766 94.2555542 13.81253052 C90.58507564 13.83087117 86.9150215 13.82695084 83.24450684 13.8212738 C80.70007182 13.82583181 78.15563803 13.83113623 75.61120605 13.8371582 C70.27472356 13.84610341 64.93839662 13.84388254 59.60192871 13.83372498 C53.43117349 13.82223905 47.26085263 13.83632559 41.09015465 13.86312145 C35.15543326 13.88792869 29.2208472 13.89046038 23.28607178 13.88400459 C20.75981931 13.88385082 18.23355869 13.88994084 15.70733643 13.90229607 C12.18033185 13.9171154 8.65429296 13.90659512 5.12731934 13.88938904 C4.07683411 13.89905701 3.02634888 13.90872498 1.94403076 13.91868591 C0.98502869 13.90885178 0.02602661 13.89901764 -0.96203613 13.8888855 C-1.7960495 13.88867621 -2.63006287 13.88846693 -3.48934937 13.8882513 C-5.63049316 13.38768005 -5.63049316 13.38768005 -7.43008423 11.54776096 C-8.63049316 9.38768005 -8.63049316 9.38768005 -8.50549316 6.32518005 C-7.03787129 1.39816376 -5.08107942 0.01493577 0 0 Z " fill="#171918" transform="translate(206.6304931640625,177.61231994628906)"/>
<path d="M0 0 C14.85 0 29.7 0 45 0 C45 2.31 45 4.62 45 7 C43.61494263 7.02187378 43.61494263 7.02187378 42.2019043 7.04418945 C38.77422796 7.10526308 35.34735338 7.1794161 31.92016602 7.26245117 C30.43720146 7.29569423 28.95411056 7.32372823 27.47094727 7.34643555 C25.33815707 7.37999468 23.20652388 7.43230638 21.07421875 7.48828125 C19.14968872 7.52755737 19.14968872 7.52755737 17.1862793 7.56762695 C14.07692914 7.76330048 14.07692914 7.76330048 12.08276367 9.21948242 C10.64385178 11.58565703 10.61210595 13.23661202 10.6015625 16 C10.59769531 16.969375 10.59382813 17.93875 10.58984375 18.9375 C10.60144531 19.948125 10.61304688 20.95875 10.625 22 C10.61339844 23.010625 10.60179687 24.02125 10.58984375 25.0625 C10.59371094 26.031875 10.59757812 27.00125 10.6015625 28 C10.60494629 28.886875 10.60833008 29.77375 10.61181641 30.6875 C10.84950443 33.01558613 10.84950443 33.01558613 12.1237793 34.78051758 C14.87768583 36.57046724 17.1541376 36.43787642 20.41796875 36.51171875 C21.67158203 36.54716797 22.92519531 36.58261719 24.21679688 36.61914062 C25.52712891 36.64169922 26.83746094 36.66425781 28.1875 36.6875 C29.52282013 36.72067666 30.85810832 36.75516666 32.19335938 36.79101562 C35.46215504 36.87362057 38.73067812 36.94273229 42 37 C42.04254356 38.99954746 42.04080783 41.00041636 42 43 C40.17789433 44.82210567 37.29869127 44.1736685 34.84765625 44.2109375 C33.59662109 44.23929688 32.34558594 44.26765625 31.05664062 44.296875 C28.39792647 44.34887919 25.73905013 44.39317391 23.08007812 44.4296875 C21.82775391 44.460625 20.57542969 44.4915625 19.28515625 44.5234375 C18.12894775 44.54325684 16.97273926 44.56307617 15.78149414 44.58349609 C14.86360107 44.72094238 13.94570801 44.85838867 13 45 C10.62931088 48.55603368 10.65534892 51.17993345 10.5859375 55.29296875 C10.56657135 55.99899734 10.5472052 56.70502594 10.5272522 57.43244934 C10.46754776 59.68401061 10.4211086 61.93562328 10.375 64.1875 C10.33681171 65.71551689 10.29775948 67.24351245 10.2578125 68.77148438 C10.16185404 72.51414935 10.07778989 76.2569151 10 80 C6.7 80 3.4 80 0 80 C0 53.6 0 27.2 0 0 Z " fill="#981111" transform="translate(355,105)"/>
<path d="M0 0 C0 16.17 0 32.34 0 49 C-15.84 49 -31.68 49 -48 49 C-46.02656307 44.06640768 -45.05714252 42.81717684 -41.1875 39.5625 C-36.98992606 35.93817579 -36.98992606 35.93817579 -33.3125 31.8125 C-30.97438153 28.9688424 -28.50843231 26.83456467 -25.6875 24.5 C-23.75444683 22.85667758 -23.75444683 22.85667758 -21.5 20 C-19.06244052 17.07492863 -16.5363446 14.84729607 -13.62109375 12.43359375 C-11.82559747 10.92815768 -11.82559747 10.92815768 -10 8.5 C-3.2 0 -3.2 0 0 0 Z " fill="#6A6A6A" transform="translate(434,541)"/>
<path d="M0 0 C16.17 0 32.34 0 49 0 C45.35125619 4.25686777 41.96230261 8.13433892 38 12 C36.83198537 13.16531714 35.66540745 14.33207547 34.5 15.5 C14 36 14 36 12.3125 37.65234375 C9.44400214 40.47756686 6.70341079 43.29075612 4.1875 46.4375 C3.1046875 47.7059375 3.1046875 47.7059375 2 49 C1.34 49 0.68 49 0 49 C0 32.83 0 16.66 0 0 Z " fill="#959595" transform="translate(376,531)"/>
<path d="M0 0 C1.43541021 -0.00895972 1.43541021 -0.00895972 2.8998186 -0.01810044 C3.95330896 -0.00936192 5.00679932 -0.00062339 6.09221363 0.00837994 C7.2095867 0.00581666 8.32695977 0.00325339 9.47819263 0.00061244 C13.24175195 -0.00434936 17.0049147 0.01220735 20.76843739 0.02856731 C23.4585101 0.02941307 26.14855812 0.02907172 28.83862782 0.0272398 C34.64012452 0.02566527 40.44152016 0.03509312 46.24299145 0.05195332 C54.63097079 0.07631457 63.01890118 0.08414563 71.40691207 0.08791729 C85.01524119 0.0944863 98.62351643 0.11445963 112.23181629 0.14282513 C125.45251667 0.17035408 138.67320242 0.19159335 151.89392567 0.20434856 C152.70858729 0.20513673 153.52324891 0.20592491 154.36259725 0.20673696 C158.44943671 0.21065202 162.53627627 0.21444315 166.6231159 0.21817267 C200.5378878 0.24928256 234.45259447 0.30213057 268.36731434 0.36914349 C268.69731434 1.02914349 269.02731434 1.68914349 269.36731434 2.36914349 C268.79540544 2.3676246 268.22349655 2.36610572 267.63425708 2.36454082 C233.75625336 2.27507491 199.87827646 2.20642077 166.00018041 2.16488217 C161.9345699 2.1598792 157.86895964 2.15470192 153.80334949 2.14941692 C152.99394213 2.14836768 152.18453477 2.14731844 151.35059991 2.1462374 C138.23591609 2.12882082 125.12130224 2.09727626 112.00665995 2.0605323 C98.55497739 2.0231577 85.10333153 2.00091502 71.65159917 1.99278951 C63.34768516 1.98729448 55.04396889 1.96992426 46.74011573 1.93747762 C41.04982388 1.91637265 35.3596346 1.90993428 29.66930643 1.91513798 C26.38367347 1.91770609 23.09846079 1.91153398 19.81287289 1.89232159 C16.25381571 1.8725242 12.69561596 1.87716759 9.13654041 1.88812542 C8.09374479 1.87647405 7.05094917 1.86482269 5.97655368 1.85281825 C0.500921 1.80953099 0.500921 1.80953099 -4.22763729 4.25858212 C-5.5512535 6.24682202 -6.69166578 8.17343043 -7.63268566 10.36914349 C-7.99987603 3.8821137 -7.99987603 3.8821137 -6.41050977 1.6617462 C-4.12584684 0.00063614 -2.81189308 -0.0038678 0 0 Z " fill="#242424" transform="translate(126.63268566131592,264.63085651397705)"/>
<path d="M0 0 C0.66 0 1.32 0 2 0 C1.21302675 3.41021743 0.12880057 6.68885166 -1 10 C-1.33 10 -1.66 10 -2 10 C-2.1953125 3.9453125 -2.1953125 3.9453125 -2 2 C-1.34 1.34 -0.68 0.68 0 0 Z " fill="#2B2B2B" transform="translate(121,208)"/>
<path d="M0 0 C0.33 0.66 0.66 1.32 1 2 C1.66 2.33 2.32 2.66 3 3 C2.360625 3.2475 1.72125 3.495 1.0625 3.75 C-1.18741541 4.81562433 -1.18741541 4.81562433 -1.75 7.125 C-1.8325 7.74375 -1.915 8.3625 -2 9 C-2.25 3.375 -2.25 3.375 0 0 Z " fill="#252625" transform="translate(177,294)"/>
<path d="M0 0 C0.66 0 1.32 0 2 0 C1 4 1 4 0 8 C-0.66 8 -1.32 8 -2 8 C-1.125 2.25 -1.125 2.25 0 0 Z " fill="#333433" transform="translate(200,179)"/>
</svg>
