<?xml version="1.0" encoding="UTF-8"?>
<svg version="1.1" xmlns="http://www.w3.org/2000/svg" width="550" height="613">
<path d="M0 0 C181.5 0 363 0 550 0 C550 202.29 550 404.58 550 613 C368.5 613 187 613 0 613 C0 410.71 0 208.42 0 0 Z " fill="#FEFEFE" transform="translate(0,0)"/>
<path d="M0 0 C1.79224146 -0.01265991 1.79224146 -0.01265991 3.62068981 -0.02557558 C4.93992712 -0.01956553 6.25916444 -0.01355549 7.61837864 -0.00736332 C9.02880308 -0.01153373 10.43922418 -0.01700963 11.849639 -0.02368313 C15.73454315 -0.03819514 19.61923619 -0.0338752 23.50415218 -0.02651632 C27.69032965 -0.02180109 31.87646036 -0.03427986 36.06262302 -0.04453373 C44.26721241 -0.06175953 52.47172534 -0.06255392 60.67632812 -0.05732083 C67.34289766 -0.0532849 74.00944454 -0.0547158 80.67601299 -0.06006908 C81.62362518 -0.06081751 82.57123736 -0.06156593 83.54756506 -0.06233703 C85.47243154 -0.06386845 87.39729801 -0.0654068 89.32216448 -0.066952 C107.38702068 -0.08069073 125.45183361 -0.07522973 143.51668883 -0.06376678 C160.05521355 -0.05383301 176.59362643 -0.06677513 193.13213389 -0.09070098 C210.10052606 -0.11506439 227.06886606 -0.12470664 244.03727537 -0.11804825 C253.56910298 -0.11454988 263.10084453 -0.11682872 272.63265896 -0.13429928 C280.74698641 -0.14898684 288.86116722 -0.14970202 296.9754917 -0.13222837 C301.11777002 -0.12368742 305.259786 -0.12164374 309.40205097 -0.13687992 C313.19136253 -0.15064563 316.98018499 -0.14606975 320.76946766 -0.12664068 C322.79543397 -0.12105679 324.82142468 -0.13521964 326.84734482 -0.14999479 C328.0447802 -0.1401805 329.24221558 -0.13036621 330.47593689 -0.12025452 C332.02959148 -0.12009351 332.02959148 -0.12009351 333.61463302 -0.11992925 C337.01619873 0.51352474 338.20433987 1.67666223 340.30088902 4.38031673 C340.75499058 7.22113705 340.75499058 7.22113705 340.69151402 10.45844173 C340.67217808 12.19867611 340.67217808 12.19867611 340.65245152 13.97406673 C340.60217808 15.78391048 340.60217808 15.78391048 340.55088902 17.63031673 C340.53284214 18.85234798 340.51479527 20.07437923 340.49620152 21.33344173 C340.44907002 24.34985752 340.38328314 27.36469165 340.30088902 30.38031673 C341.07577671 30.35936947 341.85066441 30.3384222 342.64903355 30.31684017 C371.06115026 29.64951232 371.06115026 29.64951232 382.30088902 34.38031673 C383.11686558 34.69226986 383.93284214 35.00422298 384.77354527 35.32562923 C387.01913444 36.24235346 389.14868588 37.26290231 391.30088902 38.38031673 C392.0988187 38.78766048 392.89674839 39.19500423 393.71885777 39.61469173 C406.93973954 46.91179857 415.41991513 58.14133606 419.94786167 72.42059994 C421.64148471 79.02844442 421.68540935 85.65386536 421.67588902 92.44281673 C421.67427769 93.63568295 421.67266636 94.82854916 421.6710062 96.05756283 C421.541636 105.40899927 420.44459668 113.55835509 417.30088902 122.38031673 C417.00053745 123.22980892 416.70018589 124.07930111 416.39073277 124.95453548 C407.61809252 146.7152405 389.10971493 160.98243796 368.30088902 170.38031673 C346.44149075 179.3412413 322.78769736 183.0904442 299.30088902 182.38031673 C299.09093296 182.91551937 298.88097691 183.45072201 298.66465855 184.00214291 C296.77180861 187.30293976 294.16729566 189.77915262 291.48057652 192.43109798 C290.90308659 193.00812969 290.32559666 193.5851614 289.73060703 194.17967892 C288.50737535 195.39989335 287.28171796 196.61768024 286.0538187 197.83319759 C284.19817875 199.67074433 282.35050365 201.51600212 280.50401402 203.36273861 C272.89049786 210.95398512 265.20521117 218.18849348 256.67588902 224.75531673 C252.39668656 228.21747367 249.65609779 231.53590502 246.79698277 236.18500423 C238.46144192 248.41626782 224.73777983 252.44154279 210.98326206 255.08832455 C208.42689078 255.54966378 205.86510027 255.96487689 203.30088902 256.38031673 C202.33715366 256.55909359 201.37341831 256.73787045 200.38047886 256.92206478 C189.92145346 258.69150804 179.52925126 258.71823242 168.94542027 258.69599056 C165.83437953 258.69285054 162.72431159 258.71629478 159.61338902 258.74164486 C137.93737852 258.80986103 113.40272794 257.74381945 94.30088902 246.38031673 C93.65635777 246.00133236 93.01182652 245.62234798 92.34776402 245.23187923 C87.52290635 242.10621057 84.56643219 238.04273532 81.30088902 233.38031673 C77.49472299 228.2691795 73.04924267 224.65178963 68.07432652 220.67719173 C64.90047336 218.0487049 62.05048955 215.22087174 59.18370152 212.26703548 C57.35358037 210.4331174 55.45971715 208.74783525 53.48838902 207.06781673 C46.19674203 200.78092425 39.39558389 193.86389558 33.17198277 186.52094173 C31.2777855 184.35388516 29.2955503 182.28643129 27.30333042 180.20990658 C9.69552726 161.65872162 2.1275202 137.45784646 -2.26991177 112.78363705 C-2.67814582 110.49771211 -3.10566299 108.21629293 -3.53895473 105.93500423 C-6.05783213 92.4845985 -7.68400111 79.11313449 -8.23817348 65.43500423 C-8.28037014 64.39777721 -8.3225668 63.36055019 -8.36604214 62.29189205 C-8.7768086 51.46241458 -8.9195025 40.63618779 -8.93934536 29.79950619 C-8.9493276 26.4961334 -8.9806424 23.19331758 -9.01161098 19.89008236 C-9.01811934 17.77615367 -9.02337823 15.66222067 -9.02723598 13.54828548 C-9.03958279 12.56724346 -9.05192959 11.58620144 -9.06465054 10.57543087 C-9.06164944 9.67210522 -9.05864834 8.76877956 -9.0555563 7.83808041 C-9.05920193 7.04665142 -9.06284756 6.25522243 -9.06660366 5.43981075 C-8.14957076 0.30059602 -4.62038829 0.00459149 0 0 Z " fill="#9F7A7A" transform="translate(72.69911098480225,338.61968326568604)"/>
<path d="M0 0 C1.32837891 0.309375 1.32837891 0.309375 2.68359375 0.625 C14.82265988 3.5882117 25.17826276 8.85413861 32.10058594 19.72900391 C38.92261071 31.58966301 41.51184927 44.81337123 37.875 58.3125 C35.76441279 64.34130654 32.53655274 70.46344726 28 75 C27.91426194 78.5003493 28.00534657 81.94414324 28.16601562 85.43945312 C28.3012831 90.76152856 27.413521 94.24227584 25 99 C34.29817294 94.65848668 41.06196889 91.37857402 46 82 C48.5650977 78.60745143 49.29251358 78.09929634 53.5625 77.5 C57 78 57 78 58.66796875 79.734375 C60.12702644 82.2160567 60.4423074 83.90836838 60.75 86.75 C61.46046896 91.03167575 62.65026252 93.10214787 65.6875 96.1875 C68.98607643 99.5683694 68.98607643 99.5683694 69.125 103.875 C68 107 68 107 65 109 C63.0546875 109.4140625 63.0546875 109.4140625 60.875 109.625 C59.81925781 109.73714844 59.81925781 109.73714844 58.7421875 109.8515625 C56 110 56 110 53.97851562 109.89501953 C47.98482369 109.63560263 44.02496762 110.86635969 38.75 113.625 C37.27361745 114.35713382 35.79705277 115.08890049 34.3203125 115.8203125 C33.59618164 116.18672852 32.87205078 116.55314453 32.12597656 116.93066406 C28.98433533 118.51086487 25.81072786 120.01047623 22.625 121.5 C21.60664063 121.9846875 20.58828125 122.469375 19.5390625 122.96875 C17 124 17 124 14 124 C14 125.65 14 127.3 14 129 C15.175625 129.350625 16.35125 129.70125 17.5625 130.0625 C21.34797119 131.28476813 24.76176362 132.8833835 28.28930664 134.71557617 C35.44578662 138.37987801 40.75934543 139.68099038 48.9765625 138.953125 C52.81430367 139.01262486 55.28514948 140.28514948 58 143 C58.41194057 145.95224072 58.5560236 148.09957373 56.953125 150.6953125 C55.15470674 152.8851512 53.55678931 154.72160534 51 156 C50.39220893 158.76432384 50.04116492 161.53200962 49.66015625 164.3359375 C48.94489821 167.22236344 48.38472389 168.27391414 46 170 C42.6875 170.625 42.6875 170.625 39 170 C35.65174232 167.23887755 33.43783808 163.77408959 31.31640625 160.0234375 C28.38171715 156.19300013 25.43810091 154.72848666 21.125 152.75 C20.43019531 152.41226563 19.73539063 152.07453125 19.01953125 151.7265625 C13.17474553 148.89814559 13.17474553 148.89814559 7 147 C5.03469403 147.93456819 5.03469403 147.93456819 3.5625 149.6875 C-4.3580463 157.34577655 -14.22132409 157.37830491 -24.69140625 157.20703125 C-32.5248291 156.92806076 -38.54184234 155.69782724 -44.3125 150.1875 C-44.88613281 149.54167969 -45.45976562 148.89585937 -46.05078125 148.23046875 C-48.01256062 146.67727386 -48.01256062 146.67727386 -50.703125 147.5546875 C-52.33507812 148.27011719 -52.33507812 148.27011719 -54 149 C-54.64735107 149.27851807 -55.29470215 149.55703613 -55.96166992 149.84399414 C-65.12714627 153.92358619 -72.14864024 157.54774107 -76.87109375 166.8125 C-78 169 -78 169 -80 170 C-83.4375 170.3125 -83.4375 170.3125 -87 170 C-89.71919565 167.21108139 -90.34281821 164.98985934 -90.75 161.1875 C-91.61659702 156.01072305 -93.66386173 153.9823388 -97.5 150.59375 C-99 149 -99 149 -99.625 145.75 C-98.94782915 142.77044824 -98.47242395 141.73985389 -96 140 C-92.45415938 138.81805313 -89.97753568 139.14694402 -86.25 139.375 C-77.26177161 139.65398685 -70.72623788 136.22006209 -63 132 C-57.26410835 129 -57.26410835 129 -55 129 C-55.09470236 127.0786152 -55.09470236 127.0786152 -56 125 C-58.34614871 123.37988916 -58.34614871 123.37988916 -61.3203125 122.08984375 C-62.4134375 121.57486328 -63.5065625 121.05988281 -64.6328125 120.52929688 C-65.78523438 120.00400391 -66.93765625 119.47871094 -68.125 118.9375 C-69.81882812 118.14375977 -69.81882812 118.14375977 -71.546875 117.33398438 C-73.73279773 116.31397242 -75.92383603 115.30483635 -78.12036133 114.30786133 C-79.80051826 113.54477522 -81.47534816 112.76930914 -83.13549805 111.96362305 C-87.10560384 110.08849882 -90.19691559 109.72211016 -94.5625 109.9375 C-99.89904128 110.18735007 -104.3840123 109.83119139 -108.875 106.6875 C-110 105 -110 105 -110.5625 102.75 C-109.71384591 98.60102446 -107.11597972 95.80115275 -104 93 C-103.34 93 -102.68 93 -102 93 C-102.061875 91.783125 -102.12375 90.56625 -102.1875 89.3125 C-102.19442348 85.40073507 -101.41890746 83.16318668 -99 80 C-97 78 -97 78 -94.75 77.5625 C-90.88380641 78.17757625 -88.55432738 80.17409184 -86 83 C-83 88.1 -83 88.1 -83 91 C-81.97326172 91.39832031 -81.97326172 91.39832031 -80.92578125 91.8046875 C-77.63164129 93.15049101 -74.41452129 94.62557597 -71.1875 96.125 C-70.02605469 96.66382813 -68.86460937 97.20265625 -67.66796875 97.7578125 C-66.78753906 98.16773438 -65.90710938 98.57765625 -65 99 C-65.28875 98.45472656 -65.5775 97.90945313 -65.875 97.34765625 C-68.63321847 91.74502498 -69.72663217 87.22997743 -69 81 C-68.76410156 80.34128906 -68.52820313 79.68257813 -68.28515625 79.00390625 C-67.7656187 76.8941641 -67.7656187 76.8941641 -69.2578125 74.984375 C-69.87398437 74.24703125 -70.49015625 73.5096875 -71.125 72.75 C-78.94016158 62.08441877 -81.56836902 49.03065478 -80 36 C-77.04286714 23.0315682 -68.88258354 13.11878482 -58.078125 5.7109375 C-41.61738678 -3.43855913 -17.93121819 -5.05995575 0 0 Z " fill="#4D4D4D" transform="translate(262,381)"/>
<path d="M0 0 C10.75263008 3.64495935 16.75524338 18.11470856 21.54296875 27.77905273 C27.67733134 40.43787249 30.35472594 52.58712354 30.09912109 66.55908203 C30.06213931 68.64534747 30.05810703 70.72984352 30.05859375 72.81640625 C29.94723064 94.64147406 21.47761586 113.48837382 7.6875 130.25 C7.00945312 131.11238281 6.33140625 131.97476563 5.6328125 132.86328125 C0.85600803 138.87253528 -4.27759823 144.32931854 -9.75 149.6953125 C-12.50374934 152.44066626 -15.06428452 155.28579772 -17.58203125 158.24609375 C-18.82095611 159.68078552 -20.09340739 161.08679153 -21.38671875 162.47265625 C-29.86415369 171.57147386 -37.06848525 181.30025031 -42.75 192.375 C-43.06783447 192.9829541 -43.38566895 193.5909082 -43.71313477 194.21728516 C-48.77931763 204.55671187 -49.86945679 215.17853867 -49.8125 226.5625 C-49.80822998 227.86687012 -49.80395996 229.17124023 -49.79956055 230.51513672 C-49.51709745 246.85407991 -46.43932408 262.49622382 -39.3125 277.25 C-37.47338283 281.47932868 -36.79456093 284.58854841 -37.3125 289.25 C-39.37444071 291.61741341 -40.59002895 292.17664481 -43.70019531 292.49243164 C-46.82495521 292.20244224 -48.00025123 291.39061719 -50.421875 289.43359375 C-51.17726562 288.83353516 -51.93265625 288.23347656 -52.7109375 287.61523438 C-53.48695313 286.97908203 -54.26296875 286.34292969 -55.0625 285.6875 C-56.20332031 284.77387695 -56.20332031 284.77387695 -57.3671875 283.84179688 C-58.90911118 282.60695122 -60.44734731 281.36748747 -61.98193359 280.12353516 C-64.32863506 278.23702907 -66.7022184 276.39021372 -69.0859375 274.55078125 C-74.06479174 270.69043593 -78.71266461 266.55329428 -83.3125 262.25 C-84.22386719 261.404375 -85.13523438 260.55875 -86.07421875 259.6875 C-96.77435085 249.42014869 -104.33083854 238.2410492 -109.3125 224.25 C-109.93318359 222.55617187 -109.93318359 222.55617187 -110.56640625 220.828125 C-117.37223241 198.72697524 -115.29175283 172.57078967 -104.64941406 152.06201172 C-97.88140786 139.7172909 -89.12572797 129.2756038 -79.3125 119.25 C-78.51779297 118.4348291 -77.72308594 117.6196582 -76.90429688 116.77978516 C-74.19559333 114.01043151 -71.475212 111.25310616 -68.75 108.5 C-67.88785889 107.624646 -67.02571777 106.74929199 -66.13745117 105.84741211 C-60.91179447 100.61581885 -55.49556551 95.82036907 -49.7253418 91.19726562 C-47.03136879 89.02311519 -44.51569644 86.75117042 -42 84.375 C-37.86223262 80.55734643 -33.57999294 77.05615629 -29.125 73.625 C-16.07327711 63.48962824 -5.50213898 52.05541038 -2.3125 35.25 C-1.41617936 27.30449097 -2.34429038 21.06755378 -5.33984375 13.69140625 C-6.66333685 10.36938542 -7.3125 7.83708959 -7.3125 4.25 C-5.2220997 0.76599951 -4.04516654 0.30529559 0 0 Z " fill="#4F4F4F" transform="translate(273.3125,29.75)"/>
<path d="M0 0 C1.79224146 -0.01265991 1.79224146 -0.01265991 3.62068981 -0.02557558 C4.93992712 -0.01956553 6.25916444 -0.01355549 7.61837864 -0.00736332 C9.02880308 -0.01153373 10.43922418 -0.01700963 11.849639 -0.02368313 C15.73454315 -0.03819514 19.61923619 -0.0338752 23.50415218 -0.02651632 C27.69032965 -0.02180109 31.87646036 -0.03427986 36.06262302 -0.04453373 C44.26721241 -0.06175953 52.47172534 -0.06255392 60.67632812 -0.05732083 C67.34289766 -0.0532849 74.00944454 -0.0547158 80.67601299 -0.06006908 C81.62362518 -0.06081751 82.57123736 -0.06156593 83.54756506 -0.06233703 C85.47243154 -0.06386845 87.39729801 -0.0654068 89.32216448 -0.066952 C107.38702068 -0.08069073 125.45183361 -0.07522973 143.51668883 -0.06376678 C160.05521355 -0.05383301 176.59362643 -0.06677513 193.13213389 -0.09070098 C210.10052606 -0.11506439 227.06886606 -0.12470664 244.03727537 -0.11804825 C253.56910298 -0.11454988 263.10084453 -0.11682872 272.63265896 -0.13429928 C280.74698641 -0.14898684 288.86116722 -0.14970202 296.9754917 -0.13222837 C301.11777002 -0.12368742 305.259786 -0.12164374 309.40205097 -0.13687992 C313.19136253 -0.15064563 316.98018499 -0.14606975 320.76946766 -0.12664068 C322.79543397 -0.12105679 324.82142468 -0.13521964 326.84734482 -0.14999479 C328.0447802 -0.1401805 329.24221558 -0.13036621 330.47593689 -0.12025452 C332.02959148 -0.12009351 332.02959148 -0.12009351 333.61463302 -0.11992925 C337.01619873 0.51352474 338.20433987 1.67666223 340.30088902 4.38031673 C340.75499058 7.22113705 340.75499058 7.22113705 340.69151402 10.45844173 C340.67217808 12.19867611 340.67217808 12.19867611 340.65245152 13.97406673 C340.60217808 15.78391048 340.60217808 15.78391048 340.55088902 17.63031673 C340.53284214 18.85234798 340.51479527 20.07437923 340.49620152 21.33344173 C340.44907002 24.34985752 340.38328314 27.36469165 340.30088902 30.38031673 C341.07577671 30.35936947 341.85066441 30.3384222 342.64903355 30.31684017 C371.06115026 29.64951232 371.06115026 29.64951232 382.30088902 34.38031673 C383.11686558 34.69226986 383.93284214 35.00422298 384.77354527 35.32562923 C387.01913444 36.24235346 389.14868588 37.26290231 391.30088902 38.38031673 C392.0988187 38.78766048 392.89674839 39.19500423 393.71885777 39.61469173 C406.93973954 46.91179857 415.41991513 58.14133606 419.94786167 72.42059994 C421.64148471 79.02844442 421.68540935 85.65386536 421.67588902 92.44281673 C421.67427769 93.63568295 421.67266636 94.82854916 421.6710062 96.05756283 C421.541636 105.40899927 420.44459668 113.55835509 417.30088902 122.38031673 C417.00053745 123.22980892 416.70018589 124.07930111 416.39073277 124.95453548 C407.61809252 146.7152405 389.10971493 160.98243796 368.30088902 170.38031673 C346.44149075 179.3412413 322.78769736 183.0904442 299.30088902 182.38031673 C299.09093296 182.91551937 298.88097691 183.45072201 298.66465855 184.00214291 C296.77180861 187.30293976 294.16729566 189.77915262 291.48057652 192.43109798 C290.90308659 193.00812969 290.32559666 193.5851614 289.73060703 194.17967892 C288.50737535 195.39989335 287.28171796 196.61768024 286.0538187 197.83319759 C284.19817875 199.67074433 282.35050365 201.51600212 280.50401402 203.36273861 C272.89049786 210.95398512 265.20521117 218.18849348 256.67588902 224.75531673 C252.39668656 228.21747367 249.65609779 231.53590502 246.79698277 236.18500423 C238.46144192 248.41626782 224.73777983 252.44154279 210.98326206 255.08832455 C208.42689078 255.54966378 205.86510027 255.96487689 203.30088902 256.38031673 C202.33715366 256.55909359 201.37341831 256.73787045 200.38047886 256.92206478 C189.92145346 258.69150804 179.52925126 258.71823242 168.94542027 258.69599056 C165.83437953 258.69285054 162.72431159 258.71629478 159.61338902 258.74164486 C137.93737852 258.80986103 113.40272794 257.74381945 94.30088902 246.38031673 C93.65635777 246.00133236 93.01182652 245.62234798 92.34776402 245.23187923 C87.52290635 242.10621057 84.56643219 238.04273532 81.30088902 233.38031673 C77.49472299 228.2691795 73.04924267 224.65178963 68.07432652 220.67719173 C64.90047336 218.0487049 62.05048955 215.22087174 59.18370152 212.26703548 C57.35358037 210.4331174 55.45971715 208.74783525 53.48838902 207.06781673 C46.19674203 200.78092425 39.39558389 193.86389558 33.17198277 186.52094173 C31.2777855 184.35388516 29.2955503 182.28643129 27.30333042 180.20990658 C9.69552726 161.65872162 2.1275202 137.45784646 -2.26991177 112.78363705 C-2.67814582 110.49771211 -3.10566299 108.21629293 -3.53895473 105.93500423 C-6.05783213 92.4845985 -7.68400111 79.11313449 -8.23817348 65.43500423 C-8.28037014 64.39777721 -8.3225668 63.36055019 -8.36604214 62.29189205 C-8.7768086 51.46241458 -8.9195025 40.63618779 -8.93934536 29.79950619 C-8.9493276 26.4961334 -8.9806424 23.19331758 -9.01161098 19.89008236 C-9.01811934 17.77615367 -9.02337823 15.66222067 -9.02723598 13.54828548 C-9.03958279 12.56724346 -9.05192959 11.58620144 -9.06465054 10.57543087 C-9.06164944 9.67210522 -9.05864834 8.76877956 -9.0555563 7.83808041 C-9.05920193 7.04665142 -9.06284756 6.25522243 -9.06660366 5.43981075 C-8.14957076 0.30059602 -4.62038829 0.00459149 0 0 Z M3.30088902 14.38031673 C3.2149074 74.26466408 3.2149074 74.26466408 14.30088902 132.38031673 C14.5015044 133.07978924 14.70211979 133.77926174 14.90881443 134.49993038 C19.89838275 151.74921206 28.15620837 164.1293911 40.69834995 176.74506283 C42.85713374 178.94791685 44.89230355 181.24952931 46.92588902 183.56781673 C54.52061623 192.05354547 62.6327824 199.99572286 71.30088902 207.38031673 C73.56076436 209.38020642 75.81165297 211.38992807 78.06260777 213.39984798 C79.53349591 214.70131446 81.01505701 215.99083557 82.50792027 217.26703548 C86.72624065 220.87491248 90.26456113 224.45049804 93.44932652 229.03266048 C102.53058118 241.02726563 119.50856643 243.40015618 133.5381937 245.36469173 C163.1589975 248.94074972 208.02122722 251.79621279 233.30088902 233.38031673 C235.68434094 230.91280116 237.46067342 228.26332116 239.30088902 225.38031673 C243.69941164 219.58447338 248.9955246 214.96308095 254.53965855 210.30414486 C266.98683124 199.80235376 279.17441428 188.53554725 289.75792027 176.14203548 C290.26709995 175.5606683 290.77627964 174.97930111 291.30088902 174.38031673 C291.73006626 173.86114681 292.15924351 173.34197689 292.60142612 172.80707455 C294.81120948 170.95188507 296.17275203 170.93512992 299.03526402 170.79047298 C299.99021763 170.73085384 300.94517124 170.6712347 301.92906284 170.60980892 C303.4743668 170.52714779 303.4743668 170.52714779 305.05088902 170.44281673 C324.15082148 169.11177083 342.27114797 165.88299054 360.30088902 159.38031673 C361.40690464 158.99101986 362.51292027 158.60172298 363.65245152 158.20062923 C380.70583214 151.67624879 395.9555824 139.86627667 404.30088902 123.38031673 C410.52911955 108.20019522 412.10126594 88.87077117 406.11338902 73.29047298 C399.95366712 60.01694182 390.39961314 51.23700386 376.73838902 45.94281673 C370.04745586 44.08600275 363.40593956 43.99391087 356.48838902 43.94281673 C355.43385532 43.9325848 354.37932163 43.92235287 353.29283237 43.91181087 C344.11010826 44.01202682 336.65753434 45.62594573 327.30088902 47.38031673 C327.30088902 36.49031673 327.30088902 25.60031673 327.30088902 14.38031673 C220.38088902 14.38031673 113.46088902 14.38031673 3.30088902 14.38031673 Z " fill="#030303" transform="translate(72.69911098480225,338.61968326568604)"/>
<path d="M0 0 C10.75263008 3.64495935 16.75524338 18.11470856 21.54296875 27.77905273 C27.67733134 40.43787249 30.35472594 52.58712354 30.09912109 66.55908203 C30.06213931 68.64534747 30.05810703 70.72984352 30.05859375 72.81640625 C29.94723064 94.64147406 21.47761586 113.48837382 7.6875 130.25 C7.00945312 131.11238281 6.33140625 131.97476563 5.6328125 132.86328125 C0.85600803 138.87253528 -4.27759823 144.32931854 -9.75 149.6953125 C-12.50374934 152.44066626 -15.06428452 155.28579772 -17.58203125 158.24609375 C-18.82095611 159.68078552 -20.09340739 161.08679153 -21.38671875 162.47265625 C-29.86415369 171.57147386 -37.06848525 181.30025031 -42.75 192.375 C-43.06783447 192.9829541 -43.38566895 193.5909082 -43.71313477 194.21728516 C-48.77931763 204.55671187 -49.86945679 215.17853867 -49.8125 226.5625 C-49.80822998 227.86687012 -49.80395996 229.17124023 -49.79956055 230.51513672 C-49.51709745 246.85407991 -46.43932408 262.49622382 -39.3125 277.25 C-37.47338283 281.47932868 -36.79456093 284.58854841 -37.3125 289.25 C-39.37444071 291.61741341 -40.59002895 292.17664481 -43.70019531 292.49243164 C-46.82495521 292.20244224 -48.00025123 291.39061719 -50.421875 289.43359375 C-51.17726562 288.83353516 -51.93265625 288.23347656 -52.7109375 287.61523438 C-53.48695313 286.97908203 -54.26296875 286.34292969 -55.0625 285.6875 C-56.20332031 284.77387695 -56.20332031 284.77387695 -57.3671875 283.84179688 C-58.90911118 282.60695122 -60.44734731 281.36748747 -61.98193359 280.12353516 C-64.32863506 278.23702907 -66.7022184 276.39021372 -69.0859375 274.55078125 C-74.06479174 270.69043593 -78.71266461 266.55329428 -83.3125 262.25 C-84.22386719 261.404375 -85.13523438 260.55875 -86.07421875 259.6875 C-96.77435085 249.42014869 -104.33083854 238.2410492 -109.3125 224.25 C-109.93318359 222.55617187 -109.93318359 222.55617187 -110.56640625 220.828125 C-117.37223241 198.72697524 -115.29175283 172.57078967 -104.64941406 152.06201172 C-97.88140786 139.7172909 -89.12572797 129.2756038 -79.3125 119.25 C-78.51779297 118.4348291 -77.72308594 117.6196582 -76.90429688 116.77978516 C-74.19559333 114.01043151 -71.475212 111.25310616 -68.75 108.5 C-67.88785889 107.624646 -67.02571777 106.74929199 -66.13745117 105.84741211 C-60.91179447 100.61581885 -55.49556551 95.82036907 -49.7253418 91.19726562 C-47.03136879 89.02311519 -44.51569644 86.75117042 -42 84.375 C-37.86223262 80.55734643 -33.57999294 77.05615629 -29.125 73.625 C-16.07327711 63.48962824 -5.50213898 52.05541038 -2.3125 35.25 C-1.41617936 27.30449097 -2.34429038 21.06755378 -5.33984375 13.69140625 C-6.66333685 10.36938542 -7.3125 7.83708959 -7.3125 4.25 C-5.2220997 0.76599951 -4.04516654 0.30529559 0 0 Z M10.6875 40.25 C10.47996094 41.06082031 10.27242188 41.87164062 10.05859375 42.70703125 C4.6390824 62.18552603 -8.69248498 74.45981275 -23.94921875 86.71875 C-30.04646695 91.61931668 -35.91781211 96.77639261 -41.80126953 101.9296875 C-43.02748689 103.00099339 -44.26074563 104.06423596 -45.49609375 105.125 C-50.06139473 109.05214063 -54.46781269 113.14743971 -58.875 117.25 C-59.50083984 117.83193115 -60.12667969 118.4138623 -60.77148438 119.01342773 C-62.62804699 120.74919665 -64.47346299 122.49567777 -66.3125 124.25 C-66.98007324 124.88550781 -67.64764648 125.52101563 -68.33544922 126.17578125 C-68.97627441 126.79839844 -69.61709961 127.42101562 -70.27734375 128.0625 C-71.15120728 128.90748047 -71.15120728 128.90748047 -72.04272461 129.76953125 C-73.52950948 131.17794867 -73.52950948 131.17794867 -73.3125 133.25 C-73.9725 133.25 -74.6325 133.25 -75.3125 133.25 C-77.11412249 135.27303401 -78.78509892 137.29689586 -80.4375 139.4375 C-80.92742432 140.06881836 -81.41734863 140.70013672 -81.92211914 141.35058594 C-88.69343972 150.21397603 -94.94267071 159.52326618 -98.3125 170.25 C-98.67085937 171.37019531 -99.02921875 172.49039063 -99.3984375 173.64453125 C-100.91109875 179.86881988 -100.60123007 186.26035784 -100.5625 192.625 C-100.57023438 193.88828125 -100.57796875 195.1515625 -100.5859375 196.453125 C-100.53914559 218.96003194 -91.70287538 235.3413543 -76.3125 251.25 C-75.34763672 252.27480469 -75.34763672 252.27480469 -74.36328125 253.3203125 C-70.05968453 257.79444802 -65.28264542 261.54211374 -60.3125 265.25 C-59.6525 264.92 -58.9925 264.59 -58.3125 264.25 C-58.58964844 263.1878125 -58.86679688 262.125625 -59.15234375 261.03125 C-59.51848636 259.60423263 -59.88435722 258.17714552 -60.25 256.75 C-60.43240234 256.05390625 -60.61480469 255.3578125 -60.80273438 254.640625 C-65.72328514 235.31628016 -65.78325018 212.86095706 -58.3125 194.25 C-58.02310547 193.52248535 -57.73371094 192.7949707 -57.43554688 192.04541016 C-51.95435172 178.67117761 -44.22804144 168.18089938 -34.43359375 157.5546875 C-32.49328608 155.44643423 -30.6155018 153.29930368 -28.75 151.125 C-25.7432706 147.666914 -22.53812412 144.459157 -19.27734375 141.2421875 C-16.78243382 138.71255715 -14.46259249 136.06119078 -12.15234375 133.36328125 C-10.85934415 131.8781161 -9.53596543 130.41912231 -8.19140625 128.98046875 C4.42813357 115.44234891 13.57043308 100.70028583 16.6875 82.25 C16.8421875 81.36699219 16.996875 80.48398438 17.15625 79.57421875 C18.05684233 72.50252216 17.4942765 65.51516743 16.9375 58.4375 C16.86378174 57.44637207 16.79006348 56.45524414 16.71411133 55.43408203 C16.20336446 49.77621077 15.26384912 45.32484153 12.6875 40.25 C12.0275 40.25 11.3675 40.25 10.6875 40.25 Z " fill="#040404" transform="translate(273.3125,29.75)"/>
<path d="M0 0 C1.32837891 0.309375 1.32837891 0.309375 2.68359375 0.625 C14.82265988 3.5882117 25.17826276 8.85413861 32.10058594 19.72900391 C38.92261071 31.58966301 41.51184927 44.81337123 37.875 58.3125 C35.76441279 64.34130654 32.53655274 70.46344726 28 75 C27.91426194 78.5003493 28.00534657 81.94414324 28.16601562 85.43945312 C28.3012831 90.76152856 27.413521 94.24227584 25 99 C34.29817294 94.65848668 41.06196889 91.37857402 46 82 C48.5650977 78.60745143 49.29251358 78.09929634 53.5625 77.5 C57 78 57 78 58.66796875 79.734375 C60.12702644 82.2160567 60.4423074 83.90836838 60.75 86.75 C61.46046896 91.03167575 62.65026252 93.10214787 65.6875 96.1875 C68.98607643 99.5683694 68.98607643 99.5683694 69.125 103.875 C68 107 68 107 65 109 C63.0546875 109.4140625 63.0546875 109.4140625 60.875 109.625 C59.81925781 109.73714844 59.81925781 109.73714844 58.7421875 109.8515625 C56 110 56 110 53.97851562 109.89501953 C47.98482369 109.63560263 44.02496762 110.86635969 38.75 113.625 C37.27361745 114.35713382 35.79705277 115.08890049 34.3203125 115.8203125 C33.59618164 116.18672852 32.87205078 116.55314453 32.12597656 116.93066406 C28.98433533 118.51086487 25.81072786 120.01047623 22.625 121.5 C21.60664063 121.9846875 20.58828125 122.469375 19.5390625 122.96875 C17 124 17 124 14 124 C14 125.65 14 127.3 14 129 C15.175625 129.350625 16.35125 129.70125 17.5625 130.0625 C21.34797119 131.28476813 24.76176362 132.8833835 28.28930664 134.71557617 C35.44578662 138.37987801 40.75934543 139.68099038 48.9765625 138.953125 C52.81430367 139.01262486 55.28514948 140.28514948 58 143 C58.41194057 145.95224072 58.5560236 148.09957373 56.953125 150.6953125 C55.15470674 152.8851512 53.55678931 154.72160534 51 156 C50.39220893 158.76432384 50.04116492 161.53200962 49.66015625 164.3359375 C48.94489821 167.22236344 48.38472389 168.27391414 46 170 C42.6875 170.625 42.6875 170.625 39 170 C35.65174232 167.23887755 33.43783808 163.77408959 31.31640625 160.0234375 C28.38171715 156.19300013 25.43810091 154.72848666 21.125 152.75 C20.43019531 152.41226563 19.73539063 152.07453125 19.01953125 151.7265625 C13.17474553 148.89814559 13.17474553 148.89814559 7 147 C5.03469403 147.93456819 5.03469403 147.93456819 3.5625 149.6875 C-4.3580463 157.34577655 -14.22132409 157.37830491 -24.69140625 157.20703125 C-32.5248291 156.92806076 -38.54184234 155.69782724 -44.3125 150.1875 C-44.88613281 149.54167969 -45.45976562 148.89585937 -46.05078125 148.23046875 C-48.01256062 146.67727386 -48.01256062 146.67727386 -50.703125 147.5546875 C-52.33507812 148.27011719 -52.33507812 148.27011719 -54 149 C-54.64735107 149.27851807 -55.29470215 149.55703613 -55.96166992 149.84399414 C-65.12714627 153.92358619 -72.14864024 157.54774107 -76.87109375 166.8125 C-78 169 -78 169 -80 170 C-83.4375 170.3125 -83.4375 170.3125 -87 170 C-89.71919565 167.21108139 -90.34281821 164.98985934 -90.75 161.1875 C-91.61659702 156.01072305 -93.66386173 153.9823388 -97.5 150.59375 C-99 149 -99 149 -99.625 145.75 C-98.94782915 142.77044824 -98.47242395 141.73985389 -96 140 C-92.45415938 138.81805313 -89.97753568 139.14694402 -86.25 139.375 C-77.26177161 139.65398685 -70.72623788 136.22006209 -63 132 C-57.26410835 129 -57.26410835 129 -55 129 C-55.09470236 127.0786152 -55.09470236 127.0786152 -56 125 C-58.34614871 123.37988916 -58.34614871 123.37988916 -61.3203125 122.08984375 C-62.4134375 121.57486328 -63.5065625 121.05988281 -64.6328125 120.52929688 C-65.78523438 120.00400391 -66.93765625 119.47871094 -68.125 118.9375 C-69.81882812 118.14375977 -69.81882812 118.14375977 -71.546875 117.33398438 C-73.73279773 116.31397242 -75.92383603 115.30483635 -78.12036133 114.30786133 C-79.80051826 113.54477522 -81.47534816 112.76930914 -83.13549805 111.96362305 C-87.10560384 110.08849882 -90.19691559 109.72211016 -94.5625 109.9375 C-99.89904128 110.18735007 -104.3840123 109.83119139 -108.875 106.6875 C-110 105 -110 105 -110.5625 102.75 C-109.71384591 98.60102446 -107.11597972 95.80115275 -104 93 C-103.34 93 -102.68 93 -102 93 C-102.061875 91.783125 -102.12375 90.56625 -102.1875 89.3125 C-102.19442348 85.40073507 -101.41890746 83.16318668 -99 80 C-97 78 -97 78 -94.75 77.5625 C-90.88380641 78.17757625 -88.55432738 80.17409184 -86 83 C-83 88.1 -83 88.1 -83 91 C-81.97326172 91.39832031 -81.97326172 91.39832031 -80.92578125 91.8046875 C-77.63164129 93.15049101 -74.41452129 94.62557597 -71.1875 96.125 C-70.02605469 96.66382813 -68.86460937 97.20265625 -67.66796875 97.7578125 C-66.78753906 98.16773438 -65.90710938 98.57765625 -65 99 C-65.28875 98.45472656 -65.5775 97.90945313 -65.875 97.34765625 C-68.63321847 91.74502498 -69.72663217 87.22997743 -69 81 C-68.76410156 80.34128906 -68.52820313 79.68257813 -68.28515625 79.00390625 C-67.7656187 76.8941641 -67.7656187 76.8941641 -69.2578125 74.984375 C-69.87398437 74.24703125 -70.49015625 73.5096875 -71.125 72.75 C-78.94016158 62.08441877 -81.56836902 49.03065478 -80 36 C-77.04286714 23.0315682 -68.88258354 13.11878482 -58.078125 5.7109375 C-41.61738678 -3.43855913 -17.93121819 -5.05995575 0 0 Z M-68.625 20.85546875 C-73.97965342 27.81970549 -75.56303427 35.08829805 -75.5 43.6875 C-75.49645508 44.56019531 -75.49291016 45.43289063 -75.48925781 46.33203125 C-75.27533182 54.74025273 -73.73484909 62.96958731 -67.828125 69.34375 C-67.22484375 69.8903125 -66.6215625 70.436875 -66 71 C-65.945652 68.9377952 -65.90705039 66.87517184 -65.875 64.8125 C-65.85179687 63.66394531 -65.82859375 62.51539063 -65.8046875 61.33203125 C-65.9985874 58.02409898 -66.71242478 56.00758136 -68 53 C-68.44921875 50.28125 -68.44921875 50.28125 -68.6875 47.5 C-68.77386719 46.5821875 -68.86023438 45.664375 -68.94921875 44.71875 C-69.00032461 41.98262093 -68.63923238 39.65305467 -68 37 C-67.01 37 -66.02 37 -65 37 C-65.03480469 38.32064453 -65.03480469 38.32064453 -65.0703125 39.66796875 C-65.08835937 40.82941406 -65.10640625 41.99085938 -65.125 43.1875 C-65.15980469 44.91033203 -65.15980469 44.91033203 -65.1953125 46.66796875 C-65.00102438 49.98252416 -64.27654074 51.98141307 -63 55 C-61.79148387 62.34855773 -61.96530559 68.92062908 -63.50390625 76.16796875 C-64.63822884 82.64343238 -64.97377561 89.18117586 -62.8125 95.4375 C-59.02150942 98.89151364 -54.82174982 100.54269957 -50.14453125 102.57421875 C-45.76405687 104.56039657 -42.0114212 106.33443181 -40.20703125 111.08984375 C-39.625 113.3125 -39.625 113.3125 -39 117 C-32.01466204 118.56901859 -32.01466204 118.56901859 -25 120 C-25.33 121.65 -25.66 123.3 -26 125 C-26.33 123.35 -26.66 121.7 -27 120 C-27.99 120 -28.98 120 -30 120 C-30 122.97 -30 125.94 -30 129 C-31 128 -31 128 -31.09765625 126.15234375 C-31.06510417 124.1015625 -31.03255208 122.05078125 -31 120 C-32.051875 119.814375 -32.051875 119.814375 -33.125 119.625 C-34.548125 119.315625 -34.548125 119.315625 -36 119 C-37.03125 118.79375 -38.0625 118.5875 -39.125 118.375 C-43.12421446 116.46233221 -43.44280924 114.03453971 -45 110 C-47.00661407 108.28341008 -47.00661407 108.28341008 -49 107 C-48.81824219 107.57105469 -48.63648438 108.14210938 -48.44921875 108.73046875 C-46.27440363 115.74564162 -44.58448337 122.83049367 -43 130 C-42.34 130 -41.68 130 -41 130 C-40.319375 130.928125 -40.319375 130.928125 -39.625 131.875 C-37.89720611 134.13442278 -36.59186772 134.92750301 -34 136 C-39.03561523 134.71181936 -41.65271812 132.97079517 -45 129 C-46.00390625 125.80078125 -46.00390625 125.80078125 -46.5625 122.3125 C-47.69409803 116.14073831 -49.41104404 110.70358825 -52 105 C-53.03979806 107.70347497 -53.0522452 108.84951596 -52.0859375 111.6328125 C-50.41029421 116.82851219 -50.64191409 122.05457543 -50.609375 127.48046875 C-50.41530492 134.58558991 -48.70390049 139.66440223 -44.2109375 145.20703125 C-35.83824458 152.52868399 -27.56593727 153.5459501 -16.625 153.28125 C-8.7128784 152.6673785 -3.08727081 150.7518374 2.8203125 145.40234375 C4.21458061 144.05034368 4.21458061 144.05034368 4 142 C4.66 142 5.32 142 6 142 C8.91921769 136.25497958 9.46123578 131.51911212 9.5625 125.125 C9.69937478 118.46376058 10.37131631 112.47548938 12 106 C8.21433233 108.52377845 7.97215483 110.87948859 7 115.0625 C6.65789794 116.42229066 6.31415076 117.7816685 5.96875 119.140625 C5.6490625 120.41421875 5.329375 121.6878125 5 123 C2.70424469 131.58612485 2.70424469 131.58612485 -0.09375 133.23046875 C-0.7228125 133.48441406 -1.351875 133.73835937 -2 134 C-1.67 133.34 -1.34 132.68 -1 132 C-0.96305102 130.54727422 -0.9864917 129.09272271 -1.04296875 127.640625 C-1.07487305 126.33738281 -1.07487305 126.33738281 -1.10742188 125.0078125 C-1.16036502 123.18450212 -1.22526784 121.36149567 -1.30273438 119.5390625 C-1.41607796 113.84669588 -1.03616714 110.37696933 3 106 C5.83984375 104.20703125 5.83984375 104.20703125 8.9375 102.8125 C17.21142513 99.40713448 17.21142513 99.40713448 23 93 C23.24257572 90.30567679 23.32926038 87.86996862 23.25 85.1875 C23.24226563 84.15786133 23.24226563 84.15786133 23.234375 83.10742188 C23.16710915 78.66367163 22.65715392 74.39985087 22 70 C21.49095121 62.67752895 22.17898061 56.48546448 24.33203125 49.48046875 C25.22544003 46.16283964 25.21351721 43.41627528 25 40 C25 39.01 25 38.02 25 37 C25.66 37 26.32 37 27 37 C28.14487739 40.43463216 27.96556888 42.71420564 27.6875 46.3125 C27.60886719 47.42238281 27.53023438 48.53226562 27.44921875 49.67578125 C27 53 27 53 25.96484375 56.08203125 C24.98210493 59.0541199 24.79095847 61.26546332 24.875 64.375 C24.89304687 65.24898437 24.91109375 66.12296875 24.9296875 67.0234375 C24.95289063 67.67570312 24.97609375 68.32796875 25 69 C25.66 69.33 26.32 69.66 27 70 C33.79140112 58.18979617 37.52357836 47.50006617 33.875 33.8125 C30.32922859 23.63696066 23.83744697 13.91702136 14.1875 8.6875 C9.30496629 6.51854667 4.18273298 5.23712129 -1 4 C-1.76828125 3.79246094 -2.5365625 3.58492188 -3.328125 3.37109375 C-26.08013456 -2.16213306 -53.00716453 3.02260373 -68.625 20.85546875 Z M-38 126 C-36 127 -36 127 -36 127 Z " fill="#060505" transform="translate(262,381)"/>
<path d="M0 0 C1.10730469 -0.00708984 2.21460938 -0.01417969 3.35546875 -0.02148438 C14.67293357 0.06495925 26.18050121 2.23705466 34.875 10 C43.89645644 19.74317296 45.5508882 32.65828837 45.125 45.4375 C43.59876746 59.00564832 37.45851353 71.46124314 26.875 80.25 C9.62330911 93.69056624 -11.19303663 98.09867376 -32.5625 99.5625 C-33.75294922 99.64886719 -34.94339844 99.73523438 -36.16992188 99.82421875 C-39.07127875 100.03395539 -41.97290511 100.23828324 -44.875 100.4375 C-43.4360358 96.04598028 -41.9792718 91.66632377 -40.375 87.33203125 C-37.50204852 79.54653048 -35.11062031 71.93885453 -33.5234375 63.76953125 C-32.87634173 60.44439457 -32.10894243 57.1672249 -31.3125 53.875 C-29.37544611 45.4407445 -28.03525766 37.12245251 -27.44921875 28.4921875 C-27.33622437 26.89274292 -27.33622437 26.89274292 -27.22094727 25.26098633 C-27.07597042 23.12125618 -26.94700655 20.98036831 -26.83569336 18.83862305 C-26.44684917 13.04620157 -26.12796592 8.75046073 -21.875 4.4375 C-15.07650789 -0.17052967 -7.96411674 -0.14270961 0 0 Z " fill="#040404" transform="translate(423.875,395.5625)"/>
<path d="M0 0 C4.18391722 0.7531051 5.34070659 2.38227496 8.125 5.5625 C9.59367477 7.97691231 10.89158964 10.28694544 12.125 12.8125 C12.4660376 13.5027124 12.8070752 14.1929248 13.15844727 14.90405273 C21.06469634 31.51446352 25.23073954 50.14462506 19.5625 68.0546875 C13.34789974 83.21966313 0.07886784 94.58012019 -12.4375 104.5859375 C-25.74674696 115.37837174 -30.01264902 128.87228784 -31.875 145.5625 C-32.06797454 150.06823103 -32.17024278 154.57835069 -32.21679688 159.08789062 C-32.42662642 165.9244299 -32.42662642 165.9244299 -34.703125 169.1640625 C-38.0305039 171.3065115 -40.01388676 171.30762712 -43.875 170.5625 C-48.123129 165.44156119 -50.83011692 159.87421265 -53.5 153.8125 C-53.89316406 152.92796143 -54.28632813 152.04342285 -54.69140625 151.13208008 C-60.85509454 137.00306987 -65.39108799 119.83344387 -60.25 104.6875 C-54.12949516 90.41330892 -42.19657548 79.43986581 -29.9609375 70.2109375 C-27.78067638 68.5617105 -27.78067638 68.5617105 -25.7265625 66.3515625 C-23.875 64.5625 -23.875 64.5625 -21.875 64.5625 C-21.60300781 63.9746875 -21.33101563 63.386875 -21.05078125 62.78125 C-19.89994379 60.60957001 -18.6290818 58.94735831 -17.0625 57.0625 C-7.23183241 44.10717034 -6.58710999 28.88589466 -6.39648438 13.26367188 C-6.37005859 12.19826172 -6.34363281 11.13285156 -6.31640625 10.03515625 C-6.30295166 9.07875244 -6.28949707 8.12234863 -6.27563477 7.13696289 C-5.61862162 2.91502283 -4.23433148 0.82845616 0 0 Z " fill="#050505" transform="translate(297.875,142.4375)"/>
<path d="M0 0 C5.68774608 3.03944024 9.05244666 6.81316029 11 13 C11.3101668 15.89978429 11.33364761 18.77305792 11.3125 21.6875 C11.30404053 22.89297485 11.30404053 22.89297485 11.29541016 24.12280273 C11.08505699 34.4290665 8.38395812 41.86805335 2 50 C1.28070313 50.92619141 1.28070313 50.92619141 0.546875 51.87109375 C-4.72504303 57.84859677 -11.85656781 60.82951192 -19 64 C-20.41539062 64.64001953 -20.41539062 64.64001953 -21.859375 65.29296875 C-29.11120448 68.26450243 -36.2138033 68.77266579 -44 69 C-42.9896318 63.68246684 -41.88094787 58.40334073 -40.59765625 53.14453125 C-36.16112426 34.92505847 -33.16785248 16.7259104 -32 -2 C-22.31235621 -5.2292146 -9.3989139 -3.22134849 0 0 Z " fill="#FBFBFB" transform="translate(444,411)"/>
<path d="M0 0 C2 1 2 1 3.21875 4.28125 C3.65375746 5.68506899 4.08037179 7.0915074 4.5 8.5 C4.72647217 9.22743408 4.95294434 9.95486816 5.1862793 10.7043457 C6.35496332 14.5293236 7.25339504 18.21987562 7.8125 22.1875 C9.28852257 26.9263093 11.06982139 27.97640027 15.3203125 30.22265625 C16.15175781 30.60744141 16.15175781 30.60744141 17 31 C17.33 30.67 17.66 30.34 18 30 C17.195625 29.54625 16.39125 29.0925 15.5625 28.625 C13 27 13 27 12 25 C11.34 25 10.68 25 10 25 C9.73445312 23.84242188 9.46890625 22.68484375 9.1953125 21.4921875 C8.83869236 19.95309007 8.48191309 18.41402952 8.125 16.875 C7.95097656 16.11445313 7.77695313 15.35390625 7.59765625 14.5703125 C6.60201572 10.29274576 5.47028611 6.14594191 4 2 C7.44877517 4.33025349 8.87668426 5.68902987 10.4375 9.625 C11.67222697 13.2221652 11.67222697 13.2221652 14.9375 14.4375 C18.13674316 15.12043435 18.13674316 15.12043435 22 15 C22 17.97 22 20.94 22 24 C23.20561184 23.01732141 23.20561184 23.01732141 23.09765625 21.15234375 C23.08605469 20.42144531 23.07445312 19.69054687 23.0625 18.9375 C23.041875 17.638125 23.02125 16.33875 23 15 C23.99 15 24.98 15 26 15 C26.33 16.65 26.66 18.3 27 20 C27.33 18.35 27.66 16.7 28 15 C31.43583206 14.46773826 34.87384295 13.95116762 38.3125 13.4375 C39.28896484 13.28603516 40.26542969 13.13457031 41.27148438 12.97851562 C42.20927734 12.83994141 43.14707031 12.70136719 44.11328125 12.55859375 C44.97735596 12.42767334 45.84143066 12.29675293 46.73168945 12.16186523 C49 12 49 12 52 13 C52 18.33333333 52 23.66666667 52 29 C54.57991433 27.40922409 55.82729817 26.43662159 56.95727539 23.57983398 C57.16860107 22.64469971 57.37992676 21.70956543 57.59765625 20.74609375 C57.84193359 19.72708984 58.08621094 18.70808594 58.33789062 17.65820312 C58.57701172 16.59537109 58.81613281 15.53253906 59.0625 14.4375 C59.54267654 12.32956318 60.03308728 10.22392372 60.53515625 8.12109375 C60.85045288 6.72008423 60.85045288 6.72008423 61.17211914 5.29077148 C62 3 62 3 65 1 C64.67902344 2.27617187 64.35804688 3.55234375 64.02734375 4.8671875 C62.70622353 10.80467592 62.61745728 16.65484028 62.52148438 22.71484375 C62.3487311 28.20081351 61.49282936 32.09411183 59 37 C58.34 37 57.68 37 57 37 C56.773125 37.5775 56.54625 38.155 56.3125 38.75 C53.26395388 43.97607906 48.62453433 45.93520112 43.0078125 47.4609375 C32.94243642 49.26486204 21.53926934 49.2988588 12.75390625 43.5234375 C7.50382004 39.30410216 3.68243244 34.38195782 2.62255859 27.57641602 C2.45769404 25.00408072 2.39045706 22.45246445 2.375 19.875 C2.28959866 14.12748956 2.02175588 9.45065385 0 4 C0 2.68 0 1.36 0 0 Z " fill="#4C4C4C" transform="translate(209,486)"/>
<path d="M0 0 C0.66 0 1.32 0 2 0 C3.77492607 13.5338113 4.11116447 25.46333282 -4 37 C-9.82105696 44.06518302 -16.17323915 50.31520604 -23.1875 56.1875 C-39.12818374 69.55353429 -45.29296353 83.08881917 -50 103 C-54.73128679 98.26871321 -54.42215079 89.97253976 -54.4375 83.625 C-54.41440006 73.6333128 -52.32346066 67.2862835 -45.375 59.9375 C-41.4033373 56.2187147 -37.1682291 52.83034481 -32.93359375 49.41796875 C-15.80433317 35.29944372 -5.08155215 21.88056571 0 0 Z " fill="#525252" transform="translate(304,178)"/>
<path d="M0 0 C3.44877517 2.33025349 4.87668426 3.68902987 6.4375 7.625 C7.67222697 11.2221652 7.67222697 11.2221652 10.9375 12.4375 C14.13674316 13.12043435 14.13674316 13.12043435 18 13 C18 15.97 18 18.94 18 22 C19.20561184 21.01732141 19.20561184 21.01732141 19.09765625 19.15234375 C19.08605469 18.42144531 19.07445312 17.69054687 19.0625 16.9375 C19.041875 15.638125 19.02125 14.33875 19 13 C19.99 13 20.98 13 22 13 C22.33 14.65 22.66 16.3 23 18 C23.33 16.35 23.66 14.7 24 13 C27.43583206 12.46773826 30.87384295 11.95116762 34.3125 11.4375 C35.28896484 11.28603516 36.26542969 11.13457031 37.27148438 10.97851562 C38.20927734 10.83994141 39.14707031 10.70136719 40.11328125 10.55859375 C40.97735596 10.42767334 41.84143066 10.29675293 42.73168945 10.16186523 C45 10 45 10 48 11 C48.054138 13.24973447 48.09285491 15.49984383 48.125 17.75 C48.14820313 19.00296875 48.17140625 20.2559375 48.1953125 21.546875 C47.89856983 26.79328532 47.89856983 26.79328532 46 29 C40.16816765 31.84213612 35.23256773 32.44703621 28.8125 32.3125 C28.03197266 32.31572266 27.25144531 32.31894531 26.44726562 32.32226562 C22.24918795 32.28309781 18.74492976 32.10872693 15 30 C14.34 29.01 13.68 28.02 13 27 C11.67479497 26.31731862 10.34187818 25.6492959 9 25 C8.67 24.34 8.34 23.68 8 23 C7.34 23 6.68 23 6 23 C5.73445312 21.84242188 5.46890625 20.68484375 5.1953125 19.4921875 C4.83869236 17.95309007 4.48191309 16.41402952 4.125 14.875 C3.95097656 14.11445313 3.77695313 13.35390625 3.59765625 12.5703125 C2.60201572 8.29274576 1.47028611 4.14594191 0 0 Z " fill="#0E0D0D" transform="translate(213,488)"/>
<path d="M0 0 C1.34442204 2.95772849 2.01194338 5.16422145 2.25 8.4375 C3.13704371 12.65095763 4.48886922 13.90267675 7.72265625 16.54296875 C9 18 9 18 9 22 C6.12429623 23.43785189 3.70149748 22.94125588 0.5 22.8125 C-6.39647111 22.79153808 -10.89714715 23.96956 -17 27 C-18.39301469 27.65039352 -19.78769846 28.29721839 -21.18359375 28.94140625 C-26.6263576 31.46342061 -32.05709724 33.99944985 -37.390625 36.74609375 C-40 38 -40 38 -42 38 C-41.74379316 36.3934324 -41.46944129 34.7897517 -41.1875 33.1875 C-41.03667969 32.29417969 -40.88585937 31.40085937 -40.73046875 30.48046875 C-39.72204985 27.05615857 -38.10952292 25.61528213 -35.01049805 23.89672852 C-34.26840088 23.56084717 -33.52630371 23.22496582 -32.76171875 22.87890625 C-31.94123047 22.50056641 -31.12074219 22.12222656 -30.27539062 21.73242188 C-29.42138672 21.34634766 -28.56738281 20.96027344 -27.6875 20.5625 C-15.72889617 15.50033722 -15.72889617 15.50033722 -7.5 6 C-4.5 0 -4.5 0 0 0 Z " fill="#4D4B4B" transform="translate(317,463)"/>
<path d="M0 0 C2.375 0.125 2.375 0.125 5 1 C6.78421373 3.49789922 8.05766425 6.11407833 9.44140625 8.8515625 C12.50821957 13.39201212 17.51527287 15.05388007 22.375 17.1875 C24.23707343 18.03494916 26.09905501 18.88260017 27.9609375 19.73046875 C30.81651895 21.02130113 33.67662044 22.29658033 36.546875 23.5546875 C39.26843218 25.15815272 39.95203551 25.96920061 40.875 28.9375 C41.09929687 29.60652344 41.32359375 30.27554687 41.5546875 30.96484375 C42 33 42 33 42 37 C38.81636146 36.31155883 36.03798094 35.20771996 33.078125 33.85546875 C32.13453125 33.42556641 31.1909375 32.99566406 30.21875 32.55273438 C29.2390625 32.10220703 28.259375 31.65167969 27.25 31.1875 C26.28578125 30.74857422 25.3215625 30.30964844 24.328125 29.85742188 C20.07194928 27.91149371 15.88817629 25.94606269 11.7890625 23.6875 C7.73100848 21.63303228 4.65902484 21.61636009 0.125 21.8125 C-6.86111111 22.06944444 -6.86111111 22.06944444 -9 21 C-8.8125 18.75 -8.8125 18.75 -8 16 C-7.195625 15.46375 -6.39125 14.9275 -5.5625 14.375 C-2.01616482 11.08815276 -1.97796992 8.03367289 -1.359375 3.36328125 C-1 1 -1 1 0 0 Z " fill="#4C4C4C" transform="translate(166,464)"/>
<path d="M0 0 C1.84004194 3.97061682 2.13374542 7.27774081 1.1875 11.5625 C-1.62374883 16.80862828 -5.3085459 21.65439975 -9.8125 25.5625 C-14.74409759 26.27837707 -16.73745233 26.18271981 -21.0625 23.6875 C-24.77952718 20.11304372 -26.54138544 15.48116067 -27.8125 10.5625 C-27.8125 6.90229073 -27.42332857 5.37592259 -25.24609375 2.4765625 C-21.98811893 -0.08588961 -18.87385949 -0.33755423 -14.875 -0.6875 C-14.17181641 -0.76484375 -13.46863281 -0.8421875 -12.74414062 -0.921875 C-2.5160512 -1.99548888 -2.5160512 -1.99548888 0 0 Z " fill="#000000" transform="translate(231.8125,444.4375)"/>
<path d="M0 0 C0.85078125 0.05800781 1.7015625 0.11601562 2.578125 0.17578125 C6.96059514 0.59218418 9.13202377 0.99080551 12.6875 3.76171875 C14.625 6.375 14.625 6.375 15.25 9.5625 C14.24438592 15.69674586 11.94148962 21.30235139 7.25 25.5 C3.78279588 26.65573471 1.25911484 26.82926435 -2.375 26.375 C-8.2173173 22.37278264 -13.37061934 16.03167397 -14.890625 8.984375 C-14.9722652 5.31056583 -14.42615088 3.45172632 -12.375 0.375 C-8.12790674 -1.04069775 -4.40916934 -0.41708359 0 0 Z " fill="#000000" transform="translate(264.375,443.625)"/>
<path d="M0 0 C5.56413288 2.09270484 10.86501583 4.4102819 16.125 7.1875 C20.92523044 9.63710213 24.61404622 10.90026012 30 11 C30.66 10.67 31.32 10.34 32 10 C36.05142119 9.74139865 37.54337669 9.69558446 41 12 C41 12.99 41 13.98 41 15 C40.34 15 39.68 15 39 15 C39 15.66 39 16.32 39 17 C38.21625 17.474375 37.4325 17.94875 36.625 18.4375 C32.68486441 22.28382284 32.61415467 26.6834372 32 32 C30.02 32.495 30.02 32.495 28 33 C25.78809078 30.29655539 23.82029572 27.69764041 22.03125 24.6875 C18.534729 19.77065869 13.49673517 17.64045636 8.1875 15.0625 C7.20845703 14.56943359 6.22941406 14.07636719 5.22070312 13.56835938 C2.82126325 12.36278714 0.41493596 11.17413542 -2 10 C-1.54177532 6.53058454 -1.10868317 3.32604951 0 0 Z " fill="#4C4B4B" transform="translate(275,514)"/>
<path d="M0 0 C1.99097846 2.98646769 2.94124926 5.59687262 4 9 C-1.27894578 12.29350157 -6.49069115 15.23564553 -12.1875 17.75 C-18.58198747 20.84437231 -21.42321968 25.04583874 -25 31 C-25.66 31.66 -26.32 32.32 -27 33 C-27.99 33 -28.98 33 -30 33 C-31.14369014 30.71261971 -31.06387536 29.34917253 -31.125 26.8125 C-31.50060694 22.71377168 -32.56015313 20.97841399 -35.5625 18.1875 C-36.20316406 17.66542969 -36.84382812 17.14335938 -37.50390625 16.60546875 C-39 15 -39 15 -39 11 C-34.98222624 10.24666742 -32.30021188 9.94949996 -28.21484375 10.63671875 C-23.85417121 11.2286036 -20.5232641 10.15189851 -16.5625 8.375 C-15.91724365 8.10155762 -15.2719873 7.82811523 -14.60717773 7.54638672 C-9.55474103 5.36254034 -4.69594338 2.87610624 0 0 Z " fill="#4C4C4C" transform="translate(207,514)"/>
<path d="M0 0 C3.44877517 2.33025349 4.87668426 3.68902987 6.4375 7.625 C7.67222697 11.2221652 7.67222697 11.2221652 10.9375 12.4375 C14.13674316 13.12043435 14.13674316 13.12043435 18 13 C18.09038099 18.15171623 17.84681133 22.91913204 17 28 C11.42825929 27.50473416 11.42825929 27.50473416 9.25 24.9375 C8.8375 24.298125 8.425 23.65875 8 23 C7.34 23 6.68 23 6 23 C5.73445312 21.84242188 5.46890625 20.68484375 5.1953125 19.4921875 C4.83869236 17.95309007 4.48191309 16.41402952 4.125 14.875 C3.95097656 14.11445313 3.77695313 13.35390625 3.59765625 12.5703125 C2.60201572 8.29274576 1.47028611 4.14594191 0 0 Z " fill="#454040" transform="translate(213,488)"/>
<path d="M0 0 C4.14985236 1.81827913 5.68951593 4.09607865 8 8 C8.97551509 10.92654527 9.16478088 12.94654996 9.1875 16 C9.20167969 16.86625 9.21585938 17.7325 9.23046875 18.625 C9 21 9 21 7 24 C3.71832742 23.43419438 2.07363893 22.62475273 0 20 C-0.34057617 17.82348633 -0.34057617 17.82348633 -0.29296875 15.33203125 C-0.28330078 14.43935547 -0.27363281 13.54667969 -0.26367188 12.62695312 C-0.23853516 11.69818359 -0.21339844 10.76941406 -0.1875 9.8125 C-0.17396484 8.87212891 -0.16042969 7.93175781 -0.14648438 6.96289062 C-0.11113096 4.64134962 -0.06178674 2.32096347 0 0 Z " fill="#010101" transform="translate(243,466)"/>
<path d="M0 0 C0.11638036 3.24969769 0.18730581 6.4988583 0.25 9.75 C0.28351563 10.67039062 0.31703125 11.59078125 0.3515625 12.5390625 C0.45044379 19.3618713 0.45044379 19.3618713 -1.875 22.65625 C-4 24 -4 24 -6.25 23.75 C-6.8275 23.5025 -7.405 23.255 -8 23 C-9.20655962 16.36392207 -9.50722185 10.04310278 -5.8203125 4.09765625 C-2.56147059 0 -2.56147059 0 0 0 Z " fill="#010101" transform="translate(240,466)"/>
<path d="M0 0 C3.32919716 2.62046051 3.81927691 5.39038602 4.6875 9.4375 C4.93886719 10.57058594 5.19023437 11.70367187 5.44921875 12.87109375 C6 16 6 16 6 20 C6.66 20 7.32 20 8 20 C8.33 18.68 8.66 17.36 9 16 C9.28875 17.134375 9.5775 18.26875 9.875 19.4375 C10.24625 20.613125 10.6175 21.78875 11 23 C11.66 23.33 12.32 23.66 13 24 C13 22.02 13 20.04 13 18 C13.33 18 13.66 18 14 18 C14 20.31 14 22.62 14 25 C14.66 25.33 15.32 25.66 16 26 C13 27 13 27 10.87890625 26.34765625 C6.62523419 23.98769317 4.06140134 21.85531021 2.55859375 17.17578125 C1.48773108 13.15577847 0.73013275 9.09395866 0 5 C-0.2165625 4.19820313 -0.433125 3.39640625 -0.65625 2.5703125 C-0.7696875 2.05210937 -0.883125 1.53390625 -1 1 C-0.67 0.67 -0.34 0.34 0 0 Z " fill="#100F0F" transform="translate(213,491)"/>
<path d="M0 0 C1.32 0 2.64 0 4 0 C4.09038099 5.15171623 3.84681133 9.91913204 3 15 C0.03 14.505 0.03 14.505 -3 14 C-2.40380045 9.13103697 -1.43023178 4.67209049 0 0 Z " fill="#383131" transform="translate(227,501)"/>
<path d="M0 0 C4.27219099 2.92307805 5.99730929 4.89539273 7 10 C7.14857292 14.00634571 7.1167025 17.993214 7 22 C4.75873562 18.63810342 3.90985508 15.41864582 2.9375 11.5625 C2.76412109 10.89412109 2.59074219 10.22574219 2.41210938 9.53710938 C1.59090782 6.36242599 0.78956837 3.1826931 0 0 Z " fill="#D3C7C7" transform="translate(213,488)"/>
<path d="M0 0 C0.66 0.33 1.32 0.66 2 1 C1.79503906 1.70125 1.59007812 2.4025 1.37890625 3.125 C0.10230157 7.6206031 -1.10492387 11.96450235 -1.5625 16.625 C-1.7790625 18.295625 -1.7790625 18.295625 -2 20 C-2.66 20.33 -3.32 20.66 -4 21 C-4 16.71 -4 12.42 -4 8 C-3.34 8 -2.68 8 -2 8 C-1.855625 6.865625 -1.71125 5.73125 -1.5625 4.5625 C-1 1 -1 1 0 0 Z " fill="#D3C7C7" transform="translate(267,490)"/>
<path d="M0 0 C2 2 2 2 2.08203125 4.20703125 C1.12849162 13.42458101 1.12849162 13.42458101 -2 17 C-4.6875 18.3125 -4.6875 18.3125 -7 19 C-6.1875 16.5625 -6.1875 16.5625 -5 14 C-4.01 13.67 -3.02 13.34 -2 13 C-1.34 8.71 -0.68 4.42 0 0 Z " fill="#080707" transform="translate(266,497)"/>
<path d="M0 0 C0.33 0 0.66 0 1 0 C1.28875 1.134375 1.5775 2.26875 1.875 3.4375 C2.24625 4.613125 2.6175 5.78875 3 7 C3.66 7.33 4.32 7.66 5 8 C5 6.02 5 4.04 5 2 C5.33 2 5.66 2 6 2 C6 4.31 6 6.62 6 9 C6.66 9.33 7.32 9.66 8 10 C5 11 5 11 2.95703125 10.07421875 C2.24933594 9.61660156 1.54164063 9.15898438 0.8125 8.6875 C-0.26064453 8.01267578 -0.26064453 8.01267578 -1.35546875 7.32421875 C-1.89816406 6.88722656 -2.44085938 6.45023438 -3 6 C-3 5.34 -3 4.68 -3 4 C-2.01 4 -1.02 4 0 4 C0 2.68 0 1.36 0 0 Z " fill="#070606" transform="translate(221,507)"/>
<path d="M0 0 C1.32 0 2.64 0 4 0 C4 2.31 4 4.62 4 7 C2.68 7 1.36 7 0 7 C0 4.69 0 2.38 0 0 Z " fill="#D4C8C8" transform="translate(237,511)"/>
<path d="M0 0 C1.32 0 2.64 0 4 0 C4 2.31 4 4.62 4 7 C2.68 7 1.36 7 0 7 C0 4.69 0 2.38 0 0 Z " fill="#D8CDCD" transform="translate(237,502)"/>
<path d="M0 0 C0 2.31 0 4.62 0 7 C-1.32 7.33 -2.64 7.66 -4 8 C-4 5.69 -4 3.38 -4 1 C-1 0 -1 0 0 0 Z " fill="#C6BBBB" transform="translate(256,509)"/>
<path d="M0 0 C1.32 0 2.64 0 4 0 C4 1.98 4 3.96 4 6 C2.68 6.33 1.36 6.66 0 7 C0 4.69 0 2.38 0 0 Z " fill="#D2C7C7" transform="translate(252,501)"/>
<path d="M0 0 C0.99 0 1.98 0 3 0 C3 2.64 3 5.28 3 8 C2.01 8 1.02 8 0 8 C0 5.36 0 2.72 0 0 Z " fill="#B0A5A5" transform="translate(248,501)"/>
<path d="M0 0 C0.99 0 1.98 0 3 0 C3 2.64 3 5.28 3 8 C2.01 8 1.02 8 0 8 C0 5.36 0 2.72 0 0 Z " fill="#B7AAAA" transform="translate(232,501)"/>
<path d="M0 0 C0.99 0 1.98 0 3 0 C3 2.31 3 4.62 3 7 C2.01 7 1.02 7 0 7 C0 4.69 0 2.38 0 0 Z " fill="#B6ACAC" transform="translate(248,510)"/>
<path d="M0 0 C0.99 0 1.98 0 3 0 C3 2.31 3 4.62 3 7 C2.01 7 1.02 7 0 7 C0 4.69 0 2.38 0 0 Z " fill="#DDD1D1" transform="translate(243,511)"/>
<path d="M0 0 C0.99 0 1.98 0 3 0 C3 2.31 3 4.62 3 7 C2.01 7 1.02 7 0 7 C0 4.69 0 2.38 0 0 Z " fill="#DACCCC" transform="translate(243,502)"/>
<path d="M0 0 C0.99 0 1.98 0 3 0 C3 2.31 3 4.62 3 7 C2.01 6.67 1.02 6.34 0 6 C0 4.02 0 2.04 0 0 Z " fill="#FAFAFA" transform="translate(227,501)"/>
<path d="M0 0 C0.99 0.33 1.98 0.66 3 1 C3 2.98 3 4.96 3 7 C2.01 7 1.02 7 0 7 C0 4.69 0 2.38 0 0 Z " fill="#DED2D2" transform="translate(227,509)"/>
<path d="M0 0 C0.66 0.99 1.32 1.98 2 3 C0.02 5.31 -1.96 7.62 -4 10 C-4 5.75354935 -2.18249194 3.61475228 0 0 Z " fill="#DBDBDB" transform="translate(293,141)"/>
<path d="M0 0 C0.99 0 1.98 0 3 0 C3 1.98 3 3.96 3 6 C2.01 6 1.02 6 0 6 C0 4.02 0 2.04 0 0 Z " fill="#E0D4D4" transform="translate(232,511)"/>
<path d="M0 0 C0.99 0.33 1.98 0.66 3 1 C3 2.98 3 4.96 3 7 C2.01 6.67 1.02 6.34 0 6 C0 4.02 0 2.04 0 0 Z " fill="#CDC2C2" transform="translate(222,507)"/>
<path d="M0 0 C0 1.98 0 3.96 0 6 C-0.99 6.33 -1.98 6.66 -3 7 C-3 5.02 -3 3.04 -3 1 C-1 0 -1 0 0 0 Z " fill="#DBCFCF" transform="translate(261,507)"/>
<path d="M0 0 C0.99 0.33 1.98 0.66 3 1 C3 2.98 3 4.96 3 7 C2.01 6.67 1.02 6.34 0 6 C0 4.02 0 2.04 0 0 Z " fill="#CCC1C1" transform="translate(222,499)"/>
<path d="M0 0 C0 1.98 0 3.96 0 6 C-0.99 6.33 -1.98 6.66 -3 7 C-3 5.02 -3 3.04 -3 1 C-1 0 -1 0 0 0 Z " fill="#D9CDCD" transform="translate(261,499)"/>
<path d="M0 0 C1.5625 1.125 1.5625 1.125 3 3 C2.6875 6.1875 2.6875 6.1875 2 9 C0.59306362 6.37371875 -0.49157276 3.94887797 -1 1 C-0.67 0.67 -0.34 0.34 0 0 Z " fill="#1A1818" transform="translate(213,491)"/>
<path d="M0 0 C2 2 2 2 2.3125 4.5 C2.209375 5.325 2.10625 6.15 2 7 C1.01 7.66 0.02 8.32 -1 9 C-0.67 6.03 -0.34 3.06 0 0 Z " fill="#181515" transform="translate(266,497)"/>
</svg>
