<?xml version="1.0" encoding="UTF-8"?>
<svg version="1.1" xmlns="http://www.w3.org/2000/svg" width="550" height="613">
<path d="M0 0 C181.5 0 363 0 550 0 C550 202.29 550 404.58 550 613 C368.5 613 187 613 0 613 C0 410.71 0 208.42 0 0 Z " fill="#FEFEFE" transform="translate(0,0)"/>
<path d="M0 0 C1.79224146 -0.01265991 1.79224146 -0.01265991 3.62068981 -0.02557558 C4.93992712 -0.01956553 6.25916444 -0.01355549 7.61837864 -0.00736332 C9.02880308 -0.01153373 10.43922418 -0.01700963 11.849639 -0.02368313 C15.73454315 -0.03819514 19.61923619 -0.0338752 23.50415218 -0.02651632 C27.69032965 -0.02180109 31.87646036 -0.03427986 36.06262302 -0.04453373 C44.26721241 -0.06175953 52.47172534 -0.06255392 60.67632812 -0.05732083 C67.34289766 -0.0532849 74.00944454 -0.0547158 80.67601299 -0.06006908 C81.62362518 -0.06081751 82.57123736 -0.06156593 83.54756506 -0.06233703 C85.47243154 -0.06386845 87.39729801 -0.0654068 89.32216448 -0.066952 C107.38702068 -0.08069073 125.45183361 -0.07522973 143.51668883 -0.06376678 C160.05521355 -0.05383301 176.59362643 -0.06677513 193.13213389 -0.09070098 C210.10052606 -0.11506439 227.06886606 -0.12470664 244.03727537 -0.11804825 C253.56910298 -0.11454988 263.10084453 -0.11682872 272.63265896 -0.13429928 C280.74698641 -0.14898684 288.86116722 -0.14970202 296.9754917 -0.13222837 C301.11777002 -0.12368742 305.259786 -0.12164374 309.40205097 -0.13687992 C313.19136253 -0.15064563 316.98018499 -0.14606975 320.76946766 -0.12664068 C322.79543397 -0.12105679 324.82142468 -0.13521964 326.84734482 -0.14999479 C328.0447802 -0.1401805 329.24221558 -0.13036621 330.47593689 -0.12025452 C332.02959148 -0.12009351 332.02959148 -0.12009351 333.61463302 -0.11992925 C337.01619873 0.51352474 338.20433987 1.67666223 340.30088902 4.38031673 C340.75499058 7.22113705 340.75499058 7.22113705 340.69151402 10.45844173 C340.67217808 12.19867611 340.67217808 12.19867611 340.65245152 13.97406673 C340.60217808 15.78391048 340.60217808 15.78391048 340.55088902 17.63031673 C340.53284214 18.85234798 340.51479527 20.07437923 340.49620152 21.33344173 C340.44907002 24.34985752 340.38328314 27.36469165 340.30088902 30.38031673 C341.07577671 30.35936947 341.85066441 30.3384222 342.64903355 30.31684017 C371.06115026 29.64951232 371.06115026 29.64951232 382.30088902 34.38031673 C383.11686558 34.69226986 383.93284214 35.00422298 384.77354527 35.32562923 C387.01913444 36.24235346 389.14868588 37.26290231 391.30088902 38.38031673 C392.0988187 38.78766048 392.89674839 39.19500423 393.71885777 39.61469173 C406.93973954 46.91179857 415.41991513 58.14133606 419.94786167 72.42059994 C421.64148471 79.02844442 421.68540935 85.65386536 421.67588902 92.44281673 C421.67427769 93.63568295 421.67266636 94.82854916 421.6710062 96.05756283 C421.541636 105.40899927 420.44459668 113.55835509 417.30088902 122.38031673 C417.00053745 123.22980892 416.70018589 124.07930111 416.39073277 124.95453548 C407.61809252 146.7152405 389.10971493 160.98243796 368.30088902 170.38031673 C346.44149075 179.3412413 322.78769736 183.0904442 299.30088902 182.38031673 C299.09093296 182.91551937 298.88097691 183.45072201 298.66465855 184.00214291 C296.77180861 187.30293976 294.16729566 189.77915262 291.48057652 192.43109798 C290.90308659 193.00812969 290.32559666 193.5851614 289.73060703 194.17967892 C288.50737535 195.39989335 287.28171796 196.61768024 286.0538187 197.83319759 C284.19817875 199.67074433 282.35050365 201.51600212 280.50401402 203.36273861 C272.89049786 210.95398512 265.20521117 218.18849348 256.67588902 224.75531673 C252.39668656 228.21747367 249.65609779 231.53590502 246.79698277 236.18500423 C238.46144192 248.41626782 224.73777983 252.44154279 210.98326206 255.08832455 C208.42689078 255.54966378 205.86510027 255.96487689 203.30088902 256.38031673 C202.33715366 256.55909359 201.37341831 256.73787045 200.38047886 256.92206478 C189.92145346 258.69150804 179.52925126 258.71823242 168.94542027 258.69599056 C165.83437953 258.69285054 162.72431159 258.71629478 159.61338902 258.74164486 C137.93737852 258.80986103 113.40272794 257.74381945 94.30088902 246.38031673 C93.65635777 246.00133236 93.01182652 245.62234798 92.34776402 245.23187923 C87.52290635 242.10621057 84.56643219 238.04273532 81.30088902 233.38031673 C77.49472299 228.2691795 73.04924267 224.65178963 68.07432652 220.67719173 C64.90047336 218.0487049 62.05048955 215.22087174 59.18370152 212.26703548 C57.35358037 210.4331174 55.45971715 208.74783525 53.48838902 207.06781673 C46.19674203 200.78092425 39.39558389 193.86389558 33.17198277 186.52094173 C31.2777855 184.35388516 29.2955503 182.28643129 27.30333042 180.20990658 C9.69552726 161.65872162 2.1275202 137.45784646 -2.26991177 112.78363705 C-2.67814582 110.49771211 -3.10566299 108.21629293 -3.53895473 105.93500423 C-6.05783213 92.4845985 -7.68400111 79.11313449 -8.23817348 65.43500423 C-8.28037014 64.39777721 -8.3225668 63.36055019 -8.36604214 62.29189205 C-8.7768086 51.46241458 -8.9195025 40.63618779 -8.93934536 29.79950619 C-8.9493276 26.4961334 -8.9806424 23.19331758 -9.01161098 19.89008236 C-9.01811934 17.77615367 -9.02337823 15.66222067 -9.02723598 13.54828548 C-9.03958279 12.56724346 -9.05192959 11.58620144 -9.06465054 10.57543087 C-9.06164944 9.67210522 -9.05864834 8.76877956 -9.0555563 7.83808041 C-9.05920193 7.04665142 -9.06284756 6.25522243 -9.06660366 5.43981075 C-8.14957076 0.30059602 -4.62038829 0.00459149 0 0 Z " fill="#E5D280" transform="translate(72.69911098480225,338.61968326568604)"/>
<path d="M0 0 C1.875 1.625 1.875 1.625 3 3 C3 3.66 3 4.32 3 5 C3.66 5 4.32 5 5 5 C13.82608945 14.7591332 15.81767752 27.44602915 15.3203125 40.109375 C14.64421935 48.32143329 11.51548608 55.14417053 7 62 C6.45472656 62.40863281 5.90945313 62.81726563 5.34765625 63.23828125 C3.07779204 66.20555302 3.77670993 69.74174688 3.9375 73.3125 C4.15593894 78.69911136 4.08427049 82.89880879 2 88 C13.59664982 83.21814602 13.59664982 83.21814602 20.7890625 73.234375 C22.19512705 70.63995913 23.47119852 69.49537413 26 68 C32.10202234 67.35768186 32.10202234 67.35768186 34.66015625 69.1875 C36.42181511 71.57061869 36.54586587 73.44490349 36.875 76.375 C37.66468123 81.44769806 38.90070051 83.72056041 43 87 C45 90 45 90 44.8125 93.5625 C44 97 44 97 41 99 C38.80078125 99.4140625 38.80078125 99.4140625 36.3125 99.625 C35.41660156 99.7075 34.52070313 99.79 33.59765625 99.875 C31 100 31 100 27.25 99.625 C21.89245399 99.54999436 17.48595779 102.53358296 12.88671875 104.98046875 C8.78391858 107.15490004 4.57241172 109.03165705 0.3125 110.875 C-0.71230469 111.32178101 -0.71230469 111.32178101 -1.7578125 111.77758789 C-4.48323028 112.95624883 -7.18151612 114.06050537 -10 115 C-10 116.32 -10 117.64 -10 119 C-9.35933594 119.07089844 -8.71867187 119.14179688 -8.05859375 119.21484375 C-4.54092328 120.11784728 -1.71829437 121.61040976 1.48583984 123.28857422 C9.72654434 127.57058936 15.72129685 130.04226902 25.1171875 129.0234375 C28.64518098 128.99475463 30.19040834 129.93441171 33 132 C35 134 35 134 35.0625 136.625 C33.96205377 140.12053508 33.03006068 141.23698354 30.5625 143.8125 C27.16392647 147.41957497 26.01732738 150.25644283 25.2890625 155.1171875 C25 157 25 157 24 159 C23.34 159 22.68 159 22 159 C22 159.66 22 160.32 22 161 C16.56900794 160.78276032 13.99387611 159.65092145 10.359375 155.86328125 C9 154 9 154 7.8203125 151.0546875 C5.3387678 146.89037859 2.45145903 145.73407144 -1.875 143.8125 C-3.28985285 143.15403934 -4.70393419 142.49391804 -6.1171875 141.83203125 C-7.12023926 141.37219849 -7.12023926 141.37219849 -8.14355469 140.90307617 C-10 140 -10 140 -12.8828125 138.2265625 C-13.58148438 137.82179688 -14.28015625 137.41703125 -15 137 C-17.6477444 137.74467811 -19.10178685 139.08724588 -21.1875 140.875 C-28.52673482 146.42019964 -35.37784529 147.64351928 -44.4375 147.5 C-45.41009766 147.51546875 -46.38269531 147.5309375 -47.38476562 147.546875 C-55.79555027 147.50192759 -63.49153565 145.81659273 -69.625 139.75 C-70.40875 138.8425 -71.1925 137.935 -72 137 C-83.71112055 140.52063281 -94.03435767 146.16345149 -100.51953125 156.71484375 C-102 159 -102 159 -105 161 C-108.09183759 161.47566732 -109.53771991 161.26966339 -112.25 159.6875 C-114.99555215 155.47111634 -114.82976952 150.93668397 -115 146 C-115.99 145.67 -116.98 145.34 -118 145 C-118 144.34 -118 143.68 -118 143 C-118.99 142.67 -119.98 142.34 -121 142 C-123.31282587 138.53076119 -123.42478586 137.07794425 -123 133 C-121.14657225 130.44050454 -120.06243607 130.02081202 -117 129 C-114.72836202 129.10940715 -112.45758835 129.23713076 -110.1875 129.375 C-101.34369021 129.64843076 -95.52618844 126.39891114 -88 122 C-82.42663657 119 -82.42663657 119 -79 119 C-79 117.68 -79 116.36 -79 115 C-79.79664063 114.76023437 -80.59328125 114.52046875 -81.4140625 114.2734375 C-85.89102914 112.68357789 -90.09739233 110.68309425 -94.375 108.625 C-95.59316406 108.04492188 -95.59316406 108.04492188 -96.8359375 107.453125 C-97.6403125 107.06898438 -98.4446875 106.68484375 -99.2734375 106.2890625 C-100.06854736 105.91031982 -100.86365723 105.53157715 -101.68286133 105.14135742 C-103.1841829 104.40184859 -104.6702324 103.6301347 -106.13549805 102.8215332 C-110.67069474 100.34256942 -113.77458285 99.59769022 -119.0625 99.9375 C-124.66560276 100.11785739 -128.1612563 99.81322308 -133 97 C-134 96 -134 96 -134.5 93.4375 C-133.93500958 89.55319083 -133.28521644 88.99479292 -130.625 86.3125 C-126.74544115 82.27713557 -126.01050744 78.90367318 -125.484375 73.41796875 C-124.92443305 70.62277466 -124.26903388 69.68137043 -122 68 C-117.96997109 67.28355042 -116.38493175 67.748616 -112.9375 70 C-110.6302136 72.07890018 -109.4262573 74.04680019 -108.0625 76.8125 C-104.38687453 83.28801467 -96.45899006 85.94518206 -90 89 C-90.495 87.989375 -90.99 86.97875 -91.5 85.9375 C-93.15493004 81.69060191 -93.01733549 78.08708834 -92.8125 73.5625 C-92.66771677 67.20462793 -93.47100563 64.03758988 -97.40234375 59.12109375 C-104.54857919 49.6335489 -104.77828324 37.35717025 -104 26 C-102.84029818 18.570046 -99.4948542 12.9286558 -95 7 C-94.56300781 6.42121094 -94.12601563 5.84242188 -93.67578125 5.24609375 C-85.27645458 -5.32592941 -71.86637925 -9.95701772 -58.7734375 -11.56640625 C-38.27688761 -13.6735282 -17.25525112 -12.29279204 0 0 Z " fill="#64811F" transform="translate(286,391)"/>
<path d="M0 0 C10.75263008 3.64495935 16.75524338 18.11470856 21.54296875 27.77905273 C27.67733134 40.43787249 30.35472594 52.58712354 30.09912109 66.55908203 C30.06213931 68.64534747 30.05810703 70.72984352 30.05859375 72.81640625 C29.94723064 94.64147406 21.47761586 113.48837382 7.6875 130.25 C7.00945312 131.11238281 6.33140625 131.97476563 5.6328125 132.86328125 C0.85600803 138.87253528 -4.27759823 144.32931854 -9.75 149.6953125 C-12.50374934 152.44066626 -15.06428452 155.28579772 -17.58203125 158.24609375 C-18.82095611 159.68078552 -20.09340739 161.08679153 -21.38671875 162.47265625 C-29.86415369 171.57147386 -37.06848525 181.30025031 -42.75 192.375 C-43.06783447 192.9829541 -43.38566895 193.5909082 -43.71313477 194.21728516 C-48.77931763 204.55671187 -49.86945679 215.17853867 -49.8125 226.5625 C-49.80822998 227.86687012 -49.80395996 229.17124023 -49.79956055 230.51513672 C-49.51709745 246.85407991 -46.43932408 262.49622382 -39.3125 277.25 C-37.47338283 281.47932868 -36.79456093 284.58854841 -37.3125 289.25 C-39.37444071 291.61741341 -40.59002895 292.17664481 -43.70019531 292.49243164 C-46.82495521 292.20244224 -48.00025123 291.39061719 -50.421875 289.43359375 C-51.17726562 288.83353516 -51.93265625 288.23347656 -52.7109375 287.61523438 C-53.48695313 286.97908203 -54.26296875 286.34292969 -55.0625 285.6875 C-56.20332031 284.77387695 -56.20332031 284.77387695 -57.3671875 283.84179688 C-58.90911118 282.60695122 -60.44734731 281.36748747 -61.98193359 280.12353516 C-64.32863506 278.23702907 -66.7022184 276.39021372 -69.0859375 274.55078125 C-74.06479174 270.69043593 -78.71266461 266.55329428 -83.3125 262.25 C-84.22386719 261.404375 -85.13523438 260.55875 -86.07421875 259.6875 C-96.77435085 249.42014869 -104.33083854 238.2410492 -109.3125 224.25 C-109.93318359 222.55617187 -109.93318359 222.55617187 -110.56640625 220.828125 C-117.37223241 198.72697524 -115.29175283 172.57078967 -104.64941406 152.06201172 C-97.88140786 139.7172909 -89.12572797 129.2756038 -79.3125 119.25 C-78.51779297 118.4348291 -77.72308594 117.6196582 -76.90429688 116.77978516 C-74.19559333 114.01043151 -71.475212 111.25310616 -68.75 108.5 C-67.88785889 107.624646 -67.02571777 106.74929199 -66.13745117 105.84741211 C-60.91179447 100.61581885 -55.49556551 95.82036907 -49.7253418 91.19726562 C-47.03136879 89.02311519 -44.51569644 86.75117042 -42 84.375 C-37.86223262 80.55734643 -33.57999294 77.05615629 -29.125 73.625 C-16.07327711 63.48962824 -5.50213898 52.05541038 -2.3125 35.25 C-1.41617936 27.30449097 -2.34429038 21.06755378 -5.33984375 13.69140625 C-6.66333685 10.36938542 -7.3125 7.83708959 -7.3125 4.25 C-5.2220997 0.76599951 -4.04516654 0.30529559 0 0 Z " fill="#040404" transform="translate(273.3125,29.75)"/>
<path d="M0 0 C1.79224146 -0.01265991 1.79224146 -0.01265991 3.62068981 -0.02557558 C4.93992712 -0.01956553 6.25916444 -0.01355549 7.61837864 -0.00736332 C9.02880308 -0.01153373 10.43922418 -0.01700963 11.849639 -0.02368313 C15.73454315 -0.03819514 19.61923619 -0.0338752 23.50415218 -0.02651632 C27.69032965 -0.02180109 31.87646036 -0.03427986 36.06262302 -0.04453373 C44.26721241 -0.06175953 52.47172534 -0.06255392 60.67632812 -0.05732083 C67.34289766 -0.0532849 74.00944454 -0.0547158 80.67601299 -0.06006908 C81.62362518 -0.06081751 82.57123736 -0.06156593 83.54756506 -0.06233703 C85.47243154 -0.06386845 87.39729801 -0.0654068 89.32216448 -0.066952 C107.38702068 -0.08069073 125.45183361 -0.07522973 143.51668883 -0.06376678 C160.05521355 -0.05383301 176.59362643 -0.06677513 193.13213389 -0.09070098 C210.10052606 -0.11506439 227.06886606 -0.12470664 244.03727537 -0.11804825 C253.56910298 -0.11454988 263.10084453 -0.11682872 272.63265896 -0.13429928 C280.74698641 -0.14898684 288.86116722 -0.14970202 296.9754917 -0.13222837 C301.11777002 -0.12368742 305.259786 -0.12164374 309.40205097 -0.13687992 C313.19136253 -0.15064563 316.98018499 -0.14606975 320.76946766 -0.12664068 C322.79543397 -0.12105679 324.82142468 -0.13521964 326.84734482 -0.14999479 C328.0447802 -0.1401805 329.24221558 -0.13036621 330.47593689 -0.12025452 C332.02959148 -0.12009351 332.02959148 -0.12009351 333.61463302 -0.11992925 C337.01619873 0.51352474 338.20433987 1.67666223 340.30088902 4.38031673 C340.75499058 7.22113705 340.75499058 7.22113705 340.69151402 10.45844173 C340.67217808 12.19867611 340.67217808 12.19867611 340.65245152 13.97406673 C340.60217808 15.78391048 340.60217808 15.78391048 340.55088902 17.63031673 C340.53284214 18.85234798 340.51479527 20.07437923 340.49620152 21.33344173 C340.44907002 24.34985752 340.38328314 27.36469165 340.30088902 30.38031673 C341.07577671 30.35936947 341.85066441 30.3384222 342.64903355 30.31684017 C371.06115026 29.64951232 371.06115026 29.64951232 382.30088902 34.38031673 C383.11686558 34.69226986 383.93284214 35.00422298 384.77354527 35.32562923 C387.01913444 36.24235346 389.14868588 37.26290231 391.30088902 38.38031673 C392.0988187 38.78766048 392.89674839 39.19500423 393.71885777 39.61469173 C406.93973954 46.91179857 415.41991513 58.14133606 419.94786167 72.42059994 C421.64148471 79.02844442 421.68540935 85.65386536 421.67588902 92.44281673 C421.67427769 93.63568295 421.67266636 94.82854916 421.6710062 96.05756283 C421.541636 105.40899927 420.44459668 113.55835509 417.30088902 122.38031673 C417.00053745 123.22980892 416.70018589 124.07930111 416.39073277 124.95453548 C407.61809252 146.7152405 389.10971493 160.98243796 368.30088902 170.38031673 C346.44149075 179.3412413 322.78769736 183.0904442 299.30088902 182.38031673 C299.09093296 182.91551937 298.88097691 183.45072201 298.66465855 184.00214291 C296.77180861 187.30293976 294.16729566 189.77915262 291.48057652 192.43109798 C290.90308659 193.00812969 290.32559666 193.5851614 289.73060703 194.17967892 C288.50737535 195.39989335 287.28171796 196.61768024 286.0538187 197.83319759 C284.19817875 199.67074433 282.35050365 201.51600212 280.50401402 203.36273861 C272.89049786 210.95398512 265.20521117 218.18849348 256.67588902 224.75531673 C252.39668656 228.21747367 249.65609779 231.53590502 246.79698277 236.18500423 C238.46144192 248.41626782 224.73777983 252.44154279 210.98326206 255.08832455 C208.42689078 255.54966378 205.86510027 255.96487689 203.30088902 256.38031673 C202.33715366 256.55909359 201.37341831 256.73787045 200.38047886 256.92206478 C189.92145346 258.69150804 179.52925126 258.71823242 168.94542027 258.69599056 C165.83437953 258.69285054 162.72431159 258.71629478 159.61338902 258.74164486 C137.93737852 258.80986103 113.40272794 257.74381945 94.30088902 246.38031673 C93.65635777 246.00133236 93.01182652 245.62234798 92.34776402 245.23187923 C87.52290635 242.10621057 84.56643219 238.04273532 81.30088902 233.38031673 C77.49472299 228.2691795 73.04924267 224.65178963 68.07432652 220.67719173 C64.90047336 218.0487049 62.05048955 215.22087174 59.18370152 212.26703548 C57.35358037 210.4331174 55.45971715 208.74783525 53.48838902 207.06781673 C46.19674203 200.78092425 39.39558389 193.86389558 33.17198277 186.52094173 C31.2777855 184.35388516 29.2955503 182.28643129 27.30333042 180.20990658 C9.69552726 161.65872162 2.1275202 137.45784646 -2.26991177 112.78363705 C-2.67814582 110.49771211 -3.10566299 108.21629293 -3.53895473 105.93500423 C-6.05783213 92.4845985 -7.68400111 79.11313449 -8.23817348 65.43500423 C-8.28037014 64.39777721 -8.3225668 63.36055019 -8.36604214 62.29189205 C-8.7768086 51.46241458 -8.9195025 40.63618779 -8.93934536 29.79950619 C-8.9493276 26.4961334 -8.9806424 23.19331758 -9.01161098 19.89008236 C-9.01811934 17.77615367 -9.02337823 15.66222067 -9.02723598 13.54828548 C-9.03958279 12.56724346 -9.05192959 11.58620144 -9.06465054 10.57543087 C-9.06164944 9.67210522 -9.05864834 8.76877956 -9.0555563 7.83808041 C-9.05920193 7.04665142 -9.06284756 6.25522243 -9.06660366 5.43981075 C-8.14957076 0.30059602 -4.62038829 0.00459149 0 0 Z M3.30088902 14.38031673 C1.40145929 98.54107805 1.40145929 98.54107805 36.73838902 173.00531673 C37.58401402 173.78906673 38.42963902 174.57281673 39.30088902 175.38031673 C47.67885545 183.56751354 47.67885545 183.56751354 51.42588902 188.06781673 C60.33399879 198.45713446 71.32873516 208.38536911 82.42588902 216.38031673 C87.33615956 220.00043776 91.00951393 224.19833814 94.11338902 229.44281673 C101.58134534 239.47121523 113.7927234 241.14937339 125.30088902 243.38031673 C126.4029166 243.59881283 126.4029166 243.59881283 127.52720737 243.82172298 C157.42820091 249.52944587 203.10718379 251.59800692 229.64073277 235.26703548 C233.94994955 232.21071873 236.70742388 228.65543084 239.70713902 224.37250423 C242.93961636 219.85047476 246.12908087 216.71272744 250.76182652 213.60687923 C251.26971714 213.20211361 251.77760777 212.79734798 252.30088902 212.38031673 C252.30088902 211.72031673 252.30088902 211.06031673 252.30088902 210.38031673 C254.77588902 209.39031673 254.77588902 209.39031673 257.30088902 208.38031673 C257.30088902 207.72031673 257.30088902 207.06031673 257.30088902 206.38031673 C258.19034214 205.98393002 258.19034214 205.98393002 259.09776402 205.57953548 C261.38117956 204.33661248 262.77515625 203.07630027 264.55088902 201.19281673 C266.93434528 198.72873616 269.35587961 196.44998674 271.98838902 194.25531673 C276.30900765 190.54110071 280.09556098 186.39261688 283.91294956 182.17475033 C284.88631634 181.09953285 285.86916264 180.03282267 286.86119175 178.97479916 C288.32128841 177.41038269 288.32128841 177.41038269 289.53941441 175.70184994 C292.68858037 171.79471515 295.3870849 170.90487316 300.34385777 170.24359798 C302.72334847 170.03545733 305.10519709 169.85311259 307.48838902 169.69281673 C310.02252281 169.46940361 312.5563802 169.2428332 315.08995152 169.01312923 C316.32519566 168.90774837 317.5604398 168.80236752 318.83311558 168.6937933 C342.848622 166.52286185 368.07123033 159.66344587 387.30088902 144.38031673 C387.63088902 143.39031673 387.96088902 142.40031673 388.30088902 141.38031673 C389.63422235 140.71365007 390.96755568 140.0469834 392.30088902 139.38031673 C392.63088902 138.39031673 392.96088902 137.40031673 393.30088902 136.38031673 C394.78588902 135.88531673 394.78588902 135.88531673 396.30088902 135.38031673 C407.51307449 121.51261364 409.72164713 106.73158014 409.30088902 89.38031673 C409.2841312 88.57336361 409.26737339 87.76641048 409.25010777 86.93500423 C408.58976718 76.70915853 404.05301223 66.97179228 397.30088902 59.38031673 C396.21807652 58.14281673 396.21807652 58.14281673 395.11338902 56.88031673 C393.30780707 55.06153288 393.30780707 55.06153288 390.30088902 55.38031673 C390.30088902 54.72031673 390.30088902 54.06031673 390.30088902 53.38031673 C378.36601593 47.19276983 368.67188251 44.180332 355.17588902 44.19281673 C354.35274204 44.1928973 353.52959507 44.19297787 352.68150425 44.19306087 C344.04605346 44.27262327 335.69322219 45.28223344 327.30088902 47.38031673 C327.30088902 36.49031673 327.30088902 25.60031673 327.30088902 14.38031673 C220.38088902 14.38031673 113.46088902 14.38031673 3.30088902 14.38031673 Z " fill="#040404" transform="translate(72.69911098480225,338.61968326568604)"/>
<path d="M0 0 C0.66 0 1.32 0 2 0 C2.4803318 1.58298026 2.95921612 3.16639978 3.4375 4.75 C3.70433594 5.63171875 3.97117187 6.5134375 4.24609375 7.421875 C4.49488281 8.27265625 4.74367188 9.1234375 5 10 C5.26453979 10.88014771 5.26453979 10.88014771 5.53442383 11.77807617 C6.6115913 16.91876896 6.22846439 22.3320385 6.25 27.5625 C6.270625 28.78775391 6.29125 30.01300781 6.3125 31.27539062 C6.34548937 39.01552045 5.51762011 45.67721141 3 53 C2.63519531 54.06992188 2.27039063 55.13984375 1.89453125 56.2421875 C-4.07786403 70.77429732 -13.2740763 84.40922256 -25 95 C-25.66 95 -26.32 95 -27 95 C-27.22300781 95.54011719 -27.44601562 96.08023438 -27.67578125 96.63671875 C-29.42552302 99.75941424 -31.75333008 102.22022432 -34.1875 104.8125 C-34.64447266 105.30814453 -35.10144531 105.80378906 -35.57226562 106.31445312 C-38.13472557 109.07593908 -40.76154505 111.73972857 -43.46875 114.359375 C-47.84836174 118.71135512 -51.314809 123.64859559 -54.90039062 128.65429688 C-55.40376953 129.34458984 -55.90714844 130.03488281 -56.42578125 130.74609375 C-57.09734253 131.68473267 -57.09734253 131.68473267 -57.7824707 132.64233398 C-58.18425537 133.09036377 -58.58604004 133.53839355 -59 134 C-59.66 134 -60.32 134 -61 134 C-61.103125 134.70125 -61.20625 135.4025 -61.3125 136.125 C-62.09359003 139.39137647 -63.42058743 142.0471852 -65 145 C-65.66 145 -66.32 145 -67 145 C-67.0825 145.763125 -67.165 146.52625 -67.25 147.3125 C-68.07606068 151.37396502 -69.43389601 154.98620292 -70.96484375 158.828125 C-74.05130419 168.28550568 -74.39701468 177.62663179 -74.375 187.5 C-74.37611786 188.204664 -74.37723572 188.909328 -74.37838745 189.63534546 C-74.36872965 201.99821236 -72.91787897 213.24636309 -69 225 C-85.99566607 217.38941172 -100.03377164 199.27997232 -106.9375 182.3125 C-110.66254061 172.44581537 -111.34317393 162.45367539 -111.3125 152 C-111.32861328 150.90171875 -111.34472656 149.8034375 -111.36132812 148.671875 C-111.36568552 141.31658712 -110.31771828 134.97268009 -108 128 C-107.48759766 126.41251953 -107.48759766 126.41251953 -106.96484375 124.79296875 C-103.58161272 116.21268321 -98.5534521 109.27168436 -93 102 C-92.33097656 101.10539062 -91.66195312 100.21078125 -90.97265625 99.2890625 C-87.8799865 95.21512991 -84.65217245 91.59185128 -81 88 C-80.20980469 87.19820313 -79.41960937 86.39640625 -78.60546875 85.5703125 C-74.26106151 81.17677626 -69.87929835 76.91778531 -65.18359375 72.90234375 C-62.99209941 70.99311701 -60.85671069 69.02993459 -58.7265625 67.05273438 C-53.60401791 62.30072918 -48.36828287 57.77380038 -42.92578125 53.38671875 C-37.71179078 49.1333834 -32.63127599 44.7241376 -27.54052734 40.32470703 C-26.23939524 39.20585715 -24.92751039 38.09953 -23.61328125 36.99609375 C-11.78995187 26.98459088 -3.17910163 15.38079645 0 0 Z " fill="#ADC376" transform="translate(284,70)"/>
<path d="M0 0 C1.875 1.625 1.875 1.625 3 3 C3 3.66 3 4.32 3 5 C3.66 5 4.32 5 5 5 C13.82608945 14.7591332 15.81767752 27.44602915 15.3203125 40.109375 C14.64421935 48.32143329 11.51548608 55.14417053 7 62 C6.45472656 62.40863281 5.90945313 62.81726563 5.34765625 63.23828125 C3.07779204 66.20555302 3.77670993 69.74174688 3.9375 73.3125 C4.15593894 78.69911136 4.08427049 82.89880879 2 88 C13.59664982 83.21814602 13.59664982 83.21814602 20.7890625 73.234375 C22.19512705 70.63995913 23.47119852 69.49537413 26 68 C32.10202234 67.35768186 32.10202234 67.35768186 34.66015625 69.1875 C36.42181511 71.57061869 36.54586587 73.44490349 36.875 76.375 C37.66468123 81.44769806 38.90070051 83.72056041 43 87 C45 90 45 90 44.8125 93.5625 C44 97 44 97 41 99 C38.80078125 99.4140625 38.80078125 99.4140625 36.3125 99.625 C35.41660156 99.7075 34.52070313 99.79 33.59765625 99.875 C31 100 31 100 27.25 99.625 C21.89245399 99.54999436 17.48595779 102.53358296 12.88671875 104.98046875 C8.78391858 107.15490004 4.57241172 109.03165705 0.3125 110.875 C-0.71230469 111.32178101 -0.71230469 111.32178101 -1.7578125 111.77758789 C-4.48323028 112.95624883 -7.18151612 114.06050537 -10 115 C-10 116.32 -10 117.64 -10 119 C-9.35933594 119.07089844 -8.71867187 119.14179688 -8.05859375 119.21484375 C-4.54092328 120.11784728 -1.71829437 121.61040976 1.48583984 123.28857422 C9.72654434 127.57058936 15.72129685 130.04226902 25.1171875 129.0234375 C28.64518098 128.99475463 30.19040834 129.93441171 33 132 C35 134 35 134 35.0625 136.625 C33.96205377 140.12053508 33.03006068 141.23698354 30.5625 143.8125 C27.16392647 147.41957497 26.01732738 150.25644283 25.2890625 155.1171875 C25 157 25 157 24 159 C23.34 159 22.68 159 22 159 C22 159.66 22 160.32 22 161 C16.56900794 160.78276032 13.99387611 159.65092145 10.359375 155.86328125 C9 154 9 154 7.8203125 151.0546875 C5.3387678 146.89037859 2.45145903 145.73407144 -1.875 143.8125 C-3.28985285 143.15403934 -4.70393419 142.49391804 -6.1171875 141.83203125 C-7.12023926 141.37219849 -7.12023926 141.37219849 -8.14355469 140.90307617 C-10 140 -10 140 -12.8828125 138.2265625 C-13.58148438 137.82179688 -14.28015625 137.41703125 -15 137 C-17.6477444 137.74467811 -19.10178685 139.08724588 -21.1875 140.875 C-28.52673482 146.42019964 -35.37784529 147.64351928 -44.4375 147.5 C-45.41009766 147.51546875 -46.38269531 147.5309375 -47.38476562 147.546875 C-55.79555027 147.50192759 -63.49153565 145.81659273 -69.625 139.75 C-70.40875 138.8425 -71.1925 137.935 -72 137 C-83.71112055 140.52063281 -94.03435767 146.16345149 -100.51953125 156.71484375 C-102 159 -102 159 -105 161 C-108.09183759 161.47566732 -109.53771991 161.26966339 -112.25 159.6875 C-114.99555215 155.47111634 -114.82976952 150.93668397 -115 146 C-115.99 145.67 -116.98 145.34 -118 145 C-118 144.34 -118 143.68 -118 143 C-118.99 142.67 -119.98 142.34 -121 142 C-123.31282587 138.53076119 -123.42478586 137.07794425 -123 133 C-121.14657225 130.44050454 -120.06243607 130.02081202 -117 129 C-114.72836202 129.10940715 -112.45758835 129.23713076 -110.1875 129.375 C-101.34369021 129.64843076 -95.52618844 126.39891114 -88 122 C-82.42663657 119 -82.42663657 119 -79 119 C-79 117.68 -79 116.36 -79 115 C-79.79664063 114.76023437 -80.59328125 114.52046875 -81.4140625 114.2734375 C-85.89102914 112.68357789 -90.09739233 110.68309425 -94.375 108.625 C-95.59316406 108.04492188 -95.59316406 108.04492188 -96.8359375 107.453125 C-97.6403125 107.06898438 -98.4446875 106.68484375 -99.2734375 106.2890625 C-100.06854736 105.91031982 -100.86365723 105.53157715 -101.68286133 105.14135742 C-103.1841829 104.40184859 -104.6702324 103.6301347 -106.13549805 102.8215332 C-110.67069474 100.34256942 -113.77458285 99.59769022 -119.0625 99.9375 C-124.66560276 100.11785739 -128.1612563 99.81322308 -133 97 C-134 96 -134 96 -134.5 93.4375 C-133.93500958 89.55319083 -133.28521644 88.99479292 -130.625 86.3125 C-126.74544115 82.27713557 -126.01050744 78.90367318 -125.484375 73.41796875 C-124.92443305 70.62277466 -124.26903388 69.68137043 -122 68 C-117.96997109 67.28355042 -116.38493175 67.748616 -112.9375 70 C-110.6302136 72.07890018 -109.4262573 74.04680019 -108.0625 76.8125 C-104.38687453 83.28801467 -96.45899006 85.94518206 -90 89 C-90.495 87.989375 -90.99 86.97875 -91.5 85.9375 C-93.15493004 81.69060191 -93.01733549 78.08708834 -92.8125 73.5625 C-92.66771677 67.20462793 -93.47100563 64.03758988 -97.40234375 59.12109375 C-104.54857919 49.6335489 -104.77828324 37.35717025 -104 26 C-102.84029818 18.570046 -99.4948542 12.9286558 -95 7 C-94.56300781 6.42121094 -94.12601563 5.84242188 -93.67578125 5.24609375 C-85.27645458 -5.32592941 -71.86637925 -9.95701772 -58.7734375 -11.56640625 C-38.27688761 -13.6735282 -17.25525112 -12.29279204 0 0 Z M-90.17578125 7.609375 C-98.41584871 18.40792165 -100.31347454 29.80802853 -99 43 C-97.60891732 49.94121869 -95.38021874 56.24057573 -90 61 C-89.945652 58.9377952 -89.90705039 56.87517184 -89.875 54.8125 C-89.85179687 53.66394531 -89.82859375 52.51539063 -89.8046875 51.33203125 C-89.99890563 48.01867001 -90.72038847 46.01622719 -92 43 C-92.484375 40.0625 -92.484375 40.0625 -92.75 37 C-92.89695312 35.4840625 -92.89695312 35.4840625 -93.046875 33.9375 C-92.99706028 30.81577732 -92.33670125 28.79679031 -91 26 C-90.34 26.33 -89.68 26.66 -89 27 C-89.03480469 28.32064453 -89.03480469 28.32064453 -89.0703125 29.66796875 C-89.08835937 30.82941406 -89.10640625 31.99085938 -89.125 33.1875 C-89.15980469 34.91033203 -89.15980469 34.91033203 -89.1953125 36.66796875 C-89.00102438 39.98252416 -88.27654074 41.98141307 -87 45 C-85.79148387 52.34855773 -85.96530559 58.92062908 -87.50390625 66.16796875 C-88.64463323 72.67999286 -88.98938092 79.22973342 -86.75 85.5 C-82.46066365 89.39939669 -77.39284463 91.04411943 -72 93 C-70.331156 93.66119735 -68.66369202 94.3259443 -67 95 C-67 95.66 -67 96.32 -67 97 C-66.34 97 -65.68 97 -65 97 C-64.79503906 97.71027344 -64.59007812 98.42054688 -64.37890625 99.15234375 C-64.10949219 100.07144531 -63.84007812 100.99054688 -63.5625 101.9375 C-63.29566406 102.85402344 -63.02882812 103.77054687 -62.75390625 104.71484375 C-62.20973949 106.9402493 -62.20973949 106.9402493 -61 108 C-58.98688551 108.39569108 -56.96402792 108.74252191 -54.9375 109.0625 C-53.28041016 109.32740234 -53.28041016 109.32740234 -51.58984375 109.59765625 C-50.73519531 109.73042969 -49.88054687 109.86320312 -49 110 C-49.33 111.65 -49.66 113.3 -50 115 C-50.33 113.35 -50.66 111.7 -51 110 C-51.99 110 -52.98 110 -54 110 C-54 112.97 -54 115.94 -54 119 C-55 118 -55 118 -55.09765625 116.15234375 C-55.06510417 114.1015625 -55.03255208 112.05078125 -55 110 C-56.051875 109.814375 -56.051875 109.814375 -57.125 109.625 C-58.548125 109.315625 -58.548125 109.315625 -60 109 C-61.03125 108.79375 -62.0625 108.5875 -63.125 108.375 C-67.12421446 106.46233221 -67.44280924 104.03453971 -69 100 C-71.00661407 98.28341008 -71.00661407 98.28341008 -73 97 C-72.81824219 97.57105469 -72.63648438 98.14210938 -72.44921875 98.73046875 C-70.27440363 105.74564162 -68.58448337 112.83049367 -67 120 C-66.34 120 -65.68 120 -65 120 C-64.319375 120.928125 -64.319375 120.928125 -63.625 121.875 C-61.89720611 124.13442278 -60.59186772 124.92750301 -58 126 C-62.53070232 124.73561796 -65.64176274 123.32531337 -69 120 C-70.00390625 116.6796875 -70.00390625 116.6796875 -70.5625 112.875 C-71.60299378 106.51177144 -73.28717304 100.85254548 -76 95 C-77.14417457 98.82734453 -76.54150693 100.31751123 -75 104 C-74.10500495 108.38547574 -74.01292082 112.48795652 -74.125 116.9375 C-74.16560527 125.07885721 -72.1453188 130.54426404 -66.59375 136.53125 C-59.63462688 142.94455954 -49.27763822 143.47416909 -40.28515625 143.31640625 C-32.36510646 142.55359527 -25.55856644 139.70879797 -20 134 C-20 133.34 -20 132.68 -20 132 C-19.34 132 -18.68 132 -18 132 C-14.9288229 126.05420113 -14.53503097 121.00710597 -14.4375 114.375 C-14.24345845 104.02611721 -14.24345845 104.02611721 -12 99 C-12.33 98.01 -12.66 97.02 -13 96 C-15.82997012 101.56235506 -17.37832763 106.60360391 -18.375 112.75 C-19.79616681 120.66566093 -19.79616681 120.66566093 -23.1875 123.4375 C-24.115625 123.953125 -25.04375 124.46875 -26 125 C-25.89171875 124.1646875 -25.89171875 124.1646875 -25.78125 123.3125 C-25.15536104 118.16630192 -24.81482967 113.18476937 -25 108 C-25.33 107.67 -25.66 107.34 -26 107 C-24.71219908 101.81490683 -23.51244648 97.41973394 -19.01171875 94.109375 C-15.44496097 92.14246391 -11.63549105 90.77091284 -7.8046875 89.40625 C-4.3810476 87.68966175 -2.92881156 86.31500238 -1 83 C-0.68425111 80.19881493 -0.57148688 77.83908069 -0.6875 75.0625 C-0.69716797 74.37220703 -0.70683594 73.68191406 -0.71679688 72.97070312 C-0.8057776 68.88919612 -1.31559197 65.01483454 -2 61 C-2.51557066 52.8103584 -2.03640042 45.55963156 0.44140625 37.71875 C1.23717524 33.84563661 0.76873197 30.53746395 -1 27 C0.65 27.33 2.3 27.66 4 28 C4.52670414 40.79695991 4.52670414 40.79695991 1.66796875 47.078125 C0.43649103 50.62132406 0.76875279 54.30004469 1 58 C1.99 58 2.98 58 4 58 C4.81837442 56.58671871 5.62946219 55.16921654 6.4375 53.75 C6.88996094 52.96109375 7.34242188 52.1721875 7.80859375 51.359375 C10.36144987 46.30388287 10.21560038 41.36373879 10.25 35.8125 C10.270625 34.99974609 10.29125 34.18699219 10.3125 33.34960938 C10.38623982 21.76324012 5.71811773 13.60275926 -1.7421875 4.98828125 C-7.42290562 -0.63148495 -14.43859751 -2.84536343 -22 -5 C-22.65556885 -5.18691406 -23.3111377 -5.37382812 -23.98657227 -5.56640625 C-44.87149225 -10.90745212 -74.63009466 -8.91382941 -90.17578125 7.609375 Z M-62 116 C-60 117 -60 117 -60 117 Z " fill="#0A0909" transform="translate(286,391)"/>
<path d="M0 0 C1.16402344 -0.01160156 2.32804687 -0.02320313 3.52734375 -0.03515625 C14.83308298 0.00282496 27.545794 2.01345672 36.3359375 9.79296875 C45.15340814 19.6578185 46.38157385 32.72732879 45.75 45.375 C44.08584973 59.63613588 37.60616571 71.82676578 26.5 81 C23.6089137 83.2557839 21.38862834 84.75743464 17.75 85.375 C17.75 86.035 17.75 86.695 17.75 87.375 C12.42377896 89.39438933 7.09106193 91.39519284 1.75 93.375 C0.86570312 93.70371094 -0.01859375 94.03242188 -0.9296875 94.37109375 C-14.62744847 99.21297629 -30.76810617 100.7101182 -45.25 100.375 C-44.79109375 99.22644531 -44.3321875 98.07789063 -43.859375 96.89453125 C-32.92893891 69.32849008 -27.42708156 41.17067155 -25.61254883 11.59350586 C-24.95996715 7.60023332 -23.290668 6.01905913 -20.25 3.375 C-13.7189094 -0.36472037 -7.38934515 -0.07268208 0 0 Z " fill="#070606" transform="translate(423.25,395.625)"/>
<path d="M0 0 C4.18391722 0.7531051 5.34070659 2.38227496 8.125 5.5625 C9.59367477 7.97691231 10.89158964 10.28694544 12.125 12.8125 C12.4660376 13.5027124 12.8070752 14.1929248 13.15844727 14.90405273 C21.06469634 31.51446352 25.23073954 50.14462506 19.5625 68.0546875 C13.34789974 83.21966313 0.07886784 94.58012019 -12.4375 104.5859375 C-25.74674696 115.37837174 -30.01264902 128.87228784 -31.875 145.5625 C-32.06797454 150.06823103 -32.17024278 154.57835069 -32.21679688 159.08789062 C-32.42662642 165.9244299 -32.42662642 165.9244299 -34.703125 169.1640625 C-38.0305039 171.3065115 -40.01388676 171.30762712 -43.875 170.5625 C-48.123129 165.44156119 -50.83011692 159.87421265 -53.5 153.8125 C-53.89316406 152.92796143 -54.28632813 152.04342285 -54.69140625 151.13208008 C-60.85509454 137.00306987 -65.39108799 119.83344387 -60.25 104.6875 C-54.12949516 90.41330892 -42.19657548 79.43986581 -29.9609375 70.2109375 C-27.78067638 68.5617105 -27.78067638 68.5617105 -25.7265625 66.3515625 C-23.875 64.5625 -23.875 64.5625 -21.875 64.5625 C-21.60300781 63.9746875 -21.33101563 63.386875 -21.05078125 62.78125 C-19.89994379 60.60957001 -18.6290818 58.94735831 -17.0625 57.0625 C-7.23183241 44.10717034 -6.58710999 28.88589466 -6.39648438 13.26367188 C-6.37005859 12.19826172 -6.34363281 11.13285156 -6.31640625 10.03515625 C-6.30295166 9.07875244 -6.28949707 8.12234863 -6.27563477 7.13696289 C-5.61862162 2.91502283 -4.23433148 0.82845616 0 0 Z " fill="#050505" transform="translate(297.875,142.4375)"/>
<path d="M0 0 C5.68774608 3.03944024 9.05244666 6.81316029 11 13 C11.3101668 15.89978429 11.33364761 18.77305792 11.3125 21.6875 C11.30404053 22.89297485 11.30404053 22.89297485 11.29541016 24.12280273 C11.08505699 34.4290665 8.38395812 41.86805335 2 50 C1.28070313 50.92619141 1.28070313 50.92619141 0.546875 51.87109375 C-4.72504303 57.84859677 -11.85656781 60.82951192 -19 64 C-20.41539062 64.64001953 -20.41539062 64.64001953 -21.859375 65.29296875 C-29.11120448 68.26450243 -36.2138033 68.77266579 -44 69 C-42.9896318 63.68246684 -41.88094787 58.40334073 -40.59765625 53.14453125 C-36.16112426 34.92505847 -33.16785248 16.7259104 -32 -2 C-22.31235621 -5.2292146 -9.3989139 -3.22134849 0 0 Z " fill="#FBFBFB" transform="translate(444,411)"/>
<path d="M0 0 C2 1 2 1 3 3.5546875 C4.65230452 9.04085484 6.11583476 14.31400727 6.875 20 C7.47165724 23.64919832 8.08761557 25.6997594 10.875 28.1875 C13.97458971 30.33447873 13.97458971 30.33447873 18 30 C17.195625 29.54625 16.39125 29.0925 15.5625 28.625 C13 27 13 27 12 25 C11.34 25 10.68 25 10 25 C9.73445312 23.84242188 9.46890625 22.68484375 9.1953125 21.4921875 C8.83869236 19.95309007 8.48191309 18.41402952 8.125 16.875 C7.95097656 16.11445313 7.77695313 15.35390625 7.59765625 14.5703125 C6.60201572 10.29274576 5.47028611 6.14594191 4 2 C7.44877517 4.33025349 8.87668426 5.68902987 10.4375 9.625 C11.67222697 13.2221652 11.67222697 13.2221652 14.9375 14.4375 C18.13674316 15.12043435 18.13674316 15.12043435 22 15 C22 17.97 22 20.94 22 24 C23.20561184 23.01732141 23.20561184 23.01732141 23.09765625 21.15234375 C23.08605469 20.42144531 23.07445312 19.69054687 23.0625 18.9375 C23.041875 17.638125 23.02125 16.33875 23 15 C23.99 15 24.98 15 26 15 C26.33 16.65 26.66 18.3 27 20 C27.33 18.35 27.66 16.7 28 15 C36.08808989 13.39385449 43.7574683 12.73694048 52 13 C52 18.33333333 52 23.66666667 52 29 C55.41340424 26.79655044 56.82062346 25.59955037 58.00390625 21.64453125 C58.18824219 20.37996094 58.37257813 19.11539062 58.5625 17.8125 C59.56458553 11.66024785 61.17003202 6.56235085 64 1 C65 4 65 4 64.08984375 6.0390625 C62.19064833 11.19888375 62.60167052 16.71140454 62.52148438 22.1640625 C62.35488961 27.85266425 61.6199484 31.9277799 59 37 C58.34 37 57.68 37 57 37 C56.61908203 37.90878906 56.61908203 37.90878906 56.23046875 38.8359375 C53.65686481 43.36221237 48.47168448 45.39401227 43.8125 47.3125 C33.65944124 49.14337945 21.54277011 49.17893058 12.578125 43.453125 C7.45447939 39.22705234 4.26334043 34.59234005 3 28 C2.98056755 25.77082068 3.00611203 23.54105075 3.0625 21.3125 C3.11054371 15.5352442 2.53788188 10.54107058 1 5 C0.66013333 3.33465333 0.32297514 1.66870487 0 0 Z " fill="#64801F" transform="translate(209,486)"/>
<path d="M0 0 C0.66 0 1.32 0 2 0 C3.56338843 13.37255459 4.20018055 25.57265163 -4 37 C-9.4227342 43.55339754 -15.24403563 49.81049679 -22 55 C-22.66 55 -23.32 55 -24 55 C-24 55.66 -24 56.32 -24 57 C-25.50390625 58.4453125 -25.50390625 58.4453125 -27.5625 60.125 C-38.4556024 69.50304063 -45.32357337 80.62731026 -48.296875 94.79296875 C-49.08276278 97.25978318 -50.04206443 98.34866423 -52 100 C-54.69524422 89.77251077 -56.42993374 77.57110006 -51.2578125 67.9140625 C-45.95166009 59.83948275 -38.5623925 54.01590304 -31.0625 48.0625 C-14.64204407 34.96643086 -3.71577312 21.30376586 0 0 Z " fill="#ABC076" transform="translate(304,178)"/>
<path d="M0 0 C16.16136302 0.57719154 16.16136302 0.57719154 22.09375 4.6484375 C24.51002185 8.39782485 24.63017021 10.04502421 23.90625 14.4609375 C22.06410466 19.51903148 19.98302049 23.45439117 16.03125 27.1484375 C11.91434289 28.87753849 10.14124816 28.94690177 5.90625 27.4609375 C3.19976107 25.05580133 1.07011053 22.35322633 -1.09375 19.4609375 C-1.898125 18.4915625 -2.7025 17.5221875 -3.53125 16.5234375 C-5.57508037 12.51752997 -5.98635189 8.88373965 -5.09375 4.4609375 C-3.65213423 1.85789461 -2.955489 0.6506487 0 0 Z " fill="#020202" transform="translate(255.09375,442.5390625)"/>
<path d="M0 0 C2.08078738 2.92085682 1.90469746 5.49771237 1.8125 8.99609375 C0.47041174 15.69708371 -4.80753642 21.26696719 -9.7421875 25.765625 C-12.6171875 26.765625 -12.6171875 26.765625 -15.7421875 26.765625 C-20.5871499 24.3431438 -23.04048899 21.39710816 -25.7421875 16.765625 C-26.1546875 16.12625 -26.5671875 15.486875 -26.9921875 14.828125 C-28.16521749 11.60229253 -28.15968254 9.16522749 -27.7421875 5.765625 C-25.68604925 2.57506565 -23.9548688 1.13995749 -20.3125 0.015625 C-4.52328436 -3.20483825 -4.52328436 -3.20483825 0 0 Z " fill="#020101" transform="translate(231.7421875,444.234375)"/>
<path d="M0 0 C1.13021285 2.26042571 1.26934344 3.92910996 1.5 6.4375 C1.75623248 9.21487706 2.10887489 11.32662467 3 14 C4.32467746 14.6837045 5.65863633 15.34964186 7 16 C9 19 9 19 9 22 C6.12429623 23.43785189 3.70149748 22.94125588 0.5 22.8125 C-6.39647111 22.79153808 -10.89714715 23.96956 -17 27 C-18.39301469 27.65039352 -19.78769846 28.29721839 -21.18359375 28.94140625 C-24.1445374 30.31341918 -27.10000601 31.69565171 -30.046875 33.09765625 C-30.71783203 33.41621582 -31.38878906 33.73477539 -32.08007812 34.06298828 C-33.87094785 34.93701651 -35.63235296 35.87071362 -37.390625 36.80859375 C-38.68226563 37.39833984 -38.68226563 37.39833984 -40 38 C-40.66 37.67 -41.32 37.34 -42 37 C-40.92494553 31.23379874 -39.90185674 27.5839892 -35 24 C-31.17256329 21.904538 -27.22640721 20.10554252 -23.25 18.3125 C-21.14851995 17.35578024 -19.04941763 16.39381447 -16.953125 15.42578125 C-15.56335449 14.79796753 -15.56335449 14.79796753 -14.14550781 14.1574707 C-11.85371212 13.18646109 -11.85371212 13.18646109 -11 11 C-10.34 11 -9.68 11 -9 11 C-8.773125 10.113125 -8.54625 9.22625 -8.3125 8.3125 C-6.83745528 4.58976808 -4.48302954 0 0 0 Z " fill="#648120" transform="translate(317,463)"/>
<path d="M0 0 C3.00939661 0.20754459 3.94280587 0.93744392 6 3.1875 C8 6 8 6 9.6484375 8.921875 C12.5621241 12.73580364 15.3326267 14.12308714 19.625 16.0625 C20.33487061 16.40192627 21.04474121 16.74135254 21.77612305 17.09106445 C24.8908775 18.57786888 28.02793235 20.01274349 31.16796875 21.4453125 C37.49317637 24.41638491 37.49317637 24.41638491 40.0625 27.375 C41.2034029 30.56952811 41.66965928 33.63052464 42 37 C36.22360884 35.29879994 30.96145086 32.68441517 25.5625 30.0625 C22.85142545 28.75179753 20.13906997 27.44468207 17.41918945 26.15234375 C15.95751143 25.45609587 14.50108562 24.74844443 13.05541992 24.01953125 C8.65160265 21.90818875 5.02820699 21.71090824 0.1875 21.875 C-6.83410997 22.08294501 -6.83410997 22.08294501 -9 21 C-8.8125 18.75 -8.8125 18.75 -8 16 C-7.195625 15.46375 -6.39125 14.9275 -5.5625 14.375 C-2.01616482 11.08815276 -1.97796992 8.03367289 -1.359375 3.36328125 C-1 1 -1 1 0 0 Z " fill="#64811F" transform="translate(166,464)"/>
<path d="M0 0 C3.44877517 2.33025349 4.87668426 3.68902987 6.4375 7.625 C7.67222697 11.2221652 7.67222697 11.2221652 10.9375 12.4375 C14.13674316 13.12043435 14.13674316 13.12043435 18 13 C18 15.97 18 18.94 18 22 C19.20561184 21.01732141 19.20561184 21.01732141 19.09765625 19.15234375 C19.08605469 18.42144531 19.07445312 17.69054687 19.0625 16.9375 C19.041875 15.638125 19.02125 14.33875 19 13 C19.99 13 20.98 13 22 13 C22.33 14.65 22.66 16.3 23 18 C23.33 16.35 23.66 14.7 24 13 C25.39445749 12.80252781 26.79068152 12.61751413 28.1875 12.4375 C29.35345703 12.28087891 29.35345703 12.28087891 30.54296875 12.12109375 C33 12 33 12 38 13 C38 18.28 38 23.56 38 29 C34.78548731 30.60725635 31.56387464 30.05748185 28 30 C27.67 30.66 27.34 31.32 27 32 C22.49793215 32.17655168 19.01025005 32.17699288 15 30 C14.34 29.01 13.68 28.02 13 27 C11.67479497 26.31731862 10.34187818 25.6492959 9 25 C8.67 24.34 8.34 23.68 8 23 C7.34 23 6.68 23 6 23 C5.73445312 21.84242188 5.46890625 20.68484375 5.1953125 19.4921875 C4.83869236 17.95309007 4.48191309 16.41402952 4.125 14.875 C3.95097656 14.11445313 3.77695313 13.35390625 3.59765625 12.5703125 C2.60201572 8.29274576 1.47028611 4.14594191 0 0 Z " fill="#141313" transform="translate(213,488)"/>
<path d="M0 0 C1.99097846 2.98646769 2.94124926 5.59687262 4 9 C-1.27894578 12.29350157 -6.49069115 15.23564553 -12.1875 17.75 C-18.58198747 20.84437231 -21.42321968 25.04583874 -25 31 C-25.66 31.66 -26.32 32.32 -27 33 C-27.99 33 -28.98 33 -30 33 C-31.14369014 30.71261971 -31.06387536 29.34917253 -31.125 26.8125 C-31.50060694 22.71377168 -32.56015313 20.97841399 -35.5625 18.1875 C-36.20316406 17.66542969 -36.84382812 17.14335938 -37.50390625 16.60546875 C-39 15 -39 15 -39 11 C-38.01 11.03480469 -37.02 11.06960938 -36 11.10546875 C-34.66668384 11.1336374 -33.33334906 11.16093422 -32 11.1875 C-30.0509375 11.23970703 -30.0509375 11.23970703 -28.0625 11.29296875 C-20.59962277 11.06581428 -14.0106959 7.14621744 -7.5 3.8125 C-6.77296875 3.44447266 -6.0459375 3.07644531 -5.296875 2.69726562 C-3.5293675 1.80188354 -1.76440761 0.90147525 0 0 Z " fill="#65811F" transform="translate(207,514)"/>
<path d="M0 0 C0.60996826 0.26216309 1.21993652 0.52432617 1.84838867 0.79443359 C4.62781719 1.98859756 7.4076543 3.18180751 10.1875 4.375 C11.14720703 4.7875 12.10691406 5.2 13.09570312 5.625 C14.02705078 6.02460937 14.95839844 6.42421875 15.91796875 6.8359375 C16.77156982 7.20251465 17.6251709 7.5690918 18.50463867 7.94677734 C19.32810791 8.29434082 20.15157715 8.6419043 21 9 C21.86254395 9.37133057 22.72508789 9.74266113 23.61376953 10.12524414 C26.73609262 11.26984038 29.37510273 11.1569241 32.6875 11.0625 C38.80624327 10.90312164 38.80624327 10.90312164 41 12 C39.86993122 14.7738052 38.91903757 16.06643072 36.5625 18 C32.78116308 22.42693103 32.10259423 27.37945866 31 33 C26.87422333 31.70076045 25.35269458 30.53433569 23.3125 26.75 C19.86152449 21.2618074 15.69711331 18.87229463 10 16 C8.3603125 15.15888672 8.3603125 15.15888672 6.6875 14.30078125 C3.80330083 12.84167577 0.90874191 11.40939041 -2 10 C-1.33333333 6.66666667 -0.66666667 3.33333333 0 0 Z " fill="#64811F" transform="translate(275,514)"/>
<path d="M0 0 C3.44877517 2.33025349 4.87668426 3.68902987 6.4375 7.625 C7.67222697 11.2221652 7.67222697 11.2221652 10.9375 12.4375 C14.13674316 13.12043435 14.13674316 13.12043435 18 13 C18.09038099 18.15171623 17.84681133 22.91913204 17 28 C11.42825929 27.50473416 11.42825929 27.50473416 9.25 24.9375 C8.8375 24.298125 8.425 23.65875 8 23 C7.34 23 6.68 23 6 23 C5.73445312 21.84242188 5.46890625 20.68484375 5.1953125 19.4921875 C4.83869236 17.95309007 4.48191309 16.41402952 4.125 14.875 C3.95097656 14.11445313 3.77695313 13.35390625 3.59765625 12.5703125 C2.60201572 8.29274576 1.47028611 4.14594191 0 0 Z " fill="#454040" transform="translate(213,488)"/>
<path d="M0 0 C4.14985236 1.81827913 5.68951593 4.09607865 8 8 C8.97551509 10.92654527 9.16478088 12.94654996 9.1875 16 C9.20167969 16.86625 9.21585938 17.7325 9.23046875 18.625 C9 21 9 21 7 24 C4.625 23.6875 4.625 23.6875 2 23 C-0.13604308 19.79593538 -0.24208908 19.00399253 -0.1953125 15.33203125 C-0.18564453 13.99301758 -0.18564453 13.99301758 -0.17578125 12.62695312 C-0.15902344 11.69818359 -0.14226562 10.76941406 -0.125 9.8125 C-0.11597656 8.87212891 -0.10695312 7.93175781 -0.09765625 6.96289062 C-0.07409056 4.64167032 -0.04119116 2.32096356 0 0 Z " fill="#030202" transform="translate(243,466)"/>
<path d="M0 0 C0.11638036 3.24969769 0.18730581 6.4988583 0.25 9.75 C0.28351563 10.67039062 0.31703125 11.59078125 0.3515625 12.5390625 C0.45048923 19.36500687 0.45048923 19.36500687 -1.87890625 22.6484375 C-4 24 -4 24 -6.1875 23.875 C-8 23 -8 23 -9 21 C-9.77775521 14.14045403 -8.95319037 8.72485429 -5 3 C-2.36734694 0 -2.36734694 0 0 0 Z " fill="#030202" transform="translate(240,466)"/>
<path d="M0 0 C3.96 0 7.92 0 12 0 C12.054138 2.24973447 12.09285491 4.49984383 12.125 6.75 C12.14820313 8.00296875 12.17140625 9.2559375 12.1953125 10.546875 C12.01510724 13.73290404 11.8410988 15.43874351 10 18 C7.12060581 18.93580311 5.74490212 19.37245106 3 18 C3.03480469 16.86820313 3.06960937 15.73640625 3.10546875 14.5703125 C3.13360336 13.08855647 3.16090387 11.60678444 3.1875 10.125 C3.21263672 9.37863281 3.23777344 8.63226563 3.26367188 7.86328125 C3.3298764 5.43778172 3.3298764 5.43778172 3 2 C2.01 1.34 1.02 0.68 0 0 Z " fill="#0A0909" transform="translate(249,499)"/>
<path d="M0 0 C1.32 0 2.64 0 4 0 C4.09038099 5.15171623 3.84681133 9.91913204 3 15 C0.03 14.505 0.03 14.505 -3 14 C-2.40380045 9.13103697 -1.43023178 4.67209049 0 0 Z " fill="#383131" transform="translate(227,501)"/>
<path d="M0 0 C2.64 0 5.28 0 8 0 C7.01 0.495 7.01 0.495 6 1 C6 6.28 6 11.56 6 17 C6.66 17 7.32 17 8 17 C8 17.66 8 18.32 8 19 C4.85069107 20.04976964 2.61185544 20.10131595 -0.6875 20.0625 C-1.68136719 20.05347656 -2.67523438 20.04445313 -3.69921875 20.03515625 C-4.83810547 20.01775391 -4.83810547 20.01775391 -6 20 C-5.505 18.515 -5.505 18.515 -5 17 C-1.7 17 1.6 17 5 17 C5 14.69 5 12.38 5 10 C4.01 9.67 3.02 9.34 2 9 C2.99 9 3.98 9 5 9 C5 6.36 5 3.72 5 1 C3.35 1.33 1.7 1.66 0 2 C0 1.34 0 0.68 0 0 Z " fill="#050404" transform="translate(246,500)"/>
<path d="M0 0 C4.27219099 2.92307805 5.99730929 4.89539273 7 10 C7.14857292 14.00634571 7.1167025 17.993214 7 22 C4.75873562 18.63810342 3.90985508 15.41864582 2.9375 11.5625 C2.76412109 10.89412109 2.59074219 10.22574219 2.41210938 9.53710938 C1.59090782 6.36242599 0.78956837 3.1826931 0 0 Z " fill="#D3C7C7" transform="translate(213,488)"/>
<path d="M0 0 C0.66 0.33 1.32 0.66 2 1 C1.79503906 1.70125 1.59007812 2.4025 1.37890625 3.125 C0.10230157 7.6206031 -1.10492387 11.96450235 -1.5625 16.625 C-1.7790625 18.295625 -1.7790625 18.295625 -2 20 C-2.66 20.33 -3.32 20.66 -4 21 C-4 16.71 -4 12.42 -4 8 C-3.34 8 -2.68 8 -2 8 C-1.855625 6.865625 -1.71125 5.73125 -1.5625 4.5625 C-1 1 -1 1 0 0 Z " fill="#D3C7C7" transform="translate(267,490)"/>
<path d="M0 0 C0.33 0 0.66 0 1 0 C1.28875 1.134375 1.5775 2.26875 1.875 3.4375 C2.24625 4.613125 2.6175 5.78875 3 7 C3.66 7.33 4.32 7.66 5 8 C5 6.02 5 4.04 5 2 C5.33 2 5.66 2 6 2 C6 4.31 6 6.62 6 9 C6.66 9.33 7.32 9.66 8 10 C5 11 5 11 3.2109375 10.328125 C2.30214844 9.79445313 2.30214844 9.79445313 1.375 9.25 C0.45847656 8.73179687 0.45847656 8.73179687 -0.4765625 8.203125 C-2 7 -2 7 -3 4 C-2.01 4 -1.02 4 0 4 C0 2.68 0 1.36 0 0 Z " fill="#090808" transform="translate(221,507)"/>
<path d="M0 0 C3.96 0 7.92 0 12 0 C10.68 0.33 9.36 0.66 8 1 C8 2.65 8 4.3 8 6 C7.01 6.495 7.01 6.495 6 7 C6 5.02 6 3.04 6 1 C5.01 1 4.02 1 3 1 C3.08378906 1.59167969 3.16757813 2.18335938 3.25390625 2.79296875 C3.80889424 7.09939457 4.23226652 10.75552644 3 15 C2.67 15 2.34 15 2 15 C0.86983399 9.97703996 1.22083908 6.02125926 2 1 C1.34 0.67 0.68 0.34 0 0 Z " fill="#020202" transform="translate(229,500)"/>
<path d="M0 0 C1.32 0 2.64 0 4 0 C4 2.31 4 4.62 4 7 C2.68 7 1.36 7 0 7 C0 4.69 0 2.38 0 0 Z " fill="#D4C8C8" transform="translate(237,511)"/>
<path d="M0 0 C1.32 0 2.64 0 4 0 C4 2.31 4 4.62 4 7 C2.68 7 1.36 7 0 7 C0 4.69 0 2.38 0 0 Z " fill="#D8CDCD" transform="translate(237,502)"/>
<path d="M0 0 C0 2.31 0 4.62 0 7 C-1.32 7.33 -2.64 7.66 -4 8 C-4 5.69 -4 3.38 -4 1 C-1 0 -1 0 0 0 Z " fill="#C6BBBB" transform="translate(256,509)"/>
<path d="M0 0 C1.32 0 2.64 0 4 0 C4 1.98 4 3.96 4 6 C2.68 6.33 1.36 6.66 0 7 C0 4.69 0 2.38 0 0 Z " fill="#D2C7C7" transform="translate(252,501)"/>
<path d="M0 0 C0.66 0.66 1.32 1.32 2 2 C1.9765625 4.8203125 1.9765625 4.8203125 1.625 8.125 C1.51414062 9.22070312 1.40328125 10.31640625 1.2890625 11.4453125 C1.19367188 12.28835938 1.09828125 13.13140625 1 14 C-1.36574234 10.4513865 -1.10865265 9.4235475 -0.625 5.3125 C-0.51414062 4.31863281 -0.40328125 3.32476562 -0.2890625 2.30078125 C-0.19367188 1.54152344 -0.09828125 0.78226562 0 0 Z " fill="#161313" transform="translate(266,497)"/>
<path d="M0 0 C0.99 0 1.98 0 3 0 C3 2.64 3 5.28 3 8 C2.01 8 1.02 8 0 8 C0 5.36 0 2.72 0 0 Z " fill="#B0A5A5" transform="translate(248,501)"/>
<path d="M0 0 C0.99 0 1.98 0 3 0 C3 2.64 3 5.28 3 8 C2.01 8 1.02 8 0 8 C0 5.36 0 2.72 0 0 Z " fill="#B7AAAA" transform="translate(232,501)"/>
<path d="M0 0 C0.99 0 1.98 0 3 0 C3 2.31 3 4.62 3 7 C2.01 7 1.02 7 0 7 C0 4.69 0 2.38 0 0 Z " fill="#B6ACAC" transform="translate(248,510)"/>
<path d="M0 0 C0.99 0 1.98 0 3 0 C3 2.31 3 4.62 3 7 C2.01 7 1.02 7 0 7 C0 4.69 0 2.38 0 0 Z " fill="#DDD1D1" transform="translate(243,511)"/>
<path d="M0 0 C0.99 0 1.98 0 3 0 C3 2.31 3 4.62 3 7 C2.01 7 1.02 7 0 7 C0 4.69 0 2.38 0 0 Z " fill="#DACCCC" transform="translate(243,502)"/>
<path d="M0 0 C0.99 0 1.98 0 3 0 C3 2.31 3 4.62 3 7 C2.01 6.67 1.02 6.34 0 6 C0 4.02 0 2.04 0 0 Z " fill="#FAFAFA" transform="translate(227,501)"/>
<path d="M0 0 C0.99 0.33 1.98 0.66 3 1 C3 2.98 3 4.96 3 7 C2.01 7 1.02 7 0 7 C0 4.69 0 2.38 0 0 Z " fill="#DED2D2" transform="translate(227,509)"/>
<path d="M0 0 C0.66 0.99 1.32 1.98 2 3 C0.02 5.31 -1.96 7.62 -4 10 C-4 5.75354935 -2.18249194 3.61475228 0 0 Z " fill="#DBDBDB" transform="translate(293,141)"/>
<path d="M0 0 C0.99 0 1.98 0 3 0 C3 1.98 3 3.96 3 6 C2.01 6 1.02 6 0 6 C0 4.02 0 2.04 0 0 Z " fill="#E0D4D4" transform="translate(232,511)"/>
<path d="M0 0 C0.99 0.33 1.98 0.66 3 1 C3 2.98 3 4.96 3 7 C2.01 6.67 1.02 6.34 0 6 C0 4.02 0 2.04 0 0 Z " fill="#CDC2C2" transform="translate(222,507)"/>
<path d="M0 0 C0 1.98 0 3.96 0 6 C-0.99 6.33 -1.98 6.66 -3 7 C-3 5.02 -3 3.04 -3 1 C-1 0 -1 0 0 0 Z " fill="#DBCFCF" transform="translate(261,507)"/>
<path d="M0 0 C0.99 0.33 1.98 0.66 3 1 C3 2.98 3 4.96 3 7 C2.01 6.67 1.02 6.34 0 6 C0 4.02 0 2.04 0 0 Z " fill="#CCC1C1" transform="translate(222,499)"/>
<path d="M0 0 C0 1.98 0 3.96 0 6 C-0.99 6.33 -1.98 6.66 -3 7 C-3 5.02 -3 3.04 -3 1 C-1 0 -1 0 0 0 Z " fill="#D9CDCD" transform="translate(261,499)"/>
<path d="M0 0 C0.66 0 1.32 0 2 0 C2 2.31 2 4.62 2 7 C0.4375 5.75 0.4375 5.75 -1 4 C-0.6875 1.8125 -0.6875 1.8125 0 0 Z " fill="#92A072" transform="translate(304,178)"/>
</svg>
